<?xml version="1.0" encoding="utf-8"?>
<!-- Generator: Adobe Illustrator 16.0.0, SVG Export Plug-In . SVG Version: 6.00 Build 0)  -->
<!DOCTYPE svg PUBLIC "-//W3C//DTD SVG 1.1//EN" "http://www.w3.org/Graphics/SVG/1.1/DTD/svg11.dtd">
<svg version="1.1" id="Layer_1_1_" xmlns="http://www.w3.org/2000/svg" xmlns:xlink="http://www.w3.org/1999/xlink" x="0px" y="0px"
	 width="771.56px" height="800.86px" viewBox="0 0 771.56 800.86" style="enable-background:new 0 0 771.56 800.86;"
	 xml:space="preserve">
<g>
	<rect style="fill:#FFFFFF;" width="771.56" height="800.86"/>
	<g>
		<path style="fill:#E6E8EA;" d="M669.42,541.01l-1.54,0c-6.57-36.78-34.32-72.6-83.26-100.85
			c-112.56-64.99-294.49-65.32-406.35-0.74c-48.17,27.81-75.47,63.13-81.98,99.52l-1.54-0.01v17.18l0.01,0
			c0.03,42.61,28.3,85.3,84.79,117.91c112.56,64.99,294.49,65.32,406.35,0.74c55.71-32.16,83.52-74.36,83.51-116.64l0.01,0V541.01z"
			/>
		<path style="fill:#ABCCFF;" d="M669.42,535.17l-0.21,0c-2.53-40.61-30.73-80.88-84.59-111.97
			c-112.56-64.99-294.49-65.32-406.35-0.73c-52.78,30.47-80.51,69.94-83.28,109.97h-0.24v6.74l0.01,0
			c0.04,42.6,28.31,85.29,84.79,117.89c112.56,64.99,294.49,65.32,406.35,0.73c55.13-31.83,82.93-73.49,83.49-115.34l0.03-0.01
			V535.17z"/>
		<path style="fill:#DDEAFF;" d="M585.89,652.03c-111.86,64.58-293.79,64.25-406.35-0.73c-112.56-64.99-113.13-170.02-1.27-234.61
			c111.86-64.58,293.79-64.25,406.35,0.73C697.18,482.41,697.75,587.45,585.89,652.03z"/>
		<path style="fill:#DDEAFF;" d="M582.05,646.68c-109.75,63.37-288.25,63.04-398.69-0.72c-110.44-63.76-111-166.82-1.25-230.18
			c109.75-63.36,288.25-63.04,398.69,0.72C691.24,480.26,691.8,583.32,582.05,646.68z"/>
	</g>
	<g>
		<path style="fill:#5C95D1;" d="M214.15,758.54c6.68,0,10.41,3.58,10.41,9.29v0.88h-4.98v-0.95c0-2.92-1.81-4.9-5.43-4.9
			c-3.73,0-5.96,2.63-5.96,5.85v6.29c0,3.51,2.07,5.85,5.96,5.85c3.96,0,5.43-2.01,5.43-4.9v-0.95h4.98v0.88
			c0,5.67-3.43,9.29-10.41,9.29c-6.49,0-10.94-3.58-10.94-10.38v-5.85C203.21,762.56,207.47,758.54,214.15,758.54z"/>
		<path style="fill:#5C95D1;" d="M232.55,759.05v16.74c0,3.11,1.92,5.05,5.36,5.05c3.43,0,5.36-1.94,5.36-5.05v-16.74h4.98v16.52
			c0,5.85-3.73,9.58-10.34,9.58c-6.6,0-10.33-3.73-10.33-9.58v-16.52H232.55z"/>
		<path style="fill:#5C95D1;" d="M271.25,766.66v1.1h-4.83v-0.77c0-2.93-1.92-4.21-4.94-4.21c-2.64,0-4.26,1.28-4.26,3.04
			c0,2.41,2.34,2.85,5.51,3.55l0.34,0.07c5.43,1.17,8.64,3.03,8.64,7.68c0,5.16-4.15,8.04-9.77,8.04c-6.45,0-10.6-3.36-10.6-9.36
			v-0.8h4.9v0.66c0,3.14,1.85,5.26,5.85,5.26c3.21,0,4.71-1.64,4.71-3.54c0-2.23-1.96-2.96-5.43-3.69l-0.34-0.07
			c-5.47-1.17-8.71-3-8.71-7.64c0-4.57,4.04-7.42,9.17-7.42C267.14,758.54,271.25,761.54,271.25,766.66z"/>
		<path style="fill:#5C95D1;" d="M294.03,759.05v4.39h-8v21.2h-4.98v-21.2h-8v-4.39H294.03z"/>
		<path style="fill:#5C95D1;" d="M305.76,758.54c6.75,0,10.86,4.06,10.86,10.6v5.41c0,6.73-4.11,10.6-10.86,10.6
			s-10.86-3.88-10.86-10.6v-5.41C294.9,762.6,299.01,758.54,305.76,758.54z M299.88,774.77c0,3.69,1.89,6.07,5.88,6.07
			c4.11,0,5.88-2.52,5.88-6.07v-5.85c0-3.62-2.19-6.07-5.88-6.07c-3.81,0-5.88,2.6-5.88,6.07V774.77z"/>
		<path style="fill:#5C95D1;" d="M328.54,759.05l5.58,20.55h0.45l5.58-20.55h8.6v25.59h-4.83v-20.47h-0.45l-5.47,20.47h-7.32
			l-5.47-20.47h-0.45v20.47h-4.83v-25.59H328.54z"/>
		<path style="fill:#5C95D1;" d="M370.49,759.05v4.39h-12.37v6.11h11.32v4.39h-11.32v6.32h12.6v4.39h-17.58v-25.59H370.49z"/>
		<path style="fill:#5C95D1;" d="M388.36,774.77l5.36,9.87h-5.51l-4.87-9.47h-4.41v9.47h-4.98v-25.55h11.62
			c4.98,0,8.45,3.18,8.45,8.04C394.02,771.01,391.76,773.79,388.36,774.77z M378.93,770.79h6.15c2.38,0,3.96-1.43,3.96-3.66
			s-1.59-3.66-3.96-3.66h-6.15V770.79z"/>
		<path style="fill:#5C95D1;" d="M426.16,766.66v1.1h-4.83v-0.77c0-2.93-1.92-4.21-4.94-4.21c-2.64,0-4.26,1.28-4.26,3.04
			c0,2.41,2.34,2.85,5.51,3.55l0.34,0.07c5.43,1.17,8.64,3.03,8.64,7.68c0,5.16-4.15,8.04-9.77,8.04c-6.45,0-10.6-3.36-10.6-9.36
			v-0.8h4.9v0.66c0,3.14,1.85,5.26,5.85,5.26c3.21,0,4.71-1.64,4.71-3.54c0-2.23-1.96-2.96-5.43-3.69l-0.34-0.07
			c-5.47-1.17-8.71-3-8.71-7.64c0-4.57,4.04-7.42,9.17-7.42C422.04,758.54,426.16,761.54,426.16,766.66z"/>
		<path style="fill:#5C95D1;" d="M434.98,759.05v16.74c0,3.11,1.92,5.05,5.36,5.05c3.43,0,5.36-1.94,5.36-5.05v-16.74h4.98v16.52
			c0,5.85-3.73,9.58-10.34,9.58c-6.6,0-10.33-3.73-10.33-9.58v-16.52H434.98z"/>
		<path style="fill:#5C95D1;" d="M465.76,759.05c4.98,0,8.45,3.21,8.45,8.12c0,4.9-3.58,8.12-8.45,8.12h-5.88v9.36h-4.98v-25.59
			H465.76z M459.88,770.9h5.39c2.38,0,3.96-1.46,3.96-3.73s-1.58-3.73-3.96-3.73h-5.39V770.9z"/>
		<path style="fill:#5C95D1;" d="M487.71,759.05c4.98,0,8.45,3.21,8.45,8.12c0,4.9-3.58,8.12-8.45,8.12h-5.88v9.36h-4.98v-25.59
			H487.71z M481.82,770.9h5.39c2.38,0,3.96-1.46,3.96-3.73s-1.59-3.73-3.96-3.73h-5.39V770.9z"/>
		<path style="fill:#5C95D1;" d="M508.6,758.54c6.75,0,10.86,4.06,10.86,10.6v5.41c0,6.73-4.11,10.6-10.86,10.6
			s-10.86-3.88-10.86-10.6v-5.41C497.74,762.6,501.85,758.54,508.6,758.54z M502.72,774.77c0,3.69,1.89,6.07,5.88,6.07
			c4.11,0,5.88-2.52,5.88-6.07v-5.85c0-3.62-2.19-6.07-5.88-6.07c-3.81,0-5.88,2.6-5.88,6.07V774.77z"/>
		<path style="fill:#5C95D1;" d="M537.19,774.77l5.36,9.87h-5.51l-4.87-9.47h-4.41v9.47h-4.98v-25.55h11.62
			c4.98,0,8.45,3.18,8.45,8.04C542.85,771.01,540.59,773.79,537.19,774.77z M527.76,770.79h6.15c2.38,0,3.96-1.43,3.96-3.66
			s-1.58-3.66-3.96-3.66h-6.15V770.79z"/>
		<path style="fill:#5C95D1;" d="M564.92,759.05v4.39h-8v21.2h-4.98v-21.2h-8v-4.39H564.92z"/>
	</g>
	<g>
		<g>
			<g>
				<path style="fill:#009EF2;" d="M380.29,598.45c-31.59,0-63.24-6.97-87.37-20.9c-23.53-13.58-36.49-31.66-36.49-50.9
					c0-19.07,12.77-36.95,35.95-50.33c47.75-27.57,125.69-27.43,173.74,0.31c23.53,13.58,36.49,31.66,36.49,50.9
					c0,19.07-12.77,36.95-35.95,50.33C442.89,591.59,411.62,598.45,380.29,598.45z M378.76,457.31c-31.04,0-62.01,6.79-85.57,20.39
					c-22.66,13.09-35.14,30.47-35.14,48.94c0,18.64,12.67,36.23,35.69,49.52c47.61,27.48,124.83,27.63,172.14,0.31
					c22.66-13.09,35.14-30.47,35.14-48.94c0-18.64-12.67-36.23-35.69-49.52C441.42,464.22,410.05,457.31,378.76,457.31z"/>
			</g>
		</g>
		<g>
			<g>
				<path style="fill:#009EF2;" d="M380.65,631.03c-46.24,0-92.57-10.2-127.89-30.59c-34.27-19.79-53.15-46.07-53.15-74
					c0-27.68,18.59-53.66,52.36-73.15c69.9-40.36,183.98-40.15,254.31,0.46l0,0c34.27,19.79,53.15,46.07,53.15,73.99
					c0,27.68-18.59,53.66-52.35,73.15C472.28,620.99,426.51,631.03,380.65,631.03z M378.39,423.71
					c-45.76,0-91.41,10.01-126.14,30.06c-33.58,19.39-52.08,45.2-52.08,72.67c0,27.72,18.78,53.83,52.87,73.51
					c70.18,40.52,184.01,40.72,253.75,0.46c33.58-19.39,52.07-45.2,52.07-72.67c0-27.72-18.78-53.83-52.87-73.51
					C470.77,433.89,424.53,423.71,378.39,423.71z"/>
			</g>
		</g>
		<g>
			<g>
				<g>
					<g style="enable-background:new    ;">
						<g style="enable-background:new    ;">
							<defs>
								<path id="SVGID_1_" style="enable-background:new    ;" d="M461.4,251.4c-0.71-0.44-0.97-0.61-1.55-1.12
									c-0.64-0.56-1.13-1.2-1.23-1.33c-0.55-0.77-0.76-1.09-1.18-2.02c-0.34-0.75-0.5-1.49-0.59-1.93
									c0.22,1.15,0.97,2.19,2.26,2.94C459.41,249.49,460.25,250.73,461.4,251.4z"/>
							</defs>
							<clipPath id="SVGID_2_">
								<use xlink:href="#SVGID_1_"  style="overflow:visible;"/>
							</clipPath>
							<g style="clip-path:url(#SVGID_2_);enable-background:new    ;">
								<path style="fill:#F5183F;" d="M461.4,251.4c-1.57-0.99-3.76-2.74-4.55-6.41c0.22,1.15,0.97,2.19,2.26,2.94
									C459.41,249.49,460.25,250.73,461.4,251.4L461.4,251.4z"/>
								<path style="fill:#F5183F;" d="M459.12,247.94c0.3,1.55,1.13,2.79,2.29,3.46c-0.17-0.11-0.41-0.26-0.58-0.37
									c-0.29-0.22-0.68-0.52-0.96-0.76l-0.48-0.47c-0.23-0.25-0.53-0.6-0.75-0.87l-0.38-0.53c-0.16-0.27-0.38-0.63-0.53-0.91
									l-0.27-0.57c-0.11-0.27-0.24-0.63-0.34-0.9l-0.16-0.59l-0.1-0.44C457.07,246.15,457.82,247.19,459.12,247.94L459.12,247.94z
									"/>
								<path style="fill:#F01837;" d="M459.12,247.94c0.3,1.55,1.13,2.79,2.29,3.46c-0.17-0.11-0.41-0.26-0.58-0.37
									c-0.29-0.22-0.68-0.52-0.96-0.76l-0.48-0.47c-0.23-0.25-0.53-0.6-0.75-0.87l-0.38-0.53c-0.16-0.27-0.38-0.63-0.53-0.91
									l-0.27-0.57c-0.11-0.27-0.24-0.63-0.34-0.9l-0.16-0.59l-0.1-0.44C457.07,246.15,457.82,247.19,459.12,247.94L459.12,247.94z
									"/>
								<path style="fill:#EB172F;" d="M459.12,247.94c0.3,1.55,1.13,2.79,2.29,3.46c-0.17-0.11-0.41-0.26-0.58-0.37
									c-0.29-0.22-0.68-0.52-0.96-0.76l-0.48-0.47c-0.23-0.25-0.53-0.6-0.75-0.87l-0.38-0.53c-0.16-0.27-0.38-0.63-0.53-0.91
									l-0.27-0.57c-0.11-0.27-0.24-0.63-0.34-0.9l-0.16-0.59l-0.1-0.44C457.07,246.15,457.82,247.19,459.12,247.94L459.12,247.94z
									"/>
							</g>
						</g>
						<g style="enable-background:new    ;">
							<defs>
								<path id="SVGID_3_" style="enable-background:new    ;" d="M462.84,252.24l-1.44-0.83c-1.16-0.67-1.99-1.91-2.29-3.46
									l1.44,0.83C460.85,250.32,461.68,251.56,462.84,252.24z"/>
							</defs>
							<clipPath id="SVGID_4_">
								<use xlink:href="#SVGID_3_"  style="overflow:visible;"/>
							</clipPath>
							<g style="clip-path:url(#SVGID_4_);enable-background:new    ;">
								<path style="fill:#EB172F;" d="M462.84,252.24l-1.44-0.83c-1.16-0.67-1.99-1.91-2.29-3.46l1.44,0.83
									C460.85,250.32,461.68,251.56,462.84,252.24L462.84,252.24z"/>
							</g>
						</g>
						<g style="enable-background:new    ;">
							<defs>
								<path id="SVGID_5_" style="enable-background:new    ;" d="M476.39,246.11c-0.32,0.74-1.18,2.71-2.29,4.08
									c-0.45,0.56-0.8,0.95-1.41,1.45c-0.45,0.38-1.16,0.81-1.53,0.98c-0.54,0.24-1.09,0.5-1.97,0.68
									c-0.72,0.15-1.45,0.21-2.16,0.17c-2.11-0.1-3.51-0.87-4.19-1.24c-1.16-0.67-1.99-1.91-2.29-3.46
									c3.18,1.85,8.41,1.21,11.68-1.42c0.13,0.77,1.03,1.19,1.18,1.02c-0.02,0.01-0.03,0.02-0.03,0.02c0-0.02,0.34-0.42,1-1.88
									C475.58,246.61,476.24,246.46,476.39,246.11z"/>
							</defs>
							<clipPath id="SVGID_6_">
								<use xlink:href="#SVGID_5_"  style="overflow:visible;"/>
							</clipPath>
							<g style="clip-path:url(#SVGID_6_);enable-background:new    ;">
								<path style="fill:#F5183F;" d="M476.39,246.11c-0.73,1.68-2.26,5.17-5.22,6.51c-2.77,1.25-5.57,1.12-8.33-0.39
									c-1.16-0.67-1.99-1.91-2.29-3.46c3.18,1.85,8.41,1.21,11.68-1.42c0.13,0.77,1.03,1.19,1.18,1.02
									c-0.02,0.01-0.03,0.02-0.03,0.02c0-0.02,0.34-0.42,1-1.88C475.58,246.61,476.24,246.46,476.39,246.11L476.39,246.11z"/>
								<path style="fill:#F5183F;" d="M471.04,248.18c0.23-0.07,0.62-0.09,1.18,0.21c0.93,0.5,1.15,0.24,1.2,0.14
									c0-0.05,0-0.11,0-0.16c0,0.04,0,0.11,0.01,0.15c0.19-0.08,0.65-0.84,1.2-2c1.04,0.07,1.63-0.09,1.77-0.42
									c-0.07,0.15-0.15,0.35-0.22,0.5c-0.07,0.14-0.15,0.33-0.22,0.48l-0.22,0.45c-0.06,0.13-0.15,0.3-0.22,0.42l-0.21,0.4
									c-0.07,0.11-0.15,0.26-0.21,0.37l-0.21,0.35c-0.1,0.16-0.23,0.37-0.34,0.52l-0.21,0.3c-0.06,0.09-0.15,0.2-0.21,0.29
									l-0.22,0.27c-0.07,0.08-0.15,0.18-0.22,0.26l-0.23,0.25c-0.07,0.07-0.17,0.17-0.24,0.24l-0.25,0.23
									c-0.08,0.07-0.18,0.16-0.27,0.22l-0.27,0.21c-0.09,0.06-0.21,0.15-0.31,0.21l-0.29,0.19l-0.14,0.08l-0.51,0.27
									c-0.24,0.11-0.55,0.25-0.8,0.34l-0.58,0.19c-0.3,0.07-0.69,0.17-0.99,0.22l-0.63,0.08c-0.34,0.02-0.8,0.03-1.14,0.02
									l-0.65-0.05c-0.37-0.06-0.85-0.14-1.21-0.23l-0.64-0.19c-0.75-0.29-0.93-0.35-1.68-0.77c-1.16-0.67-1.99-1.91-2.29-3.46
									C463.37,250.41,467.79,250.1,471.04,248.18L471.04,248.18z"/>
								<path style="fill:#F01837;" d="M467.68,249.51c0.93,0.09,1.69,0.67,2.58,0.86c0.92,0.2,1.67,0.2,2.23-0.01
									c0.83-0.31,1.84-0.89,3.27-3.88c0.35-0.07,0.56-0.2,0.63-0.37c-0.07,0.15-0.15,0.35-0.22,0.5
									c-0.07,0.14-0.15,0.33-0.22,0.48l-0.22,0.45c-0.06,0.13-0.15,0.3-0.22,0.42l-0.21,0.4c-0.07,0.11-0.15,0.26-0.21,0.37
									l-0.21,0.35c-0.1,0.16-0.23,0.37-0.34,0.52l-0.21,0.3c-0.06,0.09-0.15,0.2-0.21,0.29l-0.22,0.27
									c-0.07,0.08-0.15,0.18-0.22,0.26l-0.23,0.25c-0.07,0.07-0.17,0.17-0.24,0.24l-0.25,0.23c-0.08,0.07-0.18,0.16-0.27,0.22
									l-0.27,0.21c-0.09,0.06-0.21,0.15-0.31,0.21l-0.29,0.19l-0.14,0.08l-0.51,0.27c-0.24,0.11-0.55,0.25-0.8,0.34l-0.58,0.19
									c-0.3,0.07-0.69,0.17-0.99,0.22l-0.63,0.08c-0.34,0.02-0.8,0.03-1.14,0.02l-0.65-0.05c-0.37-0.06-0.85-0.14-1.21-0.23
									l-0.64-0.19c-0.75-0.29-0.93-0.35-1.68-0.77c-1.16-0.67-1.99-1.91-2.29-3.46C462.47,249.89,465.14,250.1,467.68,249.51
									L467.68,249.51z"/>
								<path style="fill:#EB172F;" d="M465,249.83c0.15,0.05,0.29,0.23,0.42,0.34c0.25,0.2,1.57,1.11,2.96,1.51
									c0.45,0.13,1.81,0.52,3.24,0.06c1.39-0.44,2.92-1.42,4.73-5.55c0.02-0.03,0.04-0.05,0.05-0.08
									c-0.07,0.15-0.15,0.35-0.22,0.5c-0.07,0.14-0.15,0.33-0.22,0.48l-0.22,0.45c-0.06,0.13-0.15,0.3-0.22,0.42l-0.21,0.4
									c-0.07,0.11-0.15,0.26-0.21,0.37l-0.21,0.35c-0.1,0.16-0.23,0.37-0.34,0.52l-0.21,0.3c-0.06,0.09-0.15,0.2-0.21,0.29
									l-0.22,0.27c-0.07,0.08-0.15,0.18-0.22,0.26l-0.23,0.25c-0.07,0.07-0.17,0.17-0.24,0.24l-0.25,0.23
									c-0.08,0.07-0.18,0.16-0.27,0.22l-0.27,0.21c-0.09,0.06-0.21,0.15-0.31,0.21l-0.29,0.19l-0.14,0.08l-0.51,0.27
									c-0.24,0.11-0.55,0.25-0.8,0.34l-0.58,0.19c-0.3,0.07-0.69,0.17-0.99,0.22l-0.63,0.08c-0.34,0.02-0.8,0.03-1.14,0.02
									l-0.65-0.05c-0.37-0.06-0.85-0.14-1.21-0.23l-0.64-0.19c-0.75-0.29-0.93-0.35-1.68-0.77c-1.16-0.67-1.99-1.91-2.29-3.46
									C461.8,249.5,463.36,249.84,465,249.83L465,249.83z"/>
								<path style="fill:#F01837;" d="M473.39,248.39L473.39,248.39c0.02,0.13,0.04,0.3,0.05,0.42c0,0.07,0.04,0.17,0.01,0.23
									c-0.01,0.01-0.03,0.02-0.04,0.03c0-0.21,0-0.49,0-0.7C473.4,248.39,473.39,248.39,473.39,248.39L473.39,248.39z"/>
								<path style="fill:#EB172F;" d="M473.39,248.39l0.04,0.33c0,0-0.01,0.01-0.01,0.01c0-0.11-0.01-0.25-0.01-0.36
									C473.4,248.39,473.39,248.39,473.39,248.39L473.39,248.39z"/>
							</g>
						</g>
						<g style="enable-background:new    ;">
							<defs>
								<path id="SVGID_7_" style="enable-background:new    ;" d="M497.73,191.14c-3.29,8.49-6.59,16.97-9.88,25.45
									c-3.82,9.84-7.64,19.67-11.46,29.51c-0.14,0.36-0.8,0.52-2,0.41l18.07-46.54C494.89,196.91,496.69,193.83,497.73,191.14z"/>
							</defs>
							<clipPath id="SVGID_8_">
								<use xlink:href="#SVGID_7_"  style="overflow:visible;"/>
							</clipPath>
							<g style="clip-path:url(#SVGID_8_);enable-background:new    ;">
								<path style="fill:#FA1947;" d="M474.39,246.51l18.07-46.54c0.18-0.22,0.35-0.45,0.52-0.67l-18.34,47.23
									C474.56,246.52,474.48,246.52,474.39,246.51L474.39,246.51z"/>
								<path style="fill:#F5183F;" d="M474.64,246.53l18.34-47.23c1.02-1.34,1.92-2.67,2.68-3.97l-0.66,1.7l-0.71,1.83l-0.76,1.96
									l-0.81,2.08l-0.85,2.19l-0.89,2.29l-0.93,2.39l-0.96,2.48l-0.99,2.56l-1.02,2.64l-1.05,2.71l-1.07,2.77l-1.1,2.82
									l-1.12,2.87l-1.13,2.91l-1.14,2.95l-1.16,2.98l-1.16,3l-1.17,3.01l-1.17,3.02C475.52,246.54,475.13,246.56,474.64,246.53
									L474.64,246.53z"/>
								<path style="fill:#F01837;" d="M475.81,246.47l19.86-51.14c0.76-1.28,1.38-2.53,1.87-3.71l-21.17,54.53
									C476.28,246.3,476.09,246.41,475.81,246.47L475.81,246.47z"/>
								<path style="fill:#EB172F;" d="M476.36,246.16l1.17-3.02l1.17-3.01l1.17-3l1.16-2.99l1.15-2.97l1.15-2.95l1.13-2.93
									l1.13-2.89l1.11-2.86l1.1-2.82l1.08-2.78l1.06-2.73l1.04-2.68l1.02-2.62l0.99-2.56l0.97-2.49l0.94-2.42l0.91-2.35l0.88-2.27
									l0.85-2.19c0.07-0.17,0.13-0.33,0.2-0.49l-0.87,2.25l-0.9,2.33l0,0l-0.93,2.4l-0.96,2.47l0,0l-0.98,2.53l-1.01,2.59l0,0
									l-1.03,2.65l-1.05,2.7l0,0l-1.07,2.75l-1.09,2.79l0,0l-1.1,2.83l-1.11,2.87l0,0l-1.13,2.9l-1.14,2.93l0,0l-1.15,2.96
									l-1.16,2.98l0,0l-1.16,2.99l-1.17,3l0,0l-1.17,3.01l-1.17,3.02l0,0C476.39,246.12,476.38,246.14,476.36,246.16
									L476.36,246.16z"/>
							</g>
						</g>
						<g>
							<path style="fill:#F91945;" d="M467.39,215.11c7.35-4.44,21.6-13.04,25.07-15.14c-2.44,6.29-10.26,26.41-18.07,46.54
								c-0.76,1.7-1.11,1.97-0.97,1.86c-0.16,0.18-1.05-0.24-1.18-1.02C470.28,234.36,468.29,221.13,467.39,215.11z"/>
						</g>
						<g style="enable-background:new    ;">
							<defs>
								<path id="SVGID_9_" style="enable-background:new    ;" d="M456.83,244.85c-0.98-6.54-1.97-13.08-2.95-19.61
									c-1.55-10.32-2.77-18.44-2.78-18.49c0.03,0.21,0.7,0.71,2.04,1.49l5.98,39.71C457.77,247.16,457.01,246.06,456.83,244.85z"
									/>
							</defs>
							<clipPath id="SVGID_10_">
								<use xlink:href="#SVGID_9_"  style="overflow:visible;"/>
							</clipPath>
							<g style="clip-path:url(#SVGID_10_);enable-background:new    ;">
								<path style="fill:#EB172F;" d="M453.14,208.23l5.98,39.71c-1.35-0.78-2.11-1.88-2.29-3.09l-0.3-1.98l-0.3-1.98l0,0
									l-0.3-1.98l-0.3-1.97l0,0l-0.3-1.97l-0.29-1.96l0,0l-0.29-1.96l-0.29-1.95l0,0l-0.29-1.94l-0.29-1.93l0,0l-0.29-1.92
									l-0.29-1.91l0,0l-0.29-1.89l-0.28-1.88l0,0l-0.28-1.86l-0.28-1.85l0,0l-0.28-1.83l-0.27-1.81l0,0l-0.27-1.79l-0.27-1.76l0,0
									C451.13,206.95,451.79,207.45,453.14,208.23L453.14,208.23z"/>
							</g>
						</g>
						<g style="enable-background:new    ;">
							<defs>
								<path id="SVGID_11_" style="enable-background:new    ;" d="M451.13,206.67c12.57-7.59,25.13-15.18,37.7-22.77
									c2.91-1.76,5.48-2.39,7.05-1.48l-42.74,25.81C451.57,207.32,450.92,206.79,451.13,206.67z"/>
							</defs>
							<clipPath id="SVGID_12_">
								<use xlink:href="#SVGID_11_"  style="overflow:visible;"/>
							</clipPath>
							<g style="clip-path:url(#SVGID_12_);enable-background:new    ;">
								<path style="fill:#F01837;" d="M495.88,182.42l-42.74,25.81c-0.35-0.21-0.66-0.39-0.92-0.56l42.46-25.64
									C495.13,182.09,495.53,182.22,495.88,182.42L495.88,182.42z"/>
								<path style="fill:#EB172F;" d="M494.68,182.04l-42.46,25.64c-0.89-0.57-1.25-0.91-1.09-1.01l1.86-1.12l1.88-1.14l1.9-1.15
									l1.92-1.16l1.94-1.17l1.95-1.18l1.96-1.18l1.96-1.18l1.96-1.18l1.95-1.18l1.94-1.17l1.93-1.17l1.92-1.16l1.9-1.15l1.87-1.13
									l1.85-1.12l1.81-1.09l1.78-1.08l1.74-1.05l1.7-1.03C491.09,182.54,493.14,181.85,494.68,182.04L494.68,182.04z"/>
							</g>
						</g>
						<g>
							<polygon style="fill:#F3183B;" points="454.58,209.07 453.14,208.23 495.88,182.42 497.32,183.26 							"/>
						</g>
						<g>
							<polygon style="fill:#E71729;" points="460.55,248.77 459.12,247.94 453.14,208.23 454.58,209.07 							"/>
						</g>
						<g style="enable-background:new    ;">
							<defs>
								<path id="SVGID_13_" style="enable-background:new    ;" d="M467.39,215.11c-3.9-1.49-9.63-4.2-12.81-6.04l42.74-25.81
									c3.18,1.85,1,9.33-4.86,16.71L467.39,215.11z"/>
							</defs>
							<clipPath id="SVGID_14_">
								<use xlink:href="#SVGID_13_"  style="overflow:visible;"/>
							</clipPath>
							<g style="clip-path:url(#SVGID_14_);enable-background:new    ;">
								<path style="fill:#FA1947;" d="M492.46,199.97l-25.07,15.14c-0.49-0.19-1-0.39-1.54-0.61l28.63-17.29
									C493.87,198.13,493.19,199.05,492.46,199.97L492.46,199.97z"/>
								<path style="fill:#FF194F;" d="M494.48,197.21l-28.63,17.29c-2.56-1.05-5.58-2.44-8.12-3.73l41.04-24.78
									C498.96,188.7,497.41,192.84,494.48,197.21L494.48,197.21z"/>
								<path style="fill:#FA1947;" d="M498.77,185.99l-41.04,24.78c-0.58-0.3-1.14-0.59-1.67-0.87l42.29-25.54
									C498.58,184.82,498.72,185.36,498.77,185.99L498.77,185.99z"/>
								<path style="fill:#F5183F;" d="M498.35,184.36l-42.29,25.54c-0.46-0.25-0.89-0.49-1.29-0.71l42.73-25.81
									C497.87,183.63,498.15,183.96,498.35,184.36L498.35,184.36z"/>
								<path style="fill:#F01837;" d="M497.51,183.38l-42.73,25.81c-0.07-0.04-0.13-0.08-0.2-0.12l42.74-25.81
									C497.39,183.3,497.45,183.34,497.51,183.38L497.51,183.38z"/>
							</g>
						</g>
						<g style="enable-background:new    ;">
							<defs>
								<path id="SVGID_15_" style="enable-background:new    ;" d="M472.24,247.36c-3.28,2.63-8.51,3.26-11.68,1.42l-5.98-39.7
									c3.18,1.85,8.91,4.55,12.81,6.04L472.24,247.36z"/>
							</defs>
							<clipPath id="SVGID_16_">
								<use xlink:href="#SVGID_15_"  style="overflow:visible;"/>
							</clipPath>
							<g style="clip-path:url(#SVGID_16_);enable-background:new    ;">
								<path style="fill:#FA1947;" d="M467.39,215.11l4.85,32.24c-0.42,0.34-0.88,0.65-1.36,0.92l-5.08-33.8
									C466.35,214.71,466.88,214.92,467.39,215.11L467.39,215.11z"/>
								<path style="fill:#F5183F;" d="M465.79,214.48l5.08,33.8c-1.06,0.6-2.23,1.03-3.42,1.29l-5.54-36.77
									C463.25,213.39,464.57,213.97,465.79,214.48L465.79,214.48z"/>
								<path style="fill:#F01837;" d="M461.92,212.79l5.54,36.77c-0.89,0.19-1.8,0.28-2.68,0.27l-5.79-38.43
									C459.94,211.86,460.93,212.33,461.92,212.79L461.92,212.79z"/>
								<path style="fill:#EB172F;" d="M458.99,211.4l5.79,38.43c-1.56-0.02-3.04-0.36-4.22-1.06l-5.98-39.7
									C455.77,209.76,457.32,210.57,458.99,211.4L458.99,211.4z"/>
							</g>
						</g>
					</g>
				</g>
				<g>
					<g style="enable-background:new    ;">
						<g style="enable-background:new    ;">
							<defs>
								<path id="SVGID_17_" style="enable-background:new    ;" d="M617.66,96.56c-0.02,0.86-0.03,2.01-0.08,2.87
									c-0.07,1.04-0.17,2.42-0.32,3.44c-0.27,1.76-0.71,4.09-1.09,5.83c-0.21,0.97-0.59,2.24-0.87,3.19
									c-0.58,1.99-1.73,5.05-2.09,5.87c-0.38,0.86-0.84,2.02-1.25,2.86c-0.82,1.67-1.93,3.88-2.86,5.49
									c-1.04,1.79-1.04,1.79-3.33,5.22c-0.51,0.77-1.28,1.74-1.83,2.49c-0.57,0.78-2.69,3.35-3.98,4.69
									c-0.65,0.68-1.51,1.6-2.21,2.24c-1.32,1.21-3.11,2.78-4.5,3.9c-0.37,0.29-2.34,1.86-5.47,3.68c1.9-1.09,3.06-3.38,3.04-6.64
									c12.4-7.13,22.62-24.83,22.55-39.06C616.26,100.97,617.67,98.78,617.66,96.56z"/>
							</defs>
							<clipPath id="SVGID_18_">
								<use xlink:href="#SVGID_17_"  style="overflow:visible;"/>
							</clipPath>
							<g style="clip-path:url(#SVGID_18_);enable-background:new    ;">
								<path style="fill:#EB1137;" d="M617.66,96.56c-0.12,4.23-0.44,15.48-8.55,29.55c-3.87,6.71-10.71,16.02-21.31,22.22
									c1.9-1.09,3.06-3.38,3.04-6.64c12.4-7.13,22.62-24.83,22.55-39.06C616.26,100.97,617.67,98.78,617.66,96.56L617.66,96.56z"
									/>
								<path style="fill:#EB1137;" d="M590.84,141.99c10.05-6.25,21.46-20.01,23.32-39.85c2.35-1.58,3.51-3.57,3.5-5.59l0,0
									c-0.11,3.7-0.11,3.93-0.41,6.32l-0.46,2.92c-0.21,0.96-0.46,2.23-0.69,3.18l-0.8,2.92c-0.3,0.9-0.67,2.11-0.99,3l-1.1,2.86
									c-0.38,0.86-0.86,2.01-1.25,2.86l-1.37,2.77c-0.45,0.82-1.03,1.91-1.49,2.72l-1.61,2.65c-0.52,0.77-1.19,1.81-1.72,2.57
									l-1.83,2.48c-0.59,0.72-1.35,1.7-1.95,2.42l-2.03,2.27c-0.66,0.67-1.53,1.58-2.21,2.24l-2.2,2.01
									c-0.75,0.62-1.74,1.45-2.51,2.05l-2.35,1.69c-0.87,0.55-2.02,1.31-2.91,1.83C589.64,147.26,590.78,145.09,590.84,141.99
									L590.84,141.99z"/>
								<path style="fill:#E81033;" d="M590.76,143.21c0.36-0.56,1.3-0.82,1.87-1.17c3.1-1.94,9.26-6.84,15.74-17.77
									c1.09-1.84,6.59-11.63,7.73-23.81c1.05-1.21,1.57-2.55,1.57-3.9l0,0c-0.11,3.7-0.11,3.93-0.41,6.32l-0.46,2.92
									c-0.21,0.96-0.46,2.23-0.69,3.18l-0.8,2.92c-0.3,0.9-0.67,2.11-0.99,3l-1.1,2.86c-0.38,0.86-0.86,2.01-1.25,2.86l-1.37,2.77
									c-0.45,0.82-1.03,1.91-1.49,2.72l-1.61,2.65c-0.52,0.77-1.19,1.81-1.72,2.57l-1.83,2.48c-0.59,0.72-1.35,1.7-1.95,2.42
									l-2.03,2.27c-0.66,0.67-1.53,1.58-2.21,2.24l-2.2,2.01c-0.75,0.62-1.74,1.45-2.51,2.05l-2.35,1.69
									c-0.87,0.55-2.02,1.31-2.91,1.83C589.39,147.41,590.46,145.66,590.76,143.21L590.76,143.21z"/>
								<path style="fill:#E40F2F;" d="M590.53,144.44c0.41-0.56,1.37-0.87,1.96-1.24c2.11-1.33,9.52-6.6,16.55-18.63
									c1.71-2.93,7.36-13.46,8.14-25.79c0.32-0.72,0.48-1.47,0.48-2.22c-0.02,0.86-0.06,2.01-0.08,2.87
									c-0.09,1.03-0.2,2.41-0.32,3.44l-0.46,2.92c-0.21,0.96-0.46,2.23-0.69,3.18l-0.8,2.92c-0.3,0.9-0.67,2.11-0.99,3l-1.1,2.86
									c-0.38,0.86-0.86,2.01-1.25,2.86l-1.37,2.77c-0.45,0.82-1.03,1.91-1.49,2.72l-1.61,2.65c-0.52,0.77-1.19,1.81-1.72,2.57
									l-1.83,2.48c-0.59,0.72-1.35,1.7-1.95,2.42l-2.03,2.27c-0.66,0.67-1.53,1.58-2.21,2.24l-2.2,2.01
									c-0.75,0.62-1.74,1.45-2.51,2.05l-2.35,1.69c-0.87,0.55-2.02,1.31-2.91,1.83C589.11,147.57,590.06,146.25,590.53,144.44
									L590.53,144.44z"/>
								<path style="fill:#E10E2B;" d="M590.06,145.78c0.49-0.55,1.45-0.91,2.07-1.3c1.01-0.63,10.06-6.57,17.45-19.68
									c3.62-6.43,7.96-16.51,8.08-28.01l-0.08,2.65c-0.09,1.03-0.2,2.41-0.32,3.44l-0.46,2.92c-0.21,0.96-0.46,2.23-0.69,3.18
									l-0.8,2.92c-0.3,0.9-0.67,2.11-0.99,3l-1.1,2.86c-0.38,0.86-0.86,2.01-1.25,2.86l-1.37,2.77c-0.45,0.82-1.03,1.91-1.49,2.72
									l-1.61,2.65c-0.52,0.77-1.19,1.81-1.72,2.57l-1.83,2.48c-0.59,0.72-1.35,1.7-1.95,2.42l-2.03,2.27
									c-0.66,0.67-1.53,1.58-2.21,2.24l-2.2,2.01c-0.75,0.62-1.74,1.45-2.51,2.05l-2.35,1.69c-0.87,0.55-2.02,1.31-2.91,1.83
									C588.76,147.77,589.53,146.91,590.06,145.78L590.06,145.78z"/>
							</g>
						</g>
						<g style="enable-background:new    ;">
							<defs>
								<path id="SVGID_19_" style="enable-background:new    ;" d="M617.56,58.78l0.01,3.78l0.01,3.78l0.01,3.78l0.01,3.78
									l0.01,3.78l0.01,3.78l0.01,3.78l0.01,3.78l0.01,3.78l0.01,3.78c0.01,2.23-1.41,4.41-4.26,6.06l-0.11-37.78
									C616.15,63.19,617.56,61.01,617.56,58.78z"/>
							</defs>
							<clipPath id="SVGID_20_">
								<use xlink:href="#SVGID_19_"  style="overflow:visible;"/>
							</clipPath>
							<g style="clip-path:url(#SVGID_20_);enable-background:new    ;">
								<path style="fill:#EE133B;" d="M613.4,102.62l-0.11-37.78c0.26-0.15,0.52-0.31,0.75-0.47l0.11,37.78
									C613.92,102.31,613.67,102.46,613.4,102.62L613.4,102.62z"/>
								<path style="fill:#EB1137;" d="M614.16,102.15l-0.11-37.78c0.78-0.52,1.42-1.09,1.94-1.68l0.11,37.78
									C615.58,101.06,614.93,101.63,614.16,102.15L614.16,102.15z"/>
								<path style="fill:#E81033;" d="M616.09,100.47l-0.11-37.78c0.47-0.54,0.83-1.1,1.09-1.68l0.11,37.78
									C616.92,99.36,616.56,99.93,616.09,100.47L616.09,100.47z"/>
								<path style="fill:#E40F2F;" d="M617.18,98.78L617.08,61c0.29-0.65,0.45-1.33,0.48-2l0.11,37.78
									C617.63,97.46,617.47,98.13,617.18,98.78L617.18,98.78z"/>
								<path style="fill:#E10E2B;" d="M617.66,96.78L617.55,59c0-0.07,0.01-0.15,0-0.22l0.01,3.78l0.01,3.78l0.01,3.78l0.01,3.78
									l0.01,3.78l0.01,3.78l0.01,3.78l0.01,3.78l0.01,3.78l0.01,1.89l0.01,1.89C617.66,96.63,617.66,96.7,617.66,96.78
									L617.66,96.78z"/>
							</g>
						</g>
						<g style="enable-background:new    ;">
							<defs>
								<path id="SVGID_21_" style="enable-background:new    ;" d="M568.22,30.49c1.41-0.76,3.32-1.71,4.78-2.38
									c0.71-0.32,1.67-0.69,2.42-0.92c2.97-0.92,2.97-0.92,5.16-1.33c1.23-0.24,2.91-0.4,4.17-0.46c1.3-0.06,3.03,0.02,4.33,0.13
									c1.02,0.09,2.37,0.32,3.36,0.56c0.92,0.22,2.15,0.53,3.03,0.88c0.58,0.23,1.37,0.5,1.94,0.77c0.83,0.38,1.93,0.94,2.73,1.39
									c-6.07-3.53-14.46-3.05-23.68,2.27C573.19,29.52,570.27,29.3,568.22,30.49z"/>
							</defs>
							<clipPath id="SVGID_22_">
								<use xlink:href="#SVGID_21_"  style="overflow:visible;"/>
							</clipPath>
							<g style="clip-path:url(#SVGID_22_);enable-background:new    ;">
								<path style="fill:#EE133B;" d="M568.22,30.49c4.32-2.33,17.49-9.4,31.9-1.36c-6.07-3.53-14.46-3.05-23.68,2.27
									C573.19,29.52,570.27,29.3,568.22,30.49L568.22,30.49z"/>
								<path style="fill:#EE133B;" d="M578.86,30.1c-0.81,0.36-1.87,1.16-2.76,1.11c-3.11-1.71-5.9-1.87-7.88-0.72
									c0.71-0.38,1.66-0.9,2.38-1.28c2.38-1.09,4.44-2.03,7.7-2.87l2.27-0.48c1.25-0.17,2.91-0.37,4.17-0.46l2.17-0.01
									c1.04,0.07,2.42,0.18,3.46,0.31l2.06,0.39c0.91,0.25,2.13,0.58,3.03,0.88l1.94,0.77c0.82,0.4,1.93,0.94,2.73,1.39
									C594.59,25.91,587.13,26.02,578.86,30.1L578.86,30.1z"/>
								<path style="fill:#EB1137;" d="M585.82,27.54c-7.14,1.25-7.14,1.25-10.99,3.05c-2.6-1.11-4.91-1.09-6.61-0.1
									c0.71-0.38,1.66-0.9,2.38-1.28c2.38-1.09,4.44-2.03,7.7-2.87l2.27-0.48c1.25-0.17,2.91-0.37,4.17-0.46l2.17-0.01
									c1.04,0.07,2.42,0.18,3.46,0.31l2.06,0.39c0.91,0.25,2.13,0.58,3.03,0.88l1.94,0.77c0.82,0.4,1.93,0.94,2.73,1.39
									C596.19,26.85,591.29,26.24,585.82,27.54L585.82,27.54z"/>
								<path style="fill:#E81033;" d="M591.35,26.87c-4.8-0.34-9.77-0.69-17.79,3.26c-2.07-0.61-3.91-0.46-5.34,0.36
									c0.71-0.38,1.66-0.9,2.38-1.28c2.38-1.09,4.44-2.03,7.7-2.87l2.27-0.48c1.25-0.17,2.91-0.37,4.17-0.46l2.17-0.01
									c1.04,0.07,2.42,0.18,3.46,0.31l2.06,0.39c0.91,0.25,2.13,0.58,3.03,0.88l1.94,0.77c0.82,0.4,1.93,0.94,2.73,1.39
									C597.57,27.65,594.61,26.87,591.35,26.87L591.35,26.87z"/>
								<path style="fill:#E40F2F;" d="M596.38,27.55c-3.99-1.24-12.3-3.83-24.16,2.29c-1.53-0.22-2.89,0.01-4,0.66
									c0.71-0.38,1.66-0.9,2.38-1.28c2.38-1.09,4.44-2.03,7.7-2.87l2.27-0.48c1.25-0.17,2.91-0.37,4.17-0.46l2.17-0.01
									c1.04,0.07,2.42,0.18,3.46,0.31l2.06,0.39c0.91,0.25,2.13,0.58,3.03,0.88l1.94,0.77c0.82,0.4,1.93,0.94,2.73,1.39
									C598.96,28.45,597.71,27.92,596.38,27.55L596.38,27.55z"/>
								<path style="fill:#E10E2B;" d="M592.8,26.19c-10.67-2.49-19.28,2.08-22.11,3.58c-0.91,0.06-1.75,0.3-2.47,0.72
									c0.71-0.38,1.66-0.9,2.38-1.28c2.38-1.09,4.44-2.03,7.7-2.87l2.27-0.48c1.25-0.17,2.91-0.37,4.17-0.46l2.17-0.01
									c1.04,0.07,2.42,0.18,3.46,0.31l2.06,0.39c0.67,0.18,1.57,0.4,2.23,0.61L592.8,26.19L592.8,26.19z"/>
							</g>
						</g>
						<g style="enable-background:new    ;">
							<defs>
								<path id="SVGID_23_" style="enable-background:new    ;" d="M600.12,29.13l2.82,1.64c-6.07-3.53-14.46-3.05-23.69,2.27
									l-2.82-1.64C585.66,26.08,594.05,25.6,600.12,29.13z"/>
							</defs>
							<clipPath id="SVGID_24_">
								<use xlink:href="#SVGID_23_"  style="overflow:visible;"/>
							</clipPath>
							<g style="clip-path:url(#SVGID_24_);enable-background:new    ;">
								<path style="fill:#F2143F;" d="M579.26,33.04l-2.82-1.64c0.81-0.47,1.62-0.9,2.41-1.29l2.82,1.64
									C580.88,32.14,580.07,32.57,579.26,33.04L579.26,33.04z"/>
								<path style="fill:#EE133B;" d="M581.67,31.75l-2.82-1.64c2.4-1.18,4.73-2.04,6.96-2.57l2.82,1.64
									C586.4,29.71,584.07,30.56,581.67,31.75L581.67,31.75z"/>
								<path style="fill:#EB1137;" d="M588.64,29.18l-2.82-1.64c1.92-0.46,3.77-0.68,5.53-0.68l2.82,1.64
									C592.41,28.5,590.56,28.73,588.64,29.18L588.64,29.18z"/>
								<path style="fill:#E81033;" d="M594.17,28.51l-2.82-1.64c1.77,0,3.45,0.23,5.03,0.68l2.82,1.64
									C597.62,28.74,595.94,28.51,594.17,28.51L594.17,28.51z"/>
								<path style="fill:#E40F2F;" d="M599.2,29.19l-2.82-1.64c1.33,0.38,2.58,0.91,3.75,1.58l2.82,1.64
									C601.78,30.09,600.53,29.56,599.2,29.19L599.2,29.19z"/>
							</g>
						</g>
						<g style="enable-background:new    ;">
							<defs>
								<path id="SVGID_25_" style="enable-background:new    ;" d="M602.95,30.77c1.06,0.67,2.46,1.58,3.44,2.37
									c0.92,0.74,2.06,1.83,2.88,2.68c1.88,1.97,3.52,4.54,4.36,6.14c0.51,0.98,1.15,2.33,1.54,3.36
									c0.47,1.25,1.02,2.94,1.32,4.24c0.35,1.51,0.68,3.55,0.86,5.09c0.14,1.23,0.19,2.89,0.21,4.13
									c0.01,2.23-1.41,4.41-4.26,6.06c-0.02-14.25-10.31-20.12-22.7-12.94c-0.02-6.79-5.09-15.23-11.33-18.86
									C588.48,27.72,596.88,27.24,602.95,30.77z"/>
							</defs>
							<clipPath id="SVGID_26_">
								<use xlink:href="#SVGID_25_"  style="overflow:visible;"/>
							</clipPath>
							<g style="clip-path:url(#SVGID_26_);enable-background:new    ;">
								<path style="fill:#FC184B;" d="M602.95,30.77c6.12,3.87,14.29,10.99,14.61,28.01c0.01,2.23-1.41,4.41-4.26,6.06
									c-0.02-14.25-10.31-20.12-22.7-12.94c-0.02-6.79-5.09-15.23-11.33-18.86C588.48,27.72,596.88,27.24,602.95,30.77
									L602.95,30.77z"/>
								<path style="fill:#FC184B;" d="M613.29,64.84c-0.02-14.25-10.31-20.12-22.7-12.94c-0.01-2.48-0.69-5.19-1.86-7.8
									c0.25-0.26,0.58-0.61,0.83-0.87c4.01-5.54-1.07-5.69-4.45-5.28c-0.06,0.01-0.13,0.02-0.19,0.03
									c-1.67-2.02-3.6-3.74-5.66-4.94c9.22-5.33,17.62-5.8,23.69-2.27c0.53,0.34,1.24,0.78,1.77,1.12
									c0.94,0.7,2.17,1.68,3.06,2.45l1.49,1.48c0.63,0.72,1.45,1.7,2.04,2.46l1.22,1.79c0.54,0.93,1.24,2.17,1.72,3.13l0.91,2.12
									c0.44,1.26,0.97,2.95,1.32,4.24l0.51,2.5c0.42,3.15,0.5,3.72,0.56,6.72C617.56,61.01,616.15,63.19,613.29,64.84
									L613.29,64.84z"/>
								<path style="fill:#F81747;" d="M613.29,64.84c-0.02-14.25-10.31-20.12-22.7-12.94c0-1.73-0.34-3.57-0.94-5.41
									c0.59-0.44,1.39-1.02,1.98-1.46c10.9-7.57,3.54-9.51-0.13-9.99c-3.36-0.44-6.54,0.41-8.45,0.92
									c-1.19-1.15-2.46-2.14-3.8-2.92c9.22-5.33,17.62-5.8,23.69-2.27c0.53,0.34,1.24,0.78,1.77,1.12
									c0.94,0.7,2.17,1.68,3.06,2.45l1.49,1.48c0.63,0.72,1.45,1.7,2.04,2.46l1.22,1.79c0.54,0.93,1.24,2.17,1.72,3.13l0.91,2.12
									c0.44,1.26,0.97,2.95,1.32,4.24l0.51,2.5c0.42,3.15,0.5,3.72,0.56,6.72C617.56,61.01,616.15,63.19,613.29,64.84
									L613.29,64.84z"/>
								<path style="fill:#F51543;" d="M613.29,64.84c-0.02-14.25-10.31-20.12-22.7-12.94c0-1.2-0.16-2.44-0.46-3.71
									c0.59-0.37,1.37-0.87,1.96-1.25c10.02-5.75,10.02-5.75,10.24-7.04c0.01-0.04,0.22-4.41-7.92-6.55
									c-5.13-1.35-10.73,0.57-12.84,1.29c-0.75-0.6-1.52-1.14-2.31-1.6c9.22-5.33,17.62-5.8,23.69-2.27
									c0.53,0.34,1.24,0.78,1.77,1.12c0.94,0.7,2.17,1.68,3.06,2.45l1.49,1.48c0.63,0.72,1.45,1.7,2.04,2.46l1.22,1.79
									c0.54,0.93,1.24,2.17,1.72,3.13l0.91,2.12c0.44,1.26,0.97,2.95,1.32,4.24l0.51,2.5c0.42,3.15,0.5,3.72,0.56,6.72
									C617.56,61.01,616.15,63.19,613.29,64.84L613.29,64.84z"/>
								<path style="fill:#F2143F;" d="M613.29,64.84c-0.02-14.25-10.31-20.12-22.7-12.94c0-0.74-0.06-1.5-0.18-2.26
									c0.57-0.33,1.33-0.78,1.89-1.11c3.21-1.62,4.88-2.4,10.68-3.81c2.81-0.68,3.35-1.25,3.75-2.84
									c0.18-0.72-0.98-6.85-10.33-9.72c-3.21-0.98-8.63-1.52-16.18,1.49c-0.32-0.21-0.64-0.42-0.96-0.6
									c9.22-5.33,17.62-5.8,23.69-2.27c0.53,0.34,1.24,0.78,1.77,1.12c0.94,0.7,2.17,1.68,3.06,2.45l1.49,1.48
									c0.63,0.72,1.45,1.7,2.04,2.46l1.22,1.79c0.54,0.93,1.24,2.17,1.72,3.13l0.91,2.12c0.44,1.26,0.97,2.95,1.32,4.24l0.51,2.5
									c0.42,3.15,0.5,3.72,0.56,6.72C617.56,61.01,616.15,63.19,613.29,64.84L613.29,64.84z"/>
								<path style="fill:#EE133B;" d="M613.29,64.84c-0.02-14.25-10.31-20.12-22.7-12.94c0-0.31-0.01-0.63-0.03-0.95
									c0.52-0.29,1.21-0.67,1.74-0.96c4.82-2.26,8.33-3.24,14.12-2.35c2.24,0.34,3.72,0.57,4.24-1.17
									c0.59-1.99-1.19-11.19-12.79-15.24c-1.23-0.43-7.81-2.43-16.18,0.51c8.26-4.08,15.73-4.19,21.26-0.97
									c0.53,0.34,1.24,0.78,1.77,1.12c0.94,0.7,2.17,1.68,3.06,2.45l1.49,1.48c0.63,0.72,1.45,1.7,2.04,2.46l1.22,1.79
									c0.54,0.93,1.24,2.17,1.72,3.13l0.91,2.12c0.44,1.26,0.97,2.95,1.32,4.24l0.51,2.5c0.42,3.15,0.5,3.72,0.56,6.72
									C617.56,61.01,616.15,63.19,613.29,64.84L613.29,64.84z"/>
								<path style="fill:#EB1137;" d="M614.05,64.37c0.6-10.71,1.03-18.45-4.08-25.54c-2.83-3.92-9.36-10.38-21.32-9.65
									c5.47-1.3,10.37-0.69,14.3,1.59c0.53,0.34,1.24,0.78,1.77,1.12c0.94,0.7,2.17,1.68,3.06,2.45l1.49,1.48
									c0.63,0.72,1.45,1.7,2.04,2.46l1.22,1.79c0.54,0.93,1.24,2.17,1.72,3.13l0.91,2.12c0.44,1.26,0.97,2.95,1.32,4.24l0.51,2.5
									c0.42,3.15,0.5,3.72,0.56,6.72C617.56,60.8,616.4,62.79,614.05,64.37L614.05,64.37z"/>
								<path style="fill:#E81033;" d="M615.98,62.69c2.27-28.23-16.12-33.3-21.81-34.18c3.26,0.01,6.22,0.78,8.78,2.26
									c0.53,0.34,1.24,0.78,1.77,1.12c0.94,0.7,2.17,1.68,3.06,2.45l1.49,1.48c0.63,0.72,1.45,1.7,2.04,2.46l1.22,1.79
									c0.54,0.93,1.24,2.17,1.72,3.13l0.91,2.12c0.44,1.26,0.97,2.95,1.32,4.24l0.51,2.5c0.42,3.15,0.5,3.72,0.56,6.72
									C617.56,60.14,617.04,61.48,615.98,62.69L615.98,62.69z"/>
								<path style="fill:#E40F2F;" d="M617.07,61.01L617.07,61.01l0.01-6.04c-0.05-0.89-0.29-2.99-0.58-4.42
									c-0.93-4.62-2.4-7.58-3.43-9.41c-4.63-8.24-11.58-11.03-13.87-11.95c1.33,0.38,2.58,0.91,3.74,1.58
									c0.53,0.34,1.24,0.78,1.77,1.12c0.94,0.7,2.17,1.68,3.06,2.45l1.49,1.48c0.63,0.72,1.45,1.7,2.04,2.46l1.22,1.79
									c0.54,0.93,1.24,2.17,1.72,3.13l0.91,2.12c0.44,1.26,0.97,2.95,1.32,4.24l0.51,2.5c0.42,3.15,0.5,3.72,0.56,6.72
									C617.56,59.53,617.4,60.28,617.07,61.01L617.07,61.01z"/>
								<path style="fill:#E10E2B;" d="M617.55,59L617.55,59c0-1.18-0.11-3.21-0.15-3.72l0.14,2.68l0.01,0.82
									C617.56,58.86,617.55,58.93,617.55,59L617.55,59z"/>
							</g>
						</g>
						<g style="enable-background:new    ;">
							<defs>
								<path id="SVGID_27_" style="enable-background:new    ;" d="M587.8,148.32l-10.32,5.96l-10.32,5.96l-10.32,5.96l-10.32,5.96
									l-10.32,5.96l-10.32,5.96l-10.32,5.96l-10.32,5.96l-10.32,5.96l-10.32,5.96c1.89-1.1,3.05-3.38,3.04-6.64l103.16-59.56
									C590.86,144.94,589.7,147.23,587.8,148.32z"/>
							</defs>
							<clipPath id="SVGID_28_">
								<use xlink:href="#SVGID_27_"  style="overflow:visible;"/>
							</clipPath>
							<g style="clip-path:url(#SVGID_28_);enable-background:new    ;">
								<path style="fill:#EE133B;" d="M487.68,201.24l103.16-59.56c0,0.1,0,0.21,0,0.31l-103.16,59.56
									C487.68,201.45,487.68,201.35,487.68,201.24L487.68,201.24z"/>
								<path style="fill:#EB1137;" d="M487.68,201.55l103.16-59.56c-0.01,0.42-0.04,0.83-0.09,1.22L487.6,202.78
									C487.64,202.39,487.67,201.98,487.68,201.55L487.68,201.55z"/>
								<path style="fill:#E81033;" d="M487.6,202.78l103.16-59.56c-0.05,0.43-0.13,0.84-0.23,1.22L487.37,204
									C487.46,203.61,487.54,203.21,487.6,202.78L487.6,202.78z"/>
								<path style="fill:#E40F2F;" d="M487.37,204l103.16-59.56c-0.13,0.49-0.29,0.94-0.48,1.35l-103.17,59.56
									C487.08,204.94,487.24,204.48,487.37,204L487.37,204z"/>
								<path style="fill:#E10E2B;" d="M486.89,205.35l103.17-59.56c-0.53,1.13-1.29,1.98-2.25,2.53l-10.32,5.96l-10.32,5.96
									l-10.32,5.96l-10.32,5.96l-10.32,5.96l-10.32,5.96l-10.32,5.96l-10.32,5.96l-10.32,5.96l-10.32,5.96
									C485.59,207.33,486.36,206.48,486.89,205.35L486.89,205.35z"/>
							</g>
						</g>
						<g style="enable-background:new    ;">
							<defs>
								<path id="SVGID_29_" style="enable-background:new    ;" d="M449.91,207.6c-1.06-0.67-2.45-1.6-3.44-2.37
									c-0.73-0.56-1.64-1.38-2.27-2.05c-1.7-1.8-1.7-1.8-3.36-4.1c-0.61-0.85-1.29-2.07-1.78-3c-0.63-1.22-1.34-2.92-1.79-4.21
									c-0.44-1.26-0.87-2.99-1.17-4.3c-0.13-0.57-0.78-3.62-0.79-7.99c0.01,2.38,1.64,4.81,4.86,6.68
									C440.19,196.74,443.92,204.12,449.91,207.6z"/>
							</defs>
							<clipPath id="SVGID_30_">
								<use xlink:href="#SVGID_29_"  style="overflow:visible;"/>
							</clipPath>
							<g style="clip-path:url(#SVGID_30_);enable-background:new    ;">
								<path style="fill:#DE0D28;" d="M449.91,207.6c-2.53-1.6-7.23-4.58-10.85-11.52c-2.47-4.73-3.73-10.28-3.76-16.5
									c0.01,2.38,1.64,4.81,4.86,6.68C440.19,196.74,443.92,204.12,449.91,207.6L449.91,207.6z"/>
							</g>
						</g>
						<g style="enable-background:new    ;">
							<defs>
								<path id="SVGID_31_" style="enable-background:new    ;" d="M452.73,209.25l-2.82-1.64c-5.99-3.48-9.72-10.86-9.75-21.33
									l2.82,1.64C443.02,198.38,446.74,205.76,452.73,209.25z"/>
							</defs>
							<clipPath id="SVGID_32_">
								<use xlink:href="#SVGID_31_"  style="overflow:visible;"/>
							</clipPath>
							<g style="clip-path:url(#SVGID_32_);enable-background:new    ;">
								<path style="fill:#E10E2B;" d="M452.73,209.25l-2.82-1.64c-5.99-3.48-9.72-10.86-9.75-21.33l2.82,1.64
									C443.02,198.38,446.74,205.76,452.73,209.25L452.73,209.25z"/>
							</g>
						</g>
						<g style="enable-background:new    ;">
							<defs>
								<path id="SVGID_33_" style="enable-background:new    ;" d="M484.64,207.88c-1.42,0.76-3.33,1.75-4.81,2.39
									c-1.12,0.49-2.66,1.02-3.83,1.37c-1.36,0.4-3.2,0.81-4.59,1.02c-1.27,0.19-2.99,0.28-4.27,0.34
									c-1.07,0.05-2.5-0.05-3.57-0.18c-1.25-0.16-2.91-0.46-4.13-0.78c-0.92-0.24-2.13-0.63-3.01-1c-1.13-0.47-2.6-1.21-3.69-1.79
									c-5.99-3.48-9.72-10.86-9.75-21.33c6.24,3.63,16.09,3.8,22,0.39c0.02,14.25,10.3,20.12,22.7,12.94
									C487.69,204.5,486.54,206.79,484.64,207.88z"/>
							</defs>
							<clipPath id="SVGID_34_">
								<use xlink:href="#SVGID_33_"  style="overflow:visible;"/>
							</clipPath>
							<g style="clip-path:url(#SVGID_34_);enable-background:new    ;">
								<path style="fill:#EB1137;" d="M484.64,207.88c-6.68,3.59-10.94,4.83-17.5,5.11c-6.82,0.29-12.53-2.75-14.4-3.75
									c-5.99-3.48-9.72-10.86-9.75-21.33c6.24,3.63,16.09,3.8,22,0.39c0.02,14.25,10.3,20.12,22.7,12.94
									C487.69,204.5,486.54,206.79,484.64,207.88L484.64,207.88z"/>
								<path style="fill:#EB1137;" d="M455.38,190.74c1.1,1.35,2.42,2.62,3.93,3.76c1.86,1.39,3.9,2.51,5.72,3.97
									c6.4,5.12,6.4,5.12,8.24,5.73c5.87,1.96,12.3-1.51,14.41-2.65c-0.06,3.09-1.21,5.27-3.04,6.33
									c-0.72,0.39-1.67,0.9-2.39,1.29c-2.95,1.35-3.48,1.59-6.24,2.47l-2.29,0.59c-1.31,0.24-3.06,0.51-4.38,0.67l-2.19,0.1
									c-1.07-0.03-2.5-0.09-3.57-0.18l-2.08-0.31c-0.94-0.21-2.18-0.51-3.1-0.77l-1.96-0.69c-1.13-0.5-2.6-1.21-3.69-1.79
									c-5.99-3.48-9.72-10.86-9.75-21.33C446.44,189.92,450.99,190.87,455.38,190.74L455.38,190.74z"/>
								<path style="fill:#E81033;" d="M451.53,190.58c0.44,0.28,0.63,1.04,0.91,1.48c0.01,0.02,1.26,2.02,3.93,4.77
									c1.95,2,4.35,3.73,6.1,5c0.03,0.03,3.57,2.54,7.05,3.72c7.19,2.43,13.17-0.04,18.08-2.78c-0.3,2.45-1.37,4.19-2.96,5.11
									c-0.72,0.39-1.67,0.9-2.39,1.29c-2.95,1.35-3.48,1.59-6.24,2.47l-2.29,0.59c-1.31,0.24-3.06,0.51-4.38,0.67l-2.19,0.1
									c-1.07-0.03-2.5-0.09-3.57-0.18l-2.08-0.31c-0.94-0.21-2.18-0.51-3.1-0.77l-1.96-0.69c-1.13-0.5-2.6-1.21-3.69-1.79
									c-5.99-3.48-9.72-10.86-9.75-21.33C445.43,189.34,448.43,190.23,451.53,190.58L451.53,190.58z"/>
								<path style="fill:#E40F2F;" d="M448.21,189.99c0.46,0.38,0.6,1.26,0.86,1.8c0.53,1.11,5.55,10.96,17.87,15.37
									c9.12,3.27,17.63-1.56,20.42-3.15c-0.47,1.81-1.42,3.13-2.72,3.88c-0.72,0.39-1.67,0.9-2.39,1.29
									c-2.95,1.35-3.48,1.59-6.24,2.47l-2.29,0.59c-1.31,0.24-3.06,0.51-4.38,0.67l-2.19,0.1c-1.07-0.03-2.5-0.09-3.57-0.18
									l-2.08-0.31c-0.94-0.21-2.18-0.51-3.1-0.77l-1.96-0.69c-1.13-0.5-2.6-1.21-3.69-1.79c-5.99-3.48-9.72-10.86-9.75-21.33
									C444.54,188.82,446.33,189.51,448.21,189.99L448.21,189.99z"/>
								<path style="fill:#E10E2B;" d="M444.91,188.88L444.91,188.88c6.27,16.77,23.69,27.51,41.99,16.46
									c-0.53,1.13-1.29,1.99-2.25,2.55c-0.72,0.39-1.67,0.9-2.39,1.29c-2.95,1.35-3.48,1.59-6.24,2.47l-2.29,0.59
									c-1.31,0.24-3.06,0.51-4.38,0.67l-2.19,0.1c-1.07-0.03-2.5-0.09-3.57-0.18l-2.08-0.31c-0.94-0.21-2.18-0.51-3.1-0.77
									l-1.96-0.69c-1.13-0.5-2.6-1.21-3.69-1.79c-5.99-3.48-9.72-10.86-9.75-21.33C443.59,188.27,444.24,188.59,444.91,188.88
									L444.91,188.88z"/>
							</g>
						</g>
						<g style="enable-background:new    ;">
							<defs>
								<path id="SVGID_35_" style="enable-background:new    ;" d="M435.3,179.59l-0.01-3.78l-0.01-3.78l-0.01-3.78l-0.01-3.78
									l-0.01-3.78l-0.01-3.78l-0.01-3.78l-0.01-3.78l-0.01-3.78l-0.01-3.78c0.01,2.38,1.64,4.81,4.86,6.68l0.11,37.78
									C436.94,184.4,435.31,181.98,435.3,179.59z"/>
							</defs>
							<clipPath id="SVGID_36_">
								<use xlink:href="#SVGID_35_"  style="overflow:visible;"/>
							</clipPath>
							<g style="clip-path:url(#SVGID_36_);enable-background:new    ;">
								<path style="fill:#E10E2B;" d="M440.05,148.5l0.11,37.78c-3.22-1.87-4.85-4.3-4.86-6.68l-0.01-3.78l-0.01-3.78l-0.01-3.78
									l-0.01-3.78l-0.01-3.78l-0.01-3.78l-0.01-3.78l-0.01-3.78l-0.01-3.78l-0.01-3.78C435.2,144.2,436.83,146.63,440.05,148.5
									L440.05,148.5z"/>
							</g>
						</g>
						<g style="enable-background:new    ;">
							<defs>
								<path id="SVGID_37_" style="enable-background:new    ;" d="M465.05,90.05l10.32-5.96l10.32-5.96L496,72.18l10.32-5.96
									l10.32-5.96l10.32-5.96l10.32-5.96l10.32-5.96l10.32-5.96l10.32-5.96c2.05-1.19,4.97-0.97,8.22,0.91L473.27,90.96
									C470.03,89.08,467.11,88.87,465.05,90.05z"/>
							</defs>
							<clipPath id="SVGID_38_">
								<use xlink:href="#SVGID_37_"  style="overflow:visible;"/>
							</clipPath>
							<g style="clip-path:url(#SVGID_38_);enable-background:new    ;">
								<path style="fill:#F2143F;" d="M576.44,31.4L473.27,90.96c-0.11-0.06-0.22-0.13-0.34-0.19L576.1,31.21
									C576.21,31.27,576.33,31.34,576.44,31.4L576.44,31.4z"/>
								<path style="fill:#EE133B;" d="M576.1,31.21L472.94,90.77c-0.43-0.24-0.85-0.44-1.27-0.62l103.16-59.56
									C575.25,30.77,575.67,30.97,576.1,31.21L576.1,31.21z"/>
								<path style="fill:#EB1137;" d="M574.83,30.59L471.67,90.15c-0.43-0.19-0.86-0.34-1.28-0.46l103.16-59.56
									C573.97,30.25,574.4,30.41,574.83,30.59L574.83,30.59z"/>
								<path style="fill:#E81033;" d="M573.56,30.13L470.39,89.69c-0.46-0.13-0.91-0.23-1.34-0.29l103.17-59.56
									C572.65,29.9,573.1,29.99,573.56,30.13L573.56,30.13z"/>
								<path style="fill:#E40F2F;" d="M572.21,29.83L469.05,89.4c-0.53-0.08-1.04-0.1-1.53-0.06l103.16-59.56
									C571.17,29.74,571.68,29.76,572.21,29.83L572.21,29.83z"/>
								<path style="fill:#E10E2B;" d="M570.68,29.77L467.52,89.33c-0.91,0.06-1.74,0.3-2.46,0.72l10.32-5.96l10.32-5.96L496,72.18
									l10.32-5.96l10.32-5.96l10.32-5.96l10.32-5.96l10.32-5.96l10.32-5.96l10.32-5.96C568.94,30.07,569.77,29.83,570.68,29.77
									L570.68,29.77z"/>
							</g>
						</g>
						<g>
							<polygon style="fill:#E30F2E;" points="442.99,187.92 440.16,186.28 440.05,148.5 442.88,150.14 							"/>
						</g>
						<g>
							<polygon style="fill:#F51543;" points="476.1,92.6 473.27,90.96 576.44,31.4 579.26,33.04 							"/>
						</g>
						<g style="enable-background:new    ;">
							<defs>
								<path id="SVGID_39_" style="enable-background:new    ;" d="M464.98,188.31c-5.91,3.41-15.76,3.24-22-0.39l-0.11-37.78
									c6.24,3.63,16.09,3.8,22,0.39L464.98,188.31z"/>
							</defs>
							<clipPath id="SVGID_40_">
								<use xlink:href="#SVGID_39_"  style="overflow:visible;"/>
							</clipPath>
							<g style="clip-path:url(#SVGID_40_);enable-background:new    ;">
								<path style="fill:#EE133B;" d="M464.88,150.53l0.11,37.78c-2.64,1.52-6.07,2.33-9.61,2.44l-0.11-37.78
									C458.81,152.86,462.24,152.05,464.88,150.53L464.88,150.53z"/>
								<path style="fill:#EB1137;" d="M455.27,152.97l0.11,37.78c-1.28,0.04-2.57-0.02-3.85-0.16l-0.11-37.78
									C452.7,152.95,453.99,153,455.27,152.97L455.27,152.97z"/>
								<path style="fill:#E81033;" d="M451.42,152.8l0.11,37.78c-1.12-0.13-2.23-0.33-3.31-0.59l-0.11-37.78
									C449.19,152.48,450.3,152.68,451.42,152.8L451.42,152.8z"/>
								<path style="fill:#E40F2F;" d="M448.11,152.21l0.11,37.78c-1.15-0.29-2.27-0.66-3.31-1.11l-0.11-37.78
									C445.85,151.55,446.96,151.92,448.11,152.21L448.11,152.21z"/>
								<path style="fill:#E10E2B;" d="M444.8,151.1l0.11,37.78c-0.67-0.29-1.31-0.61-1.92-0.96l-0.11-37.78
									C443.49,150.49,444.13,150.81,444.8,151.1L444.8,151.1z"/>
							</g>
						</g>
						<g style="enable-background:new    ;">
							<defs>
								<path id="SVGID_41_" style="enable-background:new    ;" d="M487.43,111.46c-0.02-6.79-5.09-15.23-11.33-18.86l103.16-59.56
									c6.24,3.63,11.31,12.07,11.33,18.86L487.43,111.46z"/>
							</defs>
							<clipPath id="SVGID_42_">
								<use xlink:href="#SVGID_41_"  style="overflow:visible;"/>
							</clipPath>
							<g style="clip-path:url(#SVGID_42_);enable-background:new    ;">
								<path style="fill:#EE133B;" d="M590.59,51.9l-103.16,59.56c0-0.31-0.01-0.63-0.04-0.95l103.17-59.56
									C590.58,51.27,590.59,51.59,590.59,51.9L590.59,51.9z"/>
								<path style="fill:#F2143F;" d="M590.56,50.95l-103.17,59.56c-0.03-0.43-0.08-0.87-0.14-1.32l103.16-59.56
									C590.48,50.08,590.53,50.52,590.56,50.95L590.56,50.95z"/>
								<path style="fill:#F51543;" d="M590.41,49.64L487.25,109.2c-0.07-0.48-0.17-0.96-0.28-1.45l103.17-59.56
									C590.25,48.68,590.34,49.16,590.41,49.64L590.41,49.64z"/>
								<path style="fill:#F81747;" d="M590.13,48.19l-103.17,59.56c-0.13-0.56-0.29-1.13-0.47-1.69L589.66,46.5
									C589.84,47.07,590,47.63,590.13,48.19L590.13,48.19z"/>
								<path style="fill:#FC184B;" d="M589.66,46.5L486.5,106.06c-0.26-0.8-0.57-1.61-0.93-2.4L588.73,44.1
									C589.09,44.89,589.4,45.7,589.66,46.5L589.66,46.5z"/>
								<path style="fill:#FF194F;" d="M588.73,44.1l-103.16,59.56c-0.96-2.16-2.26-4.24-3.79-6.09l103.16-59.56
									C586.47,39.85,587.76,41.94,588.73,44.1L588.73,44.1z"/>
								<path style="fill:#FC184B;" d="M584.94,38.01L481.78,97.57c-0.6-0.72-1.23-1.41-1.89-2.05l103.17-59.56
									C583.72,36.6,584.35,37.28,584.94,38.01L584.94,38.01z"/>
								<path style="fill:#F81747;" d="M583.06,35.96L479.89,95.52c-0.48-0.46-0.97-0.9-1.48-1.31l103.17-59.56
									C582.08,35.05,582.58,35.49,583.06,35.96L583.06,35.96z"/>
								<path style="fill:#F51543;" d="M581.58,34.65L478.41,94.21c-0.44-0.36-0.89-0.69-1.35-1l103.17-59.56
									C580.68,33.96,581.13,34.29,581.58,34.65L581.58,34.65z"/>
								<path style="fill:#F2143F;" d="M580.23,33.65L477.06,93.21c-0.32-0.21-0.64-0.42-0.96-0.6l103.16-59.56
									C579.58,33.23,579.91,33.43,580.23,33.65L580.23,33.65z"/>
							</g>
						</g>
						<g>
							<path style="fill:#F1143F;" d="M590.59,51.9c12.39-7.18,22.68-1.32,22.7,12.94c0.04,12.59,0.07,25.19,0.11,37.78
								c0.06,14.23-10.16,31.93-22.55,39.06c-34.39,19.85-68.77,39.71-103.16,59.56c-12.4,7.18-22.68,1.32-22.7-12.94
								c-0.04-12.59-0.07-25.19-0.11-37.78c-0.06-14.23,10.15-31.93,22.55-39.06C521.82,91.61,556.21,71.76,590.59,51.9z"/>
						</g>
						<g style="enable-background:new    ;">
							<defs>
								<path id="SVGID_43_" style="enable-background:new    ;" d="M435.2,141.82c0.02-0.86,0.03-2.01,0.08-2.87
									c0.07-1.04,0.17-2.42,0.33-3.44c0.27-1.76,0.71-4.09,1.09-5.83c0.21-0.97,0.59-2.24,0.87-3.19
									c0.58-1.99,1.73-5.05,2.09-5.86c0.37-0.86,0.84-2.02,1.25-2.86c0.82-1.67,1.93-3.88,2.85-5.49
									c1.04-1.79,1.04-1.79,3.33-5.22c0.52-0.77,1.28-1.74,1.83-2.48c0.57-0.78,2.7-3.35,3.98-4.69c0.65-0.68,1.51-1.6,2.21-2.24
									c1.32-1.21,3.11-2.78,4.5-3.9c0.36-0.29,2.34-1.86,5.47-3.68c2.05-1.18,4.97-0.97,8.22,0.91
									c-18.33,10.58-33.28,36.48-33.22,57.54C436.83,146.63,435.2,144.2,435.2,141.82z"/>
							</defs>
							<clipPath id="SVGID_44_">
								<use xlink:href="#SVGID_43_"  style="overflow:visible;"/>
							</clipPath>
							<g style="clip-path:url(#SVGID_44_);enable-background:new    ;">
								<path style="fill:#EE133B;" d="M435.2,141.82c0.12-4.24,0.44-15.48,8.55-29.55c3.87-6.71,10.71-16.02,21.31-22.22
									c2.05-1.18,4.97-0.97,8.22,0.91c-18.33,10.58-33.28,36.48-33.22,57.54C436.83,146.63,435.2,144.2,435.2,141.82L435.2,141.82
									z"/>
								<path style="fill:#EE133B;" d="M472.94,90.77c-7.67,3.96-14.04,8.92-20.19,20.25c-7.75,11.51-12.73,25.3-12.7,37.47
									c-3.22-1.87-4.85-4.3-4.86-6.68c0.02-0.86,0.06-2.01,0.08-2.87c0.09-1.03,0.2-2.41,0.33-3.44l0.46-2.92
									c0.21-0.95,0.46-2.23,0.69-3.18l0.8-2.92c0.29-0.9,0.67-2.11,0.99-3l1.1-2.86c0.37-0.86,0.86-2.01,1.25-2.86l1.37-2.77
									c0.45-0.82,1.03-1.91,1.49-2.72l1.61-2.65c0.52-0.77,1.19-1.81,1.72-2.57l1.83-2.48c0.59-0.72,1.35-1.71,1.96-2.42
									l2.03-2.27c0.66-0.67,1.53-1.58,2.21-2.24l2.2-2.01c0.75-0.62,1.74-1.45,2.51-2.05l2.35-1.7c0.87-0.55,2.02-1.31,2.91-1.83
									C467.04,88.91,469.83,89.07,472.94,90.77L472.94,90.77z"/>
								<path style="fill:#EB1137;" d="M471.67,90.15c-11.71,6.12-19.59,15.83-24.08,29.67c-4.73,9.36-7.56,19.48-7.54,28.67
									c-3.22-1.87-4.85-4.3-4.86-6.68c0.02-0.86,0.06-2.01,0.08-2.87c0.09-1.03,0.2-2.41,0.33-3.44l0.46-2.92
									c0.21-0.95,0.46-2.23,0.69-3.18l0.8-2.92c0.29-0.9,0.67-2.11,0.99-3l1.1-2.86c0.37-0.86,0.86-2.01,1.25-2.86l1.37-2.77
									c0.45-0.82,1.03-1.91,1.49-2.72l1.61-2.65c0.52-0.77,1.19-1.81,1.72-2.57l1.83-2.48c0.59-0.72,1.35-1.71,1.96-2.42
									l2.03-2.27c0.66-0.67,1.53-1.58,2.21-2.24l2.2-2.01c0.75-0.62,1.74-1.45,2.51-2.05l2.35-1.7c0.87-0.55,2.02-1.31,2.91-1.83
									C466.77,89.07,469.07,89.05,471.67,90.15L471.67,90.15z"/>
								<path style="fill:#E81033;" d="M470.39,89.69L470.39,89.69c-21.07,11.7-25.37,31.89-26.18,37.8
									c-2.66,7.06-4.18,14.28-4.16,21c-3.22-1.87-4.85-4.3-4.86-6.68c0.02-0.86,0.06-2.01,0.08-2.87c0.09-1.03,0.2-2.41,0.33-3.44
									l0.46-2.92c0.21-0.95,0.46-2.23,0.69-3.18l0.8-2.92c0.29-0.9,0.67-2.11,0.99-3l1.1-2.86c0.37-0.86,0.86-2.01,1.25-2.86
									l1.37-2.77c0.45-0.82,1.03-1.91,1.49-2.72l1.61-2.65c0.52-0.77,1.19-1.81,1.72-2.57l1.83-2.48
									c0.59-0.72,1.35-1.71,1.96-2.42l2.03-2.27c0.66-0.67,1.53-1.58,2.21-2.24l2.2-2.01c0.75-0.62,1.74-1.45,2.51-2.05l2.35-1.7
									c0.87-0.55,2.02-1.31,2.91-1.83C466.48,89.23,468.32,89.08,470.39,89.69L470.39,89.69z"/>
								<path style="fill:#E40F2F;" d="M469.05,89.4L469.05,89.4c-16.39,9.34-27.07,27.25-27.22,45.62
									c-1.16,4.58-1.79,9.13-1.78,13.48c-3.22-1.87-4.85-4.3-4.86-6.68c0.02-0.86,0.06-2.01,0.08-2.87
									c0.09-1.03,0.2-2.41,0.33-3.44l0.46-2.92c0.21-0.95,0.46-2.23,0.69-3.18l0.8-2.92c0.29-0.9,0.67-2.11,0.99-3l1.1-2.86
									c0.37-0.86,0.86-2.01,1.25-2.86l1.37-2.77c0.45-0.82,1.03-1.91,1.49-2.72l1.61-2.65c0.52-0.77,1.19-1.81,1.72-2.57
									l1.83-2.48c0.59-0.72,1.35-1.71,1.96-2.42l2.03-2.27c0.66-0.67,1.53-1.58,2.21-2.24l2.2-2.01c0.75-0.62,1.74-1.45,2.51-2.05
									l2.35-1.7c0.87-0.55,2.02-1.31,2.91-1.83C466.17,89.41,467.53,89.18,469.05,89.4L469.05,89.4z"/>
								<path style="fill:#E10E2B;" d="M467.52,89.33c-21.67,12.72-30.18,37.3-27.2,53.98c-0.19,1.75-0.28,3.49-0.27,5.19
									c-3.22-1.87-4.85-4.3-4.86-6.68c0.02-0.86,0.06-2.01,0.08-2.87c0.09-1.03,0.2-2.41,0.33-3.44l0.46-2.92
									c0.21-0.95,0.46-2.23,0.69-3.18l0.8-2.92c0.29-0.9,0.67-2.11,0.99-3l1.1-2.86c0.37-0.86,0.86-2.01,1.25-2.86l1.37-2.77
									c0.45-0.82,1.03-1.91,1.49-2.72l1.61-2.65c0.52-0.77,1.19-1.81,1.72-2.57l1.83-2.48c0.59-0.72,1.35-1.71,1.96-2.42
									l2.03-2.27c0.66-0.67,1.53-1.58,2.21-2.24l2.2-2.01c0.75-0.62,1.74-1.45,2.51-2.05l2.35-1.7c0.87-0.55,2.02-1.31,2.91-1.83
									C465.78,89.63,466.61,89.39,467.52,89.33L467.52,89.33z"/>
							</g>
						</g>
						<g style="enable-background:new    ;">
							<defs>
								<path id="SVGID_45_" style="enable-background:new    ;" d="M464.88,150.53c-5.91,3.41-15.76,3.24-22-0.39
									c-0.06-21.06,14.89-46.95,33.22-57.54c6.24,3.63,11.31,12.07,11.33,18.86C475.03,118.6,464.82,136.3,464.88,150.53z"/>
							</defs>
							<clipPath id="SVGID_46_">
								<use xlink:href="#SVGID_45_"  style="overflow:visible;"/>
							</clipPath>
							<g style="clip-path:url(#SVGID_46_);enable-background:new    ;">
								<path style="fill:#FC184B;" d="M464.88,150.53c-5.91,3.41-15.76,3.24-22-0.39c-0.06-21.06,14.89-46.95,33.22-57.54
									c6.24,3.63,11.31,12.07,11.33,18.86C475.03,118.6,464.82,136.3,464.88,150.53L464.88,150.53z"/>
								<path style="fill:#FC184B;" d="M481.76,97.55c-18.53,6.04-20.35,22.95-16.96,23.59c1.82,0.35,5.49-3.25,9.37-7.05
									c4.95-4.84,11.09-10.17,11.39-10.43c1.17,2.61,1.86,5.32,1.86,7.8c-12.4,7.14-22.61,24.83-22.55,39.06
									c-5.91,3.41-15.76,3.24-22-0.39c-0.06-21.06,14.89-46.95,33.22-57.54C478.16,93.8,480.1,95.53,481.76,97.55L481.76,97.55z"
									/>
								<path style="fill:#F81747;" d="M479.89,95.52c-21.47,9.03-23.41,30.63-19.32,33.28c1.87,1.21,4.35-1.12,8.88-6.46
									c7.24-8.55,11.73-12.44,17.04-16.29c0.6,1.84,0.93,3.68,0.94,5.41c-12.4,7.14-22.61,24.83-22.55,39.06
									c-5.91,3.41-15.76,3.24-22-0.39c-0.06-21.06,14.89-46.95,33.22-57.54C477.43,93.38,478.71,94.37,479.89,95.52L479.89,95.52z
									"/>
								<path style="fill:#F51543;" d="M478.41,94.21c-25.94,12.2-24.68,39.46-19.58,41.74c2.25,1.01,4.75-2.24,7.33-5.95
									c6.27-9.04,11.43-15.93,20.82-22.24c0.3,1.26,0.46,2.51,0.46,3.71c-12.4,7.14-22.61,24.83-22.55,39.06
									c-5.91,3.41-15.76,3.24-22-0.39c-0.06-21.06,14.89-46.95,33.22-57.54C476.89,93.06,477.66,93.6,478.41,94.21L478.41,94.21z"
									/>
								<path style="fill:#F2143F;" d="M477.06,93.21c-27.53,12.79-26.87,46.23-19.05,49.48c2.67,1.11,4.29-1.91,7.22-7.39
									c4.71-8.78,10.67-18.76,22.01-26.11c0.12,0.77,0.18,1.53,0.18,2.27c-12.4,7.14-22.61,24.83-22.55,39.06
									c-5.91,3.41-15.76,3.24-22-0.39c-0.06-21.06,14.89-46.95,33.22-57.54C476.42,92.79,476.74,93,477.06,93.21L477.06,93.21z"/>
								<path style="fill:#EE133B;" d="M487.43,111.46c-12.4,7.14-22.61,24.83-22.55,39.06c-5.91,3.41-15.76,3.24-22-0.39
									c-0.04-12.17,4.95-25.96,12.7-37.48c-0.07,0.13-0.15,0.3-0.21,0.43c-11.59,26.03,1.97,37.77,4.96,36.82
									c1.52-0.48,2.29-2.16,3.54-5.99c3.27-10.02,9.27-24.39,23.54-33.4C487.42,110.83,487.43,111.15,487.43,111.46L487.43,111.46
									z"/>
								<path style="fill:#EB1137;" d="M450.25,122.04c-1.23,5.23-4.51,19.14,5.04,30.92c-4.39,0.13-8.96-0.82-12.41-2.82
									c-0.03-9.2,2.81-19.31,7.54-28.67C450.37,121.64,450.3,121.87,450.25,122.04L450.25,122.04z"/>
								<path style="fill:#E81033;" d="M446.78,131.69c-0.18,3.36-0.66,12.3,4.65,21.12c-3.1-0.35-6.1-1.24-8.55-2.66
									c-0.02-6.73,1.49-13.95,4.16-21C446.96,129.9,446.84,130.92,446.78,131.69L446.78,131.69z"/>
								<path style="fill:#E40F2F;" d="M444.69,137.89c0.21,3.08,0.57,8.23,3.42,14.32c-1.89-0.47-3.68-1.16-5.23-2.07
									c-0.01-4.35,0.62-8.9,1.78-13.48C444.67,137.03,444.67,137.52,444.69,137.89L444.69,137.89z"/>
								<path style="fill:#E10E2B;" d="M443.68,147.49c0.4,1.57,1.12,3.59,1.13,3.61c-0.67-0.29-1.31-0.61-1.92-0.96
									c0-1.7,0.09-3.44,0.27-5.19C443.31,145.71,443.5,146.73,443.68,147.49L443.68,147.49z"/>
							</g>
						</g>
						<g style="enable-background:new    ;">
							<defs>
								<path id="SVGID_47_" style="enable-background:new    ;" d="M442.88,150.14l-2.82-1.64c-0.06-21.06,14.89-46.95,33.22-57.54
									l2.82,1.64C457.77,103.19,442.82,129.08,442.88,150.14z"/>
							</defs>
							<clipPath id="SVGID_48_">
								<use xlink:href="#SVGID_47_"  style="overflow:visible;"/>
							</clipPath>
							<g style="clip-path:url(#SVGID_48_);enable-background:new    ;">
								<path style="fill:#E10E2B;" d="M442.88,150.14l-2.82-1.64c0-1.7,0.09-3.43,0.27-5.18l2.82,1.64
									C442.97,146.71,442.88,148.44,442.88,150.14L442.88,150.14z"/>
								<path style="fill:#E40F2F;" d="M443.15,144.96l-2.82-1.64c0.29-2.73,0.8-5.51,1.51-8.31l2.82,1.64
									C443.95,139.45,443.44,142.23,443.15,144.96L443.15,144.96z"/>
								<path style="fill:#E81033;" d="M444.66,136.66l-2.82-1.64c0.64-2.51,1.44-5.03,2.38-7.52l2.82,1.64
									C446.09,131.63,445.3,134.15,444.66,136.66L444.66,136.66z"/>
								<path style="fill:#EB1137;" d="M447.04,129.13l-2.82-1.64c0.98-2.59,2.11-5.16,3.38-7.67l2.82,1.64
									C449.15,123.98,448.02,126.54,447.04,129.13L447.04,129.13z"/>
								<path style="fill:#EE133B;" d="M450.42,121.46l-2.82-1.64c1.54-3.04,3.27-6,5.18-8.83l2.82,1.64
									C453.69,115.46,451.95,118.42,450.42,121.46L450.42,121.46z"/>
								<path style="fill:#F2143F;" d="M455.59,112.63l-2.82-1.64c5.65-8.39,12.78-15.57,20.5-20.03l2.82,1.64
									C468.37,97.06,461.25,104.24,455.59,112.63L455.59,112.63z"/>
							</g>
						</g>
					</g>
				</g>
			</g>
			<g>
				<polygon style="fill:#FF9292;" points="581.55,127.49 576,124.27 590.69,75.95 596.23,79.17 				"/>
				<polygon style="fill:#FF8585;" points="578.86,89.2 573.32,85.98 573.28,73.41 578.83,76.63 				"/>
				<polygon style="fill:#FFADAD;" points="578.83,76.63 573.28,73.41 602.69,56.43 608.23,59.65 				"/>
				<polygon style="fill:#FFEDED;" points="608.23,59.65 611.34,64.96 593.9,120.36 581.55,127.49 596.23,79.17 578.86,89.2 
					578.83,76.63 				"/>
				<polygon style="fill:#FFA6A6;" points="566.07,79.84 560.53,76.62 570.64,74.85 576.19,78.07 				"/>
				<polygon style="fill:#FF9191;" points="547.26,148.25 541.71,145.03 560.53,76.62 566.07,79.84 				"/>
				<polygon style="fill:#FFEDED;" points="566.07,79.84 576.19,78.07 557.44,146.6 547.26,148.25 				"/>
				<polygon style="fill:#FFADAD;" points="539.73,129.49 534.19,126.27 538.43,123.82 543.98,127.04 				"/>
				<polygon style="fill:#FF8585;" points="528.79,157.95 523.24,154.73 523.21,143.34 528.76,146.57 				"/>
				<polygon style="fill:#FFADAD;" points="521.52,140.15 515.97,136.93 524.02,132.28 529.57,135.51 				"/>
				<polygon style="fill:#FF8585;" points="529.57,135.51 524.02,132.28 524.11,118.83 529.65,122.05 				"/>
				<polygon style="fill:#FF8080;" points="512.73,155.82 507.19,152.59 503.5,146.95 509.04,150.17 				"/>
				<polygon style="fill:#FFADAD;" points="530.19,104.71 524.64,101.49 534.1,96.03 539.65,99.25 				"/>
				<polygon style="fill:#FF9A9A;" points="509.04,150.17 503.5,146.95 524.64,101.49 530.19,104.71 				"/>
				<path style="fill:#FFEDED;" d="M539.73,129.49l4.24-2.45l0.03,10.72l-4.25,2.45l0.03,11.39l-11.01,6.36l-0.03-11.39l-16.02,9.25
					l-3.69-5.65l21.14-45.46l9.46-5.46L539.73,129.49z M529.57,135.51l0.09-13.46l-8.13,18.1L529.57,135.51L529.57,135.51z"/>
				<polygon style="fill:#FFADAD;" points="500.94,154.94 490.65,160.88 485.31,165.22 490.86,168.45 496.2,164.11 506.49,158.16 
									"/>
				<polygon style="fill:#FF8080;" points="477.19,187.67 471.64,184.45 468.72,179.25 474.27,182.47 				"/>
				<path style="fill:#FF9E9E;" d="M493.37,138.93l-5.54-3.22c1.62,0.94,1.95,4.04-0.63,8.89l-18.46,34.66l5.54,3.22l18.46-34.66
					C495.31,142.97,494.98,139.87,493.37,138.93z"/>
				<path style="fill:#FFBFBF;" d="M496.99,121.63c-2.57-1.49-6.37-1.25-11.35,1.63c-6.24,3.6-12.41,10.87-16.12,21.23l5.55,3.22
					c3.71-10.37,9.88-17.63,16.12-21.23c4.98-2.88,8.78-3.12,11.35-1.63L496.99,121.63z"/>
				<path style="fill:#FFEDED;" d="M491.19,126.48c10.04-5.79,15.28-0.89,15.3,7.32c0.01,4.88-1.52,11.09-5.62,17.91l-10.01,16.74
					l5.34-4.34l10.29-5.94l0.04,12.57l-29.34,16.94l-2.92-5.2l18.47-34.66c3.94-7.41,1.09-10.74-2.76-8.51
					c-2.1,1.21-4.5,4.07-6.26,8.83l-8.64-0.42C478.79,137.35,484.95,130.09,491.19,126.48z"/>
			</g>
		</g>
		<g style="opacity:0.28;">
			<path style="fill:#009EF2;" d="M223.94,520.38c-0.23,2.04-0.34,4.1-0.33,6.14L223.94,520.38z"/>
			<path style="fill:#009EF2;" d="M534.69,522.04l0.28,5.05C534.96,525.4,534.86,523.72,534.69,522.04z"/>
			<defs>
				<filter id="Adobe_OpacityMaskFilter" filterUnits="userSpaceOnUse" x="223.94" y="289.88" width="310.75" height="232.16">
					<feFlood  style="flood-color:white;flood-opacity:1" result="back"/>
					<feBlend  in="SourceGraphic" in2="back" mode="normal"/>
				</filter>
			</defs>
			<mask maskUnits="userSpaceOnUse" x="223.94" y="289.88" width="310.75" height="232.16" id="SVGID_49_">
				<g style="filter:url(#Adobe_OpacityMaskFilter);">
					<defs>
						<filter id="Adobe_OpacityMaskFilter_1_" filterUnits="userSpaceOnUse" x="223.94" y="289.88" width="310.75" height="232.16">
							<feFlood  style="flood-color:white;flood-opacity:1" result="back"/>
							<feBlend  in="SourceGraphic" in2="back" mode="normal"/>
						</filter>
					</defs>
					<mask maskUnits="userSpaceOnUse" x="223.94" y="289.88" width="310.75" height="232.16" id="SVGID_49_">
						<g style="filter:url(#Adobe_OpacityMaskFilter_1_);">
						</g>
					</mask>
					<linearGradient id="SVGID_50_" gradientUnits="userSpaceOnUse" x1="379.3115" y1="522.0352" x2="379.3115" y2="289.8799">
						<stop  offset="0.0189" style="stop-color:#FFFFFF"/>
						<stop  offset="0.9703" style="stop-color:#000000"/>
					</linearGradient>
					<path style="mask:url(#SVGID_49_);fill:url(#SVGID_50_);" d="M529.46,378.92c0.8-22.87-13.97-45.94-44.3-63.45
						c-58.84-33.97-153.95-34.15-212.43-0.38c-29.24,16.88-43.78,39.05-43.66,61.24l-5.14,144.05
						c2.36-20.91,17.32-41.39,44.92-57.33c60.61-34.99,159.18-34.81,220.17,0.4c28.26,16.32,43.48,37.29,45.66,58.58L529.46,378.92z
						"/>
				</g>
			</mask>
			<linearGradient id="SVGID_51_" gradientUnits="userSpaceOnUse" x1="379.3115" y1="522.0352" x2="379.3115" y2="289.8799">
				<stop  offset="0.0189" style="stop-color:#0091FF"/>
				<stop  offset="0.9703" style="stop-color:#0091FF"/>
			</linearGradient>
			<path style="fill:url(#SVGID_51_);" d="M529.46,378.92c0.8-22.87-13.97-45.94-44.3-63.45c-58.84-33.97-153.95-34.15-212.43-0.38
				c-29.24,16.88-43.78,39.05-43.66,61.24l-5.14,144.05c2.36-20.91,17.32-41.39,44.92-57.33c60.61-34.99,159.18-34.81,220.17,0.4
				c28.26,16.32,43.48,37.29,45.66,58.58L529.46,378.92z"/>
		</g>
		<g>
			<path style="fill:#709EDB;" d="M439.93,558.42c-33.28,19.22-87.42,19.12-120.91-0.22c-33.49-19.34-33.66-50.59-0.38-69.81
				s87.42-19.12,120.91,0.22C473.04,507.95,473.21,539.21,439.93,558.42z"/>
			<path style="fill:#344041;" d="M433.63,487.19c-30.38-17.54-79.48-17.63-109.67-0.2c-30.19,17.43-30.04,45.78,0.34,63.32
				c30.38,17.54,79.48,17.63,109.67,0.2S464.01,504.73,433.63,487.19z"/>
			<g>
				
					<linearGradient id="SVGID_52_" gradientUnits="userSpaceOnUse" x1="2777.2021" y1="382.9521" x2="2823.6362" y2="234.7571" gradientTransform="matrix(-0.9958 -0.0917 -0.0917 0.9958 3148.6631 166.6719)">
					<stop  offset="0.1224" style="stop-color:#F7413E"/>
					<stop  offset="0.3796" style="stop-color:#F84542"/>
					<stop  offset="0.6479" style="stop-color:#FA524E"/>
					<stop  offset="0.9204" style="stop-color:#FE6661"/>
					<stop  offset="0.9896" style="stop-color:#FF6D67"/>
				</linearGradient>
				<path style="fill:url(#SVGID_52_);" d="M387.59,190.91c0,0-28.34-50.77-64.14-35.08c-19.15,8.39-47.79,28.44-24.24,87.95
					c21.33,53.91-5.64,82.87-5.64,82.87s21.54,4.64,34.73-5.61c13.19-10.26,11.71-12.2,13.39-47.64
					C343.36,237.96,387.59,190.91,387.59,190.91z"/>
				<path style="fill:#404A4B;" d="M429.26,284.62c-25.52,13.43-21.06,50.59-15.06,78.09s24.52,133.03,35.52,138.95
					c5,8.92,37,15.68,47-6.41c0.04-20-15.78-114.22-23.02-144.72S451.03,281.3,429.26,284.62z"/>
				<path style="fill:#344041;" d="M426.86,550.58c0,0-15.61,13.08-66.61,6.16c-37.18-5.04-58.83-34.02-58.81-39.18
					c0.09-19.45,0.33-20.46-1.51-34.23c-5.65-42.42-29.69-62.91-37.93-88.48c-11.95-37.04-4.15-50.75,2.85-56.63
					c38.44-32.26,83.53-46.88,89.46-47.05c5.93-0.17,58.68-11.56,72.3-7.6c37.69,10.96,50.61,53.85,37.69,129.02
					c-3.65,21.26-3.52,48.01-5.74,67.35c-2.22,19.34-1.59,33.41-2.17,38.17C456.39,518.1,436,540.88,426.86,550.58z"/>
				<path style="fill:#404A4B;" d="M262.9,340.06c-25.52,13.43-21.06,50.59-15.06,78.09s24.52,133.03,35.52,138.95
					c5,8.92,37,15.68,47-6.41c0.04-20-15.77-114.22-23.02-144.72S284.67,336.74,262.9,340.06z"/>
				<path style="fill:#DDE8F6;" d="M309,314.05c-10.36,30.08,29.96,35.58,70.08,94.23c17.31,25.31,38.36,82.34,38.36,82.34
					s19.06-82.13,18.6-110.67c-0.46-28.55-4.53-87.12-22.77-81.69C401.46,301.77,309,314.05,309,314.05z"/>
				<path style="fill:#6A7273;" d="M416.04,468.61c-0.6-2.52,13.78-51.05,15.93-78.95c4.07-52.85-4.44-77.34-11.49-85.12
					c-3.98-3.38-16.41-10.01-16.41-10.01l-2.07-8.32c0,0,12.09,0.73,22.89,6.76c7.38,4.12,24.63,23.68,23.83,49.54
					c-5.25,8.87-8.58,17.13-8.58,17.13l11.08,2c0,0-2.15,66.32-26.04,153.63C413.96,490.12,416.04,468.61,416.04,468.61z"/>
				<g>
					<path style="fill:#F7F7F7;" d="M412.78,490.69c-0.01-0.72-1.19-71.96-7-93.05c-5.94-21.58-18.43-61.29-18.56-61.69l8.88-2.79
						c0.13,0.4,12.66,40.27,18.65,62.02c6.12,22.23,7.29,92.4,7.33,95.38L412.78,490.69z"/>
				</g>
				<linearGradient id="SVGID_53_" gradientUnits="userSpaceOnUse" x1="313.4814" y1="289.625" x2="414.6602" y2="289.625">
					<stop  offset="0" style="stop-color:#FFDBA7"/>
					<stop  offset="1" style="stop-color:#FFC5A4"/>
				</linearGradient>
				<path style="fill:url(#SVGID_53_);" d="M324.21,245.04c6.08,32.7,8.62,44.12,3.65,51.41s-13.59,13.22-14.33,14.6
					c-0.74,1.37,7.25,13.84,22.04,22.93c14.8,9.09,32.77,14.38,55.6,10.36c22.83-4.02,24.88-37.63,22.91-43.76
					c-1.97-6.13-3.67-7.61-12.55-9.73c-3.7-7.61-2.54-26.64-2.54-26.64s-8.14-30.87-20.61-30.66
					C365.91,233.77,324.21,245.04,324.21,245.04z"/>
				<path style="fill:#232234;" d="M423.94,214.04c-2.16-11.57-10.65-21.17-18.96-21.43c-0.67-0.02-1.31,0.04-1.94,0.14l-0.01-0.02
					c-7.36,0.47-11.85,3.91-13.8,5.96c-1.96,2.06,11.59,39.4,16.52,39.23c4.91-0.17,11.29-2.14,14.79-6.69
					C423.84,227.59,425.29,221.29,423.94,214.04z"/>
				<path style="fill:#FFFFFF;" d="M401.74,291.54c2.72,5.8,3.7,18.6,0.85,28.2c-2.85,9.6-10.15,21.12-10.15,21.12l3.08,5.6
					l14.15,10.62c0,0,9.19-12.31,11.1-27.21s-6.65-34.35-11.1-39.32c-4.44-4.97-11.63-6.98-11.63-6.98L401.74,291.54z"/>
				<path style="fill:#FFDFD1;" d="M338.11,268.86c4.86,14.38,12.3,24.95,21.06,30.97c8.75,6.02,27.36,7.72,31.59,0
					c4.23-7.72,6.34-21.46,6.34-22.09C397.1,277.1,338.11,268.86,338.11,268.86z"/>
				<linearGradient id="SVGID_54_" gradientUnits="userSpaceOnUse" x1="320.9751" y1="230.1201" x2="414.0869" y2="230.1201">
					<stop  offset="0" style="stop-color:#FFDBA7"/>
					<stop  offset="1" style="stop-color:#FFC5A4"/>
				</linearGradient>
				<path style="fill:url(#SVGID_54_);" d="M414.08,240.6c-0.14,16.07-4.65,36.23-16.91,49.47c-1.52,0.99-3.02,1.77-4.51,2.38
					c-5.3,2.17-10.48,2.21-15.65,1.99c-6.62-0.28-36.5-14.1-44.68-26.36c-8.18-12.26-12.4-43.83-11.14-57.5
					c1.27-13.67,14.38-37.21,39.32-42.56c24.95-5.35,35.52-0.14,38.48,3.24c2.96,3.38,7.47,7.61,7.47,7.61
					c1.18,9.91,3.26,21.99,4.94,33.55C412.94,222.9,414.15,232.96,414.08,240.6z"/>
				<path style="fill:#FD635E;" d="M386.74,174.08c-4.23,5.5-10.29,7.05-21.56,9.02c-11.28,1.97-25.79,9.02-33.26,30.87
					c-7.47,21.85-6.75,23.22-6.91,28.61s0,15.22,0,15.22s-14.75-5.28-21.26-21.17c-6.5-15.89-9.61-62.7,34.08-84.82
					c21.56-8.46,46.79-2.68,56.66,3.52c9.87,6.2,18.89,22.3,15.57,48.15c-4.02-16.58-8.53-21.51-8.53-21.51l-11.7-7.05
					L386.74,174.08z"/>
				<path style="fill:#FFDFD1;" d="M414.08,240.6c-0.14,16.07-4.65,36.23-16.91,49.47c-1.52,0.99-3.02,1.77-4.51,2.38
					c0.78-5.83,0.13-13.66,0.13-13.66s1.27-3.1,1.27-4.79s-1.41-3.66-1.41-3.66s0.57-2.26,0-4.79c-0.56-2.54-0.42-9.16-0.42-9.16
					s6.77-1.27,7.33-5.22c0.57-3.94-5.78-15.5-9.02-25.37c-3.24-9.86,6.21-9.44,20.87-13.39
					C412.94,222.9,414.15,232.96,414.08,240.6z"/>
				<path style="fill:#FD635E;" d="M325,257.8c0,0-14.75-5.28-21.26-21.17c-6.5-15.89-17.34-70.92,34.08-84.82L325,257.8z"/>
				<g>
					<path style="fill:#232234;" d="M337.51,249.75c-2.16-11.57-10.65-21.17-18.95-21.43c-0.67-0.02-1.31,0.04-1.94,0.14l-0.01-0.02
						c-7.36,0.47-11.85,3.91-13.8,5.96c-1.96,2.06,11.59,39.4,16.52,39.23c4.91-0.17,11.29-2.14,14.79-6.69
						C337.42,263.31,338.87,257,337.51,249.75z"/>
					<path style="fill:#323142;" d="M328.8,253.23c2.16,11.57-2.82,20.74-11.12,20.48c-8.31-0.26-16.79-9.86-18.96-21.43
						c-2.16-11.57,2.82-20.74,11.12-20.48C318.15,232.06,326.63,241.66,328.8,253.23z"/>
					<path style="fill:#1E1D2F;" d="M325.44,254.64c2.04,10.92-2.66,19.58-10.5,19.33s-15.85-9.3-17.89-20.23
						c-2.04-10.92,2.66-19.58,10.5-19.33C315.39,234.66,323.4,243.71,325.44,254.64z"/>
					<g>
						<path style="fill:#323142;" d="M377.76,307.65c-6.02,0-13.29-0.95-18.53-4.72c-16.65-11.96-28.01-27.7-28.48-28.36l-0.22-0.43
							l-3.74-10.7l3.19-1.12l3.66,10.46c1.35,1.83,12.34,16.46,27.57,27.4c9.21,6.61,26.71,3.19,26.89,3.15l0.67,3.32
							C388.38,306.73,383.67,307.65,377.76,307.65z"/>
					</g>
					<path style="fill:#323142;" d="M394.56,308.86l-10.61,1.5c-1.21,0.17-2.33-0.68-2.5-1.88l-0.81-5.75
						c-0.17-1.21,0.68-2.33,1.88-2.5l10.61-1.5c1.21-0.17,2.33,0.68,2.5,1.88l0.81,5.75C396.62,307.56,395.77,308.69,394.56,308.86z
						"/>
					<path style="fill:#232234;" d="M392.49,152.91c-3.68-1.85-25.81-10.65-49.63-1.88c-17.49,6.44-24.72,18.83-32.04,32.61
						c-7.32,13.78-2.05,37.06-2.06,47.9c0,0,3.44-1.52,9.45,1.71c0.01-10.84-5.26-34.12,2.06-47.9s13.76-24.52,31.26-30.96
						c23.82-8.77,39.64-0.68,43.32,1.17C394.85,155.56,393.78,153.66,392.49,152.91z"/>
					<path style="fill:#323142;" d="M374.68,146.87c-7.78-1.84-19.47-2.61-33.91,2.71c-17.49,6.44-24.72,18.83-32.04,32.61
						c-7.32,13.78-2.09,38.39-2.11,49.23c0,0,3.65-2.01,9.5,0.38c0.01-10.84-5.26-34.12,2.06-47.9
						c7.32-13.78,13.76-24.51,31.26-30.96c23.82-8.77,39.37-1.88,43.05-0.03c0,0-2.15-1.26-4.56-2.18
						C386.81,150.31,379.74,148.06,374.68,146.87z"/>
				</g>
				<path style="fill:#FFFFFF;" d="M392.44,340.86l3.08,5.6l-5.19,17.44c0,0-16.81,0.33-44.34-8.93S307.8,334.6,309,314.05
					c3.31-4.91,11.35-13.87,12.83-14.36c1.48-0.49,5.05-1.9,5.05-1.9s-5.66,8.35-8.48,9.54C316.57,322.99,362.2,341.7,392.44,340.86
					z"/>
				<path style="fill:#6A7273;" d="M313.48,308.24c0,0-15.55,8.56-18.3,12.08c-2.75,3.52-17.69,18.32,27.48,61.66
					c19.38,0.21,26.71,3.59,26.71,3.59s-10.84,13.53-10.42,15.86s86.21,113.85,86.21,113.85s-4.44-27.65-10.15-50.93
					s-67.85-96.07-77.36-106.64S303.66,328.58,313.48,308.24z"/>
			</g>
		</g>
		<defs>
			<filter id="Adobe_OpacityMaskFilter_2_" filterUnits="userSpaceOnUse" x="223.6" y="376.33" width="311.36" height="240.36">
				<feFlood  style="flood-color:white;flood-opacity:1" result="back"/>
				<feBlend  in="SourceGraphic" in2="back" mode="normal"/>
			</filter>
		</defs>
		<mask maskUnits="userSpaceOnUse" x="223.6" y="376.33" width="311.36" height="240.36" id="SVGID_55_">
			<g style="filter:url(#Adobe_OpacityMaskFilter_2_);">
				<defs>
					<filter id="Adobe_OpacityMaskFilter_3_" filterUnits="userSpaceOnUse" x="223.6" y="376.33" width="311.36" height="240.36">
						<feFlood  style="flood-color:white;flood-opacity:1" result="back"/>
						<feBlend  in="SourceGraphic" in2="back" mode="normal"/>
					</filter>
				</defs>
				<mask maskUnits="userSpaceOnUse" x="223.6" y="376.33" width="311.36" height="240.36" id="SVGID_55_">
					<g style="filter:url(#Adobe_OpacityMaskFilter_3_);">
					</g>
				</mask>
				<linearGradient id="SVGID_56_" gradientUnits="userSpaceOnUse" x1="379.2866" y1="616.6924" x2="379.2866" y2="376.3325">
					<stop  offset="0.0189" style="stop-color:#FFFFFF"/>
					<stop  offset="0.9703" style="stop-color:#4D4D4D"/>
				</linearGradient>
				<path style="mask:url(#SVGID_55_);fill:url(#SVGID_56_);" d="M529.46,378.92c-0.76,21.5-15.29,42.83-43.63,59.19
					c-58.48,33.76-153.58,33.59-212.43-0.38c-29.42-16.99-44.21-39.21-44.33-61.4l-5.47,150.2c0.13,23,15.45,46.03,45.94,63.64
					c60.99,35.21,159.56,35.39,220.17,0.4c30.3-17.5,45.38-40.47,45.25-63.47L529.46,378.92z"/>
			</g>
		</mask>
		<linearGradient id="SVGID_57_" gradientUnits="userSpaceOnUse" x1="379.2866" y1="616.6924" x2="379.2866" y2="376.3325">
			<stop  offset="0.0189" style="stop-color:#0091FF"/>
			<stop  offset="0.9703" style="stop-color:#0091FF"/>
		</linearGradient>
		<path style="opacity:0.28;fill:url(#SVGID_57_);" d="M529.46,378.92c-0.76,21.5-15.29,42.83-43.63,59.19
			c-58.48,33.76-153.58,33.59-212.43-0.38c-29.42-16.99-44.21-39.21-44.33-61.4l-5.47,150.2c0.13,23,15.45,46.03,45.94,63.64
			c60.99,35.21,159.56,35.39,220.17,0.4c30.3-17.5,45.38-40.47,45.25-63.47L529.46,378.92z"/>
		<g>
			<g>
				<path style="fill:#009EF2;" d="M380.5,562.89c-49.82,0-99.74-10.99-137.79-32.96c-36.99-21.35-57.35-49.73-57.35-79.9
					c0-29.91,20.06-57.96,56.5-78.99c4.69-2.71,9.65-5.29,14.76-7.7l0.51,1.09c-5.08,2.39-10.01,4.96-14.67,7.65
					c-36.04,20.81-55.89,48.49-55.89,77.95c0,29.72,20.16,57.73,56.75,78.86c75.45,43.56,197.83,43.78,272.81,0.49
					c36.04-20.81,55.89-48.49,55.89-77.95c0-29.72-20.15-57.73-56.75-78.86c-13.73-7.93-29.31-14.59-46.29-19.8l0.35-1.15
					c17.07,5.24,32.73,11.94,46.54,19.91c36.99,21.35,57.36,49.73,57.36,79.9c0,29.9-20.06,57.96-56.5,78.99
					C479.22,552.08,429.91,562.89,380.5,562.89z"/>
			</g>
			<path style="fill:#009EF2;" d="M190.42,416.97c2.74,1.58,7.2,1.57,9.96-0.02c2.76-1.59,2.77-4.16,0.03-5.75
				c-2.74-1.58-7.2-1.57-9.96,0.02C187.69,412.81,187.68,415.38,190.42,416.97z"/>
			<path style="fill:#009EF2;" d="M564.75,471.41c2.74,1.58,7.2,1.57,9.96-0.02c2.75-1.59,2.77-4.17,0.03-5.75
				c-2.74-1.58-7.2-1.57-9.96,0.02S562.01,469.83,564.75,471.41z"/>
			<path style="fill:#009EF2;" d="M263.04,542.73c1.88,1.08,4.93,1.08,6.82-0.01s1.9-2.86,0.02-3.94s-4.93-1.08-6.82,0.01
				C261.17,539.88,261.16,541.64,263.04,542.73z"/>
			<path style="fill:#009EF2;" d="M484.43,361.1c1.88,1.08,4.93,1.08,6.82-0.01c1.89-1.09,1.9-2.86,0.02-3.94
				c-1.88-1.08-4.93-1.08-6.82,0.01C482.56,358.26,482.55,360.02,484.43,361.1z"/>
		</g>
	</g>
</g>
</svg>
