<?xml version="1.0" encoding="utf-8"?>
<!-- Generator: Adobe Illustrator 16.0.0, SVG Export Plug-In . SVG Version: 6.00 Build 0)  -->
<!DOCTYPE svg PUBLIC "-//W3C//DTD SVG 1.1//EN" "http://www.w3.org/Graphics/SVG/1.1/DTD/svg11.dtd">
<svg version="1.1" xmlns="http://www.w3.org/2000/svg" xmlns:xlink="http://www.w3.org/1999/xlink" x="0px" y="0px" width="750px"
	 height="500px" viewBox="0 0 750 500" style="enable-background:new 0 0 750 500;" xml:space="preserve">
<g id="BACKGROUND">
	<rect style="fill:#FFFFFF;" width="750" height="500"/>
	<g>
		<g>
			<path style="fill:#DEEDFF;" d="M417.67,91.18c-9.92-3.92-20.61-6.19-31.22-6.67c-29.02-1.3-56.27,10.8-84.68,14.46
				c-18.96,2.44-38.27,2.19-57.16-0.75c-18.7-2.91-36.18-12.35-55.35-9.56c-22.36,3.25-41.26,19.64-48.53,40.91
				c-3.6,10.52-4.25,21.98-1.58,32.8c1.21,4.92,4.62,9.58,2.61,14.59c-1.88,4.69-8.17,7.44-12.25,9.78
				c-8.73,5-15.9,11.08-22.2,19.02C91.24,226,84.17,252.71,90.05,278.09c9.64,41.62,51.19,69.46,93.29,63.34
				c31.32-4.56,56.04-25.94,66.33-53.66c13.67-10.89,26.73-22.43,39.33-32.26c30.83-24.06,61.54-33.33,99.66-38.93
				c23.62-3.47,48.9-9.87,63.77-28.54C480.74,152.5,454.86,105.86,417.67,91.18z"/>
			<g>
				<path style="fill:#FFFFFF;" d="M159.1,310.15l-3.84,0.56c-0.62-2.03-1.44-3.94-2.46-5.74l3.03-2.39
					c0.39-0.31,0.46-0.87,0.15-1.26l-4.34-5.5c-0.31-0.39-0.87-0.46-1.26-0.15l-3.03,2.39c-1.53-1.42-3.21-2.67-5.01-3.74l1.43-3.58
					c0.18-0.46-0.04-0.98-0.5-1.17l-6.51-2.59c-0.46-0.18-0.98,0.04-1.17,0.5l-1.43,3.59c-2.01-0.46-4.08-0.7-6.2-0.72l-0.56-3.83
					c-0.07-0.49-0.53-0.83-1.02-0.76l-6.94,1.01c-0.49,0.07-0.83,0.53-0.76,1.02l0.56,3.83c-2.03,0.62-3.94,1.44-5.74,2.46
					l-2.39-3.03c-0.31-0.39-0.87-0.46-1.26-0.15l-5.5,4.34c-0.39,0.31-0.46,0.87-0.15,1.26l2.39,3.03
					c-1.42,1.53-2.67,3.21-3.74,5.01l-1.86-0.74c2.81,4.32,6.01,8.35,9.53,12.05c1.38-7.1,7.08-12.89,14.65-13.99
					c9.56-1.39,18.45,5.23,19.84,14.8c1.07,7.33-2.59,14.25-8.65,17.71c4.08,1.9,8.31,3.5,12.66,4.73l-0.22-0.28
					c1.42-1.53,2.67-3.21,3.74-5.01l3.58,1.43c0.46,0.18,0.98-0.04,1.17-0.5l2.59-6.51c0.18-0.46-0.04-0.98-0.5-1.17l-3.59-1.43
					c0.46-2.01,0.7-4.08,0.72-6.2l3.83-0.56c0.49-0.07,0.83-0.53,0.76-1.02l-1.01-6.94C160.04,310.42,159.59,310.08,159.1,310.15z"
					/>
				<circle style="fill:#FFFFFF;" cx="127.71" cy="319.16" r="2.92"/>
				<path style="fill:#FFFFFF;" d="M103.91,289.47l-0.56-3.83c2.03-0.62,3.94-1.44,5.74-2.46l2.39,3.03
					c0.31,0.39,0.87,0.46,1.26,0.15l5.5-4.34c0.39-0.31,0.46-0.87,0.15-1.26l-2.39-3.03c1.42-1.53,2.67-3.21,3.74-5.01l3.58,1.43
					c0.46,0.18,0.98-0.04,1.17-0.5l2.59-6.51c0.18-0.46-0.04-0.98-0.5-1.17l-3.59-1.43c0.46-2.01,0.7-4.08,0.72-6.2l3.83-0.56
					c0.49-0.07,0.83-0.53,0.76-1.02l-1.01-6.94c-0.07-0.49-0.53-0.83-1.02-0.76l-3.83,0.56c-0.62-2.02-1.44-3.94-2.46-5.74
					l3.03-2.39c0.39-0.31,0.46-0.87,0.15-1.26l-4.34-5.5c-0.31-0.39-0.87-0.46-1.26-0.15l-3.03,2.39c-1.53-1.42-3.21-2.67-5.01-3.74
					l1.43-3.58c0.18-0.46-0.04-0.98-0.5-1.17l-6.51-2.59c-0.46-0.18-0.98,0.04-1.17,0.5l-1.43,3.59c-2.01-0.46-4.08-0.7-6.2-0.72
					l-0.35-2.42c-1.96,4.67-3.52,9.49-4.65,14.41c0.73-0.2,1.46-0.38,2.23-0.49c9.56-1.39,18.45,5.23,19.84,14.8
					c1.39,9.57-5.23,18.45-14.8,19.84c-2.81,0.41-5.56,0.11-8.08-0.74c0.21,1.14,0.44,2.28,0.7,3.42c0.69,2.98,1.56,5.89,2.57,8.72
					c0.67,0.05,1.34,0.09,2.02,0.09l0.56,3.83c0.07,0.49,0.53,0.83,1.02,0.76l6.94-1.01C103.65,290.42,103.99,289.96,103.91,289.47z
					"/>
				<circle style="fill:#FFFFFF;" cx="94.9" cy="258.09" r="2.92"/>
			</g>
		</g>
		<g>
			<g>
				<g>
					<path style="fill:#242D80;" d="M246.52,353.11c-8.16,0-14.8-6.64-14.8-14.8V131.3c0-8.16,6.64-14.8,14.8-14.8H555.6
						c8.16,0,14.8,6.64,14.8,14.8v207.01c0,8.16-6.64,14.8-14.8,14.8H246.52z"/>
					<path style="fill:#39439E;" d="M555.6,351.11H246.52c-7.07,0-12.8-5.73-12.8-12.8V131.3c0-7.07,5.73-12.8,12.8-12.8H555.6
						c7.07,0,12.8,5.73,12.8,12.8v207.01C568.4,345.38,562.67,351.11,555.6,351.11z"/>
					<path style="fill:#4C6CF1;" d="M246.52,343.11c-2.65,0-4.8-2.16-4.8-4.8V131.3c0-2.65,2.16-4.8,4.8-4.8H555.6
						c2.65,0,4.8,2.16,4.8,4.8v207.01c0,2.65-2.16,4.8-4.8,4.8H246.52z"/>
					<path style="fill:#FFFFFF;" d="M560.4,154.34V131.3c0-2.65-2.16-4.8-4.8-4.8H246.52c-2.65,0-4.8,2.16-4.8,4.8v23.04H560.4z"/>
				</g>
			</g>
			<path style="opacity:0.25;fill:#FFFFFF;" d="M246.52,343.11c-2.65,0-4.8-2.16-4.8-4.8V131.3c0-2.65,2.16-4.8,4.8-4.8H555.6
				c2.65,0,4.8,2.16,4.8,4.8l-310.89,3.04L246.52,343.11z"/>
		</g>
		<g>
			<g>
				<rect x="426.27" y="288.48" style="fill:#1E2778;" width="123.32" height="59.11"/>
				<rect x="426.27" y="338.86" style="fill:#141B5E;" width="123.32" height="8.74"/>
				<g>
					<g>
						<path style="fill:#39439E;" d="M468.87,292.95H440.5c-5.39,0-9.77,4.38-9.77,9.77v24.71h38.14V292.95z"/>
						<path style="fill:#39439E;" d="M535.36,292.95h-64.44v34.48h74.21v-24.71C545.13,297.33,540.75,292.95,535.36,292.95z"/>
						<g>
							<g>
								<g>
									<rect x="476.21" y="297.16" style="fill:#F2CF31;" width="3.72" height="3.72"/>
									<rect x="476.21" y="304.61" style="fill:#64DECC;" width="3.72" height="3.72"/>
									<rect x="476.21" y="312.05" style="fill:#F2CF31;" width="3.72" height="3.72"/>
									<rect x="476.21" y="319.49" style="fill:#64DECC;" width="3.72" height="3.72"/>
								</g>
								<g>
									<rect x="483.1" y="297.16" style="fill:#FFFFFF;" width="3.72" height="3.72"/>
									<rect x="483.1" y="304.61" style="fill:#F2CF31;" width="3.72" height="3.72"/>
									<rect x="483.1" y="312.05" style="fill:#64DECC;" width="3.72" height="3.72"/>
									<rect x="483.1" y="319.49" style="fill:#FFFFFF;" width="3.72" height="3.72"/>
								</g>
								<g>
									<rect x="489.98" y="297.16" style="fill:#64DECC;" width="3.72" height="3.72"/>
									<rect x="489.98" y="304.61" style="fill:#FFFFFF;" width="3.72" height="3.72"/>
									<rect x="489.98" y="312.05" style="fill:#64DECC;" width="3.72" height="3.72"/>
									<rect x="489.98" y="319.49" style="fill:#F2CF31;" width="3.72" height="3.72"/>
								</g>
							</g>
							<g>
								<rect x="496.86" y="297.16" style="fill:#1E2778;" width="35.65" height="3.72"/>
								<rect x="496.86" y="304.61" style="fill:#1E2778;" width="35.65" height="3.72"/>
								<rect x="496.86" y="312.05" style="fill:#1E2778;" width="35.65" height="3.72"/>
								<rect x="496.86" y="319.49" style="fill:#1E2778;" width="35.65" height="3.72"/>
							</g>
						</g>
						<circle style="fill:#FFFFFF;" cx="449.81" cy="310.19" r="13.89"/>
						<circle style="fill:#1E2778;" cx="449.81" cy="310.19" r="11.89"/>
						<circle style="fill:#141B5E;" cx="449.81" cy="310.19" r="5.58"/>
					</g>
					<g>
						<rect x="430.74" y="331.83" style="fill:#F2CF31;" width="12.35" height="2.23"/>
						<rect x="451.15" y="331.83" style="fill:#F2CF31;" width="12.35" height="2.23"/>
						<rect x="471.55" y="331.83" style="fill:#39439E;" width="12.35" height="2.23"/>
						<rect x="491.96" y="331.83" style="fill:#39439E;" width="12.35" height="2.23"/>
						<rect x="512.37" y="331.83" style="fill:#39439E;" width="12.35" height="2.23"/>
						<rect x="532.78" y="331.83" style="fill:#39439E;" width="12.35" height="2.23"/>
					</g>
				</g>
			</g>
			<g>
				<rect x="426.27" y="347.59" style="fill:#1E2778;" width="123.32" height="59.11"/>
				<rect x="426.27" y="397.97" style="fill:#141B5E;" width="123.32" height="8.74"/>
				<g>
					<g>
						<path style="fill:#39439E;" d="M468.87,352.06H440.5c-5.39,0-9.77,4.38-9.77,9.77v24.71h38.14V352.06z"/>
						<path style="fill:#39439E;" d="M535.36,352.06h-64.44v34.48h74.21v-24.71C545.13,356.44,540.75,352.06,535.36,352.06z"/>
						<g>
							<g>
								<g>
									<rect x="476.21" y="356.28" style="fill:#F2CF31;" width="3.72" height="3.72"/>
									<rect x="476.21" y="363.72" style="fill:#64DECC;" width="3.72" height="3.72"/>
									<rect x="476.21" y="371.16" style="fill:#F2CF31;" width="3.72" height="3.72"/>
									<rect x="476.21" y="378.6" style="fill:#64DECC;" width="3.72" height="3.72"/>
								</g>
								<g>
									<rect x="483.1" y="356.28" style="fill:#FFFFFF;" width="3.72" height="3.72"/>
									<rect x="483.1" y="363.72" style="fill:#F2CF31;" width="3.72" height="3.72"/>
									<rect x="483.1" y="371.16" style="fill:#64DECC;" width="3.72" height="3.72"/>
									<rect x="483.1" y="378.6" style="fill:#FFFFFF;" width="3.72" height="3.72"/>
								</g>
								<g>
									<rect x="489.98" y="356.28" style="fill:#64DECC;" width="3.72" height="3.72"/>
									<rect x="489.98" y="363.72" style="fill:#FFFFFF;" width="3.72" height="3.72"/>
									<rect x="489.98" y="371.16" style="fill:#64DECC;" width="3.72" height="3.72"/>
									<rect x="489.98" y="378.6" style="fill:#F2CF31;" width="3.72" height="3.72"/>
								</g>
							</g>
							<g>
								<rect x="496.86" y="356.28" style="fill:#1E2778;" width="35.65" height="3.72"/>
								<rect x="496.86" y="363.72" style="fill:#1E2778;" width="35.65" height="3.72"/>
								<rect x="496.86" y="371.16" style="fill:#1E2778;" width="35.65" height="3.72"/>
								<rect x="496.86" y="378.6" style="fill:#1E2778;" width="35.65" height="3.72"/>
							</g>
						</g>
						<circle style="fill:#FFFFFF;" cx="449.81" cy="369.3" r="13.89"/>
						<circle style="fill:#1E2778;" cx="449.81" cy="369.3" r="11.89"/>
						<circle style="fill:#141B5E;" cx="449.81" cy="369.3" r="5.58"/>
					</g>
					<g>
						<rect x="430.74" y="390.94" style="fill:#F2CF31;" width="12.35" height="2.23"/>
						<rect x="451.15" y="390.94" style="fill:#F2CF31;" width="12.35" height="2.23"/>
						<rect x="471.55" y="390.94" style="fill:#39439E;" width="12.35" height="2.23"/>
						<rect x="491.96" y="390.94" style="fill:#39439E;" width="12.35" height="2.23"/>
						<rect x="512.37" y="390.94" style="fill:#39439E;" width="12.35" height="2.23"/>
						<rect x="532.78" y="390.94" style="fill:#39439E;" width="12.35" height="2.23"/>
					</g>
				</g>
			</g>
			<g>
				<g>
					<g>
						<g>
							<g>
								<path style="fill:#FFFFFF;" d="M436.22,268.05c-4.07-4.07-6.31-9.48-6.31-15.24c0-6.09,2.59-11.92,7.11-16l1.47,1.63
									c-4.06,3.67-6.39,8.9-6.39,14.37c0,5.17,2.01,10.03,5.67,13.68L436.22,268.05z"/>
							</g>
							<g>
								<path style="fill:#FFFFFF;" d="M442.85,261.42c-2.3-2.3-3.57-5.36-3.57-8.61c0-3.43,1.47-6.72,4.03-9.03l0.59,0.65
									c-2.38,2.14-3.74,5.2-3.74,8.38c0,3.02,1.17,5.85,3.31,7.99L442.85,261.42z"/>
							</g>
							<g>
								<path style="fill:#FFFFFF;" d="M439.66,264.61c-3.15-3.15-4.89-7.34-4.89-11.8c0-4.7,2.01-9.21,5.52-12.38l1.18,1.31
									c-3.14,2.83-4.94,6.87-4.94,11.07c0,3.99,1.55,7.74,4.37,10.56L439.66,264.61z"/>
							</g>
							<g>
								<path style="fill:#FFFFFF;" d="M442.54,261.73c-2.38-2.38-3.7-5.55-3.7-8.92c0-3.55,1.52-6.96,4.17-9.36l1.18,1.31
									c-2.28,2.06-3.59,5-3.59,8.05c0,2.9,1.13,5.63,3.18,7.68L442.54,261.73z"/>
							</g>
						</g>
						<g>
							<g>
								<path style="fill:#FFFFFF;" d="M462.88,268.05l-1.56-1.56c3.65-3.66,5.67-8.51,5.67-13.68c0-5.46-2.33-10.7-6.39-14.37
									l1.47-1.63c4.52,4.08,7.11,9.91,7.11,16C469.19,258.57,466.95,263.98,462.88,268.05z"/>
							</g>
							<g>
								<path style="fill:#FFFFFF;" d="M456.25,261.42l-0.62-0.62c2.13-2.13,3.31-4.97,3.31-7.99c0-3.18-1.36-6.23-3.74-8.38
									l0.59-0.65c2.56,2.31,4.03,5.6,4.03,9.03C459.81,256.06,458.55,259.12,456.25,261.42z"/>
							</g>
							<g>
								<path style="fill:#FFFFFF;" d="M459.44,264.61l-1.25-1.24c2.82-2.82,4.37-6.57,4.37-10.56c0-4.2-1.8-8.24-4.94-11.07
									l1.18-1.31c3.51,3.17,5.52,7.68,5.52,12.38C464.33,257.27,462.59,261.46,459.44,264.61z"/>
							</g>
							<g>
								<path style="fill:#FFFFFF;" d="M456.56,261.73l-1.25-1.24c2.05-2.05,3.18-4.78,3.18-7.68c0-3.05-1.31-5.99-3.59-8.05
									l1.18-1.31c2.65,2.39,4.17,5.81,4.17,9.36C460.25,256.18,458.94,259.35,456.56,261.73z"/>
							</g>
						</g>
					</g>
					<g>
						<circle style="fill:#FFFFFF;" cx="449.55" cy="252.45" r="3.41"/>
					</g>
				</g>
				<g>
					<polygon style="fill:#FFFFFF;" points="452.64,288.48 446.46,288.48 448.45,252.45 450.65,252.45 					"/>
				</g>
			</g>
		</g>
		<g>
			<g>
				<path style="fill:#4C6CF1;" d="M661.94,371.76c-0.9-6.12-9.93-4.5-14.31-3.62c-10.91,2.21-19.75,8.4-27.34,16.09l19.75-28.62
					c2.63-3.82,5.27-7.64,7.9-11.45c1.98-2.87,5.08-6.28,5.14-10c0.08-4.93-4.95-7.36-9.31-6.7c-6.14,0.93-12.07,6.32-16.27,10.61
					c-5.17,5.29-9.3,11.58-12.46,18.25c-6.2,13.08-7.54,19.23-9.22,33.52c-1.3-7.68-7.84-23.91-13.92-20.64
					c-9.94,5.34,11.33,37.51,11.33,37.51h13.3C616.52,406.71,663.95,385.46,661.94,371.76z"/>
				<path style="fill:#4C6CF1;" d="M99.04,386.81c0.51-3.48,5.66-2.56,8.15-2.06c6.21,1.26,11.24,4.79,15.57,9.16l-11.24-16.3
					c-1.5-2.17-3-4.35-4.5-6.52c-1.13-1.63-2.89-3.57-2.92-5.69c-0.04-2.81,2.82-4.19,5.3-3.81c3.49,0.53,6.87,3.6,9.26,6.04
					c2.95,3.01,5.29,6.59,7.09,10.39c3.53,7.45,4.3,10.95,5.25,19.08c0.74-4.37,4.46-13.61,7.93-11.75
					c5.66,3.04-6.45,21.36-6.45,21.36h-7.57C124.9,406.71,97.9,394.61,99.04,386.81z"/>
			</g>
			<rect x="99" y="406.07" style="fill:#4C6CF1;" width="563" height="9.52"/>
		</g>
		<g>
			<g>
				<rect x="265.11" y="138.61" style="fill:#4C6CF1;" width="39.78" height="9.67"/>
				<rect x="317.75" y="138.61" style="fill:#4C6CF1;" width="39.78" height="9.67"/>
				<rect x="370.39" y="138.61" style="fill:#4C6CF1;" width="39.78" height="9.67"/>
				<rect x="423.02" y="138.61" style="fill:#4C6CF1;" width="39.78" height="9.67"/>
				<rect x="475.66" y="138.61" style="fill:#4C6CF1;" width="39.78" height="9.67"/>
			</g>
			<rect x="528.3" y="138.61" style="fill:#4C6CF1;" width="19.89" height="9.67"/>
		</g>
		<g>
			<g>
				<g>
					<polygon style="fill:#28D1B8;" points="601.61,200.85 506.61,200.85 500.96,221.51 501.14,166.77 601.61,166.77 					"/>
					<g>
						<g>
							<rect x="529.5" y="174.33" style="fill:#FFFFFF;" width="64.11" height="3.18"/>
							<rect x="529.5" y="180.95" style="fill:#FFFFFF;" width="64.11" height="3.18"/>
							<rect x="529.5" y="187.58" style="fill:#FFFFFF;" width="24.28" height="3.18"/>
						</g>
						<circle style="fill:#FFFFFF;" cx="515.91" cy="183.19" r="8.48"/>
						<g>
							<polygon style="fill:#FFFFFF;" points="564.99,185.95 565.8,188.44 568.42,188.44 566.3,189.98 567.11,192.48 564.99,190.94 
								562.86,192.48 563.67,189.98 561.55,188.44 564.17,188.44 							"/>
							<polygon style="fill:#1E2778;" points="572.89,185.95 573.7,188.44 576.33,188.44 574.21,189.98 575.02,192.48 
								572.89,190.94 570.77,192.48 571.58,189.98 569.46,188.44 572.08,188.44 							"/>
							<polygon style="fill:#1E2778;" points="580.8,185.95 581.61,188.44 584.24,188.44 582.11,189.98 582.92,192.48 580.8,190.94 
								578.68,192.48 579.49,189.98 577.37,188.44 579.99,188.44 							"/>
							<polygon style="fill:#1E2778;" points="588.71,185.95 589.52,188.44 592.14,188.44 590.02,189.98 590.83,192.48 
								588.71,190.94 586.59,192.48 587.4,189.98 585.27,188.44 587.9,188.44 							"/>
						</g>
					</g>
				</g>
				<g>
					<polygon style="fill:#28D1B8;" points="618.73,248.42 523.73,248.42 518.08,269.09 518.26,214.35 618.73,214.35 					"/>
					<g>
						<g>
							<rect x="546.62" y="221.91" style="fill:#FFFFFF;" width="64.11" height="3.18"/>
							<rect x="546.62" y="228.53" style="fill:#FFFFFF;" width="64.11" height="3.18"/>
							<rect x="546.62" y="235.15" style="fill:#FFFFFF;" width="24.28" height="3.18"/>
						</g>
						<circle style="fill:#FFFFFF;" cx="533.03" cy="230.77" r="8.48"/>
						<g>
							<polygon style="fill:#FFFFFF;" points="582.1,233.52 582.92,236.02 585.54,236.02 583.42,237.56 584.23,240.06 582.1,238.51 
								579.98,240.06 580.79,237.56 578.67,236.02 581.29,236.02 							"/>
							<polygon style="fill:#1E2778;" points="590.01,233.52 590.82,236.02 593.45,236.02 591.32,237.56 592.14,240.06 
								590.01,238.51 587.89,240.06 588.7,237.56 586.58,236.02 589.2,236.02 							"/>
							<polygon style="fill:#1E2778;" points="597.92,233.52 598.73,236.02 601.36,236.02 599.23,237.56 600.04,240.06 
								597.92,238.51 595.8,240.06 596.61,237.56 594.48,236.02 597.11,236.02 							"/>
							<polygon style="fill:#1E2778;" points="605.83,233.52 606.64,236.02 609.26,236.02 607.14,237.56 607.95,240.06 
								605.83,238.51 603.71,240.06 604.52,237.56 602.39,236.02 605.02,236.02 							"/>
						</g>
					</g>
				</g>
			</g>
			<g>
				<g>
					<path style="fill:#5E7EFF;" d="M454.3,234.57v-4.18c2.26-0.35,4.44-0.93,6.51-1.73l2.09,3.61c0.27,0.46,0.86,0.62,1.32,0.35
						l6.55-3.78c0.46-0.27,0.62-0.86,0.35-1.32l-2.08-3.61c1.76-1.41,3.36-3.01,4.77-4.77l3.61,2.08c0.46,0.27,1.06,0.11,1.32-0.35
						l3.78-6.55c0.27-0.46,0.11-1.06-0.35-1.32l-3.61-2.09c0.81-2.07,1.39-4.25,1.73-6.51h4.18c0.54,0,0.97-0.43,0.97-0.97v-7.57
						c0-0.53-0.43-0.97-0.97-0.97h-4.18c-0.35-2.26-0.93-4.44-1.73-6.51l3.61-2.09c0.46-0.27,0.62-0.86,0.35-1.32l-3.78-6.55
						c-0.27-0.46-0.86-0.62-1.32-0.35l-3.61,2.08c-1.41-1.76-3.01-3.36-4.77-4.77l2.08-3.61c0.27-0.46,0.11-1.06-0.35-1.32
						l-6.55-3.78c-0.46-0.27-1.06-0.11-1.32,0.35l-2.09,3.61c-2.07-0.81-4.25-1.39-6.51-1.73v-4.18c0-0.53-0.43-0.97-0.97-0.97
						h-7.57c-0.54,0-0.97,0.43-0.97,0.97v4.18c-2.26,0.35-4.44,0.93-6.51,1.73l-2.09-3.61c-0.27-0.46-0.86-0.62-1.32-0.35
						l-6.55,3.78c-0.46,0.27-0.62,0.86-0.35,1.32l2.08,3.61c-1.76,1.41-3.35,3.01-4.77,4.77l-3.61-2.08
						c-0.46-0.27-1.06-0.11-1.32,0.35l-3.78,6.55c-0.27,0.46-0.11,1.06,0.35,1.32l3.61,2.09c-0.81,2.07-1.39,4.25-1.73,6.51h-4.18
						c-0.53,0-0.97,0.43-0.97,0.97v7.57c0,0.53,0.43,0.97,0.97,0.97h4.18c0.35,2.26,0.93,4.44,1.73,6.51l-3.61,2.09
						c-0.46,0.27-0.62,0.86-0.35,1.32l3.78,6.55c0.27,0.46,0.86,0.62,1.32,0.35l3.61-2.08c1.41,1.76,3.01,3.35,4.77,4.77l-2.08,3.61
						c-0.27,0.46-0.11,1.06,0.35,1.32l6.55,3.78c0.46,0.27,1.06,0.11,1.32-0.35l2.09-3.61c2.07,0.8,4.25,1.39,6.51,1.73v4.18
						c0,0.53,0.43,0.97,0.97,0.97h7.57C453.87,235.53,454.3,235.1,454.3,234.57z M430.66,199.64c0-10.43,8.46-18.89,18.89-18.89
						s18.89,8.46,18.89,18.89c0,10.43-8.46,18.89-18.89,18.89S430.66,210.07,430.66,199.64z"/>
					<circle style="fill:#5E7EFF;" cx="449.55" cy="199.64" r="3.15"/>
				</g>
				<g>
					<path style="fill:#5E7EFF;" d="M392.55,243.79v-2.55c1.38-0.21,2.71-0.57,3.97-1.06l1.27,2.2c0.16,0.28,0.52,0.38,0.81,0.22
						l4-2.31c0.28-0.16,0.38-0.52,0.22-0.81l-1.27-2.2c1.07-0.86,2.05-1.84,2.91-2.91l2.2,1.27c0.28,0.16,0.64,0.07,0.81-0.22
						l2.31-4c0.16-0.28,0.07-0.64-0.22-0.81l-2.2-1.27c0.49-1.26,0.85-2.59,1.06-3.97h2.55c0.33,0,0.59-0.26,0.59-0.59v-4.62
						c0-0.33-0.26-0.59-0.59-0.59h-2.55c-0.21-1.38-0.57-2.71-1.06-3.97l2.2-1.27c0.28-0.16,0.38-0.52,0.22-0.81l-2.31-4
						c-0.16-0.28-0.52-0.38-0.81-0.22l-2.2,1.27c-0.86-1.07-1.84-2.05-2.91-2.91l1.27-2.2c0.16-0.28,0.07-0.64-0.22-0.81l-4-2.31
						c-0.28-0.16-0.64-0.07-0.81,0.22l-1.27,2.2c-1.26-0.49-2.59-0.85-3.97-1.06v-2.55c0-0.33-0.26-0.59-0.59-0.59h-4.62
						c-0.33,0-0.59,0.26-0.59,0.59v2.55c-1.38,0.21-2.71,0.57-3.97,1.06l-1.27-2.2c-0.16-0.28-0.52-0.38-0.81-0.22l-4,2.31
						c-0.28,0.16-0.38,0.52-0.22,0.81l1.27,2.2c-1.07,0.86-2.05,1.84-2.91,2.91l-2.2-1.27c-0.28-0.16-0.64-0.07-0.81,0.22l-2.31,4
						c-0.16,0.28-0.07,0.64,0.22,0.81l2.2,1.27c-0.49,1.26-0.85,2.59-1.06,3.97h-2.55c-0.33,0-0.59,0.26-0.59,0.59v4.62
						c0,0.33,0.26,0.59,0.59,0.59h2.55c0.21,1.38,0.57,2.71,1.06,3.97l-2.2,1.27c-0.28,0.16-0.38,0.52-0.22,0.81l2.31,4
						c0.16,0.28,0.52,0.38,0.81,0.22l2.2-1.27c0.86,1.07,1.84,2.05,2.91,2.91l-1.27,2.2c-0.16,0.28-0.07,0.64,0.22,0.81l4,2.31
						c0.28,0.16,0.64,0.07,0.81-0.22l1.27-2.2c1.26,0.49,2.59,0.85,3.97,1.06v2.55c0,0.33,0.26,0.59,0.59,0.59h4.62
						C392.29,244.38,392.55,244.11,392.55,243.79z M378.12,222.48c0-6.37,5.16-11.53,11.53-11.53s11.53,5.16,11.53,11.53
						S396.02,234,389.65,234S378.12,228.84,378.12,222.48z"/>
					<circle style="fill:#5E7EFF;" cx="389.65" cy="222.48" r="1.74"/>
				</g>
			</g>
			<g>
				<rect x="372.17" y="261.73" style="fill:#5E7EFF;" width="43.1" height="52.01"/>
				<g>
					<g>
						<g>
							<circle style="fill:#FF9D1C;" cx="380.37" cy="269.34" r="2.44"/>
							<rect x="385.38" y="267.2" style="fill:#FFFFFF;" width="24.13" height="4.28"/>
						</g>
						<g>
							<circle style="fill:#F2CF54;" cx="380.37" cy="279.41" r="2.44"/>
							<rect x="385.38" y="277.27" style="fill:#FFFFFF;" width="24.13" height="4.28"/>
						</g>
					</g>
					<g>
						<g>
							<circle style="fill:#FF9D1C;" cx="380.37" cy="296.07" r="2.44"/>
							<rect x="385.38" y="293.93" style="fill:#FFFFFF;" width="24.13" height="4.28"/>
						</g>
						<g>
							<circle style="fill:#FFFFFF;" cx="380.37" cy="306.14" r="2.44"/>
							<rect x="385.38" y="304" style="fill:#FFFFFF;" width="24.13" height="4.28"/>
						</g>
					</g>
					
						<line style="fill:none;stroke:#FFFFFF;stroke-width:0.6667;stroke-miterlimit:10;" x1="372.17" y1="287.93" x2="415.27" y2="287.93"/>
				</g>
			</g>
			<g>
				<g>
					<g>
						<rect x="317.75" y="178.57" style="fill:#1E2778;" width="39.78" height="39.78"/>
						<polygon style="fill:#28D1B8;" points="357.53,218.34 317.75,218.34 334.22,198.85 343.67,209.59 357.53,194.14 						"/>
						<circle style="fill:#F2CF31;" cx="329.06" cy="189.95" r="5.88"/>
						<rect x="317.75" y="229.24" style="fill:#FFFFFF;" width="39.78" height="39.78"/>
						<rect x="317.75" y="279.91" style="fill:#28D1B8;" width="39.78" height="39.78"/>
					</g>
					<g>
						<g>
							<path style="fill:#39439E;" d="M303.89,179.57v37.78h-37.78v-37.78H303.89 M304.89,178.57h-39.78v39.78h39.78V178.57
								L304.89,178.57z"/>
						</g>
						<rect x="265.11" y="229.24" style="fill:#F2CF31;" width="39.78" height="39.78"/>
						<rect x="265.11" y="279.91" style="fill:#FFFFFF;" width="39.78" height="39.78"/>
					</g>
				</g>
				<polygon style="fill:#EDFCFF;" points="352.56,187.72 356.59,199.65 359.79,196.45 363.9,200.56 365.4,199.07 361.29,194.96 
					364.49,191.75 				"/>
			</g>
		</g>
		<g>
			<g>
				<g>
					<g>
						<g>
							<path style="fill:#141B5E;" d="M372.92,333.95c-0.01-0.05-0.01-0.11-0.02-0.16c-0.18-0.88-0.56-1.71-1.09-2.43
								c-1.65-2.27-4.87-3.21-5.37-6.22c-0.14-0.8-0.22-1.62-0.32-2.43h0.11c-0.21-2.04-0.94-4.06-2.21-5.79
								c-0.49-0.74-1.1-1.4-1.71-2.11c-1.04-1.21-1-2.36-0.58-3.84c0.29-1.02,0.49-1.91,0.28-2.98c-0.18-0.88-0.56-1.71-1.09-2.43
								c-1.65-2.27-4.87-3.21-5.37-6.22c-0.26-1.53-0.32-3.08-0.71-4.59c-0.46-1.77-1.42-3.19-2.89-4.28
								c-2.01-1.5-4.43-2.38-6.92-2.74v34.97l4.75,11.24H372.92z"/>
							<g>
								<g>
									<g>
										<path style="fill:#E8A179;" d="M397.87,331.3c0.02-0.06,0.04-0.13,0.05-0.19c3.07,0.08,6.15-0.06,9.2-0.46
											c0.39,2.38,0.08,4.9-1.16,6.75c-2.81,0.41-5.63,0.61-8.46,0.61C397.38,337.33,397.5,332.81,397.87,331.3z"/>
										<g>
											<path style="fill:#E8A179;" d="M410.94,329.26c0.75,0.56,1.04,1.6,1.56,2.44c0.27,0.43,0.63,0.95,0.5,1.49
												c-0.13,0.5-0.63,0.69-1.1,0.59c-0.57-0.12-1-0.55-1.24-1.08c0.13,1.45,0.24,2.92,0.04,4.36
												c-0.13,0.94-0.17,1.9-1.21,2.08c-0.98,0.17-2.82-0.02-3.67-0.61c-1.05-0.72-1.15-2.27-1.2-3.41
												c-0.1-2.35,0.45-5.12,2.93-5.99c0.79-0.28,1.7-0.38,2.53-0.24C410.42,328.96,410.7,329.09,410.94,329.26z"/>
											<path style="fill:#E8A179;" d="M408.11,329.55l4.23,0.19c3.88,0.15,2.66,9.65-1.73,9.55l-2.84-0.13
												c-0.68-0.03-1.21-0.61-1.18-1.29c0.02-0.57,0.43-1.02,0.96-1.14c-0.53-0.16-0.91-0.66-0.88-1.24
												c0.02-0.57,0.43-1.02,0.96-1.14c-0.53-0.16-0.91-0.66-0.88-1.24c0.02-0.57,0.43-1.02,0.96-1.14
												c-0.53-0.16-0.91-0.66-0.88-1.24C406.85,330.05,407.43,329.52,408.11,329.55z"/>
											
												<rect x="408.46" y="331.16" transform="matrix(0.9999 -0.0103 0.0103 0.9999 -3.3987 4.3047)" style="fill:#FFFFFF;" width="18.17" height="4"/>
											<path style="fill:#E8A179;" d="M410.07,328.9c0.35,0.06,0.63,0.19,0.87,0.36c0.75,0.56,1.04,1.6,1.56,2.44
												c0.27,0.43,0.63,0.95,0.5,1.49c-0.13,0.5-0.63,0.69-1.1,0.59c-0.61-0.13-0.98-0.67-1.38-1.1
												c-0.35-0.39-1.22-1.05-2.73-0.7c-1.38,0.32-3.05,1.62-3.17,2.84c-0.04-2.28,0.56-4.85,2.93-5.69
												C408.33,328.86,409.24,328.76,410.07,328.9z"/>
										</g>
									</g>
								</g>
								<g>
									<path style="fill:#E8C00C;" d="M347.41,324.64c6.33-0.36,46.61,5.57,54.08,4.49c1.71,3.32,1.85,7,0.42,10.56
										c-4.34,0.53-45.42-2.66-46.89-2.57L347.41,324.64z"/>
								</g>
							</g>
							<path style="fill:#E8C00C;" d="M341.5,322.46h1.1c0.29,0,0.58,0.01,0.87,0.02c7.09,0.38,12.62,7.09,13.08,14.11
								c0.03,0.52,4.53,46.56,4.53,46.56h-39.16l4.43-46.56c0.24-7.86,6.36-13.72,14.36-14.11
								C340.98,322.47,341.24,322.46,341.5,322.46z"/>
							<g>
								<path style="fill:#E8A179;" d="M332.43,299.95c0-6.63,5.31-12.03,11.92-12.15c6.81-0.13,12.39,5.58,12.39,12.39
									c0,2.41,0,5.26,0,8.01c0,6.16-4.99,11.15-11.15,11.15h-0.45v4.36c0,3.03-2.46,5.49-5.49,5.49l0,0
									c-3.03,0-5.49-2.46-5.49-5.49v-7.41c0-4.56-0.37-9.14-1.4-13.58C332.54,301.82,332.43,300.9,332.43,299.95z"/>
								<path style="fill:#141B5E;" d="M333.93,334.45l4.83-11v-20.73c0.33-0.01,0.53-0.01,0.53-0.01l18.43,0.02v-2.53
									c0-6.38-4.5-12.18-10.78-13.54c-5.85-1.27-14.78,0.55-17.47,6.54c-1.49,3.32-0.59,7.33-3.59,9.86
									c-1.76,1.48-3.62,2.77-4.11,5.17c-0.22,1.06-0.01,1.96,0.28,2.98c0.42,1.48,0.46,2.63-0.58,3.84
									c-0.61,0.71-1.23,1.37-1.71,2.11c-0.1,0.13-0.17,0.28-0.26,0.41c-0.72,0.86-1.25,1.85-1.55,2.99
									c-0.39,1.5-0.45,3.06-0.71,4.59c-0.51,3.01-3.73,3.95-5.37,6.22c-0.53,0.72-0.91,1.55-1.09,2.43
									c-0.05,0.23-0.06,0.44-0.08,0.66H333.93z"/>
							</g>
							<g>
								<polygon style="fill:#FFFFFF;" points="334.96,325.07 343.53,325.07 341,309.49 332.43,309.49 								"/>
								<g>
									<path style="fill:#E8A179;" d="M333.54,316.36c0,0,0.8,1.86,1.57,1.84c3.01-0.09,6.78-3.42,6.78-3.42
										c0.76-0.24,4.19,5.19,0.75,8.13c-0.03,2.52-0.21,5.96-0.55,8.46c-0.7,0.03-5.16-0.72-6.6-1.29
										c-0.06-0.02-0.12-0.05-0.18-0.08c0.42-2.49,0.67-5,0.77-7.53c-0.02-0.02-0.05-0.04-0.07-0.06
										c-0.06-0.05-0.11-0.1-0.16-0.15c-0.05-0.05-0.1-0.09-0.15-0.14c-0.01-0.02-0.03-0.03-0.04-0.05
										c-0.75-0.59-1.52-1.25-2.05-2.02c-0.6-0.87-0.52-1.74-0.7-2.77C332.82,316.86,333.12,316.28,333.54,316.36z"/>
									<g>
										<path style="fill:#F2CF31;" d="M326.24,333.43c0.58-3.49,4.32-5.48,7.55-4.05c0.19,0.09,0.37,0.19,0.55,0.3
											c0.1-1.26,0.2-2.48,0.29-3.63c3.61-0.93,7.23-0.26,10.39,1.92c-1.09,10.65-0.96,29.88-6.35,35.84c0,0,0,0-0.01,0.01
											c-2.18,4.78-6.99,2.38-8.96-0.99C324.53,355.65,324.48,343.95,326.24,333.43z"/>
										<path style="fill:#FFFFFF;" d="M330.86,355.22c1.6-2.86,3.04-18.61,3.87-29.18c0,0,1.4,23.29-3.35,30.29
											C331.19,355.97,331.01,355.59,330.86,355.22z"/>
									</g>
								</g>
							</g>
						</g>
					</g>
					<g>
						<g>
							<g>
								<path style="fill:#1A2242;" d="M384.56,406.14l-10.8-0.3c-2.64-0.07-4.56-1.71-4.49-4.34l0,0c0.07-2.64,2.25-4.2,4.89-4.13
									l9.98,0.36c2.64,0.07,5.34,1.68,5.26,4.32l0,0C389.33,404.69,387.2,406.21,384.56,406.14z"/>
							</g>
							<g>
								<g>
									<g>
										<circle style="fill:#1A2242;" cx="377.95" cy="398.98" r="0.55"/>
										<circle style="fill:#1A2242;" cx="380.22" cy="399.05" r="0.55"/>
										<circle style="fill:#1A2242;" cx="382.48" cy="399.11" r="0.55"/>
									</g>
									<g>
										<circle style="fill:#1A2242;" cx="377.8" cy="404.29" r="0.55"/>
										<circle style="fill:#1A2242;" cx="380.07" cy="404.35" r="0.55"/>
										<circle style="fill:#1A2242;" cx="382.34" cy="404.42" r="0.55"/>
									</g>
								</g>
								<g>
									<g>
										<polygon style="fill:#CAE1E1;" points="380.38,404.48 379.81,404.46 377.67,398.78 378.24,398.79 										"/>
										<polygon style="fill:#CAE1E1;" points="382.68,404.54 382.11,404.52 379.97,398.84 380.54,398.85 										"/>
									</g>
									<g>
										
											<rect x="377.59" y="398.78" transform="matrix(0.9996 0.0272 -0.0272 0.9996 11.0635 -10.13)" style="fill:#E9FFFF;" width="0.57" height="5.63"/>
										
											<rect x="379.89" y="398.85" transform="matrix(0.9996 0.0272 -0.0272 0.9996 11.0756 -10.201)" style="fill:#E9FFFF;" width="0.57" height="5.62"/>
										
											<rect x="382.18" y="398.91" transform="matrix(0.9996 0.0272 -0.0272 0.9996 11.0782 -10.2634)" style="fill:#E9FFFF;" width="0.57" height="5.63"/>
									</g>
								</g>
							</g>
						</g>
						<g>
							<path style="fill:#1A2242;" d="M363.51,403.98l26.62-25.61c0,0-23.84,9.08-48.63,7.22c-16.93-1.27-34.3-14.49-44.81-12.61
								c-1.54,0.27-2.87,1.22-3.74,2.52l0,0c-1.38,2.05-1.23,5.29,0.41,7.15c9.56,10.85,26.56,19.84,32.04,22.57
								c1.13,0.56,2.37,0.86,3.63,0.87l28.68,0.22C359.87,406.32,361.95,405.48,363.51,403.98z"/>
							<path style="fill:#E8A179;" d="M363.83,395.67l9.71,3.46c1.08,0.38,1.79,1.42,1.76,2.56l0,0c-0.04,1.46-1.26,2.61-2.72,2.57
								l-8.8-0.24L363.83,395.67z"/>
							<path style="fill:#1E2778;" d="M369.66,405.37l0.62-8.46c0,0-47.23-27.97-73.32-23.98c-1.63,0.25-3.08,1.19-4.01,2.56l0,0
								c-1.42,2.11-1.37,4.91,0.2,6.91C298.07,388.69,323.58,402.22,369.66,405.37z"/>
						</g>
					</g>
					<g>
						<g>
							<g>
								<path style="fill:#1A2242;" d="M299.92,406.31l10.77-0.79c2.63-0.19,4.48-1.91,4.28-4.55l0,0c-0.19-2.63-2.45-4.09-5.08-3.9
									l-9.95,0.82c-2.63,0.19-5.25,1.93-5.06,4.56l0,0C295.08,405.08,297.29,406.5,299.92,406.31z"/>
							</g>
							<g>
								<g>
									<g>
										<circle style="fill:#1A2242;" cx="306.19" cy="398.85" r="0.55"/>
										<circle style="fill:#1A2242;" cx="303.93" cy="399.02" r="0.55"/>
										<circle style="fill:#1A2242;" cx="301.67" cy="399.19" r="0.55"/>
									</g>
									<g>
										<circle style="fill:#1A2242;" cx="306.58" cy="404.15" r="0.55"/>
										<circle style="fill:#1A2242;" cx="304.32" cy="404.31" r="0.55"/>
										<circle style="fill:#1A2242;" cx="302.06" cy="404.48" r="0.55"/>
									</g>
								</g>
								<g>
									<g>
										<polygon style="fill:#CAE1E1;" points="304.02,404.45 304.59,404.41 306.46,398.63 305.89,398.67 										"/>
										<polygon style="fill:#CAE1E1;" points="301.72,404.62 302.29,404.58 304.17,398.8 303.6,398.84 										"/>
									</g>
									<g>
										
											<rect x="306.1" y="398.64" transform="matrix(-0.9972 0.0749 -0.0749 -0.9972 641.9679 778.8448)" style="fill:#E9FFFF;" width="0.57" height="5.62"/>
										
											<rect x="303.81" y="398.81" transform="matrix(-0.9972 0.0749 -0.0749 -0.9972 637.4078 779.3536)" style="fill:#E9FFFF;" width="0.57" height="5.62"/>
										
											<rect x="301.52" y="398.98" transform="matrix(-0.9973 0.0732 -0.0732 -0.9973 632.2057 780.4227)" style="fill:#E9FFFF;" width="0.57" height="5.62"/>
									</g>
								</g>
							</g>
						</g>
						<g>
							<path style="fill:#E8A179;" d="M320.14,394.89l-9.54,3.91c-1.06,0.43-1.72,1.5-1.63,2.64l0,0c0.11,1.46,1.38,2.55,2.83,2.44
								l8.78-0.65L320.14,394.89z"/>
							<path style="fill:#273199;" d="M317.15,404.45l-3.14-7.81c0,0,43.72-27.6,71.89-27.56c1.65,0,3.13,1.05,4.12,2.38l0,0
								c1.51,2.04,1.6,4.84,0.12,6.91C385.51,384.87,363.03,399.18,317.15,404.45z"/>
						</g>
					</g>
				</g>
			</g>
			<g>
				<g>
					<g>
						<g>
							<g>
								<g>
									<g>
										<path style="fill:#E8A179;" d="M271.31,217.65c-0.27-0.6-0.98-0.85-1.58-0.63l-5.27,1.99l-0.01-0.02l6.18-2.6
											c0.59-0.25,0.93-0.92,0.7-1.54c-0.24-0.66-0.97-0.97-1.59-0.71l-6.47,2.73l-0.01-0.03l7.04-3.92
											c0.56-0.31,0.82-1.02,0.53-1.61c-0.31-0.63-1.06-0.87-1.65-0.54l-7.1,3.96l-0.05-0.09l5.39-3.66
											c0.53-0.36,0.73-1.09,0.4-1.65c-0.36-0.6-1.13-0.77-1.69-0.39l-6.08,4.13c0,0-3.28,0.84-4.59,2.76
											c-0.33,0.48-0.53,1.04-0.63,1.61c-3.34,2.72-6.87,5.2-10.57,7.41c1.68,2.2,2.78,3.97,4.5,5.57
											c3.29-2.21,6.98-4.93,9.96-7.58c0.13,0,1.54,0.79,2.83,0.06l1.11-0.62l8-3.02C271.3,219.02,271.6,218.29,271.31,217.65z"
											/>
										<path style="fill:#28D1B8;" d="M188.48,238.59c21.39,0.23,42.63-6.4,60.06-18.83c2.5,3.25,4.06,7.29,3.67,11.07
											c-18.76,13.86-42.1,20.96-65.39,19.9C185.54,246.24,186.35,242.22,188.48,238.59z"/>
									</g>
								</g>
							</g>
							<g>
								<g>
									<g>
										<g>
											<polygon style="fill:#E8A179;" points="203.68,385.68 211.96,385.68 212.13,398.52 226.13,403.45 226.13,406.07 
												203.35,406.07 204.43,403.45 											"/>
											<polygon style="fill:#1E2778;" points="212.13,398.52 226.13,403.45 226.13,406.07 203.35,406.07 203.35,403.45 
												203.89,398.52 											"/>
										</g>
										<g>
											<polygon style="fill:#E8A179;" points="164.52,385.68 172.8,385.68 170.66,398.52 184.67,403.45 184.67,406.07 
												161.88,406.07 162.96,403.45 											"/>
											<polygon style="fill:#1E2778;" points="170.66,398.52 184.67,403.45 184.67,406.07 161.88,406.07 161.88,403.45 
												163.53,398.52 											"/>
										</g>
									</g>
									<g>
										<path style="fill:#1E2778;" d="M189.49,308.54v-8.71h18.98c0,0,4.52,31.18,4.03,86.44h-9.6c0,0-3.69-40.97-13.33-78.24
											l0,0C189.53,308.21,189.51,308.38,189.49,308.54z"/>
										<path style="fill:#1E2778;" d="M171.16,299.83L171.16,299.83h21.54c-8.12,35.91-19.36,86.44-19.36,86.44h-9.64
											C163.7,386.27,168.61,327.92,171.16,299.83z"/>
										<path style="fill:#3A45AB;" d="M178.7,299.83h5.27c-8.12,35.91-14.55,86.44-14.55,86.44h-2.73
											C166.7,386.27,176.14,327.92,178.7,299.83z"/>
									</g>
								</g>
								<g>
									<path style="fill:#28D1B8;" d="M189.34,235.58h1.17c0.31,0,0.61,0.01,0.92,0.02c7.51,0.4,12.67,8.21,13.16,15.65
										c0.04,0.55,3.88,48.58,3.88,48.58h-37.3l2.13-49.29c0.25-8.32,6.73-14.53,15.2-14.94
										C188.78,235.59,189.06,235.58,189.34,235.58z"/>
									<g>
										<g>
											<path style="fill:#E8A179;" d="M201.5,311.67c-1.84-1.64-6.04-3.96-8.87-6.28c1.51-0.12,3.54-0.5,2.72-2.02
												c-0.78,0.61-3.47-0.48-6.01-0.6c-2.58-2.29-7.13-6.73-9.29-9.22c-1.55,1.69-2.88,3.76-3.94,5.4
												c2,2.08,6.2,5.99,8.71,8.07c0.3,1.36,1.2,2.71,1.98,3.66c1.64,2.01,3.56,3.66,5.23,5.64c0.43,0.5,1.27,0.04,1.01-0.59
												c-0.32-0.77-1.24-2.22-1.55-2.99c0.43,0.56,3.6,4.29,4.96,4.81c0.58,0.22,0.99-0.43,0.69-0.91
												c-1.13-1.79-2.44-3.25-3.57-5.05c1.82,1.48,3.67,2.94,5.57,4.32c0.57,0.42,1.16-0.28,0.83-0.83
												c-1.02-1.67-3.57-4.01-5-5.41c1.47,0.92,4.35,2.23,6,2.95C201.45,312.83,201.86,311.99,201.5,311.67z"/>
											<path style="fill:#28D1B8;" d="M177.36,240.9l-0.5,16.51c-4.78,5.38-8.44,11.03-8.14,16.9
												c0.27,2.74,11.6,16.13,19.22,24.9c-1.98,3.42-5.17,5.66-9.16,6.42c-7.23-8.73-21.84-22.9-22.34-31.41
												C155.74,262.46,167.06,249.46,177.36,240.9z"/>
											<path style="fill:#12C4AA;" d="M176.97,256.96c-4.78,5.38-8.44,11.03-8.14,16.9c0.27,2.74,11.6,16.13,19.22,24.9
												c0,0-20-17.44-20.5-25.95C167.85,264.08,176.97,256.96,176.97,256.96z"/>
										</g>
									</g>
								</g>
							</g>
							<g>
								<g>
									<path style="fill:#F2CF31;" d="M187.67,198.89c3.96-0.23,8.1,0.69,11.29,3.07c1.55,1.16,2.57,2.66,3.05,4.53
										c0.41,1.59,10.51,28.31,10.51,28.31h-24.85V198.89z"/>
									<path style="fill:#E8A179;" d="M180.53,211.75c0-7.02,5.63-12.73,12.62-12.86c7.21-0.14,13.12,5.9,13.12,13.12
										c0,2.55,0,5.56,0,8.48c0,6.52-5.28,11.8-11.8,11.8h-0.48v10.38c0,3.21-11.63-2.55-11.63-5.77v-7.85
										c0-4.83-0.39-9.67-1.48-14.38C180.65,213.73,180.53,212.76,180.53,211.75z"/>
									<path style="fill:#F2CF31;" d="M177.89,204.59c2.85-6.34,12.31-8.26,18.5-6.92c6.64,1.44,11.41,7.58,11.41,14.33v2.68
										h-18.51v20.12h-22.66C166.63,234.81,176.94,206.73,177.89,204.59z"/>
								</g>
								<path style="fill:#E8A179;" d="M187.59,217.93c0.72,0,1.36,0.27,1.87,0.71v4.33c-0.5,0.43-1.15,0.71-1.87,0.71
									c-1.58,0-2.87-1.29-2.87-2.87S186,217.93,187.59,217.93z"/>
							</g>
						</g>
					</g>
				</g>
				<g>
					
						<rect x="257.03" y="188.29" transform="matrix(-0.9131 0.4078 -0.4078 -0.9131 613.0388 284.2664)" style="fill:#FFFFFF;" width="38.38" height="38.38"/>
					<path style="fill:#E8A179;" d="M256.76,215.42c0.54-0.29,1.26-0.22,1.84-0.38c0.63-0.17,1.19-0.53,1.78-0.79
						c0.31-0.14,0.79-0.39,1.14-0.33c1.09,0.19,0.79,1.11,0.38,1.64c-0.65,0.85-1.9,1.27-2.35,2.28c-0.02,0.04-0.01,0.07-0.02,0.1
						c-0.09,0.07-0.17,0.15-0.26,0.21c-0.34,0.24-0.67,0.34-0.99,0.36c-0.43-0.08-0.84-0.23-1.19-0.48
						C256.31,217.46,255.68,216.01,256.76,215.42z"/>
				</g>
			</g>
		</g>
	</g>
</g>
<g id="OBJECTS">
</g>
</svg>
