<?xml version="1.0" encoding="utf-8"?>
<!-- Generator: Adobe Illustrator 16.0.0, SVG Export Plug-In . SVG Version: 6.00 Build 0)  -->
<!DOCTYPE svg PUBLIC "-//W3C//DTD SVG 1.1//EN" "http://www.w3.org/Graphics/SVG/1.1/DTD/svg11.dtd">
<svg version="1.1" id="Layer_1" xmlns="http://www.w3.org/2000/svg" xmlns:xlink="http://www.w3.org/1999/xlink" x="0px" y="0px"
	 width="900px" height="500px" viewBox="0 0 900 500" enable-background="new 0 0 900 500" xml:space="preserve">
<g>
	<defs>
		<rect id="SVGID_1_" width="900" height="500"/>
	</defs>
	<clipPath id="SVGID_2_">
		<use xlink:href="#SVGID_1_"  overflow="visible"/>
	</clipPath>
	<rect clip-path="url(#SVGID_2_)" fill="#FFFFFF" width="900" height="500"/>
	<g clip-path="url(#SVGID_2_)">
		<defs>
			<polygon id="SVGID_3_" points="0,0 0,500 899.638,500 900,0 			"/>
		</defs>
		<clipPath id="SVGID_4_">
			<use xlink:href="#SVGID_3_"  overflow="visible"/>
		</clipPath>
		<path clip-path="url(#SVGID_4_)" fill="none" stroke="#CDD0C4" stroke-miterlimit="10" stroke-dasharray="4,4" d="
			M705.284,120.649c0,0-139.042-29.219-167.254,117.884c-17.207,89.721,61.707,144.563,110.831,148.111
			c181.361,13.099,176.511-183.202,176.511-183.202"/>
		<path clip-path="url(#SVGID_4_)" fill="none" stroke="#CDD0C4" stroke-miterlimit="10" stroke-dasharray="3.942,3.942" d="
			M500.31,502.056c-51.313-26.993-61.136-100.66-61.136-100.66l-1.039-18.088"/>
		
			<line clip-path="url(#SVGID_4_)" fill="none" stroke="#CDD0C4" stroke-miterlimit="10" x1="438.022" y1="381.341" x2="437.907" y2="379.344"/>
		<path clip-path="url(#SVGID_4_)" fill="none" stroke="#F6A915" stroke-width="1.306" stroke-miterlimit="10" d="M466.859,381.688
			h-77.465c-2.587,0-4.683-2.097-4.683-4.684v-48.144c0-2.587,2.096-4.684,4.683-4.684h77.465c2.586,0,4.684,2.097,4.684,4.684
			v48.144C471.543,379.592,469.445,381.688,466.859,381.688z"/>
		<path clip-path="url(#SVGID_4_)" fill="#CDD0C4" d="M463.229,361.324h-22.063c-1.552,0-2.811-1.258-2.811-2.81v-16.722
			c0-1.552,1.259-2.81,2.811-2.81h22.063c1.552,0,2.81,1.258,2.81,2.81v16.722C466.038,360.066,464.78,361.324,463.229,361.324"/>
		<path clip-path="url(#SVGID_4_)" fill="#F6A915" d="M471.27,328.698c0-2.587-2.097-4.684-4.684-4.684h-77.464
			c-2.586,0-4.684,2.097-4.684,4.684v0.788l86.843,0.46L471.27,328.698z"/>
		<polygon clip-path="url(#SVGID_4_)" fill="#4B53E4" points="465.151,374.146 463.139,387.827 468.154,383.271 475.211,383.804 		
			"/>
		
			<line clip-path="url(#SVGID_4_)" fill="none" stroke="#CDD0C4" stroke-width="0.718" stroke-miterlimit="10" x1="421.177" y1="341.535" x2="432.292" y2="341.535"/>
		
			<line clip-path="url(#SVGID_4_)" fill="none" stroke="#CDD0C4" stroke-width="0.718" stroke-miterlimit="10" x1="391.151" y1="341.535" x2="418.957" y2="341.535"/>
		
			<line clip-path="url(#SVGID_4_)" fill="none" stroke="#CDD0C4" stroke-width="0.718" stroke-miterlimit="10" x1="410.067" y1="346.177" x2="432.292" y2="346.177"/>
		
			<line clip-path="url(#SVGID_4_)" fill="none" stroke="#CDD0C4" stroke-width="0.718" stroke-miterlimit="10" x1="391.151" y1="346.177" x2="407.682" y2="346.177"/>
		
			<line clip-path="url(#SVGID_4_)" fill="none" stroke="#CDD0C4" stroke-width="0.718" stroke-miterlimit="10" x1="427.42" y1="350.817" x2="432.292" y2="350.817"/>
		<path clip-path="url(#SVGID_4_)" fill="none" stroke="#CDD0C4" stroke-width="0.718" stroke-miterlimit="10" d="M391.151,350.817
			c11.103,0.004,23.198,0.004,34.08,0"/>
		
			<line clip-path="url(#SVGID_4_)" fill="none" stroke="#CDD0C4" stroke-width="0.718" stroke-miterlimit="10" x1="410.368" y1="355.221" x2="432.292" y2="355.221"/>
		
			<line clip-path="url(#SVGID_4_)" fill="none" stroke="#CDD0C4" stroke-width="0.718" stroke-miterlimit="10" x1="391.151" y1="355.221" x2="408.274" y2="355.221"/>
		
			<line clip-path="url(#SVGID_4_)" fill="none" stroke="#CDD0C4" stroke-width="0.718" stroke-miterlimit="10" x1="417.811" y1="360.1" x2="432.292" y2="360.1"/>
		
			<line clip-path="url(#SVGID_4_)" fill="none" stroke="#CDD0C4" stroke-width="0.718" stroke-miterlimit="10" x1="391.151" y1="360.1" x2="415.465" y2="360.1"/>
		<path clip-path="url(#SVGID_4_)" fill="#4B53E4" d="M416.091,371.845h-21.979c-1.643,0-2.975-1.332-2.975-2.976
			s1.332-2.977,2.975-2.977h21.979c1.644,0,2.976,1.333,2.976,2.977S417.735,371.845,416.091,371.845"/>
		<path clip-path="url(#SVGID_4_)" fill="none" stroke="#F6A915" stroke-width="0.883" stroke-miterlimit="10" d="M911.079,107.069
			h-52.396c-1.75,0-3.167-1.418-3.167-3.168V71.338c0-1.75,1.417-3.168,3.167-3.168h52.396c1.75,0,3.168,1.418,3.168,3.168v32.563
			C914.247,105.651,912.829,107.069,911.079,107.069z"/>
		<path clip-path="url(#SVGID_4_)" fill="#CDD0C4" d="M908.623,93.294H893.7c-1.05,0-1.9-0.851-1.9-1.9v-11.31
			c0-1.05,0.851-1.901,1.9-1.901h14.923c1.05,0,1.9,0.851,1.9,1.901v11.31C910.523,92.443,909.673,93.294,908.623,93.294"/>
		<path clip-path="url(#SVGID_4_)" fill="#F6A915" d="M914.063,71.227c0-1.75-1.418-3.168-3.168-3.168h-52.396
			c-1.75,0-3.168,1.418-3.168,3.168v0.533l58.738,0.311L914.063,71.227z"/>
		
			<line clip-path="url(#SVGID_4_)" fill="none" stroke="#CDD0C4" stroke-width="0.486" stroke-miterlimit="10" x1="880.181" y1="79.91" x2="887.698" y2="79.91"/>
		
			<line clip-path="url(#SVGID_4_)" fill="none" stroke="#CDD0C4" stroke-width="0.486" stroke-miterlimit="10" x1="859.872" y1="79.91" x2="878.679" y2="79.91"/>
		
			<line clip-path="url(#SVGID_4_)" fill="none" stroke="#CDD0C4" stroke-width="0.486" stroke-miterlimit="10" x1="872.666" y1="83.049" x2="887.698" y2="83.049"/>
		
			<line clip-path="url(#SVGID_4_)" fill="none" stroke="#CDD0C4" stroke-width="0.486" stroke-miterlimit="10" x1="859.872" y1="83.049" x2="871.053" y2="83.049"/>
		
			<line clip-path="url(#SVGID_4_)" fill="none" stroke="#CDD0C4" stroke-width="0.486" stroke-miterlimit="10" x1="884.403" y1="86.188" x2="887.698" y2="86.188"/>
		<path clip-path="url(#SVGID_4_)" fill="none" stroke="#CDD0C4" stroke-width="0.486" stroke-miterlimit="10" d="M859.872,86.188
			c7.509,0.002,15.69,0.002,23.051,0"/>
		
			<line clip-path="url(#SVGID_4_)" fill="none" stroke="#CDD0C4" stroke-width="0.486" stroke-miterlimit="10" x1="872.869" y1="89.167" x2="887.698" y2="89.167"/>
		
			<line clip-path="url(#SVGID_4_)" fill="none" stroke="#CDD0C4" stroke-width="0.486" stroke-miterlimit="10" x1="859.872" y1="89.167" x2="871.453" y2="89.167"/>
		
			<line clip-path="url(#SVGID_4_)" fill="none" stroke="#CDD0C4" stroke-width="0.486" stroke-miterlimit="10" x1="877.903" y1="92.467" x2="887.698" y2="92.467"/>
		
			<line clip-path="url(#SVGID_4_)" fill="none" stroke="#CDD0C4" stroke-width="0.486" stroke-miterlimit="10" x1="859.872" y1="92.467" x2="876.317" y2="92.467"/>
		<path clip-path="url(#SVGID_4_)" fill="#4B53E4" d="M876.74,100.411h-14.865c-1.113,0-2.014-0.901-2.014-2.013
			c0-1.112,0.9-2.013,2.014-2.013h14.865c1.111,0,2.013,0.901,2.013,2.013C878.753,99.51,877.852,100.411,876.74,100.411"/>
		<path clip-path="url(#SVGID_4_)" fill="#4B53E4" d="M574.975,224.061c3.566-3.566,10.717-16.433,2.872-17.859
			c-7.845-1.427-29.241,35.659-36.729,30.311c-7.488-5.349,31.737-66.684,14.978-74.886c-10.202-4.992-20.906,2.726-31.051,9.661
			c-11.386,7.784-21.644,14.738-21.397,4.651c0.121-4.965,32.109-37.03,4.651-56.286c-15.224-10.676-43.101,5.387-69.777,20.933
			c-21.44,12.494-44.057,28.419-66.066,14.805C339.857,135.226,348.023,3.435,253.247-0.376H-3.497v428.445
			c0,0,19.438,78.562,128.777,67.222c109.338-11.338,196.899-133.091,210.9-143.047c20.934-14.886,39.49-8.498,29.772,12.56
			c-9.719,21.058,5.383,39.036,34.888,19.537c53.496-35.354,94.965-185.067,135.875-195.196c9.435-2.336-26.811,64.974-2.345,63.809
			c10.945-0.521,35.998-36.708,38.566-38.565c9.444-6.832,0.731,9.152,0.731,9.152L574.975,224.061z"/>
		<path clip-path="url(#SVGID_4_)" fill="#30B47A" d="M843.229,181.655c0,16.667-13.512,30.179-30.179,30.179
			c-16.668,0-30.18-13.512-30.18-30.179s13.512-30.179,30.18-30.179C829.718,151.477,843.229,164.988,843.229,181.655"/>
		
			<circle clip-path="url(#SVGID_4_)" fill="none" stroke="#0C8563" stroke-width="2" stroke-miterlimit="10" cx="815.583" cy="178.279" r="30.179"/>
		<polyline clip-path="url(#SVGID_4_)" fill="none" stroke="#FFFFFF" stroke-width="4.666" stroke-miterlimit="10" points="
			799.808,184.225 807.187,191.603 828.987,169.803 		"/>
		<path clip-path="url(#SVGID_4_)" fill="#FF5940" d="M601.86,356.979c0,14.662-11.886,26.547-26.548,26.547
			c-14.661,0-26.547-11.885-26.547-26.547c0-14.661,11.886-26.547,26.547-26.547C589.975,330.433,601.86,342.318,601.86,356.979"/>
		
			<circle clip-path="url(#SVGID_4_)" fill="none" stroke="#D15036" stroke-width="1.759" stroke-miterlimit="10" cx="577.541" cy="354.01" r="26.547"/>
		
			<circle clip-path="url(#SVGID_4_)" fill="none" stroke="#FFFFFF" stroke-width="3.519" stroke-miterlimit="10" cx="574.72" cy="349.989" r="9.798"/>
		<path clip-path="url(#SVGID_4_)" fill="none" stroke="#FFFFFF" stroke-width="3.519" stroke-miterlimit="10" d="M581.549,358.142
			l8.126,8.126L581.549,358.142z"/>
		<path clip-path="url(#SVGID_4_)" fill="#221660" d="M678.392,198.998c0.722-1.901,1.106-3.862,1.186-5.892
			c0.038-0.965-1.462-0.963-1.5,0c-0.074,1.9-0.458,3.717-1.132,5.493C676.603,199.502,678.052,199.893,678.392,198.998"/>
		<path clip-path="url(#SVGID_4_)" fill="#4B53E4" d="M780.916,317.146l43.38,67.649c0,0,26.349-49.258,30.256-54.336
			c3.905-5.077,42,16.061,42,16.061s-21.749,44-32.668,69.286c-8.518,19.725-57.555,16.248-57.555,16.248l-37.104-54.289
			L780.916,317.146z"/>
		<path clip-path="url(#SVGID_4_)" fill="#221660" d="M896.552,346.52c0,0-38.095-21.138-42-16.061c0,0,6.639-14.414,9.277-15.671
			c7.282-3.468,62.233,26.464,60.618,27.676c-3.328,2.496-25.904-1.857-25.904-1.857L896.552,346.52z"/>
		<path clip-path="url(#SVGID_4_)" fill="#4B53E4" d="M704.035,369.314c6.995,13.918,54.645,94.376,74.563,106.483
			c19.92,12.107,72.641-11.324,105.448-23.042l-15.615-43.745l-61.711,16.013l-30.855-44.134c0,0,19.085-45.469,5.051-63.744
			L704.035,369.314z"/>
		<polygon clip-path="url(#SVGID_4_)" fill="#221660" points="713.389,390.011 789.367,348.572 791.931,333.286 		"/>
		<path clip-path="url(#SVGID_4_)" fill="#F6A915" d="M718.984,230.501c5.073-2.456,53.042,6.847,53.042,6.847l-5.232,36.922
			l-25.002-5.233L718.984,230.501z"/>
		<path clip-path="url(#SVGID_4_)" fill="#F68E15" d="M766.794,274.271l-20.871-4.535l-17.002-28.089c0,0,6.854,2.006,13.233,6.977
			c0.34,0.264,12.776,8.046,13.112,8.328c5.465,4.584,13.581,1.765,13.581,1.765L766.794,274.271z"/>
		<path clip-path="url(#SVGID_4_)" fill="#FE9DA7" d="M560.194,255.126c-6.202-4.607-10.811-13.645-10.632-19.138
			c0.177-5.493,3.365-11.518,6.556-12.581c3.19-1.064,3.367,2.835,2.481,5.67s-0.886,9.037-0.886,9.037L560.194,255.126z"/>
		<path clip-path="url(#SVGID_4_)" fill="#FF6688" d="M558.6,229.077c-0.886,2.835-0.886,9.037-0.886,9.037l2.48,17.012
			c0,0-5.011-7.46-6.685-15.829C551.836,230.929,558.6,229.077,558.6,229.077"/>
		<path clip-path="url(#SVGID_4_)" fill="#FE9DA7" d="M642.714,199.688c-5.041,9.408,3.581,36.745,4.271,38.44
			c1.544,3.794,4.271,14.339,24.406,6.102l4.544,8.771c0,0,24.125-10.29,25.956-13.95c0,0-4.575-7.911-9.737-19.262
			c-4.818-10.598-9.926-24.603-18.322-26.813C656.443,188.4,647.29,191.146,642.714,199.688"/>
		<path clip-path="url(#SVGID_4_)" fill="#221660" d="M633.866,210.671c0,0,4.576,10.678,23.491,1.22c0,0,2.746,5.187,8.237,5.492
			l0.915,6.407l4.576-1.831c0,0,1.831,18,5.187,19.525c3.356,1.525,19.83-5.796,21.966-9.152c0.801-1.259-1.649-14.388-2.136-20.746
			c-0.81-10.597-0.633-20.977-11.129-15.729c0,0-3.629-8.07-7.288-10.205c-3.661-2.136-7.515,1.832-7.515,1.832
			s-3.355-9.457-13.118-8.237c-9.763,1.221-11.898,7.322-11.898,7.322s-14.645-11.288-25.627,3.356
			c-8.356,11.142,3.051,23.186,9.152,21.966L633.866,210.671z"/>
		<path clip-path="url(#SVGID_4_)" fill="#FE9DA7" d="M574.37,243.785c-4.075,0.709-7.974-3.367-9.037-5.139
			c-1.063-1.772,0.408-3.819,5.671-10.278c3.897-4.784-0.178-7.087-4.607-4.961c0,0-9.392,4.43-11.341,11.164
			c-2.601,8.982,6.378,23.036,6.378,23.036s7.975,25.694,25.872,47.489c14.173,17.261,26.758,14.531,34.022,14.354
			c7.266-0.177,29.623-9.932,29.623-9.932l-21.83-31.021l-15.235,6.221c-12.758-10.986-26.757-36.503-26.757-36.503L574.37,243.785z
			"/>
		<path clip-path="url(#SVGID_4_)" fill="#FF6688" d="M571.004,228.368c-5.263,6.458-6.734,8.506-5.671,10.278
			s4.962,5.847,9.037,5.139l-6.697,2.259l-1.912,4.173c0,0-4.348-7.477-3.305-12.347C563.5,233.002,571.004,228.368,571.004,228.368
			"/>
		<path clip-path="url(#SVGID_4_)" fill="#FF6688" d="M629.121,278.497l21.83,31.021c0,0-8.129,3.546-16.176,6.4
			c-1.75,0.621,4.353-2.354,3.516-7.815C636.593,297.023,629.121,278.497,629.121,278.497"/>
		<path clip-path="url(#SVGID_4_)" fill="#FE9DA7" d="M771.962,237.896c-0.344,0.125,17.909,4.794,22.771,2.46
			c6.797-3.262,16.53-26.541,16.53-26.541s-3.78-12.791-1.163-13.954c2.616-1.163,4.942,5.524,4.942,5.524s4.07-21.223,6.687-20.932
			s3.59,4.598,3.644,10.741c0,0,0.753,2.159,1.334-0.167c0.582-2.326,1.887-10.134,4.503-11.006
			c2.617-0.873,4.289,7.693,2.835,13.507c0,0,5.051-9.963,6.504-9.672c1.454,0.291,3.275,6.481,0.077,13.458
			c0,0,4.247-5.474,5.7-4.602c1.454,0.872,0.473,9.681-7.144,21.065c0,0-3.069,37.929-29.815,53.337
			c-9.31,5.363-20.876,6.096-31.136,4.429c-6.691-1.087-11.437-2.435-11.437-2.435L771.962,237.896z"/>
		<path clip-path="url(#SVGID_4_)" fill="#FE9DA7" d="M669.548,225.082c2.233-6.7,4.072-7.688,7.263-3.86
			c3.19,3.829-0.563,11.516-5.029,11.197C667.314,232.101,669.548,225.082,669.548,225.082"/>
		<path clip-path="url(#SVGID_4_)" fill="#221660" d="M868.431,409.011c0,0,15.103-5.844,18.39-4.383
			c3.288,1.462,29.115,62.223,27.653,70.625c-1.461,8.402-24.561-24.813-24.561-24.813l-5.866,2.316L868.431,409.011z"/>
		<path clip-path="url(#SVGID_4_)" fill="#F6A915" d="M627.83,274.883c0.61,5.491,20.375,35.551,23.121,34.635
			c1.83-0.609,14.948-7.322,14.948-7.322c-0.214,0.074,23.665,54.492,45.12,89.029c0,0,65.994-41.717,89.181-64.293
			c0,0-73.284-92.159-81.216-96.43l-62.237,30.813L627.83,274.883z"/>
		<path clip-path="url(#SVGID_4_)" fill="#221660" d="M783.036,360.771c-1.675,6.976-4.142,13.575-7.492,19.926
			c-0.127,0.241-0.165,0.573,0,0.812c10.161,14.641,20.321,29.28,30.481,43.921c0.207,0.299,0.544,0.467,0.907,0.37
			c19.489-5.173,38.977-10.346,58.465-15.518c0.999-0.266,0.575-1.818-0.429-1.552l-51.557,13.685
			c-1.95,0.518-4.777,1.884-6.822,1.811c1.25,0.045,0.621,0.485-0.008-0.808c-0.648-1.331-1.788-2.576-2.632-3.792
			c-6.116-8.814-12.233-17.628-18.352-26.441c-2.495-3.598-5.725-7.233-7.726-11.134c-1.136-2.214-0.275-1.662,1.083-4.552
			c2.459-5.23,4.283-10.685,5.632-16.3C784.829,360.192,783.278,359.763,783.036,360.771"/>
		<path clip-path="url(#SVGID_4_)" fill="#221660" d="M792.72,404.85l-16.48-23.747c1.888-3.479,3.507-7.102,4.849-10.824
			C782.184,367.239,792.72,404.85,792.72,404.85"/>
		<path clip-path="url(#SVGID_4_)" fill="#FF6688" d="M778.23,275.542c-6.691-1.087-11.437-2.435-11.437-2.435l5.168-35.211
			c0,0,0.628,23.989,3.114,29.458C776.872,271.307,778.23,275.542,778.23,275.542"/>
		<path clip-path="url(#SVGID_4_)" fill="#F6A915" d="M564.782,252.813l1.016-3.738l1.088-4.328l4.118-16.379
			c0,0,0.87-2.858,4.067-5.416c0.456-0.366,0.96-0.725,1.516-1.07c0,0,0.42,0.601,0.892,1.659c0.65,1.46,1.4,3.793,1.277,6.618
			c-0.12,2.739-1.512,10.37-2.707,16.522c-0.319,1.646-0.625,3.186-0.889,4.498c-0.502,2.501-0.851,4.175-0.851,4.175
			s-2.964,1.481-5.505,1.059C566.264,255.989,564.782,252.813,564.782,252.813"/>
		<path clip-path="url(#SVGID_4_)" fill="#FCDE98" d="M578.756,230.159c0.123-2.825-0.627-5.157-1.277-6.618
			c-0.472-1.057-0.892-1.658-0.892-1.658c-0.556,0.344-1.06,0.703-1.516,1.069c-3.197,2.558-4.067,5.416-4.067,5.416l2.361-1.583
			l0.771,1.331l1.821-1.121l1.19,2.452l1.051-1.191L578.756,230.159z"/>
		<path clip-path="url(#SVGID_4_)" d="M577.479,223.542c-0.472-1.058-0.892-1.659-0.892-1.659c-0.556,0.345-1.06,0.704-1.516,1.07
			L577.479,223.542z"/>
		<path clip-path="url(#SVGID_4_)" fill="#3A4B73" d="M575.16,251.18c0.264-1.312,0.569-2.853,0.889-4.498
			c-0.617-0.577-1.879-1.597-3.771-2.119c-2.504-0.69-4.593-0.091-5.392,0.185c-0.363,1.443-0.726,2.885-1.088,4.328L575.16,251.18z
			"/>
		<path clip-path="url(#SVGID_4_)" fill="#F65015" d="M575.16,251.18c-0.502,2.501-0.851,4.175-0.851,4.175
			s-2.964,1.481-5.505,1.059c-2.541-0.424-4.022-3.6-4.022-3.6l1.016-3.738c0,0,1.619-1.62,4.975-0.926
			C574.291,248.878,575.16,251.18,575.16,251.18"/>
		<path clip-path="url(#SVGID_4_)" fill="#FE9DA7" d="M587.129,248.215c1.949-6.379-2.127-10.986-5.316-16.125
			s-5.139-4.607-6.557-3.544c-1.221,0.915,2.026,11.028,0.35,14.273c-0.897,1.736-1.599,3.564-1.675,5.518
			c-0.146,3.778,0.254,8.653,3.176,9.415c0.982,0.257,0.919-9.794,1.952-9.668C583.144,248.582,587.129,248.215,587.129,248.215"/>
		<path clip-path="url(#SVGID_4_)" fill="none" stroke="#F6A915" stroke-width="0.827" stroke-miterlimit="10" d="M405.414,513.813
			h-11.342c-11.066,0-20.037-8.972-20.037-20.038c0-11.065,8.971-20.038,20.037-20.038h2.21c11.067,0,20.037,8.973,20.037,20.038
			v18.854c0,0.487-0.319,0.886-0.722,0.897C413.171,513.595,405.467,513.813,405.414,513.813z"/>
		<polygon clip-path="url(#SVGID_4_)" fill="#FF6688" points="528.401,471.868 527.307,479.315 533.879,477.125 		"/>
		<polygon clip-path="url(#SVGID_4_)" fill="#FF6688" points="732.58,179.056 731.145,188.812 739.754,185.943 		"/>
		<polygon clip-path="url(#SVGID_4_)" fill="#FF6688" points="9.023,241.404 7.588,251.16 16.197,248.291 		"/>
		<polygon clip-path="url(#SVGID_4_)" fill="#FF6688" points="422.593,299.469 421.158,309.226 429.767,306.355 		"/>
		<path clip-path="url(#SVGID_4_)" fill="#F6A915" d="M383.769,144.038c-1.079-1.31-0.893-3.246,0.417-4.326
			c1.31-1.079,3.246-0.893,4.325,0.417c1.08,1.309,0.894,3.246-0.416,4.326C386.786,145.534,384.849,145.348,383.769,144.038"/>
		<g opacity="0.5" clip-path="url(#SVGID_4_)">
			<g>
				<defs>
					<rect id="SVGID_5_" x="322.286" y="113.27" width="3.83" height="3.83"/>
				</defs>
				<clipPath id="SVGID_6_">
					<use xlink:href="#SVGID_5_"  overflow="visible"/>
				</clipPath>
				<path clip-path="url(#SVGID_6_)" fill="#FFFFFF" d="M326.116,115.185c0,1.057-0.857,1.915-1.915,1.915s-1.915-0.858-1.915-1.915
					c0-1.058,0.857-1.915,1.915-1.915S326.116,114.127,326.116,115.185"/>
			</g>
		</g>
		<path clip-path="url(#SVGID_4_)" fill="#F6A915" d="M512.38,386.214c-0.185-1.582,0.949-3.014,2.531-3.197
			c1.581-0.185,3.013,0.949,3.197,2.53c0.184,1.582-0.949,3.014-2.531,3.198C513.995,388.929,512.563,387.796,512.38,386.214"/>
		<path clip-path="url(#SVGID_4_)" fill="#F6A915" d="M148.992,452.097c0,1.592-1.291,2.883-2.884,2.883
			c-1.592,0-2.884-1.291-2.884-2.883c0-1.593,1.292-2.884,2.884-2.884C147.701,449.213,148.992,450.504,148.992,452.097"/>
		<polyline clip-path="url(#SVGID_4_)" fill="none" stroke="#FF6688" stroke-miterlimit="10" points="871.568,-2.957 
			880.127,-1.678 878.176,4.606 885.694,5.908 884.59,12.797 891.891,13.687 890.351,19.753 		"/>
		
			<rect x="502.897" y="289.06" transform="matrix(0.866 -0.5 0.5 0.866 -78.8637 293.1562)" clip-path="url(#SVGID_4_)" fill="#4B53E4" width="9.339" height="9.339"/>
		
			<rect x="474.496" y="144.528" transform="matrix(0.866 -0.5 0.5 0.866 -9.7083 258.3552)" clip-path="url(#SVGID_4_)" fill="#FFFFFF" width="5.534" height="5.533"/>
		<polyline clip-path="url(#SVGID_4_)" fill="none" stroke="#FFFFFF" stroke-width="0.803" stroke-miterlimit="10" points="
			466.508,210.035 470.407,212.069 468.428,214.763 471.823,216.635 470.149,219.761 473.51,221.399 471.764,224.057 		"/>
		<polyline clip-path="url(#SVGID_4_)" fill="none" stroke="#FFFFFF" stroke-miterlimit="10" points="-2.046,21.889 3.375,22.66 
			2.169,26.645 6.934,27.434 6.266,31.8 10.891,32.33 9.943,36.177 		"/>
		<path clip-path="url(#SVGID_4_)" fill="#FFF9E1" d="M695.029,494.093l58.269-30.397c0,0,9.746,2.897,14.36,10.671
			s4.095,20.422,7.666,23.477c7.143,6.107,22.502,4.882,25.646,26.792l-54.69,34c0,0-4.482-7.88-7.962-9.604
			c-5.59-2.772-15.459-4.549-21.551-11.988c-4.89-5.973-3.864-20.012-8.044-29.174C704.454,498.512,695.029,494.093,695.029,494.093
			"/>
		<path clip-path="url(#SVGID_4_)" fill="#D9C693" d="M715.133,499.824c13.827-6.121,25.554-16.371,39.208-22.841
			c1.38-0.653,0.177-2.702-1.198-2.051c-13.654,6.471-25.381,16.72-39.208,22.841C712.539,498.391,713.746,500.438,715.133,499.824"
			/>
		<path clip-path="url(#SVGID_4_)" fill="#D9C693" d="M719.063,508.668c13.828-6.12,25.554-16.37,39.208-22.84
			c1.381-0.654,0.177-2.702-1.198-2.051c-13.655,6.47-25.381,16.72-39.208,22.841C716.471,507.235,717.678,509.282,719.063,508.668"
			/>
		<path clip-path="url(#SVGID_4_)" fill="#D9C693" d="M722.994,519.479c13.828-6.121,25.555-16.37,39.208-22.841
			c1.381-0.653,0.177-2.702-1.198-2.05c-13.655,6.47-25.381,16.719-39.208,22.84C720.401,518.045,721.608,520.092,722.994,519.479"
			/>
		<path clip-path="url(#SVGID_4_)" fill="none" stroke="#CDD0C4" stroke-miterlimit="10" d="M617.504,466.653
			c-2.402-0.875-3.963-2.917-3.299-5.387l0.726-2.699l6.066-22.214c0.166-0.62,0.521-1.174,1.015-1.585l3.774-3.141l0.965-0.803
			c0.47-0.39,1.184-0.201,1.399,0.37l0.446,1.186l1.535,4.074c0.225,0.597,0.261,1.249,0.103,1.868l-5.824,22.29l-0.777,3.043
			c-0.23,0.903-0.655,1.76-1.31,2.423c-0.987,1.002-2.243,1.327-4.383,0.716C617.789,466.752,617.644,466.705,617.504,466.653z"/>
		<path clip-path="url(#SVGID_4_)" fill="#CDD0C4" d="M628.597,432.381l-0.447-1.186c-0.215-0.571-0.929-0.76-1.398-0.37
			l-0.966,0.803c0,0,0.134,0.61,1,0.783C627.65,432.584,628.597,432.381,628.597,432.381"/>
		<path clip-path="url(#SVGID_4_)" fill="none" stroke="#CDD0C4" stroke-miterlimit="10" d="M624.41,460.613l-0.813,3.188
			c-0.237,0.923-0.718,1.771-1.418,2.418c-0.967,0.891-2.202,1.158-4.239,0.576c-0.151-0.043-0.297-0.09-0.437-0.142
			c-2.402-0.875-3.963-2.917-3.299-5.387l0.727-2.699c0,0,2.371-1.114,4.187-0.85C623.28,458.325,624.41,460.613,624.41,460.613z"/>
		<path clip-path="url(#SVGID_4_)" fill="none" stroke="#CDD0C4" stroke-miterlimit="10" d="M615.421,462.69
			c0.934-0.747,5.038-1.213,6.718,1.959"/>
		<polyline clip-path="url(#SVGID_4_)" fill="none" stroke="#CDD0C4" stroke-miterlimit="10" points="622.024,436.738 
			623.582,437.604 625.746,437.171 627.563,438.296 629.208,437.69 		"/>
		<path clip-path="url(#SVGID_4_)" fill="none" stroke="#CDD0C4" stroke-miterlimit="10" d="M616.868,454.516
			c0,0,4.846-2.164,8.222,2.424"/>
		
			<line clip-path="url(#SVGID_4_)" fill="none" stroke="#CDD0C4" stroke-miterlimit="10" x1="623.791" y1="453.131" x2="627.563" y2="438.296"/>
		
			<line clip-path="url(#SVGID_4_)" fill="none" stroke="#CDD0C4" stroke-miterlimit="10" x1="619.378" y1="454.17" x2="623.148" y2="439.335"/>
		<path clip-path="url(#SVGID_4_)" fill="none" stroke="#FF6688" stroke-miterlimit="10" d="M923.779,452.164
			c2.079,2.695,2.379,6.104-0.126,8.407l-2.739,2.52l-29.651,27.787c-0.63,0.579-1.423,0.949-2.271,1.06l-6.481,0.844l-1.656,0.216
			c-0.807,0.105-1.476-0.616-1.311-1.412l0.342-1.65l1.176-5.677c0.172-0.832,0.596-1.592,1.214-2.175l29.436-28.044l3.041-2.869
			c0.902-0.852,1.99-1.513,3.199-1.793c1.823-0.423,3.468,0.105,5.438,2.316C923.528,451.852,923.658,452.007,923.779,452.164z"/>
		<path clip-path="url(#SVGID_4_)" fill="#FF6688" d="M879.885,489.934l-0.342,1.651c-0.165,0.796,0.504,1.517,1.311,1.412
			l1.656-0.216c0,0,0.285-0.78-0.564-1.592C881.095,490.379,879.885,489.934,879.885,489.934"/>
		<polyline clip-path="url(#SVGID_4_)" fill="none" stroke="#FF6688" stroke-miterlimit="10" points="890.381,489.713 
			889.245,487.63 886.503,486.575 885.26,484.016 882.979,483.526 		"/>
		
			<line clip-path="url(#SVGID_4_)" fill="none" stroke="#FF6688" stroke-miterlimit="10" x1="907.076" y1="462.896" x2="885.26" y2="484.016"/>
		
			<line clip-path="url(#SVGID_4_)" fill="none" stroke="#FF6688" stroke-miterlimit="10" x1="912.78" y1="464.871" x2="890.964" y2="485.991"/>
		<path clip-path="url(#SVGID_4_)" fill="none" stroke="#CDD0C4" stroke-width="1.819" stroke-miterlimit="10" d="M951.311,224.147
			h-56.944l-8.657,5.549l-0.57-5.549c-2.21,0-4.001-1.791-4.001-4v-14.834c0-2.209,1.791-4.001,4.001-4.001h66.172
			c2.21,0,4.001,1.792,4.001,4.001v14.834C955.312,222.356,953.521,224.147,951.311,224.147z"/>
		
			<line clip-path="url(#SVGID_4_)" fill="none" stroke="#CDD0C4" stroke-width="1.819" stroke-miterlimit="10" x1="890.992" y1="209.939" x2="946.498" y2="209.939"/>
		
			<line clip-path="url(#SVGID_4_)" fill="none" stroke="#CDD0C4" stroke-width="1.819" stroke-miterlimit="10" x1="890.992" y1="216.045" x2="946.498" y2="216.045"/>
		<path clip-path="url(#SVGID_4_)" fill="none" stroke="#CDD0C4" stroke-width="1.363" stroke-miterlimit="10" d="M528.732,108.744
			h14.222l4.789,3.069l0.315-3.069c1.223,0,2.214-0.991,2.214-2.213v-8.205c0-1.223-0.991-2.213-2.214-2.213h-19.326
			c-1.222,0-2.213,0.99-2.213,2.213v8.205C526.52,107.753,527.511,108.744,528.732,108.744z"/>
		
			<line clip-path="url(#SVGID_4_)" fill="none" stroke="#CDD0C4" stroke-width="1.363" stroke-miterlimit="10" x1="544.821" y1="100.885" x2="531.395" y2="100.885"/>
		
			<line clip-path="url(#SVGID_4_)" fill="none" stroke="#CDD0C4" stroke-width="1.363" stroke-miterlimit="10" x1="544.821" y1="104.262" x2="531.395" y2="104.262"/>
		<path clip-path="url(#SVGID_4_)" fill="none" stroke="#CDD0C4" stroke-width="1.459" stroke-miterlimit="10" d="M301.581,511.003
			h-36.569c-2.657,0-4.811-2.154-4.811-4.813v-20.636c0-2.657,2.154-4.812,4.811-4.812h36.569c2.657,0,4.811,2.154,4.811,4.812
			v20.636C306.392,508.849,304.238,511.003,301.581,511.003z"/>
		<path clip-path="url(#SVGID_4_)" fill="#30B47A" d="M266.22,505.477c0,0,9.332-14.324,10.634-14.324
			c1.303,0,12.588,14.541,12.588,14.541L266.22,505.477z"/>
		<path clip-path="url(#SVGID_4_)" fill="#30B47A" d="M283.919,495.917l7.259,9.125h8.735v-5.208c0,0-8.186-7.712-10.387-9.123
			C288.844,491.435,283.919,496.329,283.919,495.917"/>
		<path clip-path="url(#SVGID_4_)" fill="#F6A915" d="M273.462,488.209c0,1.348-1.093,2.44-2.44,2.44c-1.348,0-2.44-1.093-2.44-2.44
			c0-1.347,1.092-2.439,2.44-2.439C272.369,485.77,273.462,486.862,273.462,488.209"/>
		<g opacity="0.15" clip-path="url(#SVGID_4_)">
			<g>
				<defs>
					<rect id="SVGID_7_" x="10.59" y="446.397" width="53.345" height="35.71"/>
				</defs>
				<clipPath id="SVGID_8_">
					<use xlink:href="#SVGID_7_"  overflow="visible"/>
				</clipPath>
				<path clip-path="url(#SVGID_8_)" fill="none" stroke="#FFFFFF" stroke-width="2.214" stroke-miterlimit="10" d="M57.502,481
					h-40.48c-2.941,0-5.326-2.384-5.326-5.325V452.83c0-2.94,2.385-5.325,5.326-5.325h40.48c2.941,0,5.325,2.385,5.325,5.325v22.845
					C62.828,478.616,60.443,481,57.502,481z"/>
				<path clip-path="url(#SVGID_8_)" fill="none" stroke="#FFFFFF" stroke-width="2.214" stroke-miterlimit="10" d="M19.432,474.893
					c-0.464-0.004-0.741-0.516-0.486-0.902c2.207-3.349,9.952-14.963,11.186-14.963c1.441,0,13.933,16.096,13.933,16.096
					L19.432,474.893z"/>
				<path clip-path="url(#SVGID_8_)" fill="none" stroke="#FFFFFF" stroke-width="2.214" stroke-miterlimit="10" d="M36.223,465.006
					l8.035,10.101l10.758-0.211c0.316-0.006,0.57-0.262,0.574-0.577l0.063-5.397c0.002-0.18-0.073-0.346-0.213-0.458
					c-1.375-1.107-8.958-7.203-12.021-9.394c-0.448-0.322-1.053-0.268-1.439,0.126C40.283,460.926,36.223,465.006,36.223,465.006z"
					/>
				
					<circle clip-path="url(#SVGID_8_)" fill="none" stroke="#FFFFFF" stroke-width="2.214" stroke-miterlimit="10" cx="23.676" cy="455.77" r="2.701"/>
			</g>
		</g>
		<circle clip-path="url(#SVGID_4_)" fill="none" stroke="#221660" stroke-miterlimit="10" cx="832.49" cy="329.003" r="2.077"/>
		<circle clip-path="url(#SVGID_4_)" fill="none" stroke="#221660" stroke-miterlimit="10" cx="657.836" cy="333.434" r="2.076"/>
		<circle clip-path="url(#SVGID_4_)" fill="none" stroke="#221660" stroke-miterlimit="10" cx="647.507" cy="498.735" r="2.076"/>
		<circle clip-path="url(#SVGID_4_)" fill="none" stroke="#221660" stroke-miterlimit="10" cx="533.654" cy="125.964" r="2.077"/>
		
			<line clip-path="url(#SVGID_4_)" fill="none" stroke="#FFFFFF" stroke-miterlimit="10" x1="15.164" y1="413.229" x2="18.592" y2="423.023"/>
		
			<line clip-path="url(#SVGID_4_)" fill="none" stroke="#FFFFFF" stroke-miterlimit="10" x1="12.487" y1="420.228" x2="21.404" y2="416.498"/>
		
			<line clip-path="url(#SVGID_4_)" fill="none" stroke="#FFFFFF" stroke-miterlimit="10" x1="319.876" y1="49.614" x2="323.304" y2="59.408"/>
		
			<line clip-path="url(#SVGID_4_)" fill="none" stroke="#FFFFFF" stroke-miterlimit="10" x1="317.199" y1="56.612" x2="326.116" y2="52.883"/>
		
			<line clip-path="url(#SVGID_4_)" fill="none" stroke="#FFFFFF" stroke-miterlimit="10" x1="391.02" y1="362.103" x2="394.447" y2="371.896"/>
		
			<line clip-path="url(#SVGID_4_)" fill="none" stroke="#FFFFFF" stroke-miterlimit="10" x1="388.343" y1="369.101" x2="397.26" y2="365.372"/>
		
			<line clip-path="url(#SVGID_4_)" fill="none" stroke="#F6A915" stroke-miterlimit="10" x1="766.184" y1="116.446" x2="769.611" y2="126.24"/>
		
			<line clip-path="url(#SVGID_4_)" fill="none" stroke="#F6A915" stroke-miterlimit="10" x1="763.506" y1="123.445" x2="772.423" y2="119.716"/>
		
			<line clip-path="url(#SVGID_4_)" fill="none" stroke="#F6A915" stroke-miterlimit="10" x1="704.988" y1="439.896" x2="708.416" y2="449.69"/>
		
			<line clip-path="url(#SVGID_4_)" fill="none" stroke="#F6A915" stroke-miterlimit="10" x1="702.311" y1="446.895" x2="711.228" y2="443.165"/>
		
			<line clip-path="url(#SVGID_4_)" fill="none" stroke="#F6A915" stroke-miterlimit="10" x1="881.154" y1="274.74" x2="884.582" y2="284.534"/>
		
			<line clip-path="url(#SVGID_4_)" fill="none" stroke="#F6A915" stroke-miterlimit="10" x1="878.478" y1="281.739" x2="887.395" y2="278.011"/>
		
			<line clip-path="url(#SVGID_4_)" fill="none" stroke="#4B53E4" stroke-miterlimit="10" x1="330.408" y1="441.453" x2="333.836" y2="451.247"/>
		
			<line clip-path="url(#SVGID_4_)" fill="none" stroke="#4B53E4" stroke-miterlimit="10" x1="327.731" y1="448.451" x2="336.648" y2="444.723"/>
		<path clip-path="url(#SVGID_4_)" fill="#F6A915" d="M656.631,126.476c0,12.808-10.383,23.191-23.191,23.191
			c-12.808,0-23.19-10.383-23.19-23.191s10.383-23.191,23.19-23.191C646.248,103.285,656.631,113.667,656.631,126.476"/>
		
			<circle clip-path="url(#SVGID_4_)" fill="none" stroke="#F67215" stroke-width="1.398" stroke-miterlimit="10" cx="635.125" cy="123.476" r="23.191"/>
		<path clip-path="url(#SVGID_4_)" fill="none" stroke="#FFFFFF" stroke-width="1.859" stroke-miterlimit="10" d="M645.229,122.681
			c0,4.229-1.872,7.767-5.351,9.642c-1.566,0.843-2.997,7.289-2.997,7.289l-6.787-0.136c0,0-1.116-6.85-2.306-7.678
			c-2.88-2.005-4.765-5.341-4.765-9.117c0-6.132,4.971-11.103,11.102-11.103C640.258,111.578,645.229,116.549,645.229,122.681z"/>
		<polyline clip-path="url(#SVGID_4_)" fill="none" stroke="#FFFFFF" stroke-width="1.859" stroke-miterlimit="10" points="
			631.044,131.74 629.279,121.696 633.623,124.139 637.831,121.696 636.202,131.74 		"/>
		
			<line clip-path="url(#SVGID_4_)" fill="none" stroke="#FFFFFF" stroke-width="1.859" stroke-miterlimit="10" x1="627.788" y1="131.798" x2="639.878" y2="131.798"/>
		
			<line clip-path="url(#SVGID_4_)" fill="none" stroke="#FFFFFF" stroke-width="1.859" stroke-miterlimit="10" x1="629.822" y1="135.54" x2="637.831" y2="135.54"/>
		<path clip-path="url(#SVGID_4_)" fill="#221660" d="M634.496,159.763c0.482,0,0.483-0.75,0-0.75S634.013,159.763,634.496,159.763"
			/>
		<path clip-path="url(#SVGID_4_)" fill="none" stroke="#EFDDC9" stroke-width="0.909" stroke-miterlimit="10" d="M402.654,493.237
			c0.145,3.154-1.132,5.857-3.663,7.374c-1.139,0.683-1.987,5.539-1.987,5.539l-5.067,0.13c0,0-1.066-5.071-1.981-5.648
			c-2.217-1.398-3.737-3.822-3.865-6.639c-0.209-4.574,3.33-8.451,7.903-8.66C398.568,485.124,402.445,488.663,402.654,493.237z"/>
		<polyline clip-path="url(#SVGID_4_)" fill="none" stroke="#EFDDC9" stroke-width="0.909" stroke-miterlimit="10" points="
			391.654,500.452 390.902,492.866 394.225,494.541 397.281,492.575 397.313,500.531 		"/>
		<g opacity="0.14" clip-path="url(#SVGID_4_)">
			<g>
				<defs>
					<rect id="SVGID_9_" x="267.374" y="380.018" width="27.762" height="29.087"/>
				</defs>
				<clipPath id="SVGID_10_">
					<use xlink:href="#SVGID_9_"  overflow="visible"/>
				</clipPath>
				
					<circle clip-path="url(#SVGID_10_)" fill="none" stroke="#FFFFFF" stroke-width="3.519" stroke-miterlimit="10" cx="278.934" cy="391.578" r="9.801"/>
				<path clip-path="url(#SVGID_10_)" fill="none" stroke="#FFFFFF" stroke-width="3.519" stroke-miterlimit="10" d="
					M285.764,399.732l8.128,8.128L285.764,399.732z"/>
			</g>
		</g>
		<g opacity="0.14" clip-path="url(#SVGID_4_)">
			<g>
				<defs>
					<rect id="SVGID_11_" x="-8.64" y="101.314" width="32.479" height="26.75"/>
				</defs>
				<clipPath id="SVGID_12_">
					<use xlink:href="#SVGID_11_"  overflow="visible"/>
				</clipPath>
				<polyline clip-path="url(#SVGID_12_)" fill="none" stroke="#FFFFFF" stroke-width="4.666" stroke-miterlimit="10" points="
					-6.99,117.385 0.389,124.764 22.189,102.964 				"/>
			</g>
		</g>
		<path clip-path="url(#SVGID_4_)" fill="#CDD0C4" d="M712.28,121.725c0,1.812-1.469,3.282-3.281,3.282s-3.282-1.47-3.282-3.282
			s1.47-3.281,3.282-3.281S712.28,119.913,712.28,121.725"/>
	</g>
</g>
</svg>
