<?xml version="1.0" encoding="utf-8"?>
<!-- Generator: Adobe Illustrator 16.0.0, SVG Export Plug-In . SVG Version: 6.00 Build 0)  -->
<!DOCTYPE svg PUBLIC "-//W3C//DTD SVG 1.1//EN" "http://www.w3.org/Graphics/SVG/1.1/DTD/svg11.dtd">
<svg version="1.1" xmlns="http://www.w3.org/2000/svg" xmlns:xlink="http://www.w3.org/1999/xlink" x="0px" y="0px" width="500px"
	 height="500px" viewBox="0 0 500 500" style="enable-background:new 0 0 500 500;" xml:space="preserve">
<g id="Background">
	<rect style="fill:none;" width="500" height="500"/>
</g>
<g id="Objects">
	<g>
		<g>
			<g>
				<defs>
					<rect id="SVGID_1_" y="225.39" width="500" height="217.63"/>
				</defs>
				<clipPath id="SVGID_2_">
					<use xlink:href="#SVGID_1_"  style="overflow:visible;"/>
				</clipPath>
				<path style="clip-path:url(#SVGID_2_);fill:#D7EFFF;" d="M-78.41,193.36c0,6.87-1.74,13.39-4.85,19.23
					c27.14,3.01,48.12,23.36,48.12,48c0,1.29-0.06,2.57-0.17,3.83c6.67-2.51,14.01-3.91,21.72-3.91c29.56,0,53.69,20.44,55.05,46.1
					c0.77-0.08,1.55-0.13,2.35-0.13c7.18,0,13.42,3.55,16.56,8.76c4.56-3.88,10.77-6.27,17.63-6.27c11.15,0,20.61,6.33,24,15.11
					c2.38-0.65,4.9-1,7.52-1c14,0,25.35,9.96,25.35,22.26c0,1.13-0.1,2.24-0.28,3.33c6.35,1.33,11.76,4.76,15.25,9.4
					c0.27-0.01,0.54-0.02,0.82-0.02c1.6,0,3.16,0.19,4.64,0.52c2.76-3.02,6.4-5.39,10.57-6.82c1.01-11.48,11.93-20.52,25.26-20.52
					c11.74,0,21.61,7.01,24.49,16.52c2.75-1.39,5.93-2.19,9.33-2.19c8.8,0,16.18,5.34,18.18,12.53c2-7.19,9.38-12.53,18.18-12.53
					c3.4,0,6.58,0.8,9.33,2.19c2.88-9.51,12.75-16.52,24.49-16.52c13.33,0,24.25,9.04,25.26,20.52c4.18,1.43,7.81,3.8,10.57,6.82
					c1.49-0.33,3.04-0.52,4.64-0.52c0.27,0,0.54,0.01,0.82,0.02c3.49-4.64,8.9-8.07,15.25-9.4c-0.19-1.09-0.28-2.2-0.28-3.33
					c0-12.29,11.35-22.26,25.35-22.26c2.62,0,5.15,0.35,7.52,1c3.39-8.79,12.85-15.11,24-15.11c6.85,0,13.06,2.39,17.63,6.27
					c3.14-5.21,9.38-8.76,16.56-8.76c0.8,0,1.58,0.05,2.35,0.13c1.36-25.66,25.48-46.1,55.05-46.1c7.71,0,15.06,1.39,21.72,3.91
					c-0.11-1.26-0.17-2.54-0.17-3.83c0-24.65,20.98-44.99,48.12-48c-3.1-5.85-4.85-12.36-4.85-19.23c0-12.58,5.8-23.97,15.19-32.22
					v280.44h-178.9H85.31H-93.6V161.15C-84.21,169.39-78.41,180.78-78.41,193.36z"/>
			</g>
			<g>
				<path style="fill:#D7EFFF;" d="M132.77,144.93c1.29-5.34-1.48-10.4-6.51-11.57c-2.6-0.61-5.31-0.06-7.64,1.31
					c0.1-0.97,0.17-1.95,0.17-2.95c0-12.08-7.56-21.88-16.88-21.88c-7.37,0-13.62,6.13-15.92,14.66c-2.99-3.04-6.8-4.66-10.5-4.04
					c-6.5,1.08-10.17,8.69-8.25,17.03c-1.26-0.63-2.65-1-4.13-1c-4.75,0-8.7,3.64-9.53,8.44H132.77z"/>
				<path style="fill:#D7EFFF;" d="M289.45,61.13c1.29-5.34-1.48-10.4-6.52-11.57c-2.6-0.61-5.31-0.06-7.64,1.31
					c0.1-0.97,0.17-1.95,0.17-2.95c0-12.08-7.56-21.88-16.88-21.88c-7.37,0-13.62,6.13-15.92,14.66c-2.99-3.04-6.8-4.66-10.5-4.04
					c-6.5,1.08-10.17,8.69-8.25,17.03c-1.26-0.63-2.65-1-4.13-1c-4.75,0-8.7,3.64-9.53,8.44H289.45z"/>
				<path style="fill:#D7EFFF;" d="M460.13,203.06c1.29-5.34-1.48-10.4-6.52-11.57c-2.6-0.61-5.31-0.06-7.64,1.31
					c0.1-0.97,0.17-1.95,0.17-2.95c0-12.08-7.56-21.88-16.88-21.88c-7.37,0-13.62,6.13-15.92,14.66c-2.99-3.04-6.8-4.66-10.5-4.04
					c-6.5,1.08-10.17,8.69-8.26,17.03c-1.26-0.63-2.65-1-4.13-1c-4.75,0-8.7,3.64-9.53,8.44H460.13z"/>
			</g>
		</g>
		<g>
			<path style="fill:#FFFFFF;" d="M367.2,237.11v-10.7h-6.89c-0.44-1.59-1.07-3.11-1.88-4.52l4.88-4.88l-7.57-7.56l-4.88,4.88
				c-1.41-0.79-2.92-1.43-4.51-1.87v-6.91h-10.7v6.91c-1.59,0.44-3.1,1.07-4.51,1.87l-4.88-4.88l-7.57,7.56l4.88,4.88
				c-0.8,1.41-1.44,2.92-1.88,4.52h-6.89v10.7h6.88c0.44,1.6,1.07,3.12,1.87,4.53l-4.86,4.86l7.57,7.57l4.85-4.85
				c1.41,0.8,2.94,1.44,4.54,1.88v6.86h10.7v-6.86c1.6-0.44,3.13-1.08,4.54-1.88l4.85,4.85l7.57-7.57l-4.86-4.86
				c0.8-1.41,1.43-2.93,1.87-4.53H367.2z M341.01,243.07c-6.23,0-11.28-5.05-11.28-11.28s5.05-11.28,11.28-11.28
				s11.28,5.05,11.28,11.28S347.24,243.07,341.01,243.07z"/>
			<path style="fill:#FFFFFF;" d="M92.04,345.33v-10.7h-6.89c-0.44-1.59-1.07-3.11-1.88-4.52l4.88-4.88l-7.57-7.56l-4.88,4.88
				c-1.41-0.79-2.92-1.43-4.51-1.87v-6.91H60.5v6.91c-1.59,0.44-3.1,1.07-4.51,1.87l-4.88-4.88l-7.57,7.56l4.88,4.88
				c-0.8,1.41-1.44,2.92-1.88,4.52h-6.89v10.7h6.88c0.44,1.6,1.07,3.12,1.87,4.53l-4.86,4.86l7.57,7.57l4.85-4.85
				c1.41,0.8,2.94,1.44,4.54,1.88v6.86h10.7v-6.86c1.6-0.44,3.13-1.08,4.54-1.88l4.85,4.85l7.57-7.57l-4.86-4.86
				c0.8-1.41,1.43-2.93,1.87-4.53H92.04z M65.85,351.29c-6.23,0-11.28-5.05-11.28-11.28s5.05-11.28,11.28-11.28
				s11.28,5.05,11.28,11.28S72.08,351.29,65.85,351.29z"/>
			<path style="fill:#FFFFFF;" d="M91.82,143.22v-10.7h-6.89c-0.44-1.59-1.07-3.11-1.88-4.52l4.88-4.88l-7.57-7.56l-4.88,4.88
				c-1.41-0.79-2.92-1.43-4.51-1.87v-6.91h-10.7v6.91c-1.59,0.44-3.1,1.07-4.51,1.87l-4.88-4.88l-7.57,7.56l4.88,4.88
				c-0.8,1.41-1.44,2.92-1.88,4.52h-6.89v10.7h6.88c0.44,1.6,1.07,3.12,1.87,4.53l-4.86,4.86l7.57,7.57l4.85-4.85
				c1.41,0.8,2.94,1.44,4.54,1.88v6.86h10.7v-6.86c1.6-0.44,3.13-1.08,4.54-1.88l4.85,4.85l7.57-7.57l-4.86-4.86
				c0.8-1.41,1.43-2.93,1.87-4.53H91.82z M65.63,149.18c-6.23,0-11.28-5.05-11.28-11.28s5.05-11.28,11.28-11.28
				s11.28,5.05,11.28,11.28S71.86,149.18,65.63,149.18z"/>
			<path style="fill:#FFFFFF;" d="M469.11,334.19v-10.7h-6.89c-0.44-1.59-1.07-3.11-1.88-4.52l4.88-4.88l-7.57-7.56l-4.88,4.88
				c-1.41-0.79-2.92-1.43-4.51-1.87v-6.91h-10.7v6.91c-1.59,0.44-3.1,1.07-4.51,1.87l-4.88-4.88l-7.57,7.56l4.88,4.88
				c-0.8,1.41-1.44,2.92-1.88,4.52h-6.89v10.7h6.88c0.44,1.6,1.07,3.12,1.87,4.53l-4.86,4.86l7.57,7.57l4.85-4.85
				c1.41,0.8,2.94,1.44,4.54,1.88v6.86h10.7v-6.86c1.6-0.44,3.13-1.08,4.54-1.88l4.85,4.85l7.57-7.57l-4.86-4.86
				c0.8-1.41,1.43-2.93,1.87-4.53H469.11z M442.91,340.15c-6.23,0-11.28-5.05-11.28-11.28s5.05-11.28,11.28-11.28
				s11.28,5.05,11.28,11.28S449.14,340.15,442.91,340.15z"/>
			<path style="fill:#FFFFFF;" d="M230.92,76.58v-10.7h-6.89c-0.44-1.59-1.07-3.11-1.88-4.52l4.88-4.88l-7.57-7.56l-4.88,4.88
				c-1.41-0.79-2.92-1.43-4.51-1.87v-6.91h-10.7v6.91c-1.59,0.44-3.1,1.07-4.51,1.87l-4.88-4.88l-7.57,7.56l4.88,4.88
				c-0.8,1.41-1.44,2.92-1.88,4.52h-6.89v10.7h6.88c0.44,1.6,1.07,3.12,1.87,4.53l-4.86,4.86l7.57,7.57l4.85-4.85
				c1.41,0.8,2.94,1.44,4.54,1.88v6.86h10.7v-6.86c1.6-0.44,3.13-1.08,4.54-1.88l4.85,4.85l7.57-7.57l-4.86-4.86
				c0.8-1.41,1.43-2.93,1.87-4.53H230.92z M204.72,82.54c-6.23,0-11.28-5.05-11.28-11.28s5.05-11.28,11.28-11.28
				S216,65.03,216,71.26S210.95,82.54,204.72,82.54z"/>
		</g>
		<g>
			<g>
				<g id="XMLID_18_">
					<path id="XMLID_8_" style="fill-rule:evenodd;clip-rule:evenodd;fill:#90A835;" d="M49.32,308.2c0,0-19.31,30.27-21.2,46.95
						c-1.89,16.65,14.76,23.84,23.09,14.38C59.53,360.06,49.32,330.53,49.32,308.2L49.32,308.2z"/>
					<path id="XMLID_5_" style="fill-rule:evenodd;clip-rule:evenodd;fill:#7E8C2D;" d="M27.18,344.03c0,0-3.18,12.7-1.91,18.69
						c1.27,5.96,7.87,6.54,9.66,2.29C36.7,360.79,29.75,351.75,27.18,344.03L27.18,344.03z"/>
				</g>
				<path id="XMLID_7_" style="fill-rule:evenodd;clip-rule:evenodd;fill:#603D2A;" d="M37.97,403.96
					c0.24-10.21,0.43-19.65,0.9-28.88c-2.08-1.29-9.76-6.82-10.75-18.32c0,0,0.45,2.94,1.8,6.22l1.7-3.54l-1.42,4.21
					c0.56,1.27,1.24,2.53,2.08,3.69c2.4,3.33,5.34,5.34,6.67,6.14c0.43-7.87,1.09-15.6,2.19-23.54c-0.6-0.77-1.59-2.23-2.42-4.44
					c-1.33-3.5-1.8-7.66-1.8-7.66s0.47,2.75,1.8,5.94c0.94,2.3,2.08,3.9,2.64,4.66c0.94-6.33,2.17-12.79,3.8-19.59
					c0,0-2.04,15.36-3.37,30.25c0.75-0.34,2.02-1.05,3.73-2.45c2.94-2.36,5.6-6.8,5.6-6.8s-1.72,4.06-3.41,5.94
					c-1.5,1.7-5.26,4.55-6.07,5.19c-0.58,6.63-0.97,13.04-0.92,17.81c0.09,15.79,1.78,25.36,1.78,25.36S38.14,403.96,37.97,403.96
					L37.97,403.96z"/>
				<path style="fill:#4F3628;" d="M47.36,406.09c-1.24-3.17-4.03-5.38-7.28-5.38c-3.25,0-6.05,2.21-7.28,5.38H47.36z"/>
			</g>
			<g>
				<g id="XMLID_13_">
					<path id="XMLID_15_" style="fill-rule:evenodd;clip-rule:evenodd;fill:#90A835;" d="M395.34,308.2c0,0-19.31,30.27-21.2,46.95
						c-1.89,16.65,14.76,23.84,23.09,14.38C405.55,360.06,395.34,330.53,395.34,308.2L395.34,308.2z"/>
					<path id="XMLID_14_" style="fill-rule:evenodd;clip-rule:evenodd;fill:#7E8C2D;" d="M373.2,344.03c0,0-3.17,12.7-1.91,18.69
						c1.27,5.96,7.87,6.54,9.66,2.29C382.72,360.79,375.77,351.75,373.2,344.03L373.2,344.03z"/>
				</g>
				<path id="XMLID_12_" style="fill-rule:evenodd;clip-rule:evenodd;fill:#603D2A;" d="M383.99,403.96
					c0.24-10.21,0.43-19.65,0.9-28.88c-2.08-1.29-9.76-6.82-10.75-18.32c0,0,0.45,2.94,1.8,6.22l1.7-3.54l-1.42,4.21
					c0.56,1.27,1.24,2.53,2.08,3.69c2.4,3.33,5.34,5.34,6.67,6.14c0.43-7.87,1.09-15.6,2.19-23.54c-0.6-0.77-1.59-2.23-2.42-4.44
					c-1.33-3.5-1.8-7.66-1.8-7.66s0.47,2.75,1.8,5.94c0.94,2.3,2.08,3.9,2.64,4.66c0.94-6.33,2.17-12.79,3.8-19.59
					c0,0-2.04,15.36-3.37,30.25c0.75-0.34,2.02-1.05,3.73-2.45c2.94-2.36,5.6-6.8,5.6-6.8s-1.72,4.06-3.41,5.94
					c-1.5,1.7-5.26,4.55-6.07,5.19c-0.58,6.63-0.97,13.04-0.92,17.81c0.09,15.79,1.78,25.36,1.78,25.36S384.16,403.96,383.99,403.96
					L383.99,403.96z"/>
				<path style="fill:#4F3628;" d="M393.38,406.09c-1.24-3.17-4.03-5.38-7.29-5.38c-3.25,0-6.05,2.21-7.28,5.38H393.38z"/>
			</g>
			<g>
				<g id="XMLID_2_">
					<path id="XMLID_4_" style="fill-rule:evenodd;clip-rule:evenodd;fill:#90A835;" d="M112.49,277.14c0,0-25.44,39.88-27.92,61.84
						c-2.49,21.93,19.44,31.4,30.41,18.94C125.94,345.45,112.49,306.56,112.49,277.14L112.49,277.14z"/>
					<path id="XMLID_3_" style="fill-rule:evenodd;clip-rule:evenodd;fill:#7E8C2D;" d="M83.32,324.34c0,0-4.18,16.73-2.52,24.62
						c1.67,7.86,10.37,8.62,12.72,3.02C95.87,346.42,86.72,334.52,83.32,324.34L83.32,324.34z"/>
				</g>
				<path id="XMLID_1_" style="fill-rule:evenodd;clip-rule:evenodd;fill:#603D2A;" d="M97.54,403.28
					c0.31-13.45,0.56-25.89,1.19-38.04c-2.74-1.7-12.86-8.99-14.16-24.14c0,0,0.59,3.87,2.37,8.2l2.23-4.66l-1.87,5.54
					c0.73,1.67,1.64,3.33,2.74,4.86c3.17,4.38,7.04,7.04,8.79,8.08c0.57-10.37,1.44-20.55,2.88-31c-0.79-1.02-2.09-2.94-3.19-5.85
					c-1.75-4.61-2.37-10.09-2.37-10.09s0.62,3.62,2.37,7.83c1.24,3.02,2.74,5.14,3.48,6.13c1.24-8.34,2.85-16.84,5-25.8
					c0,0-2.68,20.24-4.44,39.85c0.99-0.45,2.66-1.38,4.92-3.22c3.87-3.11,7.38-8.96,7.38-8.96s-2.26,5.34-4.49,7.83
					c-1.98,2.23-6.92,5.99-8,6.84c-0.76,8.73-1.27,17.18-1.22,23.46c0.11,20.8,2.35,33.41,2.35,33.41S97.77,403.28,97.54,403.28
					L97.54,403.28z"/>
				<path style="fill:#4F3628;" d="M109.91,406.09c-1.63-4.17-5.31-7.09-9.6-7.09c-4.29,0-7.97,2.92-9.59,7.09H109.91z"/>
			</g>
			<g>
				<g id="XMLID_17_">
					<path id="XMLID_20_" style="fill-rule:evenodd;clip-rule:evenodd;fill:#90A835;" d="M468.24,277.14
						c0,0-25.44,39.88-27.92,61.84c-2.49,21.93,19.44,31.4,30.41,18.94C481.69,345.45,468.24,306.56,468.24,277.14L468.24,277.14z"
						/>
					<path id="XMLID_19_" style="fill-rule:evenodd;clip-rule:evenodd;fill:#7E8C2D;" d="M439.07,324.34c0,0-4.18,16.73-2.52,24.62
						c1.67,7.86,10.37,8.62,12.72,3.02C451.62,346.42,442.46,334.52,439.07,324.34L439.07,324.34z"/>
				</g>
				<path id="XMLID_16_" style="fill-rule:evenodd;clip-rule:evenodd;fill:#603D2A;" d="M453.29,403.28
					c0.31-13.45,0.56-25.89,1.19-38.04c-2.74-1.7-12.86-8.99-14.16-24.14c0,0,0.59,3.87,2.37,8.2l2.23-4.66l-1.87,5.54
					c0.73,1.67,1.64,3.33,2.74,4.86c3.17,4.38,7.04,7.04,8.79,8.08c0.57-10.37,1.44-20.55,2.88-31c-0.79-1.02-2.09-2.94-3.19-5.85
					c-1.75-4.61-2.37-10.09-2.37-10.09s0.62,3.62,2.37,7.83c1.24,3.02,2.74,5.14,3.48,6.13c1.24-8.34,2.85-16.84,5-25.8
					c0,0-2.68,20.24-4.44,39.85c0.99-0.45,2.66-1.38,4.92-3.22c3.87-3.11,7.38-8.96,7.38-8.96s-2.26,5.34-4.49,7.83
					c-1.98,2.23-6.92,5.99-8,6.84c-0.76,8.73-1.27,17.18-1.22,23.46c0.11,20.8,2.35,33.41,2.35,33.41S453.52,403.28,453.29,403.28
					L453.29,403.28z"/>
				<path style="fill:#4F3628;" d="M465.66,406.09c-1.63-4.17-5.31-7.09-9.6-7.09c-4.29,0-7.97,2.92-9.59,7.09H465.66z"/>
			</g>
			<g>
				<g id="XMLID_9_">
					<path id="XMLID_11_" style="fill-rule:evenodd;clip-rule:evenodd;fill:#90A835;" d="M130.04,324.13c0,0-16.17,25.35-17.75,39.3
						c-1.58,13.94,12.36,19.96,19.33,12.04C138.59,367.55,130.04,342.83,130.04,324.13L130.04,324.13z"/>
					<path id="XMLID_10_" style="fill-rule:evenodd;clip-rule:evenodd;fill:#7E8C2D;" d="M111.5,354.13c0,0-2.66,10.63-1.6,15.65
						c1.06,4.99,6.59,5.48,8.08,1.92C119.47,368.16,113.65,360.6,111.5,354.13L111.5,354.13z"/>
				</g>
				<path id="XMLID_6_" style="fill-rule:evenodd;clip-rule:evenodd;fill:#603D2A;" d="M120.53,404.3
					c0.2-8.55,0.36-16.45,0.75-24.18c-1.74-1.08-8.17-5.71-9-15.34c0,0,0.38,2.46,1.51,5.21l1.42-2.96l-1.19,3.52
					c0.47,1.06,1.04,2.12,1.74,3.09c2.01,2.78,4.47,4.47,5.59,5.14c0.36-6.59,0.92-13.06,1.83-19.7c-0.5-0.65-1.33-1.87-2.03-3.72
					c-1.11-2.93-1.51-6.41-1.51-6.41s0.4,2.3,1.51,4.98c0.79,1.92,1.74,3.27,2.21,3.9c0.79-5.3,1.81-10.71,3.18-16.4
					c0,0-1.71,12.86-2.82,25.33c0.63-0.29,1.69-0.88,3.13-2.05c2.46-1.98,4.69-5.69,4.69-5.69s-1.44,3.39-2.86,4.98
					c-1.26,1.42-4.4,3.81-5.08,4.35c-0.49,5.55-0.81,10.92-0.77,14.91c0.07,13.22,1.49,21.23,1.49,21.23S120.68,404.3,120.53,404.3
					L120.53,404.3z"/>
				<path style="fill:#4F3628;" d="M128.39,406.09c-1.04-2.65-3.37-4.51-6.1-4.51c-2.72,0-5.06,1.85-6.1,4.51H128.39z"/>
			</g>
		</g>
		<rect y="399.08" style="fill:#AAC6F9;" width="500" height="100.92"/>
		<g>
			<rect x="65.85" y="137.55" style="fill:#33588A;" width="100.53" height="133.66"/>
			<rect x="65.85" y="137.55" style="fill:#2C2E33;" width="100.53" height="11.83"/>
			<g>
				<g>
					<rect x="72.73" y="157.73" style="fill:#E09730;" width="41.18" height="2.72"/>
					<rect x="72.73" y="163.78" style="fill:#65A4CD;" width="15.53" height="2.72"/>
					<rect x="92.06" y="163.78" style="fill:#9FD3E8;" width="24.36" height="2.72"/>
					<rect x="102.26" y="169.84" style="fill:#9FD3E8;" width="23.06" height="2.72"/>
					<rect x="120.33" y="163.78" style="fill:#E09730;" width="11.31" height="2.72"/>
					<rect x="135.33" y="163.78" style="fill:#9FD3E8;" width="15.53" height="2.72"/>
					<rect x="72.73" y="169.84" style="fill:#65A4CD;" width="26.66" height="2.72"/>
				</g>
				<g>
					<rect x="72.73" y="225.7" style="fill:#65A4CD;" width="15.53" height="2.72"/>
					<rect x="92.06" y="225.7" style="fill:#9FD3E8;" width="24.36" height="2.72"/>
					<rect x="102.26" y="231.76" style="fill:#9FD3E8;" width="9.86" height="2.72"/>
					<rect x="120.33" y="225.7" style="fill:#9FD3E8;" width="11.31" height="2.72"/>
					<rect x="72.73" y="231.76" style="fill:#E09730;" width="26.66" height="2.72"/>
				</g>
				<g>
					<rect x="72.73" y="259" style="fill:#E09730;" width="15.53" height="2.72"/>
					<rect x="92.06" y="259" style="fill:#9FD3E8;" width="24.36" height="2.72"/>
				</g>
				<g>
					<rect x="80.92" y="180.1" style="fill:#65A4CD;" width="15.53" height="2.72"/>
					<rect x="100.25" y="180.1" style="fill:#E09730;" width="14.68" height="2.72"/>
					<rect x="110.44" y="186.15" style="fill:#9FD3E8;" width="13.03" height="2.72"/>
					<rect x="126.89" y="186.15" style="fill:#E09730;" width="21.52" height="2.72"/>
					<rect x="117.76" y="180.1" style="fill:#9FD3E8;" width="22.07" height="2.72"/>
					<rect x="80.92" y="192.04" style="fill:#65A4CD;" width="15.53" height="2.72"/>
					<rect x="100.25" y="192.04" style="fill:#9FD3E8;" width="14.68" height="2.72"/>
					<rect x="117.76" y="192.04" style="fill:#9FD3E8;" width="22.07" height="2.72"/>
					<rect x="143.51" y="180.1" style="fill:#9FD3E8;" width="15.53" height="2.72"/>
					<rect x="80.92" y="186.15" style="fill:#65A4CD;" width="26.66" height="2.72"/>
				</g>
				<g>
					<rect x="80.92" y="239.55" style="fill:#65A4CD;" width="15.53" height="2.72"/>
					<rect x="100.25" y="239.55" style="fill:#9FD3E8;" width="17.51" height="2.72"/>
					<rect x="100.25" y="245.61" style="fill:#9FD3E8;" width="23.23" height="2.72"/>
					<rect x="126.89" y="245.61" style="fill:#9FD3E8;" width="9.82" height="2.72"/>
					<rect x="121.56" y="239.55" style="fill:#E09730;" width="29.01" height="2.72"/>
					<rect x="80.92" y="251.5" style="fill:#65A4CD;" width="15.53" height="2.72"/>
					<rect x="100.25" y="251.5" style="fill:#E09730;" width="14.68" height="2.72"/>
					<rect x="117.76" y="251.5" style="fill:#9FD3E8;" width="22.07" height="2.72"/>
					<rect x="80.92" y="245.61" style="fill:#65A4CD;" width="15.53" height="2.72"/>
				</g>
				<g>
					<rect x="110.44" y="216.72" style="fill:#9FD3E8;" width="13.03" height="2.72"/>
					<rect x="126.89" y="216.72" style="fill:#9FD3E8;" width="21.52" height="2.72"/>
					<rect x="80.92" y="209.88" style="fill:#65A4CD;" width="15.53" height="2.72"/>
					<rect x="100.25" y="209.88" style="fill:#9FD3E8;" width="14.68" height="2.72"/>
					<rect x="117.76" y="209.88" style="fill:#E09730;" width="22.07" height="2.72"/>
					<rect x="80.92" y="216.72" style="fill:#65A4CD;" width="26.66" height="2.72"/>
				</g>
				<g>
					<rect x="120.27" y="200.9" style="fill:#9FD3E8;" width="13.03" height="2.72"/>
					<rect x="90.75" y="200.9" style="fill:#E09730;" width="26.66" height="2.72"/>
				</g>
			</g>
			<g>
				<g>
					<circle style="fill:#E09730;" cx="75.14" cy="143.55" r="1.92"/>
					<circle style="fill:#E09730;" cx="82.7" cy="143.55" r="1.92"/>
					<circle style="fill:#E09730;" cx="90.27" cy="143.55" r="1.92"/>
				</g>
			</g>
		</g>
		<path style="fill:#94BAF2;" d="M383.89,421.06c0,3.22-2.61,5.83-5.83,5.83H121.94c-3.22,0-5.83-2.61-5.83-5.83l0,0
			c0-3.22,2.61-5.83,5.83-5.83h256.11C381.27,415.23,383.89,417.84,383.89,421.06L383.89,421.06z"/>
		<g>
			<g>
				<g>
					<rect x="214.47" y="385.3" style="fill:#FFFFFF;" width="70.68" height="20.78"/>
					<rect x="214.47" y="399.13" style="fill:#D7EFF5;" width="70.68" height="6.96"/>
					<path style="fill:#FFFFFF;" d="M213.84,406.09h71.94c8.44,0,15.28,6.7,15.28,14.97H198.57
						C198.57,412.79,205.4,406.09,213.84,406.09z"/>
				</g>
				<g>
					<path style="fill:#D7EFF5;" d="M135.8,385.3h228.39c2.31,0,4.17-1.87,4.17-4.17V236.79c0-2.3-1.86-4.16-4.17-4.16H135.8
						c-2.3,0-4.17,1.87-4.17,4.16v144.35C131.64,383.44,133.5,385.3,135.8,385.3z"/>
					<path style="fill:#2C2E33;" d="M138.27,383.24h223.47c2.3,0,4.16-1.86,4.16-4.16V238.85c0-2.3-1.87-4.17-4.16-4.17H138.27
						c-2.3,0-4.17,1.87-4.17,4.17v140.22C134.1,381.38,135.97,383.24,138.27,383.24z"/>
					<path style="fill:#33588A;" d="M147.69,371h204.63c2,0,3.64-1.63,3.64-3.63V250.56c0-2.01-1.63-3.64-3.64-3.64H147.69
						c-2.01,0-3.63,1.63-3.63,3.64v116.81C144.05,369.38,145.68,371,147.69,371z"/>
				</g>
			</g>
			<g>
				<g>
					<rect x="155.78" y="258.57" style="fill:#E09730;" width="78.38" height="3.28"/>
					<rect x="155.78" y="265.88" style="fill:#65A4CD;" width="29.55" height="3.29"/>
					<rect x="192.56" y="265.88" style="fill:#9FD3E8;" width="46.35" height="3.29"/>
					<rect x="211.96" y="273.2" style="fill:#9FD3E8;" width="43.88" height="3.28"/>
					<rect x="246.36" y="265.88" style="fill:#9FD3E8;" width="21.53" height="3.29"/>
					<rect x="274.89" y="265.88" style="fill:#9FD3E8;" width="29.55" height="3.29"/>
					<rect x="155.78" y="273.2" style="fill:#65A4CD;" width="50.73" height="3.28"/>
				</g>
				<g>
					<rect x="155.78" y="340.7" style="fill:#65A4CD;" width="29.55" height="3.29"/>
					<rect x="192.56" y="340.7" style="fill:#9FD3E8;" width="46.35" height="3.29"/>
					<rect x="211.96" y="348.02" style="fill:#E09730;" width="18.77" height="3.29"/>
					<rect x="246.36" y="340.7" style="fill:#9FD3E8;" width="21.53" height="3.29"/>
					<rect x="155.78" y="348.02" style="fill:#E09730;" width="50.73" height="3.29"/>
				</g>
				<g>
					<rect x="171.36" y="285.6" style="fill:#9FD3E8;" width="29.55" height="3.29"/>
					<rect x="208.14" y="285.6" style="fill:#E09730;" width="27.93" height="3.29"/>
					<rect x="227.54" y="292.91" style="fill:#9FD3E8;" width="24.8" height="3.29"/>
					<rect x="258.84" y="292.91" style="fill:#9FD3E8;" width="40.96" height="3.29"/>
					<rect x="241.46" y="285.6" style="fill:#E09730;" width="42.01" height="3.29"/>
					<rect x="171.36" y="300.03" style="fill:#65A4CD;" width="29.55" height="3.29"/>
					<rect x="208.14" y="300.03" style="fill:#9FD3E8;" width="27.93" height="3.29"/>
					<rect x="241.46" y="300.03" style="fill:#9FD3E8;" width="42.01" height="3.29"/>
					<rect x="290.48" y="285.6" style="fill:#9FD3E8;" width="29.55" height="3.29"/>
					<rect x="171.36" y="292.91" style="fill:#65A4CD;" width="50.73" height="3.29"/>
				</g>
				<g>
					<rect x="171.36" y="357.43" style="fill:#65A4CD;" width="29.55" height="3.29"/>
					<rect x="208.14" y="357.43" style="fill:#9FD3E8;" width="33.32" height="3.29"/>
					<rect x="248.69" y="357.43" style="fill:#E09730;" width="55.21" height="3.29"/>
				</g>
				<g>
					<rect x="227.54" y="329.85" style="fill:#9FD3E8;" width="24.8" height="3.29"/>
					<rect x="258.84" y="329.85" style="fill:#9FD3E8;" width="40.96" height="3.29"/>
					<rect x="171.36" y="321.59" style="fill:#65A4CD;" width="29.55" height="3.29"/>
					<rect x="208.14" y="321.59" style="fill:#9FD3E8;" width="27.93" height="3.29"/>
					<rect x="241.46" y="321.59" style="fill:#E09730;" width="42.01" height="3.29"/>
					<rect x="171.36" y="329.85" style="fill:#E09730;" width="50.73" height="3.29"/>
				</g>
				<g>
					<rect x="246.25" y="310.73" style="fill:#9FD3E8;" width="24.8" height="3.29"/>
					<rect x="190.07" y="310.73" style="fill:#E09730;" width="50.73" height="3.29"/>
				</g>
			</g>
		</g>
		<g>
			<g>
				<g>
					<path style="fill:#D7EFF5;" d="M285.97,154.52h-71.95c-8.66,0-15.7,6.43-15.7,14.33v160.8c0,7.9,7.04,14.33,15.7,14.33h71.95
						c8.66,0,15.7-6.43,15.7-14.33v-160.8C301.68,160.95,294.63,154.52,285.97,154.52z"/>
				</g>
				<g>
					<path style="fill:#FFFFFF;" d="M284.05,157.12h-68.1c-8.19,0-14.86,6.25-14.86,13.92v156.43c0,7.68,6.67,13.92,14.86,13.92
						h68.1c8.19,0,14.85-6.24,14.85-13.92V171.04C298.9,163.37,292.24,157.12,284.05,157.12z"/>
				</g>
				<g>
					<path style="fill:#65A4CD;" d="M211.01,325.31h77.66c2.11,0,3.82-1.6,3.82-3.58V176.99c0-1.97-1.71-3.57-3.82-3.57h-77.66
						c-2.1,0-3.81,1.6-3.81,3.57v144.74C207.19,323.71,208.91,325.31,211.01,325.31z"/>
				</g>
				<g>
					<path style="fill:#FFFFFF;" d="M269.09,163.04H230.9c-4.6,0-8.33,3.5-8.33,7.81v6.86c0,4.31,3.74,7.81,8.33,7.81h38.19
						c4.59,0,8.33-3.5,8.33-7.81v-6.86C277.42,166.54,273.69,163.04,269.09,163.04z"/>
				</g>
			</g>
		</g>
		<g>
			<g>
				<polyline style="fill:none;stroke:#2C2E33;stroke-width:2.4931;stroke-miterlimit:10;" points="475.03,89.74 397.9,45.87 
					258.67,89.21 				"/>
				<g>
					<g>
						<g>
							
								<rect x="413.32" y="89.81" style="fill:none;stroke:#2C2E33;stroke-width:3.7396;stroke-miterlimit:10;" width="30.85" height="30.85"/>
							
								<line style="fill:none;stroke:#2C2E33;stroke-width:3.7396;stroke-miterlimit:10;" x1="444.17" y1="89.81" x2="413.32" y2="120.66"/>
							
								<line style="fill:none;stroke:#2C2E33;stroke-width:3.7396;stroke-miterlimit:10;" x1="413.32" y1="89.81" x2="444.17" y2="120.66"/>
						</g>
						<g>
							
								<rect x="444.17" y="89.81" style="fill:none;stroke:#2C2E33;stroke-width:3.7396;stroke-miterlimit:10;" width="30.85" height="30.85"/>
							
								<line style="fill:none;stroke:#2C2E33;stroke-width:3.7396;stroke-miterlimit:10;" x1="444.17" y1="120.66" x2="475.03" y2="89.81"/>
							
								<line style="fill:none;stroke:#2C2E33;stroke-width:3.7396;stroke-miterlimit:10;" x1="444.17" y1="89.81" x2="475.03" y2="120.66"/>
						</g>
					</g>
					<g>
						<polyline style="fill:none;stroke:#2C2E33;stroke-width:3.7396;stroke-miterlimit:10;" points="258.67,89.29 228.21,120.66 
							259.06,120.66 						"/>
						<g>
							<g>
								
									<rect x="289.92" y="89.81" style="fill:none;stroke:#2C2E33;stroke-width:3.7396;stroke-miterlimit:10;" width="30.85" height="30.85"/>
								
									<line style="fill:none;stroke:#2C2E33;stroke-width:3.7396;stroke-miterlimit:10;" x1="320.77" y1="89.81" x2="289.92" y2="120.66"/>
								
									<line style="fill:none;stroke:#2C2E33;stroke-width:3.7396;stroke-miterlimit:10;" x1="289.92" y1="89.81" x2="320.77" y2="120.66"/>
							</g>
							<g>
								
									<rect x="259.06" y="89.81" style="fill:none;stroke:#2C2E33;stroke-width:3.7396;stroke-miterlimit:10;" width="30.85" height="30.85"/>
								
									<line style="fill:none;stroke:#2C2E33;stroke-width:3.7396;stroke-miterlimit:10;" x1="289.92" y1="89.81" x2="259.06" y2="120.66"/>
								
									<line style="fill:none;stroke:#2C2E33;stroke-width:3.7396;stroke-miterlimit:10;" x1="259.06" y1="89.81" x2="289.92" y2="120.66"/>
							</g>
							<g>
								
									<rect x="320.77" y="89.81" style="fill:none;stroke:#2C2E33;stroke-width:3.7396;stroke-miterlimit:10;" width="30.85" height="30.85"/>
								
									<line style="fill:none;stroke:#2C2E33;stroke-width:3.7396;stroke-miterlimit:10;" x1="351.62" y1="89.81" x2="320.77" y2="120.66"/>
								
									<line style="fill:none;stroke:#2C2E33;stroke-width:3.7396;stroke-miterlimit:10;" x1="320.77" y1="89.81" x2="351.62" y2="120.66"/>
							</g>
							<g>
								
									<rect x="351.62" y="89.81" style="fill:none;stroke:#2C2E33;stroke-width:3.7396;stroke-miterlimit:10;" width="30.85" height="30.85"/>
								
									<line style="fill:none;stroke:#2C2E33;stroke-width:3.7396;stroke-miterlimit:10;" x1="382.47" y1="89.81" x2="351.62" y2="120.66"/>
								
									<line style="fill:none;stroke:#2C2E33;stroke-width:3.7396;stroke-miterlimit:10;" x1="351.62" y1="89.81" x2="382.47" y2="120.66"/>
							</g>
						</g>
					</g>
					<g>
						<g>
							
								<rect x="382.47" y="367.48" style="fill:none;stroke:#2C2E33;stroke-width:3.7396;stroke-miterlimit:10;" width="30.85" height="30.85"/>
							
								<line style="fill:none;stroke:#2C2E33;stroke-width:3.7396;stroke-miterlimit:10;" x1="413.32" y1="367.48" x2="382.47" y2="398.33"/>
							
								<line style="fill:none;stroke:#2C2E33;stroke-width:3.7396;stroke-miterlimit:10;" x1="382.47" y1="367.48" x2="413.32" y2="398.33"/>
						</g>
						<g>
							
								<rect x="382.47" y="336.63" style="fill:none;stroke:#2C2E33;stroke-width:3.7396;stroke-miterlimit:10;" width="30.85" height="30.85"/>
							
								<line style="fill:none;stroke:#2C2E33;stroke-width:3.7396;stroke-miterlimit:10;" x1="413.32" y1="336.63" x2="382.47" y2="367.48"/>
							
								<line style="fill:none;stroke:#2C2E33;stroke-width:3.7396;stroke-miterlimit:10;" x1="382.47" y1="336.63" x2="413.32" y2="367.48"/>
						</g>
						<g>
							
								<rect x="382.47" y="305.77" style="fill:none;stroke:#2C2E33;stroke-width:3.7396;stroke-miterlimit:10;" width="30.85" height="30.85"/>
							
								<line style="fill:none;stroke:#2C2E33;stroke-width:3.7396;stroke-miterlimit:10;" x1="413.32" y1="305.77" x2="382.47" y2="336.63"/>
							
								<line style="fill:none;stroke:#2C2E33;stroke-width:3.7396;stroke-miterlimit:10;" x1="382.47" y1="305.77" x2="413.32" y2="336.63"/>
						</g>
						<g>
							
								<rect x="382.47" y="274.92" style="fill:none;stroke:#2C2E33;stroke-width:3.7396;stroke-miterlimit:10;" width="30.85" height="30.85"/>
							
								<line style="fill:none;stroke:#2C2E33;stroke-width:3.7396;stroke-miterlimit:10;" x1="413.32" y1="274.92" x2="382.47" y2="305.77"/>
							
								<line style="fill:none;stroke:#2C2E33;stroke-width:3.7396;stroke-miterlimit:10;" x1="382.47" y1="274.92" x2="413.32" y2="305.77"/>
						</g>
						<g>
							
								<rect x="382.47" y="244.07" style="fill:none;stroke:#2C2E33;stroke-width:3.7396;stroke-miterlimit:10;" width="30.85" height="30.85"/>
							
								<line style="fill:none;stroke:#2C2E33;stroke-width:3.7396;stroke-miterlimit:10;" x1="413.32" y1="244.07" x2="382.47" y2="274.92"/>
							
								<line style="fill:none;stroke:#2C2E33;stroke-width:3.7396;stroke-miterlimit:10;" x1="382.47" y1="244.07" x2="413.32" y2="274.92"/>
						</g>
						<g>
							
								<rect x="382.47" y="213.22" style="fill:none;stroke:#2C2E33;stroke-width:3.7396;stroke-miterlimit:10;" width="30.85" height="30.85"/>
							
								<line style="fill:none;stroke:#2C2E33;stroke-width:3.7396;stroke-miterlimit:10;" x1="413.32" y1="213.22" x2="382.47" y2="244.07"/>
							
								<line style="fill:none;stroke:#2C2E33;stroke-width:3.7396;stroke-miterlimit:10;" x1="382.47" y1="213.22" x2="413.32" y2="244.07"/>
						</g>
						<g>
							
								<rect x="382.47" y="182.37" style="fill:none;stroke:#2C2E33;stroke-width:3.7396;stroke-miterlimit:10;" width="30.85" height="30.85"/>
							
								<line style="fill:none;stroke:#2C2E33;stroke-width:3.7396;stroke-miterlimit:10;" x1="413.32" y1="182.37" x2="382.47" y2="213.22"/>
							
								<line style="fill:none;stroke:#2C2E33;stroke-width:3.7396;stroke-miterlimit:10;" x1="382.47" y1="182.37" x2="413.32" y2="213.22"/>
						</g>
						<g>
							
								<rect x="382.47" y="151.51" style="fill:none;stroke:#2C2E33;stroke-width:3.7396;stroke-miterlimit:10;" width="30.85" height="30.85"/>
							
								<line style="fill:none;stroke:#2C2E33;stroke-width:3.7396;stroke-miterlimit:10;" x1="413.32" y1="151.51" x2="382.47" y2="182.37"/>
							
								<line style="fill:none;stroke:#2C2E33;stroke-width:3.7396;stroke-miterlimit:10;" x1="382.47" y1="151.51" x2="413.32" y2="182.37"/>
						</g>
						<g>
							
								<rect x="382.47" y="120.66" style="fill:none;stroke:#2C2E33;stroke-width:3.7396;stroke-miterlimit:10;" width="30.85" height="30.85"/>
							
								<line style="fill:none;stroke:#2C2E33;stroke-width:3.7396;stroke-miterlimit:10;" x1="413.32" y1="120.66" x2="382.47" y2="151.51"/>
							
								<line style="fill:none;stroke:#2C2E33;stroke-width:3.7396;stroke-miterlimit:10;" x1="382.47" y1="120.66" x2="413.32" y2="151.51"/>
						</g>
					</g>
					<g>
						<g>
							
								<rect x="382.47" y="89.81" style="fill:none;stroke:#2C2E33;stroke-width:3.7396;stroke-miterlimit:10;" width="30.85" height="30.85"/>
							
								<line style="fill:none;stroke:#2C2E33;stroke-width:3.7396;stroke-miterlimit:10;" x1="413.32" y1="89.81" x2="382.47" y2="120.66"/>
							
								<line style="fill:none;stroke:#2C2E33;stroke-width:3.7396;stroke-miterlimit:10;" x1="382.47" y1="89.81" x2="413.32" y2="120.66"/>
						</g>
						<g>
							
								<rect x="382.47" y="58.96" style="fill:none;stroke:#2C2E33;stroke-width:3.7396;stroke-miterlimit:10;" width="30.85" height="30.85"/>
							
								<line style="fill:none;stroke:#2C2E33;stroke-width:3.7396;stroke-miterlimit:10;" x1="413.32" y1="58.96" x2="382.47" y2="89.81"/>
							
								<line style="fill:none;stroke:#2C2E33;stroke-width:3.7396;stroke-miterlimit:10;" x1="382.47" y1="58.96" x2="413.32" y2="89.81"/>
						</g>
					</g>
				</g>
				<rect x="475.03" y="87.95" style="fill:#2C2E33;" width="8.7" height="34.57"/>
				<polygon style="fill:#2C2E33;" points="228.21,120.66 259.06,120.66 259.06,89.81 				"/>
				<g>
					<rect x="385.74" y="43.58" style="fill:#2C2E33;" width="24.31" height="13.51"/>
				</g>
				<g>
					<rect x="375.11" y="400.12" style="fill:#FFFFFF;" width="45.56" height="9.63"/>
					<rect x="375.11" y="405.85" style="fill:#D7EFF5;" width="45.56" height="3.89"/>
					<path style="fill:#FFFFFF;" d="M374.71,409.74h46.38c5.44,0,9.84,4.72,9.84,10.55h-66.07
						C364.86,414.47,369.27,409.74,374.71,409.74z"/>
				</g>
				<g>
					
						<line style="fill:none;stroke:#2C2E33;stroke-width:2.4931;stroke-miterlimit:10;" x1="305.6" y1="120.4" x2="305.6" y2="177.28"/>
					<rect x="298.59" y="116.56" style="fill:#E9BC42;" width="14.02" height="7.69"/>
					<rect x="301.76" y="160.03" style="fill:#E9BC42;" width="7.69" height="14.02"/>
					<path style="fill:none;stroke:#2C2E33;stroke-width:2.4931;stroke-miterlimit:10;" d="M308.92,177.63
						c-1.01-0.48-2.13-0.75-3.32-0.75c-4.25,0-7.69,3.44-7.69,7.69c0,4.25,3.44,7.69,7.69,7.69c1.72,0,3.32-0.57,4.6-1.53"/>
				</g>
			</g>
			<g>
				<g>
					<path style="fill:#2C2E33;" d="M332.35,279.89h-56.68c-0.62,0-1.12-0.5-1.12-1.12V222.1c0-0.62,0.5-1.12,1.12-1.12h56.68
						c0.62,0,1.12,0.5,1.12,1.12v56.68C333.46,279.39,332.97,279.89,332.35,279.89z"/>
					<path style="fill:#E9BC42;" d="M328.88,276.42h-49.74c-0.62,0-1.12-0.5-1.12-1.12v-49.74c0-0.62,0.5-1.12,1.12-1.12h49.74
						c0.62,0,1.12,0.5,1.12,1.12v49.74C329.99,275.92,329.49,276.42,328.88,276.42z"/>
					<circle style="fill:#E4A940;" cx="304.01" cy="255.18" r="19.14"/>
					<circle style="fill:#FDFCFF;" cx="306.52" cy="241.56" r="8.88"/>
					<g>
						<path style="fill:#FDFCFF;" d="M329.99,274.83v-11.4l-8.73-11.54c-1-1.32-2.98-1.32-3.98,0l-18.57,24.54h29.69
							C329.28,276.42,329.99,275.71,329.99,274.83z"/>
						<polygon style="fill:#E3EFF6;" points="316.35,276.42 307.53,264.77 323.97,276.42 						"/>
						<path style="fill:#FDFCFF;" d="M286.6,244.03l-8.57,11.33v19.47c0,0.88,0.71,1.59,1.59,1.59h36.76l-24.52-32.4
							C290.54,242.28,287.92,242.28,286.6,244.03z"/>
					</g>
				</g>
				<polyline style="fill:none;stroke:#2C2E33;stroke-width:2.4931;stroke-miterlimit:10;" points="330.78,222.36 305.16,187.85 
					277.24,222.36 				"/>
			</g>
		</g>
		<g>
			<path style="fill:#E8BB42;" d="M150.62,296.53h114.31c0.71,0,1.29-0.58,1.29-1.29v-41.55c0-0.71-0.58-1.29-1.29-1.29H150.62
				c-0.71,0-1.29,0.58-1.29,1.29v41.55C149.33,295.95,149.91,296.53,150.62,296.53z"/>
			<path style="fill:#FFFFFF;" d="M150.62,252.4c-0.71,0-1.29,0.58-1.29,1.29v41.55c0,0.71,0.58,1.29,1.29,1.29h42.84V252.4H150.62z
				"/>
			<g>
				<g>
					<rect x="197.59" y="271.93" style="fill:#BA7820;" width="64.65" height="1.49"/>
					<rect x="197.59" y="275.75" style="fill:#BA7820;" width="33.01" height="1.5"/>
					<rect x="232.92" y="275.75" style="fill:#BA7820;" width="29.33" height="1.5"/>
					<rect x="197.59" y="279.57" style="fill:#BA7820;" width="13.9" height="1.5"/>
					<rect x="213.67" y="279.57" style="fill:#BA7820;" width="25.49" height="1.5"/>
				</g>
			</g>
			<g>
				<rect x="197.59" y="257.59" style="fill:#2C2E33;" width="53.49" height="3.65"/>
				<rect x="197.59" y="263.45" style="fill:#2C2E33;" width="25.54" height="3.64"/>
				<rect x="226.28" y="263.45" style="fill:#2C2E33;" width="35.96" height="3.64"/>
			</g>
			<path style="fill:#FDFCFF;" d="M262.25,289c0,1.61-1.31,2.92-2.92,2.92h-16.26c-1.61,0-2.92-1.31-2.92-2.92l0,0
				c0-1.61,1.31-2.92,2.92-2.92h16.26C260.94,286.08,262.25,287.39,262.25,289L262.25,289z"/>
			<rect x="197.59" y="288.25" style="fill:#BA7820;" width="38.25" height="1.5"/>
			<g>
				
					<rect x="153.36" y="256.78" style="fill:none;stroke:#A7C7CE;stroke-width:1.6222;stroke-miterlimit:10;" width="35.94" height="35.94"/>
				
					<line style="fill:none;stroke:#A7C7CE;stroke-width:1.6222;stroke-miterlimit:10;" x1="189.31" y1="256.78" x2="153.36" y2="292.73"/>
				
					<line style="fill:none;stroke:#A7C7CE;stroke-width:1.6222;stroke-miterlimit:10;" x1="153.36" y1="256.78" x2="189.31" y2="292.73"/>
			</g>
		</g>
		<g>
			<path style="fill:#E8BB42;" d="M235.64,205.81h46.4c0.42,0,0.76-0.34,0.76-0.76v-24.42c0-0.42-0.34-0.76-0.76-0.76h-46.4
				c-0.42,0-0.76,0.34-0.76,0.76v24.42C234.88,205.47,235.22,205.81,235.64,205.81z"/>
			<g>
				<rect x="239.03" y="188.54" style="fill:#FDFCFF;" width="32.85" height="3.3"/>
				<rect x="239.03" y="193.84" style="fill:#FDFCFF;" width="15.69" height="3.3"/>
				<rect x="256.65" y="193.84" style="fill:#FDFCFF;" width="22.09" height="3.3"/>
			</g>
		</g>
		<g>
			<circle style="fill:#E8BB42;" cx="262.47" cy="332.21" r="20.32"/>
			<circle style="fill:#FDFBFF;" cx="262.47" cy="327.32" r="8.75"/>
			<path style="fill:#FDFBFF;" d="M262.47,352.53c-5.15,0-9.85-1.92-13.44-5.08c0.66-6.85,6.42-12.2,13.44-12.2
				c7.02,0,12.78,5.35,13.44,12.2C272.32,350.61,267.62,352.53,262.47,352.53z"/>
		</g>
		<g>
			<path style="fill:#2C2E33;" d="M224.54,229.05h-40.77c-0.44,0-0.8-0.36-0.8-0.8v-31.29c0-0.44,0.36-0.8,0.8-0.8h40.77
				c0.44,0,0.8,0.36,0.8,0.8v31.29C225.35,228.69,224.99,229.05,224.54,229.05z"/>
			<path style="fill:#E9BC42;" d="M222.05,226.47h-35.78c-0.44,0-0.8-0.36-0.8-0.8v-26.21c0-0.44,0.36-0.8,0.8-0.8h35.78
				c0.44,0,0.8,0.36,0.8,0.8v26.21C222.85,226.11,222.49,226.47,222.05,226.47z"/>
			<path style="fill:#FDFBFF;" d="M199.88,206.49v12.15c0,1.21,1.38,1.91,2.36,1.19l8.17-6.07c0.79-0.59,0.79-1.78,0-2.37
				l-8.17-6.07C201.26,204.58,199.88,205.28,199.88,206.49z"/>
		</g>
		<g>
			<g>
				<circle style="fill:#FFFFFF;" cx="126.89" cy="320.3" r="26.01"/>
			</g>
			<g>
				<circle style="fill:#FFFFFF;" cx="346.04" cy="167.04" r="26.01"/>
			</g>
			<g>
				<circle style="fill:#FFFFFF;" cx="58.8" cy="258.57" r="26.01"/>
			</g>
			<g>
				<circle style="fill:#FFFFFF;" cx="166.38" cy="135.84" r="26.01"/>
			</g>
			<g>
				<circle style="fill:#FFFFFF;" cx="428.75" cy="244.07" r="26.01"/>
			</g>
		</g>
	</g>
</g>
</svg>
