<?xml version="1.0" encoding="utf-8"?>
<!-- Generator: Adobe Illustrator 16.0.0, SVG Export Plug-In . SVG Version: 6.00 Build 0)  -->
<!DOCTYPE svg PUBLIC "-//W3C//DTD SVG 1.1//EN" "http://www.w3.org/Graphics/SVG/1.1/DTD/svg11.dtd">
<svg version="1.1" xmlns="http://www.w3.org/2000/svg" xmlns:xlink="http://www.w3.org/1999/xlink" x="0px" y="0px" width="500px"
	 height="500px" viewBox="0 0 500 500" enable-background="new 0 0 500 500" xml:space="preserve">
<g id="Background_Complete">
	<g>
		<rect y="382.398" fill="#EBEBEB" width="500" height="0.25"/>
		<rect x="416.779" y="398.494" fill="#EBEBEB" width="33.122" height="0.25"/>
		<rect x="322.527" y="401.208" fill="#EBEBEB" width="8.693" height="0.25"/>
		<rect x="396.586" y="389.208" fill="#EBEBEB" width="19.192" height="0.25"/>
		<rect x="52.459" y="390.889" fill="#EBEBEB" width="43.193" height="0.25"/>
		<rect x="104.556" y="390.889" fill="#EBEBEB" width="6.333" height="0.25"/>
		<rect x="131.471" y="395.11" fill="#EBEBEB" width="93.676" height="0.25"/>
		<path fill="#EBEBEB" d="M237.014,337.8H43.915c-3.147,0-5.708-2.561-5.708-5.708V60.66c0-3.147,2.561-5.708,5.708-5.708h193.099
			c3.146,0,5.707,2.561,5.707,5.708v271.432C242.721,335.239,240.16,337.8,237.014,337.8z M43.915,55.203
			c-3.01,0-5.458,2.448-5.458,5.458v271.432c0,3.01,2.448,5.458,5.458,5.458h193.099c3.009,0,5.457-2.448,5.457-5.458V60.66
			c0-3.009-2.448-5.458-5.457-5.458H43.915z"/>
		<path fill="#EBEBEB" d="M453.311,337.8H260.212c-3.146,0-5.707-2.561-5.707-5.708V60.66c0-3.147,2.561-5.708,5.707-5.708h193.099
			c3.147,0,5.708,2.561,5.708,5.708v271.432C459.019,335.239,456.458,337.8,453.311,337.8z M260.212,55.203
			c-3.009,0-5.457,2.448-5.457,5.458v271.432c0,3.01,2.448,5.458,5.457,5.458h193.099c3.01,0,5.458-2.448,5.458-5.458V60.66
			c0-3.009-2.448-5.458-5.458-5.458H260.212z"/>
	</g>
	<g>
		<g>
			<rect x="65.197" y="128.215" fill="#EBEBEB" width="124.781" height="128.934"/>
			<rect x="69.557" y="128.215" fill="#F0F0F0" width="124.78" height="128.934"/>
			<rect x="72.703" y="131.271" fill="#E0E0E0" width="118.327" height="122.881"/>
			<rect x="72.701" y="131.27" fill="#F5F5F5" width="115.372" height="122.878"/>
			<rect x="129.239" y="131.271" fill="#EBEBEB" width="2.342" height="122.881"/>
			<polygon fill="#FFFFFF" points="115.75,131.27 82.866,254.148 79.71,254.148 112.594,131.27 			"/>
			<rect x="130.577" y="129.376" fill="#F0F0F0" width="2.008" height="127.132"/>
			<polygon fill="#FFFFFF" points="103.815,131.27 72.701,247.558 72.701,183.639 86.711,131.27 			"/>
			<polygon fill="#FFFFFF" points="188.073,142.42 188.073,154.216 161.327,254.148 158.171,254.148 			"/>
			<polygon fill="#FFFFFF" points="188.073,166.238 188.073,230.157 181.657,254.148 164.553,254.148 			"/>
		</g>
		<g>
			<g>
				<path fill="#F0F0F0" d="M169.289,296.978h12.666v-0.844c0-1.655-1.854-2.972-4.061-2.882l-4.961,0.201
					c-2.044,0.082-3.645,1.348-3.645,2.882V296.978z"/>
				<g>
					<path fill="#E6E6E6" d="M194.371,297.409h16.761l2.666-23.401c-0.042-0.876-0.764-1.563-1.64-1.563h-11.23
						c-0.876,0-1.598,0.688-1.64,1.563L194.371,297.409z"/>
					<path fill="#E6E6E6" d="M168.79,238.028h4.184l4.703,44.197h-4.184c-0.693,0-1.315-0.563-1.39-1.256l-4.435-41.687
						C167.595,238.59,168.097,238.028,168.79,238.028z"/>
					<path fill="#EBEBEB" d="M175.262,282.226h62.709c0.693,0,1.196-0.563,1.122-1.256l-4.435-41.687
						c-0.074-0.693-0.696-1.255-1.389-1.255H170.56c-0.693,0-1.195,0.562-1.122,1.255l4.436,41.687
						C173.947,281.663,174.569,282.226,175.262,282.226z"/>
					<path fill="#FAFAFA" d="M176.434,278.144h59.135c0.604,0,1.043-0.49,0.979-1.096l-3.87-36.37
						c-0.064-0.604-0.607-1.095-1.212-1.095h-59.134c-0.605,0-1.043,0.49-0.979,1.095l3.87,36.37
						C175.286,277.653,175.829,278.144,176.434,278.144z"/>
					<path fill="#E6E6E6" d="M193.743,295.592h20.614c0.502,0,0.909,0.406,0.909,0.908l0,0c0,0.502-0.407,0.909-0.909,0.909h-20.614
						c-0.502,0-0.909-0.407-0.909-0.909l0,0C192.834,295.998,193.241,295.592,193.743,295.592z"/>
				</g>
				<rect x="142.97" y="296.883" fill="#E6E6E6" width="51.052" height="7.702"/>
				<g>
					<path fill="#E6E6E6" d="M285.227,382.898h1.274c0.158,0,0.289-0.128,0.293-0.288l2.015-78.025h-5.889l2.014,78.025
						C284.938,382.771,285.068,382.898,285.227,382.898z"/>
				</g>
				<g>
					<polygon fill="#F0F0F0" points="330.665,382.898 333.609,382.898 325.299,304.585 319.409,304.585 					"/>
				</g>
				<polygon fill="#E6E6E6" points="140.979,382.898 140.979,382.898 152.265,304.585 146.375,304.585 138.065,382.898 				"/>
				<rect x="179.46" y="296.883" fill="#F5F5F5" width="149.244" height="7.702"/>
				<polygon fill="#F0F0F0" points="184.117,382.898 187.5,382.898 187.503,382.896 188.755,304.585 182.865,304.585 				"/>
				<g>
					<g>
						<path fill="#F5F5F5" d="M231.794,295.498h1.563c0.165,0,0.299-0.133,0.299-0.298v-1.654c0-0.165-0.134-0.299-0.299-0.299
							h-1.123c-0.135,0-0.253,0.091-0.288,0.222l-0.441,1.654C231.455,295.313,231.598,295.498,231.794,295.498z"/>
						<path fill="#F5F5F5" d="M229.633,295.498h1.563c0.165,0,0.299-0.133,0.299-0.298v-1.654c0-0.165-0.134-0.299-0.299-0.299
							h-1.123c-0.135,0-0.253,0.091-0.288,0.222l-0.441,1.654C229.293,295.313,229.437,295.498,229.633,295.498z"/>
						<path fill="#F5F5F5" d="M227.472,295.498h1.563c0.165,0,0.299-0.133,0.299-0.298v-1.654c0-0.165-0.134-0.299-0.299-0.299
							h-1.123c-0.135,0-0.253,0.091-0.288,0.222l-0.441,1.654C227.132,295.313,227.275,295.498,227.472,295.498z"/>
						<path fill="#F5F5F5" d="M225.311,295.498h1.563c0.165,0,0.299-0.133,0.299-0.298v-1.654c0-0.165-0.134-0.299-0.299-0.299
							h-1.123c-0.135,0-0.253,0.091-0.288,0.222l-0.441,1.654C224.971,295.313,225.114,295.498,225.311,295.498z"/>
						<path fill="#F5F5F5" d="M223.149,295.498h1.563c0.165,0,0.299-0.133,0.299-0.298v-1.654c0-0.165-0.134-0.299-0.299-0.299
							h-1.123c-0.135,0-0.253,0.091-0.288,0.222l-0.441,1.654C222.81,295.313,222.953,295.498,223.149,295.498z"/>
						<path fill="#F5F5F5" d="M220.988,295.498h1.564c0.165,0,0.299-0.133,0.299-0.298v-1.654c0-0.165-0.134-0.299-0.299-0.299
							h-1.123c-0.135,0-0.253,0.091-0.288,0.222l-0.441,1.654C220.648,295.313,220.792,295.498,220.988,295.498z"/>
						<path fill="#F5F5F5" d="M218.827,295.498h1.564c0.165,0,0.299-0.133,0.299-0.298v-1.654c0-0.165-0.134-0.299-0.299-0.299
							h-1.123c-0.135,0-0.253,0.091-0.288,0.222l-0.441,1.654C218.488,295.313,218.631,295.498,218.827,295.498z"/>
						<path fill="#F5F5F5" d="M216.666,295.498h1.564c0.165,0,0.298-0.133,0.298-0.298v-1.654c0-0.165-0.133-0.299-0.298-0.299
							h-1.123c-0.135,0-0.254,0.091-0.288,0.222l-0.441,1.654C216.326,295.313,216.47,295.498,216.666,295.498z"/>
						<path fill="#F5F5F5" d="M214.504,295.498h1.564c0.165,0,0.298-0.133,0.298-0.298v-1.654c0-0.165-0.133-0.299-0.298-0.299
							h-1.123c-0.135,0-0.253,0.091-0.289,0.222l-0.441,1.654C214.165,295.313,214.308,295.498,214.504,295.498z"/>
						<path fill="#F5F5F5" d="M212.343,295.498h1.563c0.165,0,0.299-0.133,0.299-0.298v-1.654c0-0.165-0.134-0.299-0.299-0.299
							h-1.123c-0.135,0-0.254,0.091-0.288,0.222l-0.441,1.654C212.004,295.313,212.147,295.498,212.343,295.498z"/>
						<path fill="#F5F5F5" d="M210.182,295.498h1.564c0.165,0,0.298-0.133,0.298-0.298v-1.654c0-0.165-0.133-0.299-0.298-0.299
							h-1.123c-0.135,0-0.254,0.091-0.288,0.222l-0.441,1.654C209.843,295.313,209.986,295.498,210.182,295.498z"/>
						<path fill="#F5F5F5" d="M208.021,295.498h1.564c0.165,0,0.298-0.133,0.298-0.298v-1.654c0-0.165-0.134-0.299-0.298-0.299
							h-1.123c-0.135,0-0.254,0.091-0.289,0.222l-0.441,1.654C207.682,295.313,207.825,295.498,208.021,295.498z"/>
						<path fill="#F5F5F5" d="M205.859,295.498h1.564c0.165,0,0.298-0.133,0.298-0.298v-1.654c0-0.165-0.134-0.299-0.298-0.299
							h-1.123c-0.135,0-0.254,0.091-0.289,0.222l-0.441,1.654C205.521,295.313,205.664,295.498,205.859,295.498z"/>
						<path fill="#F5F5F5" d="M203.698,295.498h1.564c0.165,0,0.298-0.133,0.298-0.298v-1.654c0-0.165-0.133-0.299-0.298-0.299
							h-1.123c-0.135,0-0.254,0.091-0.289,0.222l-0.441,1.654C203.359,295.313,203.502,295.498,203.698,295.498z"/>
						<path fill="#F5F5F5" d="M201.537,295.498h1.564c0.165,0,0.298-0.133,0.298-0.298v-1.654c0-0.165-0.134-0.299-0.298-0.299
							h-1.123c-0.135,0-0.254,0.091-0.289,0.222l-0.441,1.654C201.198,295.313,201.341,295.498,201.537,295.498z"/>
					</g>
					<rect x="199.964" y="294.373" fill="#EBEBEB" width="34.967" height="2.604"/>
				</g>
			</g>
		</g>
		<g>
			<rect x="265.11" y="107.12" fill="#E0E0E0" width="161.576" height="125.557"/>
			<rect x="267.35" y="109.36" fill="#EBEBEB" width="157.097" height="121.078"/>
			<line fill="none" stroke="#E0E0E0" stroke-miterlimit="10" x1="343.262" y1="131.231" x2="343.262" y2="148.116"/>
			<polyline fill="none" stroke="#E0E0E0" stroke-miterlimit="10" points="304.868,202.469 304.868,148.116 376.134,148.116 
				376.134,179.295 			"/>
			<polyline fill="none" stroke="#E0E0E0" stroke-miterlimit="10" points="357.695,195.889 357.695,179.295 396.873,179.295 
				396.873,196.469 			"/>
			<rect x="325.242" y="125.027" fill="#F5F5F5" width="36.041" height="12.407"/>
			<rect x="359.489" y="154.796" fill="#F5F5F5" width="34.352" height="13.479"/>
			<rect x="345.898" y="188.938" fill="#F5F5F5" width="23.594" height="13.904"/>
			<rect x="384.239" y="191.188" fill="#F5F5F5" width="25.267" height="10.562"/>
			<rect x="288.288" y="157.65" fill="#F5F5F5" width="39.026" height="18.006"/>
			<rect x="292.406" y="195.889" fill="#F5F5F5" width="24.923" height="13.16"/>
			
				<rect x="339.457" y="144.748" transform="matrix(0.7071 0.7071 -0.7071 0.7071 205.5822 -199.2128)" fill="#F5F5F5" width="7.61" height="7.61"/>
			
				<rect x="372.328" y="175.489" transform="matrix(0.7071 0.7071 -0.7071 0.7071 236.9297 -213.4462)" fill="#F5F5F5" width="7.611" height="7.611"/>
		</g>
		<g>
			<g>
				<path fill="#E0E0E0" d="M156.115,360.9c0.809-1.358-0.332-3.402-1.913-3.426c0.692-1.949,0.009-4.306-1.62-5.582
					c-0.206-0.161-0.441-0.312-0.703-0.312c-0.28-0.001-0.528,0.169-0.755,0.333c-1.49,1.07-2.98,2.141-4.47,3.211
					c-0.341,0.245-0.694,0.504-0.887,0.877c-0.914,1.77,2.379,4.038,1.025,5.498c-0.389,0.42-1.015,0.507-1.5,0.81
					c-1.063,0.665-1.192,2.125-1.688,3.278c-0.496,1.152-2.224,2.046-2.886,0.98c0.488-1.105-0.989-2.058-2.19-2.198
					c-1.184-0.139-2.453-0.206-3.116-1.332c-1.703,1.487-5.516-2.664-5.429-4.339c-1.399,0.106-2.353,1.418-2.659,2.729
					c-0.318,1.36-0.122,2.778-0.144,4.173c-0.043,2.71-0.918,5.366-0.87,8.076c0.037,2.109,0.853,4.452,2.784,5.301
					c0.93,0.408,1.979,0.409,2.995,0.402c7.331-0.047,14.662-0.094,21.992-0.141c0.527-0.004,1.079-0.013,1.546-0.257
					c0.992-0.519,1.202-1.821,1.293-2.937c0.394-4.778,0.788-9.556,1.181-14.333C157.441,361.441,156.778,361.171,156.115,360.9z"/>
			</g>
			<g>
				<g>
					<path fill="#E6E6E6" d="M157.398,337.655h-2.47h-6.799h-2.478h-6.791h-2.478h-6.791h-2.478h-3.841l0.281,3.447l0.201,2.462
						l0.521,6.406l0.297,3.68l0.393,4.898l0.168,2.101l0.056,0.626l0.2,2.47l0.273,3.383l0.168,2.101l0.176,2.133l0.201,2.47
						l0.152,1.868l0.168,2.101l0.072,0.914h4.49h3.792h5.476h3.792h5.476h3.792h4.498l0.072-0.914l0.168-2.093l0.152-1.884l0.2-2.47
						l0.177-2.125l0.168-2.101l0.272-3.392l0.201-2.461l0.048-0.626l0.168-2.101l0.401-4.898l0.297-3.672l0.513-6.414l0.2-2.462
						l0.281-3.447H157.398z M159.451,339.916L159.451,339.916l-0.658-0.657h0.713L159.451,339.916z M159.282,342.009l-0.063,0.834
						l-3.055,3.055l-3.504-3.504l3.135-3.135h0.737L159.282,342.009z M158.4,352.929l-2.236,2.237l-3.504-3.504l3.504-3.496
						l2.421,2.422L158.4,352.929z M125.929,350.588L125.929,350.588l2.421-2.422l3.504,3.496l-3.504,3.504l-2.229-2.237
						L125.929,350.588z M155.033,347.028l-3.504,3.503l-3.503-3.503l3.503-3.504L155.033,347.028z M149.525,339.259h4.009
						l-2.005,2.005L149.525,339.259z M150.391,351.662l-3.495,3.504l-3.504-3.504l3.504-3.496L150.391,351.662z M138.758,356.296
						l3.503-3.495l3.496,3.495l-3.496,3.504L138.758,356.296z M141.123,360.931l-3.503,3.504l-3.496-3.496l3.504-3.504
						L141.123,360.931z M146.896,357.435l3.495,3.504l-3.495,3.496l-3.504-3.504L146.896,357.435z M142.261,350.531l-3.503-3.503
						l3.503-3.504l3.496,3.504L142.261,350.531z M141.123,351.662l-3.496,3.504l-3.504-3.504l3.504-3.496L141.123,351.662z
						 M132.985,350.531l-3.496-3.503l3.496-3.504l3.503,3.504L132.985,350.531z M132.985,352.801l3.503,3.495l-3.503,3.504
						l-3.496-3.504L132.985,352.801z M136.488,365.572l-3.503,3.496l-3.496-3.496l3.496-3.503L136.488,365.572z M137.619,366.703
						l3.503,3.504l-3.496,3.504l-3.504-3.504L137.619,366.703z M138.758,365.572l3.503-3.503l3.496,3.503l-3.496,3.496
						L138.758,365.572z M146.896,366.703l3.495,3.504l-3.495,3.504l-3.504-3.504L146.896,366.703z M151.529,371.337l3.504,3.504
						l-2.269,2.27h-2.469l-2.269-2.27L151.529,371.337z M148.026,365.572l3.503-3.503l3.504,3.503l-3.504,3.496L148.026,365.572z
						 M148.026,356.296l3.503-3.495l3.504,3.495l-3.504,3.504L148.026,356.296z M150.391,342.394l-3.495,3.504l-3.504-3.504
						l3.135-3.135h0.738L150.391,342.394z M142.261,341.264l-2.004-2.005h4.001L142.261,341.264z M141.123,342.394l-3.496,3.504
						l-3.504-3.504l3.135-3.135h0.738L141.123,342.394z M134.989,339.259l-2.004,2.005l-1.997-2.005H134.989z M128.72,339.259
						l3.135,3.135l-3.504,3.504l-3.047-3.055l-0.064-0.834l2.742-2.75H128.72z M125.721,339.259l-0.649,0.649l0,0l-0.056-0.649
						H125.721z M125.504,345.313l1.716,1.716l-1.459,1.459L125.504,345.313z M126.458,357.058l-0.136-1.659l0,0l0.898,0.897
						L126.458,357.058L126.458,357.058z M126.627,359.167l1.724-1.732l3.504,3.504l-3.504,3.496l-1.411-1.411L126.627,359.167z
						 M127.148,365.645l-0.008-0.152l0.08,0.08L127.148,365.645L127.148,365.645z M127.757,373.109l-0.441-5.372l1.034-1.034
						l3.504,3.504l-3.504,3.495L127.757,373.109L127.757,373.109z M128.078,377.11l-0.064-0.802l0.337-0.337l1.139,1.139H128.078z
						 M129.489,374.841l3.496-3.504l3.503,3.504l-2.269,2.27h-2.47L129.489,374.841z M136.488,377.11l1.139-1.139l1.139,1.139
						H136.488z M141.026,377.11l-2.269-2.27l3.503-3.504l3.496,3.504l-2.261,2.27H141.026z M145.757,377.11l1.139-1.139l1.139,1.139
						H145.757z M156.437,377.11h-1.411l1.139-1.139l0.336,0.337L156.437,377.11z M156.765,373.109l-0.601,0.593l-3.504-3.495
						l3.504-3.504l1.034,1.034L156.765,373.109z M157.382,365.484l-0.016,0.16l-0.072-0.072L157.382,365.484L157.382,365.484z
						 M157.583,363.023l-1.419,1.411l-3.504-3.496l3.504-3.504l1.731,1.732L157.583,363.023z M158.063,357.066l-0.77-0.771
						l0.906-0.897L158.063,357.066z M159.018,345.305l-0.256,3.19l-1.468-1.467L159.018,345.305L159.018,345.305z"/>
				</g>
			</g>
			<path fill="#F0F0F0" d="M122.734,340.688h39.048c0.908,0,1.644-0.735,1.644-1.643v-1.178c0-0.907-0.735-1.643-1.644-1.643
				h-39.048c-0.908,0-1.643,0.735-1.643,1.643v1.178C121.091,339.953,121.826,340.688,122.734,340.688z"/>
			<path fill="#F0F0F0" d="M158.73,380.777h-32.943c-0.908,0-1.643-0.736-1.643-1.644v-1.177c0-0.908,0.735-1.644,1.643-1.644
				h32.943c0.908,0,1.643,0.735,1.643,1.644v1.177C160.373,380.041,159.638,380.777,158.73,380.777z"/>
		</g>
		<g>
			<path fill="#EBEBEB" d="M405.452,345.829l10.63-30.64c0,0-14.745,10.932-14.646-1.188c0.099-12.12,6.717-2.708,9.016-7.186
				c2.298-4.477-6.542-4.429-3.44-11.218c3.102-6.789,11.917,3.643,13.474-2.372c1.558-6.015,4.039-9.073,10.459-8.533
				c0,0,3.47,7.913-0.783,13.629c-4.253,5.717,10.519,1.137,9.018,6.888s-6.433,10.771-8.605,6.721
				c-2.172-4.05-4.929,3.71-1.216,5.708c3.713,1.998-4.854,10.657-6.734,6.118s-4.827-8.581-4.827-8.581l-9.797,32.782
				L405.452,345.829z"/>
			<path fill="#E6E6E6" d="M394.495,346.101l-11.984-19.595c0,0,11.854,5.336,9.955-3.035s-5.057-0.858-7.324-3.609
				c-2.267-2.751,3.857-4.053,0.686-8.281c-3.172-4.229-7.695,4.32-9.682,0.394c-1.985-3.926-4.165-5.667-8.525-4.324
				c0,0-1.205,6,2.601,9.313s-7.106,2.376-5.199,6.128s6.079,6.48,6.97,3.35c0.892-3.13,3.971,1.823,1.704,3.767
				s4.97,6.641,5.584,3.216c0.615-3.425,2.043-6.667,2.043-6.667l11.732,21.203L394.495,346.101z"/>
			<path fill="#F5F5F5" d="M402.567,346.288l-5.488-31.564c0,0,12.636,13.004,14.469,1.173c1.833-11.832-6.118-3.709-7.646-8.44
				c-1.528-4.73,7.083-3.276,5.139-10.389c-1.944-7.113-12.198,1.654-12.758-4.457c-0.562-6.112-2.494-9.489-8.839-9.984
				c0,0-4.642,7.163-1.405,13.413c3.236,6.249-10.437-0.565-9.888,5.279c0.548,5.846,4.558,11.524,7.32,7.922
				c2.763-3.603,4.215,4.401,0.277,5.759c-3.938,1.356,3.037,11.163,5.592,7.037c2.556-4.127,6.072-7.599,6.072-7.599l4.334,33.521
				L402.567,346.288z"/>
			<g>
				<path fill="#EBEBEB" d="M409.366,381.777h-18.841c-1.317,0-2.407-1.025-2.488-2.34l-1.997-32.496
					c-0.088-1.434,1.051-2.646,2.488-2.646h22.834c1.437,0,2.577,1.212,2.488,2.646l-1.997,32.496
					C411.773,380.752,410.683,381.777,409.366,381.777z"/>
				<path fill="#F5F5F5" d="M413.614,347.958h-27.57c-1.267,0-2.331-0.949-2.477-2.207l0,0c-0.171-1.479,0.986-2.778,2.477-2.778
					h27.57c1.49,0,2.647,1.299,2.477,2.778l0,0C415.946,347.009,414.881,347.958,413.614,347.958z"/>
			</g>
		</g>
		<g>
			<path fill="#E0E0E0" d="M248.394,323.393h43.026c2.762,0,5,2.238,5,5v1.893h-53.026v-1.893
				C243.394,325.631,245.632,323.393,248.394,323.393z"/>
			<path fill="#E0E0E0" d="M294.692,369.529l-16.99-1.67v-23.878h-6.734v23.872l-17.06,1.676c-1.693,0.167-2.984,1.591-2.984,3.293
				v2.551h22.753h1.248h22.752v-2.551C297.677,371.12,296.386,369.696,294.692,369.529z"/>
			<circle fill="#E0E0E0" cx="252.722" cy="378.538" r="4.402"/>
			<circle fill="#E0E0E0" cx="295.879" cy="378.538" r="4.403"/>
			<path fill="#E6E6E6" d="M274.729,349.113h-0.787c-2.283,0-4.133-1.851-4.133-4.133v-17.135h9.053v17.135
				C278.861,347.263,277.011,349.113,274.729,349.113z"/>
			<path fill="#EBEBEB" d="M265.387,323.836c2.349-8.885,7.64-31.869,8.754-62.236c0.172-4.692,4.043-8.401,8.739-8.401h15.675
				c4.814,0,8.727,3.887,8.747,8.701c0.062,14.28-0.937,43.472-8.991,67.2l-29.834-1.099
				C266.349,327.922,264.843,325.895,265.387,323.836z"/>
			<g>
				<path fill="#E6E6E6" d="M269.606,327.509c0,0,8.048-28.634,9.378-64.892c0.159-4.328,3.73-7.75,8.062-7.75h14.459
					c4.441,0,8.049,3.585,8.068,8.026c0.057,13.172-0.864,42.728-8.293,64.615H269.606z"/>
				<path fill="#E6E6E6" d="M275.808,306.692c0,0-17.182-3.476-33.769-1.793c-16.588,1.684,7.805,23.358,7.805,23.358h3.424
					c0,0-12.926-13.743-12.206-17.165c0.72-3.421,33.273,1.089,33.273,1.089L275.808,306.692z"/>
				<path fill="#E0E0E0" d="M301.278,327.509h-28.134c0,0,8.049-28.636,9.382-64.891c0.159-4.329,3.727-7.749,8.062-7.749h10.915
					c4.446,0,8.05,3.586,8.073,8.025C309.628,276.063,308.708,305.619,301.278,327.509z"/>
			</g>
			<g>
				<path fill="#E0E0E0" d="M243.226,326.839h56.9c0.951,0,1.723,0.771,1.723,1.724l0,0c0,0.951-0.771,1.723-1.723,1.723h-56.9
					c-0.951,0-1.723-0.771-1.723-1.723l0,0C241.503,327.61,242.274,326.839,243.226,326.839z"/>
			</g>
		</g>
	</g>
</g>
<g id="Background_Simple" display="none">
	<g display="inline">
		<path fill="#407BFF" d="M79.576,178.969c-9.832,6.179-17.702,15.844-22.201,29.817c-14.486,44.993,9.168,98.775,42.009,129.672
			c30.432,28.63,71.222,44.732,112.126,50.845c25.389,3.794,51.458,3.855,76.802-0.342c17.321-2.869,34.303-8.541,49.715-16.985
			c84.027-46.038,104.644-164.079,66.256-246.146c-2.703-5.778-5.752-11.393-9.24-16.736
			c-10.842-16.607-26.309-30.727-45.068-37.161c-19.059-6.538-41.031-3.954-57.456,7.985
			c-16.885,12.274-23.533,34.273-29.493,53.275c-4.375,13.946-8.932,28.16-17.589,39.937c-26.848,36.521-64.924,13.82-98.388,2.656
			C123.908,168.064,98.216,167.253,79.576,178.969z"/>
		<path opacity="0.9" fill="#FFFFFF" d="M79.576,178.969c-9.832,6.179-17.702,15.844-22.201,29.817
			c-14.486,44.993,9.168,98.775,42.009,129.672c30.432,28.63,71.222,44.732,112.126,50.845c25.389,3.794,51.458,3.855,76.802-0.342
			c17.321-2.869,34.303-8.541,49.715-16.985c84.027-46.038,104.644-164.079,66.256-246.146c-2.703-5.778-5.752-11.393-9.24-16.736
			c-10.842-16.607-26.309-30.727-45.068-37.161c-19.059-6.538-41.031-3.954-57.456,7.985
			c-16.885,12.274-23.533,34.273-29.493,53.275c-4.375,13.946-8.932,28.16-17.589,39.937c-26.848,36.521-64.924,13.82-98.388,2.656
			C123.908,168.064,98.216,167.253,79.576,178.969z"/>
	</g>
</g>
<g id="Shadow_1_">
	<ellipse id="_x3C_Path_x3E__359_" fill="#F5F5F5" cx="250" cy="416.238" rx="193.889" ry="11.323"/>
</g>
<g id="Ux">
	<g>
		<path fill="#407BFF" d="M274.06,94.247v316.12c0,2.6-2.09,4.62-4.69,4.62H110.25c-2.39,0-4.19-1.851-4.19-4.24V93.867
			c0-2.07,1.52-3.88,3.59-3.88h37.78c1.18,0,2.25,0.77,2.69,1.88l1.73,4.26c0.44,1.1,1.51,1.86,2.69,1.86h71.13
			c1.18,0,2.25-0.73,2.69-1.83l1.729-4.28c0.44-1.11,1.51-1.89,2.69-1.89h37.18C272.24,89.987,274.06,91.967,274.06,94.247z"/>
		<path opacity="0.6" fill="#FFFFFF" enable-background="new    " d="M274.06,94.247v316.12c0,2.6-2.09,4.62-4.69,4.62H110.25
			c-2.39,0-4.19-1.851-4.19-4.24V93.867c0-2.07,1.52-3.88,3.59-3.88h37.78c1.18,0,2.25,0.77,2.69,1.88l1.73,4.26
			c0.44,1.1,1.51,1.86,2.69,1.86h71.13c1.18,0,2.25-0.73,2.69-1.83l1.729-4.28c0.44-1.11,1.51-1.89,2.69-1.89h37.18
			C272.24,89.987,274.06,91.967,274.06,94.247z"/>
		<g>
			<g>
				<path fill="#FFFFFF" d="M152.561,371.352H117.92c-1.868,0-3.383-1.515-3.383-3.383v-34.641c0-1.868,1.515-3.383,3.383-3.383
					h34.641c1.868,0,3.383,1.515,3.383,3.383v34.641C155.943,369.837,154.429,371.352,152.561,371.352z"/>
				<rect x="123.305" y="338.713" opacity="0.5" fill="#407BFF" width="23.871" height="23.872"/>
				<path opacity="0.3" fill="#FFFFFF" enable-background="new    " d="M123.305,338.713v23.872h23.871v-23.872H123.305z
					 M134.466,350.648l-10.066,10.067v-20.134L134.466,350.648z M125.173,339.808h20.134l-10.067,10.067L125.173,339.808z
					 M135.24,351.423l10.067,10.067h-20.134L135.24,351.423z M136.014,350.648l10.067-10.066v20.134L136.014,350.648z"/>
				<g>
					<rect x="114.168" y="380.001" opacity="0.75" fill="#407BFF" width="42.145" height="4.747"/>
					<g>
						<path fill="#FFFFFF" d="M115.898,381.262h-1.196v-0.434h2.886v0.434h-1.196v3.056h-0.493V381.262z"/>
					</g>
				</g>
			</g>
			<g>
				<path fill="#FFFFFF" d="M206.65,370.939h-34.641c-1.868,0-3.383-1.515-3.383-3.383v-34.641c0-1.868,1.515-3.383,3.383-3.383
					h34.641c1.869,0,3.383,1.515,3.383,3.383v34.641C210.033,369.425,208.519,370.939,206.65,370.939z"/>
				<rect x="177.394" y="338.301" opacity="0.5" fill="#407BFF" width="23.872" height="23.871"/>
				<path opacity="0.3" fill="#FFFFFF" enable-background="new    " d="M177.394,338.301v23.871h23.872v-23.871H177.394z
					 M188.556,350.236l-10.067,10.067V340.17L188.556,350.236z M179.263,339.396h20.134l-10.067,10.067L179.263,339.396z
					 M189.33,351.011l10.067,10.066h-20.134L189.33,351.011z M190.104,350.236l10.067-10.066v20.134L190.104,350.236z"/>
				<g>
					<rect x="168.257" y="379.589" opacity="0.75" fill="#407BFF" width="42.145" height="4.746"/>
					<g>
						<path fill="#FFFFFF" d="M169.987,380.849h-1.196v-0.433h2.886v0.433h-1.196v3.056h-0.494V380.849z"/>
					</g>
				</g>
			</g>
			<g>
				<path fill="#FFFFFF" d="M260.739,370.527h-34.641c-1.868,0-3.383-1.515-3.383-3.383v-34.642c0-1.868,1.515-3.383,3.383-3.383
					h34.641c1.868,0,3.383,1.515,3.383,3.383v34.642C264.122,369.013,262.607,370.527,260.739,370.527z"/>
				<rect x="231.483" y="337.889" opacity="0.5" fill="#407BFF" width="23.871" height="23.871"/>
				<path opacity="0.3" fill="#FFFFFF" enable-background="new    " d="M231.483,337.889v23.871h23.871v-23.871H231.483z
					 M242.645,349.824l-10.067,10.066v-20.134L242.645,349.824z M233.352,338.983h20.134l-10.067,10.066L233.352,338.983z
					 M243.419,350.598l10.067,10.067h-20.134L243.419,350.598z M244.193,349.824l10.067-10.067v20.134L244.193,349.824z"/>
				<g>
					<rect x="222.347" y="379.176" opacity="0.75" fill="#407BFF" width="42.145" height="4.747"/>
					<g>
						<path fill="#FFFFFF" d="M224.077,380.437h-1.196v-0.434h2.886v0.434h-1.196v3.056h-0.493V380.437z"/>
					</g>
				</g>
			</g>
			<path fill="#FFFFFF" d="M264.008,192.467H116.112c-1.074,0-1.944-0.871-1.944-1.945v-69.094c0-1.074,0.871-1.945,1.944-1.945
				h147.896c1.074,0,1.944,0.871,1.944,1.945v69.094C265.952,191.596,265.082,192.467,264.008,192.467z"/>
			<g>
				<g>
					<circle opacity="0.75" fill="#407BFF" cx="121.56" cy="154.086" r="3.363"/>
					<polygon fill="#FFFFFF" points="119.904,154.086 122.502,155.848 122.502,152.324 					"/>
				</g>
				<g>
					<circle opacity="0.75" fill="#407BFF" cx="258.56" cy="154.086" r="3.363"/>
					<polygon fill="#FFFFFF" points="260.216,154.086 257.618,152.324 257.618,155.848 					"/>
				</g>
			</g>
			<g>
				<rect x="139.362" y="137.142" opacity="0.75" fill="#407BFF" width="84.693" height="8.442"/>
				<rect x="139.362" y="148.103" opacity="0.75" fill="#407BFF" width="84.693" height="8.442"/>
				<rect x="139.362" y="159.901" opacity="0.75" fill="#407BFF" width="69.363" height="8.442"/>
				<g>
					<path fill="#FFFFFF" d="M142.44,139.384h-2.128v-0.771h5.133v0.771h-2.127v5.435h-0.878V139.384z"/>
				</g>
			</g>
			<g>
				<circle opacity="0.75" fill="#407BFF" cx="174.73" cy="188.399" r="1.516"/>
				<circle opacity="0.75" fill="#407BFF" cx="182.395" cy="188.399" r="1.516"/>
				<circle opacity="0.75" fill="#407BFF" cx="190.06" cy="188.399" r="1.516"/>
				<circle opacity="0.75" fill="#407BFF" cx="197.725" cy="188.399" r="1.517"/>
				<circle opacity="0.75" fill="#407BFF" cx="205.39" cy="188.399" r="1.516"/>
			</g>
			<rect x="114.168" y="202.774" fill="#FFFFFF" width="151.784" height="11.856"/>
			<rect x="253.82" y="202.636" opacity="0.75" fill="#407BFF" width="12.132" height="12.132"/>
			<g>
				<path fill="#FFFFFF" d="M251.353,269.865H116.768c-1.436,0-2.6-1.164-2.6-2.6v-40.865c0-1.436,1.164-2.6,2.6-2.6h134.585
					c1.436,0,2.6,1.164,2.6,2.6v40.865C253.952,268.701,252.789,269.865,251.353,269.865z"/>
				<rect x="120.404" y="230.188" opacity="0.5" fill="#407BFF" width="43.72" height="33.291"/>
				<g>
					<path opacity="0.3" fill="#FFFFFF" enable-background="new    " d="M120.404,230.188v33.291h43.72v-33.291H120.404z
						 M162.133,231.188l-19.869,15.019l-19.869-15.019H162.133z M121.404,231.692l20.031,15.141l-20.031,15.141V231.692z
						 M122.395,262.479l19.869-15.019l19.869,15.019H122.395z M143.093,246.833l20.031-15.141v30.281L143.093,246.833z"/>
				</g>
				<g>
					<rect x="170.913" y="230.685" opacity="0.75" fill="#407BFF" width="77.498" height="4.336"/>
					<rect x="170.913" y="238.313" opacity="0.75" fill="#407BFF" width="77.498" height="4.336"/>
					<rect x="170.913" y="246.373" opacity="0.75" fill="#407BFF" width="35.624" height="4.337"/>
					<g>
						<path fill="#FFFFFF" d="M172.494,231.836h-1.092v-0.396h2.636v0.396h-1.093v2.791h-0.451V231.836z"/>
					</g>
				</g>
			</g>
			<g>
				<path fill="#FFFFFF" d="M251.353,319.865H116.768c-1.436,0-2.6-1.164-2.6-2.6V276.4c0-1.436,1.164-2.599,2.6-2.599h134.585
					c1.436,0,2.6,1.163,2.6,2.599v40.865C253.952,318.701,252.789,319.865,251.353,319.865z"/>
				<rect x="120.404" y="280.188" opacity="0.5" fill="#407BFF" width="43.72" height="33.291"/>
				<g>
					<path opacity="0.3" fill="#FFFFFF" enable-background="new    " d="M120.404,280.188v33.291h43.72v-33.291H120.404z
						 M162.133,281.188l-19.869,15.019l-19.869-15.019H162.133z M121.404,281.692l20.031,15.141l-20.031,15.141V281.692z
						 M122.395,312.479l19.869-15.019l19.869,15.019H122.395z M143.093,296.833l20.031-15.141v30.281L143.093,296.833z"/>
				</g>
				<g>
					<rect x="170.913" y="280.685" opacity="0.75" fill="#407BFF" width="77.498" height="4.336"/>
					<rect x="170.913" y="288.313" opacity="0.75" fill="#407BFF" width="77.498" height="4.336"/>
					<rect x="170.913" y="296.373" opacity="0.75" fill="#407BFF" width="35.624" height="4.337"/>
					<g>
						<path fill="#FFFFFF" d="M172.494,281.836h-1.092v-0.396h2.636v0.396h-1.093v2.791h-0.451V281.836z"/>
					</g>
				</g>
			</g>
			<rect x="259.088" y="223.85" fill="#FFFFFF" width="5.403" height="96.016"/>
			<rect x="259.088" y="229.067" opacity="0.75" fill="#407BFF" width="5.403" height="15.042"/>
		</g>
		<path fill="#407BFF" d="M274.06,94.249v15.49h-168v-15.87c0-2.07,1.52-3.88,3.59-3.88h37.78c1.18,0,2.25,0.77,2.69,1.88l1.73,4.26
			c0.44,1.1,1.51,1.86,2.69,1.86h71.13c1.18,0,2.25-0.73,2.69-1.83l1.73-4.28c0.44-1.11,1.51-1.89,2.69-1.89h37.18
			C272.24,89.989,274.06,91.969,274.06,94.249z"/>
		<path fill="#407BFF" d="M106.06,393.989h168v16.38c0,2.6-2.09,4.62-4.69,4.62H110.25c-2.39,0-4.19-1.851-4.19-4.24V393.989z"/>
	</g>
</g>
<g id="Labels">
	<g>
		<rect x="67.104" y="91.628" fill="#407BFF" width="30.461" height="14.829"/>
		<g>
			
				<line fill="none" stroke="#FFFFFF" stroke-linecap="round" stroke-linejoin="round" stroke-miterlimit="10" x1="72.148" y1="95.673" x2="92.521" y2="95.673"/>
			
				<line fill="none" stroke="#FFFFFF" stroke-linecap="round" stroke-linejoin="round" stroke-miterlimit="10" x1="72.148" y1="99.042" x2="92.521" y2="99.042"/>
			
				<line fill="none" stroke="#FFFFFF" stroke-linecap="round" stroke-linejoin="round" stroke-miterlimit="10" x1="72.148" y1="102.412" x2="82.335" y2="102.412"/>
		</g>
		<line fill="none" stroke="#407BFF" stroke-miterlimit="10" x1="88.417" y1="105.848" x2="118.483" y2="131.923"/>
		<circle fill="#407BFF" cx="118.483" cy="131.923" r="1.817"/>
	</g>
	<g>
		<rect x="64.104" y="275.939" fill="#407BFF" width="30.461" height="14.829"/>
		<g>
			
				<line fill="none" stroke="#FFFFFF" stroke-linecap="round" stroke-linejoin="round" stroke-miterlimit="10" x1="69.148" y1="279.984" x2="89.521" y2="279.984"/>
			
				<line fill="none" stroke="#FFFFFF" stroke-linecap="round" stroke-linejoin="round" stroke-miterlimit="10" x1="69.148" y1="283.354" x2="89.521" y2="283.354"/>
			
				<line fill="none" stroke="#FFFFFF" stroke-linecap="round" stroke-linejoin="round" stroke-miterlimit="10" x1="69.148" y1="286.724" x2="79.335" y2="286.724"/>
		</g>
		<circle fill="#407BFF" cx="115.483" cy="283.354" r="1.817"/>
		<line fill="none" stroke="#407BFF" stroke-miterlimit="10" x1="115.483" y1="283.354" x2="92.736" y2="283.354"/>
	</g>
	<g>
		<rect x="279.27" y="161.827" fill="#407BFF" width="30.462" height="14.83"/>
		<g>
			
				<line fill="none" stroke="#FFFFFF" stroke-linecap="round" stroke-linejoin="round" stroke-miterlimit="10" x1="284.313" y1="165.872" x2="304.688" y2="165.872"/>
			
				<line fill="none" stroke="#FFFFFF" stroke-linecap="round" stroke-linejoin="round" stroke-miterlimit="10" x1="284.313" y1="169.242" x2="304.688" y2="169.242"/>
			
				<line fill="none" stroke="#FFFFFF" stroke-linecap="round" stroke-linejoin="round" stroke-miterlimit="10" x1="284.313" y1="172.611" x2="294.5" y2="172.611"/>
		</g>
		<circle fill="#407BFF" cx="244.931" cy="206.122" r="1.817"/>
		<line fill="none" stroke="#407BFF" stroke-miterlimit="10" x1="244.931" y1="206.122" x2="288.861" y2="173.242"/>
	</g>
	<g>
		<rect x="282.254" y="358.753" fill="#407BFF" width="30.461" height="14.829"/>
		<g>
			
				<line fill="none" stroke="#FFFFFF" stroke-linecap="round" stroke-linejoin="round" stroke-miterlimit="10" x1="287.298" y1="362.798" x2="307.672" y2="362.798"/>
			
				<line fill="none" stroke="#FFFFFF" stroke-linecap="round" stroke-linejoin="round" stroke-miterlimit="10" x1="287.298" y1="366.167" x2="307.672" y2="366.167"/>
			
				<line fill="none" stroke="#FFFFFF" stroke-linecap="round" stroke-linejoin="round" stroke-miterlimit="10" x1="287.298" y1="369.537" x2="297.485" y2="369.537"/>
		</g>
		<circle fill="#407BFF" cx="247.915" cy="366.167" r="1.817"/>
		<line fill="none" stroke="#407BFF" stroke-miterlimit="10" x1="247.915" y1="366.167" x2="284.5" y2="366.167"/>
	</g>
</g>
<g id="Character">
	<g>
		<g>
			<path fill="#407BFF" d="M343.387,202.533c-3.367,0.153-17.48,19.105-17.48,19.105l-5.241-6.813c0,0-8.081,15.699-4.084,23.171
				c3.996,7.473,25.062-12.953,25.062-12.953L343.387,202.533z"/>
			<path opacity="0.2" enable-background="new    " d="M343.389,202.535l-1.39,15.115l-0.355,7.389c0,0-3.463,3.357-7.842,6.847
				c-6.43,5.134-14.84,10.551-17.22,6.11c-3.997-7.469,4.085-23.17,4.085-23.17l5.24,6.812l0.036-0.053
				C326.741,220.438,340.13,202.677,343.389,202.535z"/>
		</g>
		<path opacity="0.2" enable-background="new    " d="M341.999,217.65l-0.355,7.389c0,0-3.463,3.357-7.842,6.847
			c-0.417-8.872,7.842-21.793,7.842-21.793L341.999,217.65z"/>
		<path opacity="0.2" enable-background="new    " d="M325.907,221.638l0.753,1.443l-2.196,8.548c0,0,6.059-5.514,2.196-10.917
			L325.907,221.638z"/>
		<g>
			<path fill="#407BFF" d="M342.78,249.919l28.419,2.195c0,0,0.387-16.978,2.651-25.814c0.737-2.86,1.66-6.075,2.833-9.805
				c0.497-1.581,1.039-3.25,1.634-5.036c0.542-1.661,1.137-3.428,1.785-5.284c-3.89-1.244-7.851-2.194-11.883-2.869
				c-4.245-0.755-8.543-1.208-12.859-1.359c-5.568-0.044-11.972,0.586-11.972,0.586s-0.905,0.222-1.483,6.119
				C341.382,214.205,341.626,229.751,342.78,249.919z"/>
			<path opacity="0.2" enable-background="new    " d="M342.782,249.915l28.419,2.193c0,0,0.009-0.346,0.027-0.977
				c0.124-3.721,0.684-17.265,2.62-24.831c0.524-2.042,1.146-4.272,1.891-6.732c0.293-0.986,0.604-2.007,0.942-3.073
				c0.498-1.581,1.039-3.25,1.634-5.035c0.542-1.661,1.137-3.428,1.785-5.284c-1.545-0.498-3.108-0.941-4.68-1.35
				c-2.371-0.604-4.778-1.11-7.202-1.519c-4.245-0.755-8.543-1.208-12.859-1.359c-3.588-0.026-7.522,0.222-9.867,0.409
				c-1.297,0.098-2.105,0.178-2.105,0.178s-0.906,0.222-1.483,6.119C341.379,214.206,341.627,229.747,342.782,249.915z"/>
		</g>
		<path fill="#EBB376" d="M357.723,208.281c7.061-0.906,9.183-3.925,9.183-3.925c-2.886-2.717-2.362-6.731-1.625-9.236
			c0.399-1.386,0.87-2.309,0.87-2.309l-8.499,1.59c0.223,1.403,0.32,2.584,0.329,3.579c0.018,1.092-0.08,1.954-0.24,2.629
			c-0.577,2.54-2.024,2.575-2.024,2.575C354.224,205.972,357.723,208.281,357.723,208.281z"/>
		<path opacity="0.2" enable-background="new    " d="M357.98,197.979c0.018,1.092-0.08,1.954-0.24,2.629
			c3.375-0.444,5.933-3.144,7.54-5.488c0.399-1.386,0.87-2.309,0.87-2.309l-8.499,1.59
			C357.874,195.803,357.972,196.984,357.98,197.979z"/>
		<g>
			<path fill="#263238" d="M377.638,159.654h2.465c-0.551-2.834-4.216-6.655-8.198-5.643c1.019-1.036,2.304-1.835,2.304-1.835
				s-4.615-1.187-8.059,2.36c-3.442,3.547-5.245,10.887-2.228,13.757c0.384,0.365,0.855,0.256,1.369-0.17
				c2.587,3.489,6.214,0.264,6.85,0.17c0.703-0.103,0.151,1.817,0.151,1.817c2.08,0.054,2.575-2.637,2.575-2.637l1.978,2.637
				c2.242-2.185,1.451-5.246,1.451-5.246l1.802,1.158C380.451,161.275,377.638,159.654,377.638,159.654z"/>
			<path fill="#263238" d="M347.86,183.112c0,0-4.184-11.024,6.665-16.431c10.848-5.406,17.178,2.27,17.573,9.707
				c0.396,7.437-1.978,13.851-5.538,15.127C363,192.791,347.86,183.112,347.86,183.112z"/>
			<path fill="#EBB376" d="M356.497,171.822c-7.319,1.057-9.109,5.316-8.556,12.937c0.691,9.523,3.749,15.918,12.61,12.583
				C372.586,192.813,368.653,170.066,356.497,171.822z"/>
			<path fill="#D58745" d="M352.613,183.666c0,0-0.738,2.059-1.691,3.344c0,0,0.771,0.905,2.049,0.549L352.613,183.666z"/>
			<g>
				
					<ellipse transform="matrix(-0.9928 0.1195 -0.1195 -0.9928 734.6946 320.6147)" fill="#263238" cx="357.736" cy="182.333" rx="0.734" ry="1.1"/>
				<path fill="#263238" d="M357.775,181.25l-1.375-0.356C356.401,180.893,357.188,181.918,357.775,181.25z"/>
			</g>
			<g>
				
					<ellipse transform="matrix(-0.9928 0.1195 -0.1195 -0.9928 719.8113 323.0657)" fill="#263238" cx="350.22" cy="183.112" rx="0.734" ry="1.1"/>
				<path fill="#263238" d="M350.26,182.028l-1.374-0.356C348.886,181.672,349.672,182.697,350.26,182.028z"/>
			</g>
			
				<path fill="none" stroke="#263238" stroke-width="0.708" stroke-linecap="round" stroke-linejoin="round" stroke-miterlimit="10" d="
				M356.351,177.355c0,0,2.019-0.564,3.335,0.648"/>
			
				<path fill="none" stroke="#263238" stroke-width="0.708" stroke-linecap="round" stroke-linejoin="round" stroke-miterlimit="10" d="
				M350.985,177.814c0,0-1.361-0.292-2.83,1.023"/>
			<path fill="#263238" d="M366.279,183.003c0,0-4.291-5.52-4.443-10.237c0,0-15.361-3.831-13.95,10.996
				c0,0-3.306-12.869,9.235-14.978c12.521-2.105,15.146,16.308,9.44,22.731C366.561,191.515,368.939,186.458,366.279,183.003z"/>
			<path fill="#EBB376" d="M365.307,184.721c-0.122-1.186,0.807-3.356,3.033-3.434c2.304-0.08,4.058,4.42-1.423,6.355
				C366.13,187.92,365.56,187.195,365.307,184.721z"/>
			
				<path fill="none" stroke="#263238" stroke-width="0.708" stroke-linecap="round" stroke-linejoin="round" stroke-miterlimit="10" d="
				M354.525,191.384c0,0,3.167,0.257,4.047-2.665"/>
		</g>
		<g>
			<path fill="#263238" d="M338.247,215.049c0.051,0.451-0.277,0.816-0.733,0.816h-8.116c-0.457,0-0.868-0.365-0.919-0.816
				l-1.812-16.019c-0.052-0.451,0.276-0.927,0.733-0.927h8.117c0.456,0,0.868,0.476,0.919,0.927L338.247,215.049z"/>
			<path opacity="0.5" fill="#FFFFFF" d="M335.534,198.925l1.837,16.174c0.052,0.456-0.186,0.766-0.639,0.766h-6.883
				c-0.462,0-1.308-0.254-1.359-0.71l-1.836-16.23c-0.052-0.456,0.736-0.821,1.198-0.821h6.883
				C335.188,198.104,335.482,198.469,335.534,198.925z"/>
		</g>
		<path fill="#EBB376" d="M321.244,216.383l4.231-7.179c0,0-0.012-3.774,0.358-4.663s4.514-2.892,5.328-2.593
			c0.814,0.299,1.11,7.704,0.37,8.701s-3.33,2.107-3.33,2.107l0.177,1.406l-2.471,7.475L321.244,216.383z"/>
		<polygon fill="#407BFF" points="319.542,215.569 320.948,214.163 327.609,221.638 326.66,224.598 		"/>
		<path opacity="0.2" enable-background="new    " d="M353.287,227.512c0,0,7.833,17.842,17.939,23.623
			c0.124-3.721,0.684-17.265,2.62-24.831c0.524-2.042,1.146-4.271,1.892-6.731l-3.082-3.703c0,0-2.132,6.607-1.19,12.344
			l-11.785-7.22L353.287,227.512z"/>
		<path fill="#EBB376" d="M360.869,223.41l-9.616-7.545c0,0-1.456-4.049-2.042-4.751c-0.585-0.703-9.018-3.814-9.72-3.898
			c-0.703-0.084-0.043,6.908,1.054,8.097s7.847,3.533,7.847,3.533l10.07,9.483L360.869,223.41z"/>
		<g>
			<path fill="#407BFF" d="M380.103,206.176c5.647,2.83,8.159,34.726-1.648,40.234c-9.807,5.507-24.462-19.379-24.462-19.379
				l5.693-6.042c0,0,11.939,9.996,13.38,9.078c1.441-0.918-0.198-10.687-0.198-10.687s-1.679-2.956,1.854-7.602
				C378.254,207.132,380.103,206.176,380.103,206.176z"/>
			<path opacity="0.2" enable-background="new    " d="M380.103,206.176c5.647,2.83,8.159,34.726-1.648,40.234
				c-9.807,5.507-24.462-19.379-24.462-19.379l5.693-6.042c0,0,11.939,9.996,13.38,9.078c1.441-0.918-0.198-10.687-0.198-10.687
				s-1.679-2.956,1.854-7.602C378.254,207.132,380.103,206.176,380.103,206.176z"/>
		</g>
		<polygon fill="#407BFF" points="353.882,229.246 352.177,228.221 358.572,218.846 360.921,220.155 		"/>
		<path fill="#EBB376" d="M345.491,202.358c0.027,0.941,0.302,2.069,1.172,3.179c0.453,0.586,1.065,1.164,1.892,1.705
			c1.82,1.208,4.68,2.265,9.094,2.851c2.788,0.364,5.213,0.346,7.3,0.062c1.146-0.16,2.185-0.391,3.135-0.684
			c3.606-1.092,5.923-3.02,7.335-4.645c-1.563-0.399-3.144-0.755-4.733-1.057c-0.409-0.089-0.817-0.169-1.226-0.24
			c-0.408-0.08-0.826-0.151-1.243-0.222c-4.245-0.755-8.543-1.208-12.859-1.359c-1.555-0.009-3.162,0.027-4.689,0.089
			c-0.666,0.036-1.323,0.063-1.944,0.107C347.489,202.208,346.379,202.288,345.491,202.358z"/>
		<path fill="#263238" d="M364.948,210.156c1.146-0.16,2.185-0.391,3.135-0.684c0.453-2.993,1.75-4.805,2.602-5.702
			c-0.409-0.089-0.817-0.169-1.226-0.24C367.026,205.245,365.597,208.371,364.948,210.156z"/>
		<path fill="#263238" d="M346.663,205.538c0.453,0.586,1.065,1.164,1.892,1.705c-0.036-2.167,1.101-4.005,2.113-5.204
			c-0.666,0.036-1.323,0.063-1.944,0.107C347.809,203.113,347.143,204.339,346.663,205.538z"/>
		<g>
			<path fill="#407BFF" d="M340.217,143.498h10.293c1.553,0,2.811,1.258,2.811,2.811v8.041c0,1.552-1.258,2.811-2.811,2.811h-3.784
				l-1.363,3.312l-1.363-3.312h-3.784c-1.552,0-2.811-1.259-2.811-2.811v-8.041C337.406,144.756,338.665,143.498,340.217,143.498z"
				/>
			<g>
				<path fill="#407BFF" d="M349.206,150.457l-1.95-0.028c0,0-0.457-1.37-0.457-4.391c0,0-0.678-0.074-1.005,0.022
					s-0.431,3.463-0.431,3.463s-3.511-0.226-3.7-0.075c-0.119,0.096-0.146,0.616-0.151,0.984c-0.002,0.215,0.149,0.4,0.36,0.441
					l0.121,0.023l0.179,3.35c0.014,0.258,0.226,0.461,0.485,0.463l3.274,0.021c0.324,0.002,0.642-0.094,0.91-0.276l0.356-0.242
					l2.019,0.14L349.206,150.457z"/>
				<path opacity="0.7" fill="#FFFFFF" enable-background="new    " d="M349.206,150.457l-1.95-0.028c0,0-0.457-1.37-0.457-4.391
					c0,0-0.678-0.074-1.005,0.022s-0.431,3.463-0.431,3.463s-3.511-0.226-3.7-0.075c-0.119,0.096-0.146,0.616-0.151,0.984
					c-0.002,0.215,0.149,0.4,0.36,0.441l0.121,0.023l0.179,3.35c0.014,0.258,0.226,0.461,0.485,0.463l3.274,0.021
					c0.324,0.002,0.642-0.094,0.91-0.276l0.356-0.242l2.019,0.14L349.206,150.457z"/>
			</g>
		</g>
		<polygon fill="#E4897B" points="316.081,402.757 322.068,403.795 324.524,395.776 326.765,388.417 319.861,386.049 
			317.856,394.895 		"/>
		<g>
			<path fill="#263238" d="M323.419,403.641c0.102-0.651-8.1-1.549-8.1-1.549s-5.885,4.119-10.934,4.398
				c-5.048,0.279-2.853,3.605,2.564,4.545s9.551,1.656,13.4,2.324C324.198,414.026,322.372,410.389,323.419,403.641z"/>
			<g>
				<path fill="#407BFF" d="M310.004,403.075c-0.134-0.153-0.251-0.432-0.044-0.884c0.101-0.218,0.279-0.374,0.531-0.464
					c0.475-0.166,1.18-0.063,1.854,0.121c-0.598-0.461-1.1-0.98-1.049-1.404c0.034-0.274,0.253-0.47,0.654-0.577
					c0.377-0.1,0.73-0.051,1.054,0.154c1.017,0.639,1.365,2.61,1.381,2.702c0.005,0.03,0.003,0.063-0.006,0.096h0
					c0,0.001,0,0.001,0,0.001c-0.006,0.018-0.013,0.035-0.023,0.051c0,0,0,0,0,0.001l0,0c-0.015,0.022-0.034,0.043-0.056,0.059l0,0
					l0,0c-0.021,0.016-0.045,0.026-0.071,0.033c-0.387,0.106-1.817,0.473-2.938,0.473
					C310.724,403.437,310.238,403.343,310.004,403.075z M310.639,402.129c-0.14,0.05-0.231,0.127-0.282,0.238
					c-0.138,0.299-0.051,0.397-0.022,0.431c0.327,0.376,1.891,0.194,3.176-0.096C312.637,402.345,311.28,401.9,310.639,402.129z
					 M312.064,400.279c-0.121,0.031-0.324,0.103-0.338,0.215c-0.043,0.362,1.006,1.184,2.127,1.84
					c-0.173-0.649-0.529-1.604-1.084-1.953c-0.146-0.092-0.296-0.137-0.456-0.137C312.233,400.244,312.149,400.256,312.064,400.279z
					"/>
			</g>
		</g>
		<polygon opacity="0.2" enable-background="new    " points="317.823,395.076 324.495,395.938 326.75,388.498 319.854,386.09 		"/>
		<polygon fill="#E4897B" points="356.055,405.277 362.135,405.277 363.133,396.962 364.037,389.331 356.819,388.179 
			356.41,397.231 		"/>
		<path fill="#263238" d="M363.438,404.895c-0.016-0.658-8.252-0.143-8.252-0.143s-5.066,5.062-9.988,6.199s-2.171,4.038,3.33,4.038
			c5.501,0,9.699,0,13.608,0C366.043,414.989,363.6,411.719,363.438,404.895z"/>
		<g>
			<path fill="#407BFF" d="M350.126,406.628c-0.159-0.128-0.323-0.383-0.199-0.862c0.06-0.231,0.208-0.416,0.44-0.547
				c0.437-0.247,1.149-0.266,1.847-0.198c-0.669-0.352-1.257-0.778-1.281-1.203c-0.016-0.276,0.166-0.505,0.541-0.68
				c0.353-0.163,0.712-0.174,1.066-0.029c1.117,0.456,1.809,2.345,1.837,2.425c0.021,0.055,0.016,0.114-0.008,0.164
				c-0.009,0.016-0.019,0.031-0.029,0.045h-0.001l0,0c-0.02,0.023-0.044,0.042-0.073,0.055c-0.433,0.203-2.262,1.025-3.414,1.025
				C350.552,406.822,350.298,406.767,350.126,406.628z M350.583,405.588c-0.128,0.073-0.205,0.165-0.235,0.283
				c-0.082,0.317,0.021,0.4,0.054,0.428c0.388,0.314,1.897-0.133,3.111-0.637C352.589,405.46,351.177,405.254,350.583,405.588z
				 M351.66,403.523c-0.113,0.052-0.301,0.157-0.294,0.27c0.021,0.364,1.2,0.993,2.42,1.449c-0.285-0.611-0.805-1.491-1.413-1.739
				c-0.113-0.046-0.223-0.069-0.334-0.069C351.913,403.434,351.787,403.464,351.66,403.523z"/>
		</g>
		<polygon opacity="0.2" enable-background="new    " points="356.41,397.415 363.133,397.125 364.037,389.413 356.819,388.219 		
			"/>
		<g>
			<path fill="#407BFF" d="M317.26,390.409l9.843,1.704c9.934-24.306,16.999-44.595,21.988-61.432
				c2.688-9.085,4.782-17.163,6.391-24.332l-0.449,26.46v60.107h9.996c24.315-113.894,7.083-139.921,7.083-139.921l-29.089-4.882
				c-1.105,4.264-1.941,11.177-2.436,15.989l-1.313,9.446l-11.371,57.671L317.26,390.409z"/>
			<path opacity="0.6" fill="#FFFFFF" enable-background="new    " d="M317.26,390.409l9.843,1.704
				c9.934-24.306,16.999-44.595,21.988-61.432c2.688-9.085,4.782-17.163,6.391-24.332l-0.449,26.46v60.107h9.996
				c24.315-113.894,7.083-139.921,7.083-139.921l-29.089-4.882c-1.105,4.264-1.941,11.177-2.436,15.989l-1.313,9.446l-11.371,57.671
				L317.26,390.409z"/>
		</g>
		<polygon fill="#407BFF" points="328.646,390.919 316.437,386.943 316.602,392.044 326.699,395.207 		"/>
		<polygon fill="#407BFF" points="366.333,391.474 353.605,389.644 354.671,394.639 365.174,396.029 		"/>
		<polygon fill="#263238" points="372.111,248.727 372.111,252.992 342.447,250.759 342.447,245.714 		"/>
		<polygon fill="#FFFFFF" points="348.865,251.585 355.352,252.155 355.792,247.324 349.306,246.754 		"/>
		<g>
			<polygon fill="#407BFF" points="361.771,254.294 363.242,254.368 363.625,247.007 362.153,246.934 			"/>
			<polygon opacity="0.6" fill="#FFFFFF" enable-background="new    " points="361.771,254.294 363.242,254.368 363.625,247.007 
				362.153,246.934 			"/>
		</g>
		<g>
			
				<rect x="343.838" y="245.011" transform="matrix(-0.9987 -0.0504 0.0504 -0.9987 676.1819 514.4378)" fill="#407BFF" width="1.473" height="7.371"/>
			
				<rect x="343.838" y="245.011" transform="matrix(-0.9987 -0.0504 0.0504 -0.9987 676.1819 514.4378)" opacity="0.6" fill="#FFFFFF" enable-background="new    " width="1.473" height="7.371"/>
		</g>
		<path opacity="0.2" enable-background="new    " d="M349.09,330.682c2.688-9.085,4.782-17.163,6.391-24.332
			c0,0-0.162-13.933-1.879-25.375C353.603,280.975,349.342,313.704,349.09,330.682z"/>
	</g>
</g>
</svg>
