<?xml version="1.0" encoding="utf-8"?>
<!-- Generator: Adobe Illustrator 16.0.0, SVG Export Plug-In . SVG Version: 6.00 Build 0)  -->
<!DOCTYPE svg PUBLIC "-//W3C//DTD SVG 1.1//EN" "http://www.w3.org/Graphics/SVG/1.1/DTD/svg11.dtd">
<svg version="1.1" id="Layer_1" xmlns="http://www.w3.org/2000/svg" xmlns:xlink="http://www.w3.org/1999/xlink" x="0px" y="0px"
	 width="900px" height="500px" viewBox="0 0 900 500" enable-background="new 0 0 900 500" xml:space="preserve">
<g>
	<defs>
		<rect id="SVGID_1_" width="900" height="500"/>
	</defs>
	<clipPath id="SVGID_2_">
		<use xlink:href="#SVGID_1_"  overflow="visible"/>
	</clipPath>
	<g clip-path="url(#SVGID_2_)">
		<defs>
			<rect id="SVGID_3_" width="900" height="500"/>
		</defs>
		<clipPath id="SVGID_4_">
			<use xlink:href="#SVGID_3_"  overflow="visible"/>
		</clipPath>
		<rect clip-path="url(#SVGID_4_)" fill="none" stroke="#000000" stroke-miterlimit="10" width="900" height="500"/>
	</g>
	<g clip-path="url(#SVGID_2_)">
		<defs>
			<rect id="SVGID_5_" width="900" height="500"/>
		</defs>
		<clipPath id="SVGID_6_">
			<use xlink:href="#SVGID_5_"  overflow="visible"/>
		</clipPath>
		<path clip-path="url(#SVGID_6_)" fill="#FFFFFF" d="M721.929,211.857c-32.399-30.372-70.354-38.206-80.388-39.807
			c6.755-18.227,17.198-45.329,19.8-49.343c0.837-0.114,2.546-0.289,5.069-0.289c7.372,0,23.146,1.531,45.967,11.803
			c32.954,14.828,41.775,31.513,43.509,35.593L721.929,211.857z"/>
		<path clip-path="url(#SVGID_6_)" fill="#A0C6F4" d="M666.411,124.419c7.212,0,22.666,1.511,45.146,11.625
			c29.814,13.417,39.449,28.415,41.986,33.49l-31.825,39.404c-19.153-17.438-39.798-27.07-54.077-32.141
			c-10.124-3.596-18.411-5.438-23.379-6.331c7.465-20.066,15.589-40.723,18.317-45.887
			C663.465,124.498,664.748,124.419,666.411,124.419 M666.411,120.418c-4.01,0-6.069,0.423-6.069,0.423
			c-2.343,0.782-21.538,52.844-21.538,52.844s45.563,4.647,83.318,41.116l36.038-44.62c0,0-6.013-20.256-44.964-37.783
			C690.373,122.126,674.463,120.418,666.411,120.418"/>
		
			<path clip-path="url(#SVGID_6_)" fill="none" stroke="#2A1E17" stroke-linecap="round" stroke-linejoin="round" stroke-miterlimit="10" d="
			M645.492,177.728c0,0,44.802,4.525,72.408,29.869"/>
		<polygon clip-path="url(#SVGID_6_)" fill="#A0C6F4" points="684.18,175.543 700.894,143.044 718.072,176.936 		"/>
		
			<polygon clip-path="url(#SVGID_6_)" fill="none" stroke="#2A1E17" stroke-linecap="round" stroke-linejoin="round" stroke-miterlimit="10" points="
			687.43,175.078 704.144,142.581 721.322,176.471 		"/>
		
			<path clip-path="url(#SVGID_6_)" fill="none" stroke="#2A1E17" stroke-linecap="round" stroke-linejoin="round" stroke-miterlimit="10" d="
			M671.739,118.444c0,0,50.233,4.526,81.461,41.634"/>
		<path clip-path="url(#SVGID_6_)" fill="#2A1E17" d="M697.407,262.463c-2.76-2.028-4.569-3.388-4.569-3.388
			c0.765-1.022,12.854-13.899,19.852-24.278C712.689,234.797,698.535,263.292,697.407,262.463"/>
		
			<path clip-path="url(#SVGID_6_)" fill="none" stroke="#2A1E17" stroke-linecap="round" stroke-linejoin="round" stroke-miterlimit="10" d="
			M526.12,168.592c1.347,2.244,1.945,1.346,5.833,1.046c3.891-0.298,9.424,2.543,11.37,7.33c1.943,4.788,1.346,5.535,0.3,6.134
			c-1.049,0.597-8.528,1.495-8.827,2.992"/>
		<polygon clip-path="url(#SVGID_6_)" fill="#F9865F" points="626.891,412.054 623.408,406.163 611.045,426.771 614.289,429.267 		
			"/>
		<path clip-path="url(#SVGID_6_)" fill="#F9865F" d="M544.798,360.953c0,0-6.407-10.416-3.657-15.521l20.437,2.188L544.798,360.953
			z"/>
		<path clip-path="url(#SVGID_6_)" d="M544.798,360.953l1.226,2.812l-3.776,14.727c-0.477,1.854,0.14,3.815,1.59,5.065l18.69-27.629
			c1.774-2.623,1.373-6.151-0.95-8.308l-4.176-3.881L544.798,360.953z"/>
		<path clip-path="url(#SVGID_6_)" fill="#2A1E33" d="M534.796,186.094c5.854-0.14,13.271-0.51,11.786-4.96
			c-1.483-4.451-7.045-15.577-19.655-12.238c0,0-4.45,3.708,1.113,10.383C533.604,185.954,534.796,186.094,534.796,186.094"/>
		<path clip-path="url(#SVGID_6_)" fill="#7595EC" d="M564.422,347.865c0,0-9.993-29.496-1.538-42.448
			c6.978-10.69,29.773,6.696,32.896,9.04L612.091,285c0,0-3.766-5.281-13.01-10.446c-9.243-5.172-47.433-20.65-65.378,7.666
			c-6.636,10.465-6.734,55.373,5.985,72.583L564.422,347.865z"/>
		
			<path clip-path="url(#SVGID_6_)" fill="none" stroke="#2A1E17" stroke-linecap="round" stroke-linejoin="round" stroke-miterlimit="10" d="
			M564.422,347.865c0,0-9.993-29.496-1.538-42.448c6.978-10.69,29.773,6.696,32.896,9.04"/>
		<path clip-path="url(#SVGID_6_)" fill="#7595EC" d="M612.091,285c-7.418,7.807-29.41,45.849-34.357,64.028
			c-6.615,24.317-4.128,44.489,32.232,83.979l17.575-25.597c0,0-12.358-18.767-10.051-36.455
			c3.338-25.588,21.549-50.401,30.763-66.14L612.091,285z"/>
		<polygon clip-path="url(#SVGID_6_)" fill="#2A1E17" points="614.883,288.305 644.119,311.25 652.855,297.967 		"/>
		<path clip-path="url(#SVGID_6_)" fill="#FF8A66" d="M782.802,264.181c4.559,0.978,8.034,2.712,10.42,5.21
			c2.388,2.496,1.304,3.8,0.435,4.558c-0.869,0.761-4.232-0.106-7.164-2.712S782.802,264.181,782.802,264.181"/>
		<path clip-path="url(#SVGID_6_)" fill="#F9865F" d="M692.838,259.075c0.765-1.022,12.854-13.899,19.852-24.277
			c0,0,21.153,23.703,23.449,24.468c0.853,0.282,6.039,0.217,12.479,0.148c10.884-0.111,25.353-0.221,28.555,1.379
			c5.1,2.55,8.156,3.824,9.432,7.393c1.271,3.569,1.775,5.898-1.275,6.117c-3.568,0.255-5.86-4.332-5.86-4.332
			s-2.915,1.76-10.451,4.587c0,0-27.108,10.523-45.227,5.434C718.842,278.603,692.838,259.075,692.838,259.075"/>
		<path clip-path="url(#SVGID_6_)" fill="#F9865F" d="M528.514,164.404c-2.326,0.885-3.739,1.944-2.394,4.188
			c1.347,2.244,1.945,1.346,5.833,1.046c3.891-0.298,9.424,2.543,11.37,7.33c1.943,4.788,1.346,5.535,0.3,6.134
			c-1.049,0.597-8.528,1.495-8.827,2.992c-0.3,1.495,3.029,5.911,9.912,5.612l1.645-0.3c0,0,14.472,14.133,16.566,16.229
			c2.094,2.094,17.484,12.521,25.961,14.641c6.444,1.609,19.499-0.468,27.343-2c3.813-0.74,6.393-1.355,6.393-1.355
			s-5.888-10.605-7.084-26.911c0,0-14.083,2.264-23.443,4.317c0,0-21.841-12.176-32.46-17.562c0,0-9.276-11.367-13.613-12.864
			C541.677,164.404,531.656,163.207,528.514,164.404"/>
		<path clip-path="url(#SVGID_6_)" fill="#2A1E17" d="M616.223,220.274c3.813-0.74,6.393-1.355,6.393-1.355
			s-7.122-8.978-8.318-25.283c0,0-3.219,3.471-2.218,12.705C613.338,217.948,616.223,220.274,616.223,220.274"/>
		<path clip-path="url(#SVGID_6_)" fill="#FFF7C9" d="M613.954,191.812c0,0,0.194,19.925,5.535,28.234l1.913-0.764
			c0,0-25.156,29.429-33.291,48.657c-1.331,3.146,52.227,37.359,60.142,36.877c0,0,26.095-39.826,35.021-51.632l9.591,7.432
			c0,0,18.814-19.051,19.824-25.818c0,0-18.172-22.113-33.039-28.586c-14.866-6.474-28.15-17.565-44.122-17.266
			C621.705,189.209,613.954,191.812,613.954,191.812"/>
		<polygon clip-path="url(#SVGID_6_)" fill="#2A1E17" points="692.865,260.616 683.274,253.185 684.801,249.018 		"/>
		<path clip-path="url(#SVGID_6_)" fill="#F9865F" d="M707.455,181.833c-1.68,5.223-6.529,20.334-11.938,22.201
			c-5.411,1.865-11.044-0.478-11.044-0.478l-5.762,2.948c-0.644,1.931-5.191,3.591-11.064,3.816
			c-4.35,0.167-6.996-5.417-5.709-9.459c0.59-1.855,2.797-11.006,2.797-11.006s4.665-17.162,8.956-20.708
			c4.29-3.544,8.322-7.054,19.775-2.424C711,173.812,707.455,181.833,707.455,181.833"/>
		<path clip-path="url(#SVGID_6_)" fill="#2A1E33" d="M672.691,182.577c-0.77,3.208-4.104,9.623-6.287,8.468
			c-2.18-1.155-2.95-4.107-1.411-9.751c1.54-5.645,2.824-18.475,7.187-20.785c4.36-2.309,6.287,0.385,6.287,0.385
			s-1.927-9.367,3.72-10.649c0,0,1.923-0.898,1.154,5.517c0,0,2.181-5.902,9.238-5.132c7.057,0.771,9.493,10.649,9.493,10.649
			s0.514-2.695,3.722-2.695s8.084,4.748,6.929,10.008c0,0,8.208-2.569,12.573,3.978c4.36,6.542,3.848,13.728-6.675,16.549
			c-10.998,2.953-10.903-9.877-12.572-11.545c-1.67-1.668-3.463-3.593-9.623-1.283c-6.156,2.308-12.572-4.49-12.572-4.49
			s-1.026,8.211-2.052,8.981c-1.026,0.769-3.081,1.796-2.567-2.054c0.513-3.848,1.155-3.463,0.77-4.489
			c-0.384-1.027-2.121-4.265-5.774-1.412C670.127,176.034,672.691,182.577,672.691,182.577"/>
		
			<path clip-path="url(#SVGID_6_)" fill="none" stroke="#2A1E33" stroke-linecap="round" stroke-linejoin="round" stroke-miterlimit="10" d="
			M674.438,184.013c-2.446-2.056-4.146-5.677-1.992-9.3c2.155-3.622,5.679-4.112,6.755-2.741c1.078,1.371,1.494,3.681,0.481,6.422"
			/>
		<path clip-path="url(#SVGID_6_)" d="M614.289,429.267l1.225,2.813l-3.776,14.724c-0.475,1.854,0.141,3.815,1.59,5.066
			l18.692-27.627c1.773-2.626,1.371-6.152-0.95-8.309l-4.177-3.88L614.289,429.267z"/>
		
			<path clip-path="url(#SVGID_6_)" fill="none" stroke="#2A1E33" stroke-linecap="round" stroke-linejoin="round" stroke-miterlimit="10" d="
			M678.467,160.894c0,0-1.434-4.656-5.724-5.881"/>
		
			<line clip-path="url(#SVGID_6_)" fill="none" stroke="#2A1E17" stroke-linecap="round" stroke-linejoin="round" stroke-miterlimit="10" x1="587.525" y1="266.535" x2="639.306" y2="194.201"/>
		
			<path clip-path="url(#SVGID_6_)" fill="none" stroke="#2A1E17" stroke-linecap="round" stroke-linejoin="round" stroke-miterlimit="10" d="
			M660.65,199.262c-1.866,2.426-2.715,12.863,5.867,13.542c8.584,0.676,14.07-3.094,14.07-3.094"/>
		
			<path clip-path="url(#SVGID_6_)" fill="none" stroke="#2A1E17" stroke-linecap="round" stroke-linejoin="round" stroke-miterlimit="10" d="
			M546.015,165.899c0,0,5.92,7.833,6.85,10.625"/>
		
			<path clip-path="url(#SVGID_6_)" fill="none" stroke="#2A1E17" stroke-linecap="round" stroke-linejoin="round" stroke-miterlimit="10" d="
			M767.637,270.928c0,0,3.954,3.255,11.831-0.956c2.854-1.529,0.82-5.145-2.794-4.24c-3.614,0.903-7.906-0.452-7.906-0.452"/>
		
			<path clip-path="url(#SVGID_6_)" fill="none" stroke="#2A1E17" stroke-linecap="round" stroke-linejoin="round" stroke-miterlimit="10" d="
			M784.159,264.633c0,0,3.794,4.425,3.688,7.054"/>
		
			<path clip-path="url(#SVGID_6_)" fill="none" stroke="#2A1E17" stroke-linecap="round" stroke-linejoin="round" stroke-miterlimit="10" d="
			M728.323,264.15c0,0,3.429-4.571,7.815-4.884"/>
		
			<path clip-path="url(#SVGID_6_)" fill="none" stroke="#2A1E17" stroke-linecap="round" stroke-linejoin="round" stroke-miterlimit="10" d="
			M583.67,203.709c0,0,2.001-6.238,8.418-7.384"/>
		
			<path clip-path="url(#SVGID_6_)" fill="none" stroke="#2A1E17" stroke-linecap="round" stroke-linejoin="round" stroke-miterlimit="10" d="
			M601.058,298.385l-7.655,14.646c0,0-25.241,42.714-16.677,70.308"/>
		
			<path clip-path="url(#SVGID_6_)" fill="none" stroke="#2A1E17" stroke-linecap="round" stroke-linejoin="round" stroke-miterlimit="10" d="
			M623.418,347.392l24.835-42.575c0,0,32.552-47.207,35.88-53.869l11.487-21.25"/>
		
			<path clip-path="url(#SVGID_6_)" fill="none" stroke="#2A1E17" stroke-linecap="round" stroke-linejoin="round" stroke-miterlimit="10" d="
			M590.992,271.068c0,0,44.166,32.199,57.261,33.748"/>
		
			<path clip-path="url(#SVGID_6_)" fill="none" stroke="#2A1E17" stroke-linecap="round" stroke-linejoin="round" stroke-miterlimit="10" d="
			M613.954,191.812c0,0-0.04,20.207,5.406,28.493"/>
		
			<path clip-path="url(#SVGID_6_)" fill="none" stroke="#2A1E17" stroke-linecap="round" stroke-linejoin="round" stroke-miterlimit="10" d="
			M711.271,231.597c-1.385,8.327-19.823,25.818-19.823,25.818"/>
		<path clip-path="url(#SVGID_6_)" fill="#2A1E17" d="M576.334,332.699c0,1.45-1.173,2.622-2.623,2.622
			c-1.448,0-2.622-1.172-2.622-2.622c0-1.447,1.174-2.622,2.622-2.622C575.161,330.077,576.334,331.252,576.334,332.699"/>
		
			<polygon clip-path="url(#SVGID_6_)" fill="none" stroke="#2A1E17" stroke-linecap="round" stroke-linejoin="round" stroke-miterlimit="10" points="
			819.754,389.053 818.304,379.02 826.858,384.709 822.382,385.687 		"/>
		
			<path clip-path="url(#SVGID_6_)" fill="none" stroke="#2A1E17" stroke-linecap="round" stroke-linejoin="round" stroke-miterlimit="10" d="
			M536.011,217.817c-16.212-14.305-43.003,21.366,55.032,134.903c56.549,65.498,100.982,71.37,107.002,48.585
			c10.798-40.881-28.201-51.215-13.689-35.203c21.1,23.282,81.117,28.201,125.842,6.476c44.129-21.439,17.005-54.731,14.265-56.674"
			/>
		<path clip-path="url(#SVGID_6_)" fill="#2A1E17" d="M813.525,372.373c0,1.447-1.174,2.622-2.621,2.622
			c-1.448,0-2.623-1.175-2.623-2.622c0-1.448,1.175-2.623,2.623-2.623C812.352,369.75,813.525,370.925,813.525,372.373"/>
		
			<line clip-path="url(#SVGID_6_)" fill="none" stroke="#2A1E17" stroke-linecap="round" stroke-linejoin="round" stroke-miterlimit="10" x1="772.745" y1="393.776" x2="850.477" y2="349.964"/>
		<path clip-path="url(#SVGID_6_)" fill="#2A1E17" d="M540.251,219.938c0,1.447-1.174,2.624-2.622,2.624
			c-1.447,0-2.621-1.176-2.621-2.624c0-1.449,1.174-2.624,2.621-2.624C539.077,217.314,540.251,218.488,540.251,219.938"/>
		<path clip-path="url(#SVGID_6_)" fill="#FF6D66" d="M610.123,165.796c0,3.106-2.519,5.625-5.627,5.625
			c-3.106,0-5.627-2.519-5.627-5.625c0-3.107,2.521-5.626,5.627-5.626C607.604,160.169,610.123,162.688,610.123,165.796"/>
		<path clip-path="url(#SVGID_6_)" fill="#A0C6F4" d="M502.405,122.883c-1.365,0-2.474,1.107-2.474,2.473
			c0,1.366,1.108,2.473,2.474,2.473c1.367,0,2.474-1.107,2.474-2.473C504.879,123.99,503.772,122.883,502.405,122.883"/>
		<path clip-path="url(#SVGID_6_)" fill="#FAD8B0" d="M836.275,427.59c0,1.366-1.105,2.474-2.474,2.474
			c-1.363,0-2.471-1.107-2.471-2.474c0-1.365,1.107-2.475,2.471-2.475C835.17,425.115,836.275,426.225,836.275,427.59"/>
		<path clip-path="url(#SVGID_6_)" fill="#2A1E33" d="M789.613,315.894l-26.587-12.479c-2.146-1.008-2.11-4.069,0.062-5.025
			l49.464-21.766c0.699-0.307,1.497-0.311,2.199-0.008l33.975,14.584L789.613,315.894z"/>
		<path clip-path="url(#SVGID_6_)" fill="#C6CBCB" d="M787.967,274.886c0.066,11.001,1.644,41.008,1.644,41.008l59.115-24.694
			l-1.325-41.752c-0.081-2.563-2.746-4.216-5.076-3.153l-50.898,23.196C789.31,270.451,787.952,272.562,787.967,274.886"/>
		
			<path clip-path="url(#SVGID_6_)" fill="none" stroke="#2A1E17" stroke-linecap="round" stroke-linejoin="round" stroke-miterlimit="10" d="
			M789.613,315.894l59.112-24.693l-1.325-41.753c0,0-0.394-4.559-5.076-3.153"/>
		
			<line clip-path="url(#SVGID_6_)" fill="none" stroke="#2A1E17" stroke-linecap="round" stroke-linejoin="round" stroke-miterlimit="10" x1="818.224" y1="285.883" x2="822.215" y2="276.449"/>
		
			<line clip-path="url(#SVGID_6_)" fill="none" stroke="#2A1E17" stroke-linecap="round" stroke-linejoin="round" stroke-miterlimit="10" x1="822.215" y1="285.883" x2="826.207" y2="276.449"/>
		<path clip-path="url(#SVGID_6_)" fill="#FF6D66" d="M515.541,386.313c0,1.368-1.107,2.475-2.472,2.475
			c-1.368,0-2.474-1.106-2.474-2.475c0-1.363,1.105-2.473,2.474-2.473C514.434,383.84,515.541,384.949,515.541,386.313"/>
		<path clip-path="url(#SVGID_6_)" fill="#FF6D66" d="M725.035,398.567c0,1.897-1.539,3.436-3.437,3.436s-3.437-1.538-3.437-3.436
			s1.539-3.437,3.437-3.437S725.035,396.67,725.035,398.567"/>
		<path clip-path="url(#SVGID_6_)" fill="#FFF7DC" d="M538.699,422.985c4.024,1.929,15.731,6.797,31.228,6.695
			c0.851-0.006,1.507,0.746,1.399,1.585l-2.157,17.127c-0.076,0.609-0.538,1.099-1.142,1.21c-4.377,0.822-22.021,3.244-35.217-7.947
			c-0.412-0.35-0.58-0.911-0.439-1.435l4.361-16.324C536.961,423.042,537.904,422.604,538.699,422.985"/>
		
			<path clip-path="url(#SVGID_6_)" fill="none" stroke="#2A1E17" stroke-linecap="round" stroke-linejoin="round" stroke-miterlimit="10" d="
			M540.249,428.018c0,0,7.626,10.714,10.344,12.247c2.719,1.535,17.396-7.214,17.396-7.214"/>
		
			<line clip-path="url(#SVGID_6_)" fill="none" stroke="#2A1E17" stroke-linecap="round" stroke-linejoin="round" stroke-miterlimit="10" x1="557.779" y1="438.772" x2="565.789" y2="447.006"/>
		
			<line clip-path="url(#SVGID_6_)" fill="none" stroke="#2A1E17" stroke-linecap="round" stroke-linejoin="round" stroke-miterlimit="10" x1="546.653" y1="437.186" x2="537.285" y2="439.732"/>
		<rect x="774.996" y="220.387" clip-path="url(#SVGID_6_)" fill="#FFE1C0" width="8.948" height="8.949"/>
		<polygon clip-path="url(#SVGID_6_)" fill="#A0C6F4" points="776.209,341.085 778.867,345.691 781.528,350.298 776.209,350.298 
			770.89,350.298 773.55,345.691 		"/>
		
			<path clip-path="url(#SVGID_6_)" fill="none" stroke="#2A1E17" stroke-linecap="round" stroke-linejoin="round" stroke-miterlimit="10" d="
			M561.152,137.008l0.694-20.913c-0.075-1.953,0.721-2.575,1.925-2.84c5.681-1.257,22.95-5.107,41.731,0.445
			c2.428,0.718,2.353,2.002,2.313,3.158l-0.675,19.939c-0.048,1.464-1.578,2.523-3.284,2.274c-5.483-0.803-12.942-1.05-20.519-0.987
			c-7.826,0.066-14.799,0.648-19.68,1.588C561.796,140.03,561.098,138.642,561.152,137.008z"/>
		
			<path clip-path="url(#SVGID_6_)" fill="none" stroke="#2A1E17" stroke-linecap="round" stroke-linejoin="round" stroke-miterlimit="10" d="
			M567.475,133.95l10.932-12.796l12.101,11.943C586.336,131.737,567.475,133.95,567.475,133.95z"/>
		
			<polyline clip-path="url(#SVGID_6_)" fill="none" stroke="#2A1E17" stroke-linecap="round" stroke-linejoin="round" stroke-miterlimit="10" points="
			585.107,127.077 593.943,120.005 601.392,125.319 601.672,133.629 590.506,133.097 		"/>
		
			<path clip-path="url(#SVGID_6_)" fill="none" stroke="#2A1E17" stroke-linecap="round" stroke-linejoin="round" stroke-miterlimit="10" d="
			M572.231,119.876c0.115,1.008-0.748,1.878-1.93,1.943c-1.182,0.065-2.233-0.7-2.349-1.708c-0.117-1.008,0.748-1.878,1.931-1.942
			C571.064,118.103,572.117,118.869,572.231,119.876z"/>
		
			<path clip-path="url(#SVGID_6_)" fill="none" stroke="#2A1E17" stroke-linecap="round" stroke-linejoin="round" stroke-miterlimit="10" d="
			M772.547,408.709l7.334,13.541c0.772,1.213,0.499,1.904-0.167,2.52c-3.142,2.91-12.679,11.774-26.674,15.231
			c-1.808,0.446-2.236-0.399-2.643-1.148l-6.986-12.913c-0.511-0.95,0.066-2.192,1.243-2.667c3.781-1.528,8.611-4.144,13.399-6.999
			c4.947-2.952,9.159-5.915,11.912-8.326C771.016,407.026,771.974,407.648,772.547,408.709z"/>
		
			<path clip-path="url(#SVGID_6_)" fill="none" stroke="#2A1E17" stroke-linecap="round" stroke-linejoin="round" stroke-miterlimit="10" d="
			M769.67,412.999l-2.188,12.194l-12.127-3.09C758.51,421.417,769.67,412.999,769.67,412.999z"/>
		
			<polyline clip-path="url(#SVGID_6_)" fill="none" stroke="#2A1E17" stroke-linecap="round" stroke-linejoin="round" stroke-miterlimit="10" points="
			761.024,423.921 758.038,431.7 751.331,431.092 748.066,425.917 755.355,422.104 		"/>
		
			<path clip-path="url(#SVGID_6_)" fill="none" stroke="#2A1E17" stroke-linecap="round" stroke-linejoin="round" stroke-miterlimit="10" d="
			M771.879,423.707c-0.448-0.596-0.224-1.469,0.504-1.95c0.725-0.48,1.679-0.387,2.127,0.211c0.447,0.598,0.222,1.472-0.506,1.952
			C773.277,424.398,772.326,424.305,771.879,423.707z"/>
		<path clip-path="url(#SVGID_6_)" fill="#FFFFFF" d="M736.848,177.528l29.795,22.806c0.652,0.499,1.59,0.367,2.079-0.296
			l4.499-6.097c0.468-0.637,0.352-1.531-0.266-2.023l-29.375-23.503c-0.656-0.526-1.618-0.395-2.112,0.286l-4.918,6.797
			C736.082,176.143,736.213,177.044,736.848,177.528"/>
		
			<path clip-path="url(#SVGID_6_)" fill="none" stroke="#2A1E17" stroke-linecap="round" stroke-linejoin="round" stroke-miterlimit="10" d="
			M736.848,177.528l29.795,22.806c0.652,0.499,1.59,0.367,2.079-0.296l4.499-6.097c0.468-0.637,0.352-1.531-0.266-2.023
			l-29.375-23.503c-0.656-0.526-1.618-0.395-2.112,0.286l-4.918,6.797C736.082,176.143,736.213,177.044,736.848,177.528z"/>
		<polygon clip-path="url(#SVGID_6_)" fill="#FF6D66" points="739.053,176.51 746.277,181.581 750.542,176.492 743.313,170.465 		
			"/>
		<polygon clip-path="url(#SVGID_6_)" fill="#FAD8B0" points="748.999,183.557 756.234,189.299 760.111,184.526 752.827,178.617 		
			"/>
		<polygon clip-path="url(#SVGID_6_)" fill="#A0C6F4" points="758.668,191.503 765.894,196.573 769.335,192.151 762.49,186.422 		
			"/>
		<path clip-path="url(#SVGID_6_)" fill="#FFFFFF" d="M796.299,145.646l6.788,57.057c0.146,1.251,1.295,2.137,2.545,1.965
			l11.496-1.573c1.198-0.164,2.053-1.246,1.937-2.451l-5.572-57.34c-0.125-1.283-1.296-2.2-2.569-2.012l-12.712,1.858
			C797.001,143.327,796.154,144.435,796.299,145.646"/>
		
			<path clip-path="url(#SVGID_6_)" fill="none" stroke="#2A1E17" stroke-linecap="round" stroke-linejoin="round" stroke-miterlimit="10" d="
			M796.299,145.646l6.788,57.057c0.146,1.251,1.295,2.137,2.545,1.965l11.496-1.573c1.198-0.164,2.053-1.246,1.937-2.451
			l-5.572-57.34c-0.125-1.283-1.296-2.2-2.569-2.012l-12.712,1.858C797.001,143.327,796.154,144.435,796.299,145.646z"/>
		<polygon clip-path="url(#SVGID_6_)" fill="#FF6D66" points="799.771,146.979 801.922,160.324 812.06,159.571 810.959,145.201 		
			"/>
		<polygon clip-path="url(#SVGID_6_)" fill="#91BA83" points="802.655,165.422 804.083,179.494 813.461,178.653 812.168,164.35 		
			"/>
		<polygon clip-path="url(#SVGID_6_)" fill="#FAD8B0" points="804.261,184.521 806.413,197.865 814.943,196.919 813.918,183.291 		
			"/>
		<path clip-path="url(#SVGID_6_)" fill="#FFFFFF" d="M781.477,157.794l18.801,55.266c0.322,0.948,1.363,1.45,2.305,1.109
			l11.776-4.24c0.907-0.324,1.394-1.309,1.103-2.227l-17.656-55.813c-0.307-0.977-1.37-1.496-2.331-1.141l-12.924,4.787
			C781.64,155.873,781.164,156.875,781.477,157.794"/>
		
			<path clip-path="url(#SVGID_6_)" fill="none" stroke="#2A1E17" stroke-linecap="round" stroke-linejoin="round" stroke-miterlimit="10" d="
			M781.477,157.794l18.801,55.266c0.322,0.948,1.363,1.45,2.305,1.109l11.776-4.24c0.907-0.324,1.394-1.309,1.103-2.227
			l-17.656-55.813c-0.307-0.977-1.37-1.496-2.331-1.141l-12.924,4.787C781.64,155.873,781.164,156.875,781.477,157.794z"/>
		<polygon clip-path="url(#SVGID_6_)" fill="#A0C6F4" points="785.294,158.802 790.176,171.408 799.935,168.562 795.867,154.736 		
			"/>
		<polygon clip-path="url(#SVGID_6_)" fill="#F9865F" points="791.953,176.241 796.274,189.707 805.273,186.935 801.035,173.214 		
			"/>
		<polygon clip-path="url(#SVGID_6_)" fill="#FAD8B0" points="797.494,194.586 802.373,207.193 810.52,204.495 806.686,191.377 		
			"/>
		<path clip-path="url(#SVGID_6_)" fill="#7595EC" d="M639.779,251.411h-94.945c-3.028,0-5.482-2.457-5.482-5.484v-12.841
			c0-3.03,2.454-5.484,5.482-5.484h94.945c3.027,0,5.482,2.454,5.482,5.484v12.841C645.262,248.955,642.807,251.411,639.779,251.411
			"/>
		<path clip-path="url(#SVGID_6_)" fill="#FFFFFF" d="M604.206,238.234h-51.76c-0.999,0-1.813-0.81-1.813-1.811
			c0-1.002,0.813-1.812,1.813-1.812h51.76c1.001,0,1.812,0.81,1.812,1.812C606.018,237.424,605.207,238.234,604.206,238.234"/>
		
			<line clip-path="url(#SVGID_6_)" fill="none" stroke="#2A1E17" stroke-linecap="round" stroke-linejoin="round" stroke-miterlimit="10" x1="551.151" y1="242.927" x2="639.145" y2="242.927"/>
		<path clip-path="url(#SVGID_6_)" fill="#91BA83" d="M507.632,184.454l-1.499-1.641l-4.96,4.53l1.501,1.642
			c0.632,0.692,1.704,0.74,2.396,0.109l2.454-2.244C508.215,186.221,508.266,185.146,507.632,184.454"/>
		
			<path clip-path="url(#SVGID_6_)" fill="none" stroke="#2A1E17" stroke-linecap="round" stroke-linejoin="round" stroke-miterlimit="10" d="
			M498.984,173.837l7.061,7.73c0.366,0.401,0.337,1.021-0.063,1.385l-4.881,4.455c-0.398,0.367-1.018,0.339-1.383-0.061
			l-7.061-7.731c-0.366-0.399-0.337-1.018,0.063-1.384l4.877-4.455C497.999,173.41,498.619,173.438,498.984,173.837z"/>
		<rect x="476.41" y="214.742" clip-path="url(#SVGID_6_)" fill="#FF6D66" width="8.869" height="8.1"/>
		
			<polyline clip-path="url(#SVGID_6_)" fill="none" stroke="#2A1E17" stroke-linecap="round" stroke-linejoin="round" stroke-miterlimit="10" points="
			476.41,209.529 476.41,214.741 471.104,214.741 		"/>
		<rect x="768.658" y="123.273" clip-path="url(#SVGID_6_)" fill="#FAD8B0" width="8.873" height="8.1"/>
		
			<polyline clip-path="url(#SVGID_6_)" fill="none" stroke="#2A1E17" stroke-linecap="round" stroke-linejoin="round" stroke-miterlimit="10" points="
			768.658,118.06 768.658,123.272 763.354,123.272 		"/>
	</g>
</g>
</svg>
