<?xml version="1.0" encoding="utf-8"?>
<!-- Generator: Adobe Illustrator 16.0.0, SVG Export Plug-In . SVG Version: 6.00 Build 0)  -->
<!DOCTYPE svg PUBLIC "-//W3C//DTD SVG 1.1//EN" "http://www.w3.org/Graphics/SVG/1.1/DTD/svg11.dtd">
<svg version="1.1" xmlns="http://www.w3.org/2000/svg" xmlns:xlink="http://www.w3.org/1999/xlink" x="0px" y="0px" width="500px"
	 height="500px" viewBox="0 0 500 500" style="enable-background:new 0 0 500 500;" xml:space="preserve">
<g id="Background_Complete">
	<g>
		<rect x="416.78" y="398.49" style="fill:#EBEBEB;" width="33.12" height="0.25"/>
		<rect x="322.53" y="401.21" style="fill:#EBEBEB;" width="8.69" height="0.25"/>
		<rect x="396.59" y="389.21" style="fill:#EBEBEB;" width="19.19" height="0.25"/>
		<rect x="52.46" y="390.89" style="fill:#EBEBEB;" width="43.19" height="0.25"/>
		<rect x="104.56" y="390.89" style="fill:#EBEBEB;" width="6.33" height="0.25"/>
		<rect x="131.47" y="395.11" style="fill:#EBEBEB;" width="93.68" height="0.25"/>
		<path style="fill:#EBEBEB;" d="M237.01,337.8H43.92c-3.15,0-5.71-2.56-5.71-5.71V60.66c0-3.15,2.56-5.71,5.71-5.71h193.1
			c3.15,0,5.71,2.56,5.71,5.71v271.43C242.72,335.24,240.16,337.8,237.01,337.8z M43.92,55.2c-3.01,0-5.46,2.45-5.46,5.46v271.43
			c0,3.01,2.45,5.46,5.46,5.46h193.1c3.01,0,5.46-2.45,5.46-5.46V60.66c0-3.01-2.45-5.46-5.46-5.46H43.92z"/>
		<path style="fill:#EBEBEB;" d="M453.31,337.8h-193.1c-3.15,0-5.71-2.56-5.71-5.71V60.66c0-3.15,2.56-5.71,5.71-5.71h193.1
			c3.15,0,5.71,2.56,5.71,5.71v271.43C459.02,335.24,456.46,337.8,453.31,337.8z M260.21,55.2c-3.01,0-5.46,2.45-5.46,5.46v271.43
			c0,3.01,2.45,5.46,5.46,5.46h193.1c3.01,0,5.46-2.45,5.46-5.46V60.66c0-3.01-2.45-5.46-5.46-5.46H260.21z"/>
		<rect y="382.4" style="fill:#EBEBEB;" width="500" height="0.25"/>
	</g>
	<g>
		<g>
			<g>
				<g>
					<polygon style="fill:#F5F5F5;" points="314.72,171.9 169.02,171.9 177.71,72.6 323.41,72.6 					"/>
				</g>
				<g>
					<g>
						<rect x="185.97" y="154.22" style="fill:#E0E0E0;" width="79.09" height="0.78"/>
					</g>
					<g>
						<g>
							<path style="fill:#E0E0E0;" d="M266.76,139.82h-79.78l0.04-0.42l4.8-54.92h79.78l-0.04,0.42L266.76,139.82z M187.83,139.03
								h78.21l4.71-53.78h-78.21L187.83,139.03z"/>
						</g>
					</g>
					<g>
						<path style="fill:#E0E0E0;" d="M190.23,166.01h-2.15c-0.9,0-1.72-0.35-2.31-0.99c-0.59-0.64-0.87-1.5-0.79-2.4l0.19-2.15
							c0.16-1.84,1.79-3.33,3.62-3.33h2.15c0.9,0,1.72,0.35,2.31,0.99c0.59,0.64,0.87,1.5,0.79,2.4l-0.19,2.15
							C193.69,164.52,192.07,166.01,190.23,166.01z M188.79,157.92c-1.44,0-2.72,1.17-2.84,2.62l-0.19,2.15
							c-0.06,0.69,0.15,1.33,0.59,1.81c0.44,0.48,1.05,0.74,1.73,0.74h2.15c1.44,0,2.72-1.17,2.84-2.62l0.19-2.15
							c0.06-0.69-0.15-1.33-0.59-1.81c-0.44-0.48-1.05-0.74-1.73-0.74H188.79z"/>
					</g>
					<g>
						<path style="fill:#E0E0E0;" d="M226.4,149.65h-40.28l0.37-4.27h40.28L226.4,149.65z M186.97,148.87h38.71l0.24-2.71h-38.71
							L186.97,148.87z"/>
					</g>
					<g>
						<path style="fill:#E0E0E0;" d="M264.62,163.71h-16.05l0.37-4.27h16.05L264.62,163.71z M249.42,162.93h14.48l0.24-2.71h-14.48
							L249.42,162.93z"/>
					</g>
					<g>
						<g>
							<path style="fill:#E0E0E0;" d="M265.9,149.65h-4.27l0.37-4.27h4.27L265.9,149.65z M262.47,148.87h2.7l0.24-2.71h-2.7
								L262.47,148.87z"/>
						</g>
						<g>
							<path style="fill:#E0E0E0;" d="M259.98,149.65h-4.27l0.37-4.27h4.27L259.98,149.65z M256.56,148.87h2.7l0.24-2.71h-2.7
								L256.56,148.87z"/>
						</g>
						<g>
							<path style="fill:#E0E0E0;" d="M254.07,149.65h-4.27l0.37-4.27h4.27L254.07,149.65z M250.65,148.87h2.7l0.24-2.71h-2.7
								L250.65,148.87z"/>
						</g>
					</g>
					<g>
						<path style="fill:#E0E0E0;" d="M271.96,80.33h-60.03l0.33-3.79h60.03L271.96,80.33z M212.78,79.55h58.46l0.2-2.22h-58.46
							L212.78,79.55z"/>
					</g>
					<g>
						<path style="fill:#E0E0E0;" d="M208.04,80.58h-16.04l0.37-4.27h16.05L208.04,80.58z M192.84,79.79h14.48l0.24-2.71h-14.48
							L192.84,79.79z"/>
					</g>
					<g>
						<g>
							<path style="fill:#E0E0E0;" d="M309.65,102.43h-28.19l1.41-16.2h28.19L309.65,102.43z M282.31,101.65h26.62l1.28-14.63
								h-26.62L282.31,101.65z"/>
						</g>
						<g>
							<path style="fill:#E0E0E0;" d="M306.99,132.84H278.8l1.42-16.2h28.19L306.99,132.84z M279.65,132.06h26.62l1.28-14.64h-26.62
								L279.65,132.06z"/>
						</g>
						<g>
							<path style="fill:#E0E0E0;" d="M304.33,163.25h-28.19l1.42-16.2h28.19L304.33,163.25z M276.99,162.47h26.62l1.28-14.64
								h-26.62L276.99,162.47z"/>
						</g>
					</g>
				</g>
			</g>
			<g>
				
					<rect x="295.87" y="78.02" transform="matrix(0.4733 0.8809 -0.8809 0.4733 239.1483 -211.2954)" style="fill:#E0E0E0;" width="0.78" height="32.63"/>
			</g>
			<g>
				
					<rect x="281.13" y="93.94" transform="matrix(0.8607 0.5092 -0.5092 0.8607 89.3066 -137.7003)" style="fill:#E0E0E0;" width="30.28" height="0.78"/>
			</g>
			<g>
				
					<rect x="293.21" y="108.43" transform="matrix(0.4718 0.8817 -0.8817 0.4718 265.0833 -192.9844)" style="fill:#E0E0E0;" width="0.78" height="32.63"/>
			</g>
			<g>
				
					<rect x="278.47" y="124.35" transform="matrix(0.8607 0.5092 -0.5092 0.8607 104.4243 -132.1141)" style="fill:#E0E0E0;" width="30.28" height="0.78"/>
			</g>
			<g>
				<path style="fill:#E0E0E0;" d="M276.11,163.54l1.47-16.75l13.37,7.91l14.18-7.6l0.37,0.69l-13.77,7.38l12.43,7.36l-0.4,0.67
					l-12.84-7.6L276.11,163.54z M278.25,148.09l-1.23,14.08l13.13-7.04L278.25,148.09z"/>
			</g>
			<g>
				<g>
					
						<rect x="228.9" y="62.16" transform="matrix(0.5452 0.8383 -0.8383 0.5452 198.3013 -141.2107)" style="fill:#E0E0E0;" width="0.78" height="99.97"/>
				</g>
				<g>
					
						<rect x="183.23" y="111.75" transform="matrix(0.8057 0.5923 -0.5923 0.8057 110.9696 -114.0196)" style="fill:#E0E0E0;" width="92.12" height="0.78"/>
				</g>
			</g>
		</g>
		<g>
			<g>
				<g>
					<polygon style="fill:#F5F5F5;" points="372.48,382.95 292.3,382.95 303.61,253.73 383.78,253.73 					"/>
				</g>
				<g>
					<g>
						<g>
							<path style="fill:#E0E0E0;" d="M318.52,377.18h-19.53l1.2-13.73h19.53L318.52,377.18z M299.86,376.39h17.93l1.06-12.14
								h-17.94L299.86,376.39z"/>
						</g>
						<g>
							<path style="fill:#E0E0E0;" d="M342.29,377.18h-19.53l1.2-13.73h19.53L342.29,377.18z M323.62,376.39h17.94l1.06-12.14
								h-17.93L323.62,376.39z"/>
						</g>
						<g>
							<path style="fill:#E0E0E0;" d="M366.05,377.18h-19.53l1.2-13.73h19.53L366.05,377.18z M347.39,376.39h17.93l1.06-12.14
								h-17.94L347.39,376.39z"/>
						</g>
					</g>
					<g>
						<rect x="302.26" y="343.94" style="fill:#E0E0E0;" width="66.27" height="0.79"/>
					</g>
					<g>
						<path style="fill:#E0E0E0;" d="M347.44,325.43H303.6l0.44-5.05h43.84L347.44,325.43z M304.46,324.64h42.25l0.3-3.47h-42.24
							L304.46,324.64z"/>
					</g>
					<g>
						<path style="fill:#E0E0E0;" d="M367.76,357.72h-18.18l0.44-4.99h18.18L367.76,357.72z M350.45,356.92h16.58l0.3-3.4h-16.58
							L350.45,356.92z"/>
					</g>
					<g>
						<g>
							<path style="fill:#E0E0E0;" d="M369.47,338.19h-6.91l0.6-6.9h6.91L369.47,338.19z M363.42,337.4h5.31l0.47-5.32h-5.31
								L363.42,337.4z"/>
						</g>
						<g>
							<path style="fill:#E0E0E0;" d="M339.42,338.19h-6.91l0.6-6.9h6.91L339.42,338.19z M333.37,337.4h5.31l0.47-5.32h-5.31
								L333.37,337.4z"/>
						</g>
						<g>
							<path style="fill:#E0E0E0;" d="M309.37,338.19h-6.91l0.6-6.9h6.91L309.37,338.19z M303.32,337.4h5.31l0.47-5.32h-5.31
								L303.32,337.4z"/>
						</g>
					</g>
					<g>
						<path style="fill:#E0E0E0;" d="M329.47,265.75h-20.65l0.47-5.33h20.65L329.47,265.75z M309.69,264.96h19.05l0.33-3.74h-19.05
							L309.69,264.96z"/>
					</g>
					<g>
						<path style="fill:#E0E0E0;" d="M307.22,359.1h-1.74c-1.28,0-2.45-0.5-3.28-1.41c-0.84-0.91-1.24-2.13-1.12-3.42l0.15-1.74
							c0.23-2.62,2.55-4.76,5.18-4.76h1.74c1.28,0,2.45,0.5,3.28,1.41c0.84,0.91,1.24,2.13,1.12,3.42l-0.15,1.74
							C312.17,356.97,309.84,359.1,307.22,359.1z M306.41,348.57c-2.22,0-4.19,1.81-4.38,4.03l-0.15,1.74
							c-0.09,1.07,0.23,2.06,0.92,2.81c0.68,0.74,1.64,1.15,2.7,1.15h1.74c2.22,0,4.19-1.81,4.38-4.03l0.15-1.74
							c0.09-1.06-0.23-2.06-0.92-2.81c-0.68-0.74-1.64-1.15-2.7-1.15H306.41z"/>
					</g>
					<g>
						<path style="fill:#E0E0E0;" d="M371.3,316.15h-66.93l0.04-0.43l4.03-46.04h66.93l-0.04,0.43L371.3,316.15z M305.24,315.35
							h65.33l3.93-44.88h-65.33L305.24,315.35z"/>
					</g>
				</g>
			</g>
			<g>
				<g>
					
						<rect x="301.32" y="292.51" transform="matrix(0.8057 0.5923 -0.5923 0.8057 239.5211 -144.3991)" style="fill:#E0E0E0;" width="77.11" height="0.8"/>
				</g>
				<g>
					
						<rect x="339.26" y="251.56" transform="matrix(0.5459 0.8379 -0.8379 0.5459 399.824 -151.4792)" style="fill:#E0E0E0;" width="0.8" height="83.11"/>
				</g>
				<g>
					
						<rect x="298.43" y="369.92" transform="matrix(0.8057 0.5923 -0.5923 0.8057 279.4384 -111.2864)" style="fill:#E0E0E0;" width="21.84" height="0.79"/>
				</g>
				<g>
					
						<rect x="308.96" y="358.46" transform="matrix(0.5459 0.8379 -0.8379 0.5459 450.751 -91.0345)" style="fill:#E0E0E0;" width="0.8" height="23.71"/>
				</g>
				<g>
					
						<rect x="322.2" y="369.92" transform="matrix(0.8057 0.5923 -0.5923 0.8057 284.0558 -125.3636)" style="fill:#E0E0E0;" width="21.84" height="0.79"/>
				</g>
				<g>
					
						<rect x="332.73" y="358.46" transform="matrix(0.5459 0.8379 -0.8379 0.5459 461.5431 -110.9467)" style="fill:#E0E0E0;" width="0.8" height="23.71"/>
				</g>
				<g>
					
						<rect x="345.97" y="369.92" transform="matrix(0.8057 0.5923 -0.5923 0.8057 288.673 -139.4399)" style="fill:#E0E0E0;" width="21.84" height="0.79"/>
				</g>
				<g>
					
						<rect x="356.49" y="358.46" transform="matrix(0.5459 0.8379 -0.8379 0.5459 472.336 -130.8602)" style="fill:#E0E0E0;" width="0.8" height="23.71"/>
				</g>
			</g>
		</g>
		<g>
			<path style="fill:#EBEBEB;" d="M396.77,102.43c0-2.28-0.34-4.48-0.97-6.56l5.75-5.06l-3.62-6.27l-7.26,2.46
				c-3-3.21-6.93-5.53-11.36-6.56l-1.51-7.51h-7.24l-1.5,7.51c-4.43,1.03-8.36,3.36-11.36,6.56l-7.26-2.46l-3.62,6.27l5.75,5.06
				c-0.63,2.07-0.97,4.28-0.97,6.56c0,2.29,0.34,4.48,0.97,6.56l-5.75,5.05l3.62,6.27l7.26-2.46c3,3.21,6.94,5.53,11.36,6.57
				l1.5,7.51h7.24l1.51-7.51c4.43-1.03,8.35-3.36,11.36-6.57l7.26,2.46l3.62-6.27l-5.75-5.05
				C396.43,106.91,396.77,104.71,396.77,102.43z M374.18,114.62c-6.48,0-11.73-5.26-11.73-11.74s5.25-11.74,11.73-11.74
				c6.48,0,11.74,5.26,11.74,11.74S380.67,114.62,374.18,114.62z"/>
		</g>
		<g>
			<path style="fill:#EBEBEB;" d="M148.73,292.48c1.94-3.68,3.27-7.52,4.01-11.39l13.58-3.26l-0.5-13.2l-13.79-2.22
				c-2.12-7.72-6.46-14.81-12.73-20.23l3.96-13.39l-11.68-6.16l-8.81,10.83c-8.01-2.11-16.33-1.7-23.9,0.92l-9.61-10.13l-11.17,7.03
				l4.97,13.05c-2.78,2.81-5.2,6.07-7.14,9.75c-1.94,3.68-3.26,7.52-4.02,11.4l-13.57,3.26l0.5,13.19l13.79,2.22
				c2.12,7.72,6.47,14.82,12.73,20.25l-3.97,13.38l11.68,6.16l8.82-10.83c8.01,2.1,16.32,1.68,23.89-0.93l9.62,10.13l11.17-7.03
				l-4.97-13.04C144.37,299.42,146.78,296.16,148.73,292.48z M101.95,292.93c-10.45-5.51-14.44-18.45-8.93-28.9
				c5.51-10.45,18.45-14.46,28.9-8.95c10.45,5.51,14.45,18.46,8.94,28.91C125.35,294.44,112.4,298.44,101.95,292.93z"/>
		</g>
		<g>
			<path style="fill:#EBEBEB;" d="M395.98,257.35l7.84,4.35c0.39,0.22,0.66,0.42,0.79,0.59s0.19,0.39,0.19,0.66
				c0,0.34-0.12,0.63-0.37,0.88c-0.25,0.25-0.53,0.37-0.85,0.37c-0.21,0-0.53-0.12-0.96-0.35l-10.12-5.63
				c-0.68-0.38-0.68-1.36,0-1.74l10.12-5.63c0.43-0.23,0.74-0.34,0.94-0.34c0.33,0,0.62,0.12,0.86,0.37
				c0.24,0.24,0.37,0.54,0.37,0.87c0,0.27-0.06,0.49-0.19,0.66c-0.13,0.17-0.39,0.37-0.79,0.59L395.98,257.35z"/>
			<path style="fill:#EBEBEB;" d="M416.16,249.24l-7.76,16.73c-0.2,0.42-0.37,0.69-0.53,0.82c-0.2,0.17-0.45,0.25-0.74,0.25
				c-0.33,0-0.62-0.12-0.86-0.35c-0.24-0.24-0.36-0.5-0.36-0.8c0-0.21,0.09-0.52,0.28-0.93l7.78-16.71c0.2-0.42,0.37-0.69,0.52-0.82
				c0.21-0.17,0.46-0.25,0.74-0.25c0.33,0,0.61,0.12,0.85,0.35s0.35,0.5,0.35,0.8C416.45,248.52,416.35,248.83,416.16,249.24z"/>
			<path style="fill:#EBEBEB;" d="M425.92,257.35l-7.84-4.35c-0.39-0.22-0.66-0.42-0.79-0.59c-0.13-0.17-0.19-0.39-0.19-0.66
				c0-0.34,0.12-0.63,0.37-0.87c0.24-0.24,0.53-0.37,0.86-0.37c0.2,0,0.52,0.11,0.94,0.34l10.12,5.63c0.68,0.38,0.68,1.36,0,1.74
				l-10.12,5.63c-0.42,0.24-0.74,0.35-0.94,0.35c-0.33,0-0.63-0.13-0.87-0.38c-0.23-0.24-0.36-0.55-0.36-0.88
				c0-0.27,0.06-0.49,0.19-0.66s0.39-0.37,0.79-0.59L425.92,257.35z"/>
		</g>
	</g>
</g>
<g id="Background_Simple" style="display:none;">
	<g style="display:inline;">
		<path style="fill:#407BFF;" d="M107.1,329.95c-37.73-0.77-63.48-72.31-43.86-121.65c26.74-67.24,151.42-106.47,228.78-106.37
			c40.59,0.05,104.98,0,141,80.54c19.07,42.65,16.45,165.3-44.28,181.56c-96.06,25.73-95.92-70.28-134.03-74.63
			C200.41,283.22,191.91,331.68,107.1,329.95z"/>
		<path style="opacity:0.9;fill:#FFFFFF;" d="M107.1,329.95c-37.73-0.77-63.48-72.31-43.86-121.65
			c26.74-67.24,151.42-106.47,228.78-106.37c40.59,0.05,104.98,0,141,80.54c19.07,42.65,16.45,165.3-44.28,181.56
			c-96.06,25.73-95.92-70.28-134.03-74.63C200.41,283.22,191.91,331.68,107.1,329.95z"/>
	</g>
</g>
<g id="Shadow">
	<ellipse id="_x3C_Path_x3E__1_" style="fill:#F5F5F5;" cx="245.18" cy="412.39" rx="193.89" ry="11.32"/>
</g>
<g id="Graphics">
	<g>
		<g>
			<g>
				<path style="fill:#407BFF;" d="M113.55,186.34H76.54c-1.69,0-3.22-0.66-4.32-1.86c-1.1-1.2-1.63-2.8-1.48-4.5l7.74-88.47
					c0.3-3.46,3.36-6.27,6.82-6.27h9.62c0.9,0,1.61,0.68,1.65,1.57l0.01,0.3c0.05,1.25,1.04,2.19,2.3,2.19h9.15
					c1.3,0,2.5-0.98,2.78-2.28l0.06-0.3c0.19-0.86,0.95-1.49,1.83-1.49h9.62c1.69,0,3.22,0.66,4.32,1.86c1.1,1.2,1.63,2.8,1.48,4.5
					l-7.74,88.47C120.06,183.53,117.01,186.34,113.55,186.34z M85.29,86.25c-2.95,0-5.56,2.4-5.82,5.35l-7.74,88.47
					c-0.12,1.42,0.31,2.74,1.22,3.73c0.91,0.99,2.18,1.53,3.58,1.53h37.01c2.95,0,5.56-2.4,5.82-5.35l7.74-88.47
					c0.12-1.41-0.31-2.74-1.22-3.73c-0.91-0.99-2.18-1.53-3.58-1.53h-9.62c-0.39,0-0.76,0.31-0.85,0.7l-0.06,0.3
					c-0.38,1.75-1.99,3.06-3.76,3.06h-9.15c-1.81,0-3.23-1.35-3.3-3.15l-0.01-0.3c-0.01-0.36-0.29-0.61-0.65-0.61H85.29z"/>
				<rect x="78.27" y="99.14" style="fill:#407BFF;" width="48.63" height="1"/>
				<rect x="112.68" y="85.25" style="fill:#407BFF;" width="9.62" height="1"/>
				<g>
					<path style="fill:#407BFF;" d="M113.26,140.47H84.88l2.48-28.38h28.38L113.26,140.47z M85.97,139.47h26.37l2.31-26.38H88.28
						L85.97,139.47z"/>
					<path style="fill:#407BFF;" d="M113.6,172.52H78.82l0.92-10.52h34.79L113.6,172.52z M79.91,171.52h32.78l0.75-8.52H80.65
						L79.91,171.52z"/>
					<g>
						<path style="fill:#407BFF;" d="M90.72,155.06c-0.8,0-1.54-0.31-2.06-0.89c-0.53-0.58-0.78-1.34-0.71-2.14
							c0.14-1.62,1.58-2.94,3.2-2.94c0.8,0,1.54,0.31,2.06,0.89c0.53,0.58,0.78,1.34,0.71,2.14l0,0
							C93.78,153.74,92.35,155.06,90.72,155.06z M91.16,150.09c-1.12,0-2.11,0.91-2.21,2.03c-0.05,0.53,0.11,1.02,0.45,1.38
							c0.33,0.36,0.8,0.56,1.32,0.56c1.12,0,2.11-0.91,2.21-2.03l0,0c0.05-0.52-0.11-1.02-0.45-1.38
							C92.15,150.29,91.68,150.09,91.16,150.09z"/>
						<path style="fill:#407BFF;" d="M97.91,155.06c-0.8,0-1.54-0.31-2.06-0.89c-0.53-0.58-0.78-1.34-0.71-2.14
							c0.14-1.62,1.58-2.94,3.2-2.94c0.8,0,1.54,0.31,2.06,0.89c0.53,0.58,0.78,1.34,0.71,2.14
							C100.97,153.74,99.54,155.06,97.91,155.06z M98.35,150.09c-1.12,0-2.11,0.91-2.21,2.03c-0.05,0.53,0.11,1.02,0.45,1.38
							c0.33,0.36,0.8,0.56,1.32,0.56c1.12,0,2.11-0.91,2.21-2.03l0,0c0.05-0.52-0.11-1.02-0.45-1.38
							C99.34,150.29,98.87,150.09,98.35,150.09z"/>
						<path style="fill:#407BFF;" d="M105.11,155.06c-0.8,0-1.54-0.32-2.06-0.89c-0.53-0.57-0.78-1.34-0.71-2.14
							c0.14-1.62,1.58-2.94,3.2-2.94c0.8,0,1.54,0.32,2.06,0.89c0.53,0.57,0.78,1.34,0.71,2.14l0,0
							C108.17,153.74,106.73,155.06,105.11,155.06z M105.54,150.09c-1.12,0-2.11,0.91-2.21,2.03c-0.05,0.52,0.11,1.02,0.45,1.38
							c0.33,0.36,0.8,0.56,1.32,0.56c1.12,0,2.11-0.91,2.21-2.03v0c0.05-0.52-0.11-1.01-0.45-1.38
							C106.53,150.29,106.06,150.09,105.54,150.09z"/>
					</g>
				</g>
			</g>
			<g>
				<rect x="354.25" y="286.54" style="fill:#407BFF;" width="48.63" height="1"/>
				<g>
					<path style="fill:#407BFF;" d="M389.5,373.74h-37.01c-1.69,0-3.22-0.66-4.32-1.86c-1.1-1.2-1.63-2.8-1.48-4.5l7.74-88.47
						c0.3-3.46,3.36-6.27,6.82-6.27h9.62c0.9,0,1.61,0.68,1.65,1.57l0.01,0.3c0.05,1.25,1.04,2.19,2.3,2.19h9.15
						c1.3,0,2.5-0.98,2.78-2.28l0.06-0.3c0.18-0.85,0.97-1.49,1.83-1.49h9.62c1.69,0,3.22,0.66,4.32,1.86c1.1,1.2,1.63,2.8,1.48,4.5
						l-7.74,88.47C396.02,370.93,392.96,373.74,389.5,373.74z M361.25,273.65c-2.95,0-5.56,2.4-5.82,5.35l-7.74,88.47
						c-0.12,1.42,0.31,2.74,1.22,3.74c0.9,0.99,2.18,1.53,3.58,1.53h37.01c2.95,0,5.56-2.4,5.82-5.35l7.74-88.47
						c0.12-1.41-0.31-2.74-1.22-3.73c-0.91-0.99-2.18-1.53-3.58-1.53h-9.62c-0.39,0-0.76,0.31-0.85,0.7l-0.06,0.3
						c-0.38,1.75-1.99,3.06-3.75,3.06h-9.15c-1.81,0-3.23-1.35-3.3-3.15l-0.01-0.3c-0.01-0.36-0.29-0.61-0.65-0.61H361.25z"/>
					<path style="fill:#407BFF;" d="M395.71,300.44h-36.54c-0.78,0-1.48-0.3-1.99-0.86c-0.51-0.55-0.75-1.29-0.68-2.07
						c0.14-1.56,1.52-2.84,3.09-2.84h36.54c0.78,0,1.48,0.3,1.99,0.86c0.51,0.55,0.75,1.29,0.68,2.07
						C398.66,299.16,397.28,300.44,395.71,300.44z M359.58,295.67c-1.06,0-2,0.86-2.09,1.92c-0.04,0.5,0.11,0.96,0.42,1.3
						c0.31,0.34,0.76,0.53,1.25,0.53h36.54c1.06,0,2-0.86,2.09-1.92c0.04-0.5-0.11-0.96-0.42-1.3c-0.31-0.34-0.76-0.53-1.25-0.53
						H359.58z"/>
					<path style="fill:#407BFF;" d="M394.88,309.96h-36.54c-0.78,0-1.48-0.3-1.99-0.86c-0.51-0.55-0.75-1.29-0.68-2.07
						c0.14-1.56,1.52-2.84,3.09-2.84h36.54c0.78,0,1.48,0.3,1.99,0.86c0.51,0.55,0.75,1.29,0.68,2.07
						C397.83,308.69,396.44,309.96,394.88,309.96z M358.75,305.2c-1.06,0-2,0.86-2.09,1.92c-0.04,0.5,0.11,0.96,0.42,1.3
						c0.31,0.34,0.76,0.53,1.25,0.53h36.54c1.06,0,2-0.86,2.09-1.92c0.04-0.5-0.11-0.96-0.42-1.31c-0.31-0.34-0.76-0.53-1.25-0.53
						H358.75z"/>
					<path style="fill:#407BFF;" d="M394.04,319.48H357.5c-0.78,0-1.48-0.3-1.99-0.86c-0.51-0.55-0.75-1.29-0.68-2.07
						c0.14-1.56,1.52-2.84,3.09-2.84h36.54c0.78,0,1.48,0.3,1.99,0.86c0.51,0.55,0.75,1.29,0.68,2.07
						C396.99,318.21,395.61,319.48,394.04,319.48z M357.92,314.72c-1.06,0-2,0.86-2.09,1.92c-0.04,0.5,0.11,0.96,0.42,1.3
						c0.31,0.34,0.76,0.53,1.25,0.53h36.54c1.06,0,2-0.86,2.09-1.92c0.04-0.5-0.11-0.96-0.42-1.3c-0.31-0.34-0.76-0.53-1.25-0.53
						H357.92z"/>
					<path style="fill:#407BFF;" d="M391.76,345.58h-36.54c-0.78,0-1.48-0.3-1.99-0.86c-0.51-0.55-0.75-1.29-0.68-2.07
						c0.14-1.56,1.52-2.84,3.09-2.84h36.54c0.78,0,1.48,0.3,1.99,0.86c0.51,0.55,0.75,1.29,0.68,2.07
						C394.71,344.3,393.33,345.58,391.76,345.58z M355.63,340.82c-1.06,0-2,0.86-2.09,1.92c-0.04,0.5,0.11,0.96,0.42,1.3
						c0.31,0.34,0.76,0.53,1.25,0.53h36.54c1.06,0,2-0.86,2.09-1.92c0.04-0.5-0.11-0.96-0.42-1.3c-0.31-0.34-0.76-0.53-1.25-0.53
						H355.63z"/>
					<path style="fill:#407BFF;" d="M390.93,355.1h-36.54c-0.78,0-1.48-0.3-1.99-0.86c-0.51-0.55-0.75-1.29-0.68-2.07
						c0.14-1.56,1.52-2.84,3.09-2.84h36.54c0.78,0,1.48,0.3,1.99,0.86c0.51,0.55,0.75,1.29,0.68,2.07
						C393.88,353.83,392.49,355.1,390.93,355.1z M354.8,350.34c-1.06,0-2,0.86-2.09,1.92c-0.04,0.5,0.11,0.96,0.42,1.3
						c0.31,0.34,0.76,0.53,1.25,0.53h36.54c1.06,0,2-0.86,2.09-1.92c0.04-0.5-0.11-0.96-0.42-1.3c-0.31-0.34-0.76-0.53-1.25-0.53
						H354.8z"/>
					<path style="fill:#407BFF;" d="M390.09,364.63h-36.54c-0.78,0-1.48-0.3-1.99-0.86c-0.51-0.55-0.75-1.29-0.68-2.07
						c0.14-1.56,1.52-2.84,3.09-2.84h36.54c0.78,0,1.48,0.3,1.99,0.86c0.51,0.55,0.75,1.29,0.68,2.07
						C393.04,363.35,391.66,364.63,390.09,364.63z M353.97,359.86c-1.06,0-2,0.86-2.09,1.92c-0.04,0.5,0.11,0.96,0.42,1.3
						c0.31,0.34,0.76,0.53,1.25,0.53h36.54c1.06,0,2-0.86,2.09-1.92c0.04-0.5-0.11-0.96-0.42-1.3c-0.31-0.34-0.76-0.53-1.25-0.53
						H353.97z"/>
				</g>
			</g>
			<g>
				<path style="fill:#407BFF;" d="M413.56,193.9h-37.01c-1.69,0-3.22-0.66-4.32-1.86c-1.1-1.2-1.63-2.8-1.48-4.5l7.74-88.47
					c0.3-3.46,3.36-6.27,6.82-6.27h9.62c0.9,0,1.61,0.68,1.65,1.57l0.01,0.3c0.05,1.25,1.04,2.19,2.3,2.19h9.15
					c1.3,0,2.5-0.98,2.78-2.28l0.06-0.3c0.19-0.86,0.95-1.49,1.83-1.49h9.62c1.69,0,3.22,0.66,4.32,1.86c1.1,1.2,1.63,2.8,1.48,4.5
					l-7.74,88.47C420.07,191.09,417.01,193.9,413.56,193.9z M385.3,93.82c-2.95,0-5.56,2.4-5.82,5.35l-7.74,88.47
					c-0.12,1.42,0.31,2.74,1.22,3.73c0.91,0.99,2.18,1.53,3.58,1.53h37.01c2.95,0,5.56-2.4,5.82-5.35l7.74-88.47
					c0.12-1.41-0.31-2.74-1.22-3.73c-0.91-0.99-2.18-1.53-3.58-1.53h-9.62c-0.39,0-0.76,0.31-0.85,0.7l-0.06,0.3
					c-0.38,1.75-1.99,3.06-3.76,3.06h-9.15c-1.81,0-3.23-1.35-3.3-3.15l-0.01-0.3c-0.01-0.36-0.29-0.61-0.65-0.61H385.3z"/>
				<rect x="378.27" y="106.71" style="fill:#407BFF;" width="48.63" height="1"/>
				<path style="fill:#407BFF;" d="M415.92,183.57h-39.36l2.48-28.38h39.36L415.92,183.57z M377.65,182.57H415l2.31-26.38h-37.35
					L377.65,182.57z"/>
				
					<rect x="374.88" y="168.88" transform="matrix(0.7957 0.6057 -0.6057 0.7957 183.807 -206.1521)" style="fill:#407BFF;" width="45.19" height="1"/>
				
					<rect x="396.98" y="144.84" transform="matrix(0.5576 0.8301 -0.8301 0.5576 316.4375 -255.0176)" style="fill:#407BFF;" width="1" height="49.09"/>
				<g>
					<g>
						<path style="fill:#407BFF;" d="M421.07,124.74h-39.36l0.92-10.52h39.36L421.07,124.74z M382.8,123.74h37.35l0.75-8.52h-37.35
							L382.8,123.74z"/>
						
							<rect x="401.35" y="99.31" transform="matrix(0.2363 0.9717 -0.9717 0.2363 422.9748 -299.2231)" style="fill:#407BFF;" width="1" height="40.33"/>
						
							<rect x="382.49" y="118.98" transform="matrix(0.9693 0.246 -0.246 0.9693 41.7452 -95.191)" style="fill:#407BFF;" width="38.71" height="1"/>
					</g>
					<g>
						<path style="fill:#407BFF;" d="M419.87,138.43h-39.36l0.92-10.52h39.36L419.87,138.43z M381.6,137.43h37.35l0.75-8.52h-37.35
							L381.6,137.43z"/>
						
							<rect x="400.15" y="113" transform="matrix(0.2363 0.9717 -0.9717 0.2363 435.3603 -287.607)" style="fill:#407BFF;" width="1" height="40.33"/>
						
							<rect x="381.29" y="132.67" transform="matrix(0.9693 0.246 -0.246 0.9693 45.0751 -94.4746)" style="fill:#407BFF;" width="38.71" height="1"/>
					</g>
					<g>
						<path style="fill:#407BFF;" d="M418.67,152.12h-39.36l0.92-10.52h39.36L418.67,152.12z M380.4,151.12h37.35l0.75-8.52h-37.35
							L380.4,151.12z"/>
						
							<rect x="398.95" y="126.69" transform="matrix(0.2363 0.9717 -0.9717 0.2363 447.7454 -275.9904)" style="fill:#407BFF;" width="1" height="40.33"/>
						
							<rect x="380.1" y="146.35" transform="matrix(0.9693 0.246 -0.246 0.9693 48.4057 -93.7594)" style="fill:#407BFF;" width="38.71" height="1"/>
					</g>
				</g>
			</g>
		</g>
		<g>
			<path style="fill:#407BFF;" d="M407.88,239.39c-8.82,0-15.99-7.17-15.99-15.99s7.17-15.99,15.99-15.99s15.99,7.17,15.99,15.99
				S416.69,239.39,407.88,239.39z M407.88,208.41c-8.27,0-14.99,6.72-14.99,14.99c0,8.27,6.72,14.99,14.99,14.99
				s14.99-6.72,14.99-14.99C422.87,215.13,416.14,208.41,407.88,208.41z"/>
			<path style="fill:#407BFF;" d="M405.12,232.65l-7.46-9.86l0.8-0.6l6.26,8.28c2.9-9.25,8.82-17.38,16.74-22.97l2.23-1.57
				l0.58,0.82l-2.23,1.57c-8.01,5.66-13.92,13.96-16.64,23.38L405.12,232.65z"/>
		</g>
	</g>
</g>
<g id="Device">
	<g>
		<g>
			<g>
				<path style="fill:#263238;" d="M297.17,107.79H271.2L245.02,407.1h25.97c12.04,0,22.65-9.76,23.7-21.79l22.37-255.72
					C318.11,117.55,309.2,107.79,297.17,107.79z"/>
			</g>
			<path style="fill:#407BFF;" d="M265.67,407.1H158.67c-12.04,0-20.94-9.76-19.89-21.79l22.37-255.72
				c1.05-12.04,11.66-21.79,23.7-21.79h106.99c12.04,0,20.94,9.76,19.89,21.79l-22.37,255.72
				C288.31,397.34,277.7,407.1,265.67,407.1z"/>
			<g>
				<path style="fill:#FFFFFF;" d="M291.41,112.79H263.6c-1.82,0-3.48,1.35-3.87,3.16l-0.19,0.87c-0.95,4.41-4.99,7.72-9.44,7.72
					h-26.44c-4.45,0-7.91-3.31-8.09-7.72l-0.04-0.87c-0.07-1.81-1.49-3.16-3.31-3.16h-27.81c-9.27,0-17.45,7.52-18.26,16.79
					l-22.37,255.72c-0.81,9.28,6.05,16.79,15.32,16.79H266.1c9.28,0,17.45-7.52,18.26-16.79l22.37-255.72
					C307.55,120.31,300.69,112.79,291.41,112.79z"/>
			</g>
			<g style="opacity:0.2;">
				<path d="M231.2,115.62c-0.1,1.17-1.14,2.13-2.31,2.13s-2.04-0.95-1.94-2.13c0.1-1.17,1.14-2.13,2.31-2.13
					C230.43,113.5,231.3,114.45,231.2,115.62z"/>
				<path d="M246.45,113.5c-0.84,0-6.45,0-7.29,0c-1.17,0-2.21,0.95-2.31,2.13c-0.1,1.17,0.77,2.13,1.94,2.13c0.73,0,6.56,0,7.29,0
					c1.17,0,2.21-0.95,2.31-2.13C248.49,114.45,247.63,113.5,246.45,113.5z"/>
			</g>
			<g>
				<polygon style="fill:#263238;" points="178.25,124.5 180.5,124.5 180.7,122.25 178.45,122.25 				"/>
				<polygon style="fill:#263238;" points="182.95,122.25 182.75,124.5 185,124.5 185.2,122.25 185.39,120 183.14,120 				"/>
				<polygon style="fill:#263238;" points="187.84,117.75 187.64,120 187.45,122.25 187.25,124.5 189.5,124.5 189.7,122.25 
					189.89,120 190.09,117.75 				"/>
			</g>
			<path style="fill:#263238;" d="M284.58,117.9l-0.14,1.65h-1.1l-0.29,3.3h1.1l-0.14,1.65h9.9l0.58-6.6H284.58z M288.55,122.85
				h-3.3l0.29-3.3h3.3L288.55,122.85z"/>
		</g>
	</g>
	<polygon style="opacity:0.8;fill:#263238;" points="280.1,296.25 135.38,296.25 147.56,157.09 292.27,157.09 	"/>
	<g>
		<polygon style="fill:#407BFF;" points="276.27,292.06 131.56,292.06 143.73,152.9 288.45,152.9 		"/>
		<g style="opacity:0.8;">
			<polygon style="fill:#FFFFFF;" points="276.27,292.06 131.56,292.06 143.73,152.9 288.45,152.9 			"/>
			<path style="fill:#407BFF;" d="M276.73,292.56H131.01l0.05-0.54l12.21-139.62h145.72L276.73,292.56z M132.1,291.56h143.71
				L287.9,153.4H144.19L132.1,291.56z"/>
		</g>
		<polygon style="opacity:0.8;fill:#FFFFFF;" points="268.22,253.73 146.32,253.73 154.11,164.67 276.01,164.67 		"/>
		<path style="fill:#407BFF;" d="M268.68,254.23h-122.9l7.88-90.06h122.9L268.68,254.23z M146.86,253.23h120.9l7.7-88.06h-120.9
			L146.86,253.23z"/>
		
			<rect x="138.79" y="208.7" transform="matrix(0.7883 0.6153 -0.6153 0.7883 173.4182 -85.6392)" style="fill:#407BFF;" width="144.75" height="1"/>
		<g>
			<line style="fill:#FFFFFF;" x1="146.32" y1="253.73" x2="276.01" y2="164.67"/>
			
				<rect x="210.66" y="130.53" transform="matrix(0.5664 0.8242 -0.8242 0.5664 263.9812 -83.3154)" style="fill:#407BFF;" width="1" height="157.33"/>
		</g>
		<g>
			<path style="fill:#407BFF;" d="M193.58,266.77c-0.22,2.54-2.46,4.6-5,4.6c-2.54,0-4.42-2.06-4.19-4.6c0.22-2.54,2.46-4.6,5-4.6
				S193.8,264.23,193.58,266.77z"/>
			<path style="fill:#407BFF;" d="M210.72,266.77c-0.22,2.54-2.46,4.6-5,4.6c-2.54,0-4.42-2.06-4.19-4.6c0.22-2.54,2.46-4.6,5-4.6
				C209.07,262.17,210.95,264.23,210.72,266.77z"/>
			<path style="fill:#407BFF;" d="M227.87,266.77c-0.22,2.54-2.46,4.6-5,4.6c-2.54,0-4.42-2.06-4.19-4.6c0.22-2.54,2.46-4.6,5-4.6
				S228.09,264.23,227.87,266.77z"/>
		</g>
	</g>
	<g>
		<polygon style="fill:#407BFF;" points="192.46,370.45 124.7,370.45 130.4,305.29 198.16,305.29 		"/>
		<g style="opacity:0.8;">
			<polygon style="fill:#FFFFFF;" points="192.46,370.45 124.7,370.45 130.4,305.29 198.16,305.29 			"/>
			<path style="fill:#407BFF;" d="M192.92,370.95h-68.76l5.79-66.16h68.76L192.92,370.95z M125.25,369.95H192l5.61-64.16h-66.76
				L125.25,369.95z"/>
		</g>
		<g>
			<polygon style="fill:#FFFFFF;" points="188.69,352.5 131.61,352.5 135.26,310.8 192.34,310.8 			"/>
			<path style="fill:#407BFF;" d="M189.15,353h-58.08l3.74-42.7h58.08L189.15,353z M132.16,352h56.07l3.56-40.7h-56.07L132.16,352z"
				/>
		</g>
		<g>
			<line style="fill:#FFFFFF;" x1="135.26" y1="310.8" x2="188.69" y2="352.5"/>
			
				<rect x="128.09" y="331.15" transform="matrix(0.7883 0.6153 -0.6153 0.7883 238.3442 -29.4526)" style="fill:#407BFF;" width="67.78" height="1"/>
		</g>
		<g>
			<line style="fill:#FFFFFF;" x1="131.61" y1="352.5" x2="192.34" y2="310.8"/>
			
				<rect x="161.47" y="294.82" transform="matrix(0.5664 0.8242 -0.8242 0.5664 343.5693 10.3235)" style="fill:#407BFF;" width="1" height="73.67"/>
		</g>
		<g>
			<path style="fill:#407BFF;" d="M153.74,358.61c-0.1,1.19-1.15,2.15-2.34,2.15s-2.07-0.96-1.96-2.15c0.1-1.19,1.15-2.15,2.34-2.15
				S153.84,357.42,153.74,358.61z"/>
			<path style="fill:#407BFF;" d="M161.77,358.61c-0.1,1.19-1.15,2.15-2.34,2.15s-2.07-0.96-1.96-2.15c0.1-1.19,1.15-2.15,2.34-2.15
				S161.87,357.42,161.77,358.61z"/>
			<path style="fill:#407BFF;" d="M169.8,358.61c-0.1,1.19-1.15,2.15-2.34,2.15s-2.07-0.96-1.96-2.15c0.1-1.19,1.15-2.15,2.34-2.15
				S169.9,357.42,169.8,358.61z"/>
		</g>
	</g>
	<g>
		<polygon style="fill:#407BFF;" points="269.41,370.45 201.65,370.45 207.35,305.29 275.11,305.29 		"/>
		<g style="opacity:0.8;">
			<polygon style="fill:#FFFFFF;" points="269.41,370.45 201.65,370.45 207.35,305.29 275.11,305.29 			"/>
			<path style="fill:#407BFF;" d="M269.87,370.95h-68.76l5.79-66.16h68.76L269.87,370.95z M202.2,369.95h66.76l5.61-64.16h-66.76
				L202.2,369.95z"/>
		</g>
		<g>
			<polygon style="fill:#FFFFFF;" points="265.64,352.5 208.56,352.5 212.21,310.8 269.29,310.8 			"/>
			<path style="fill:#407BFF;" d="M266.1,353h-58.08l3.74-42.7h58.08L266.1,353z M209.11,352h56.07l3.56-40.7h-56.07L209.11,352z"/>
		</g>
		<g>
			<line style="fill:#FFFFFF;" x1="212.21" y1="310.8" x2="265.64" y2="352.5"/>
			
				<rect x="205.04" y="331.15" transform="matrix(0.7883 0.6153 -0.6153 0.7883 254.6343 -76.8)" style="fill:#407BFF;" width="67.78" height="1"/>
		</g>
		<g>
			<line style="fill:#FFFFFF;" x1="208.56" y1="352.5" x2="269.29" y2="310.8"/>
			
				<rect x="238.43" y="294.82" transform="matrix(0.5664 0.8242 -0.8242 0.5664 376.939 -53.0978)" style="fill:#407BFF;" width="1" height="73.67"/>
		</g>
		<g>
			<path style="fill:#407BFF;" d="M230.69,358.61c-0.1,1.19-1.15,2.15-2.34,2.15s-2.07-0.96-1.96-2.15c0.1-1.19,1.15-2.15,2.34-2.15
				S230.8,357.42,230.69,358.61z"/>
			<path style="fill:#407BFF;" d="M238.72,358.61c-0.1,1.19-1.15,2.15-2.34,2.15c-1.19,0-2.07-0.96-1.96-2.15
				c0.1-1.19,1.15-2.15,2.34-2.15S238.83,357.42,238.72,358.61z"/>
			<path style="fill:#407BFF;" d="M246.75,358.61c-0.1,1.19-1.15,2.15-2.34,2.15s-2.07-0.96-1.96-2.15c0.1-1.19,1.15-2.15,2.34-2.15
				S246.85,357.42,246.75,358.61z"/>
		</g>
	</g>
	<polygon style="fill:#407BFF;" points="268.2,147.13 196.58,147.13 197.42,137.53 269.04,137.53 	"/>
	<g>
		<g>
			<line style="fill:#407BFF;" x1="177.6" y1="145.48" x2="188.67" y2="145.48"/>
			<rect x="177.6" y="144.98" style="fill:#263238;" width="11.07" height="1"/>
		</g>
		<g>
			<line style="fill:#407BFF;" x1="177.92" y1="141.74" x2="189" y2="141.74"/>
			<rect x="177.92" y="141.24" style="fill:#263238;" width="11.07" height="1"/>
		</g>
		<g>
			<line style="fill:#407BFF;" x1="178.25" y1="138" x2="189.32" y2="138"/>
			<rect x="178.25" y="137.5" style="fill:#263238;" width="11.07" height="1"/>
		</g>
	</g>
	<g style="opacity:0.2;">
		<path style="fill:#FFFFFF;" d="M223.75,124.54l-73.86,274.63c2.54,1.85,5.7,2.93,9.22,2.93h5.77l74.65-277.56H223.75z"/>
		<path style="fill:#FFFFFF;" d="M291.41,112.79H263.6c-1.82,0-3.48,1.35-3.87,3.16l-0.19,0.87c-0.92,4.3-4.79,7.54-9.1,7.7
			L175.8,402.1h56.94l74-275.17C306.17,118.92,299.78,112.79,291.41,112.79z"/>
	</g>
	<rect x="165.9" y="131.85" style="fill:#407BFF;" width="140.53" height="1.5"/>
</g>
<g id="Character_2">
	<g>
		<g>
			<g>
				<path style="fill:#CB7A63;" d="M318.68,167.92c0.15-0.31,0.31-0.63,0.59-0.82c0.22-0.15,0.49-0.2,0.75-0.25
					c2.02-0.38,4.14-0.76,6.12-0.2c0.15,0.04,0.3,0.09,0.39,0.22c0.08,0.1,0.1,0.24,0.12,0.37c0.15,1.13,0.31,2.25,0.46,3.38
					c0.03,0.25,0.07,0.51-0.02,0.75s-0.29,0.41-0.47,0.58c-0.97,0.85-5.05,3.43-5.7,3.57c-0.98,0.21-4.08-0.79-5.01-1.19
					C314.86,173.86,317.78,169.79,318.68,167.92z"/>
			</g>
		</g>
		<g>
			<g>
				<g>
					<path style="fill:#407BFF;" d="M296.19,202.21c0.9-7.13,16.83-26.36,18.93-29.14c1.17-1.55,6.01-0.4,6.97,2.54
						c-4.35,6.04-6.75,11.13-9.72,17.95c-0.69,1.58-3.88,7.79-4.89,9.2C299.43,214,295.8,205.31,296.19,202.21z"/>
				</g>
			</g>
		</g>
		<g style="opacity:0.1;enable-background:new    ;">
			<g>
				<path d="M296.19,202.21c0.9-7.13,16.83-26.36,18.93-29.14c1.17-1.55,6.01-0.4,6.97,2.54c-4.35,6.04-6.75,11.13-9.72,17.95
					c-0.69,1.58-3.88,7.79-4.89,9.2C299.43,214,295.8,205.31,296.19,202.21z"/>
			</g>
		</g>
		<g>
			<g>
				<path style="fill:#CB7A63;" d="M353.65,219.21c0,0-5.07,0.07-6.64,1.46l-2.19,1.94c-0.43,0.38-0.46,1.04-0.07,1.47
					c1.18,1.32,3.76,3.92,6.65,4.94c0.66,0.23,1.38,0.11,1.91-0.34c0,0,3.49-4.38,2.94-5.27L353.65,219.21z"/>
				<path style="fill:#407BFF;" d="M367.01,219.69c-0.45,0.25-0.92,0.49-1.39,0.74l-7.15,2.65c-4.87,2.38-5.24-3.62-5.24-3.62
					l1.95-1.69l13.28-11.03c0,0-12.36-9.16-20.36-16.89c-6.03-6.94-5.23-11.48,1.85-10.72c5.09,0.54,28.45,22.36,30.48,24.7
					C382.53,206.25,377.84,213.75,367.01,219.69z"/>
				<path style="opacity:0.1;enable-background:new    ;" d="M367.01,219.69c-0.45,0.25-0.92,0.49-1.39,0.74l-7.15,2.65
					c-4.87,2.38-5.24-3.62-5.24-3.62l1.95-1.69l13.28-11.03c0,0-12.36-9.16-20.36-16.89c-6.03-6.94-5.23-11.48,1.85-10.72
					c5.09,0.54,28.45,22.36,30.48,24.7C382.53,206.25,377.84,213.75,367.01,219.69z"/>
				<path style="fill:#263238;" d="M370.83,195.63c-0.04-0.04-0.08-0.07-0.12-0.12C370.72,195.51,370.76,195.55,370.83,195.63z"/>
			</g>
			<g>
				<g>
					<g id="_x3C_Group_x3E__1_">
						<path style="fill:#263238;" d="M324.62,150.96c-0.41-0.07-0.84,0.37-0.96,0.99c-0.12,0.62,0.11,1.2,0.52,1.27
							c0.41,0.07,0.84-0.37,0.96-0.99C325.28,151.58,325.03,151.03,324.62,150.96z"/>
						<path style="fill:#B74D3C;" d="M323.51,159.19c-1.08,0.07-2.13-0.35-2.87-1.13c1.54-1.4,2.89-3,4-4.76L323.51,159.19z"/>
						<path style="fill:#263238;" d="M327.82,149.14c-0.62-0.73-1.55-1.11-2.5-1.03l0,0c-0.04,0.01-0.08,0.02-0.12,0.02
							c-0.21,0-0.38-0.16-0.38-0.37c0-0.21,0.16-0.38,0.37-0.38c1.19-0.14,2.37,0.31,3.17,1.2c0.06,0.07,0.1,0.15,0.1,0.24
							c0.01,0.21-0.16,0.38-0.37,0.39C327.99,149.22,327.89,149.19,327.82,149.14z"/>
						<path style="fill:#CB7A63;" d="M332.71,186.9c10.69-0.11,12.2-5.96,12.2-5.96c-3.24-3.04-3.52-8.74-2.94-13.84
							c-0.79,1.17-1.79,2.19-3.12,3.1c-2.52,1.73-5.28,2.13-7.79,1.56c-0.04,0-0.09-0.01-0.13-0.04c0.03,0.1,0.05,0.21,0.06,0.31
							c0.72,4.06,0.25,8.43-4,9.79C326.99,181.83,320.94,187.01,332.71,186.9z"/>
						<path style="fill:#CB7A63;" d="M330.6,170.23c0.12,0.49,0.25,0.98,0.33,1.5c0.04,0.03,0.09,0.04,0.13,0.04
							c2.51,0.57,5.27,0.17,7.79-1.56c1.33-0.92,2.33-1.94,3.12-3.1c0.14-1.29,0.35-2.56,0.56-3.72l-11.5,6.6L330.6,170.23z"/>
						<path style="fill:#407BFF;" d="M346.02,180.48c0,0-1.61-4.65-3.93-6.08s-12.33,0.31-13.89,0.96
							c-1.56,0.65-3.07,4.31-3.07,4.31L346.02,180.48z"/>
						<path style="opacity:0.8;fill:#FFFFFF;" d="M346.02,180.48c0,0-1.61-4.65-3.93-6.08s-12.33,0.31-13.89,0.96
							c-1.56,0.65-3.07,4.31-3.07,4.31L346.02,180.48z"/>
						<g>
							<path style="fill:#407BFF;" d="M332.9,410.37c-1,0-1.9-0.13-2.21-0.57c-0.16-0.23-0.16-0.54,0.01-0.77
								c0.12-0.21,0.33-0.36,0.58-0.41c1.25-0.34,3.87,1.15,4.01,1.21c0.06,0.04,0.09,0.11,0.08,0.18
								c-0.01,0.08-0.07,0.14-0.14,0.15C334.46,410.29,333.68,410.36,332.9,410.37z M331.72,408.92c-0.11-0.02-0.23-0.02-0.34,0
								c-0.15,0.03-0.28,0.12-0.35,0.25c-0.12,0.22-0.08,0.32,0,0.39c0.35,0.48,2.25,0.49,3.64,0.29c-0.91-0.51-1.91-0.83-2.95-0.96
								V408.92z"/>
							<path style="fill:#407BFF;" d="M335.18,410.13h-0.07c-0.91-0.41-2.7-2-2.55-2.87c0-0.2,0.17-0.45,0.67-0.5
								c0.36-0.04,0.72,0.06,1,0.3c1,0.79,1.15,2.8,1.15,2.89c0,0.06-0.03,0.12-0.08,0.16
								C335.26,410.13,335.22,410.14,335.18,410.13z M333.36,407.13l-0.1,0c-0.32,0-0.34,0.16-0.35,0.2
								c-0.08,0.51,1.12,1.78,2.05,2.34c-0.08-0.85-0.43-1.66-0.99-2.31c-0.17-0.16-0.39-0.26-0.63-0.26L333.36,407.13z"/>
							<polygon style="fill:#CB7A63;" points="342.77,392.68 335.3,392.69 335.93,409.95 343.44,409.94 							"/>
							<path style="fill:#263238;" d="M334.16,409.67c-5.11,3.14-6.68,3.28-12.59,4.57c-1.29,0.28-0.47,3.41,2.62,3.41
								c5.12-0.01,5.65-0.25,10.01-0.26c3.74-0.01,8.03,0.16,11,0.21c0.09,0,0.18-0.01,0.27-0.03c0.58-0.14,0.95-0.73,0.81-1.31
								l-1.45-6.67c-0.07-0.3-0.33-0.51-0.64-0.51l-8.21,0.01C335.33,409.11,334.7,409.32,334.16,409.67z"/>
							<polygon style="opacity:0.2;enable-background:new    ;" points="342.78,392.69 343.12,402.32 335.62,402.33 335.3,392.7 
															"/>
							<path style="fill:#407BFF;" d="M398.56,407.26c-0.09-1.04-0.05-1.97,0.37-2.34c0.23-0.19,0.55-0.22,0.81-0.06
								c0.23,0.11,0.4,0.31,0.48,0.55c0.48,1.26-0.8,4.11-0.86,4.25c-0.03,0.07-0.1,0.12-0.18,0.11c-0.08-0.01-0.14-0.06-0.16-0.13
								C398.79,408.85,398.64,408.06,398.56,407.26z M399.96,405.9c0.01-0.12,0-0.24-0.03-0.35c-0.04-0.15-0.15-0.28-0.29-0.34
								c-0.24-0.11-0.35-0.06-0.41,0.03c-0.47,0.4-0.29,2.36,0.06,3.79C399.71,408.04,399.94,406.97,399.96,405.9L399.96,405.9z"/>
							<path style="fill:#407BFF;" d="M399,409.58c-0.01-0.02-0.01-0.05-0.01-0.07c0.33-0.97,1.83-2.97,2.73-2.9
								c0.21-0.02,0.49,0.14,0.58,0.63c0.08,0.37,0,0.76-0.22,1.06c-0.71,1.1-2.8,1.44-2.88,1.46c-0.06,0.02-0.13-0.01-0.17-0.06
								C399,409.67,398.99,409.62,399,409.58z M401.95,407.42c0,0-0.01-0.07-0.01-0.11c-0.03-0.33-0.2-0.34-0.24-0.34
								c-0.54-0.04-1.74,1.33-2.22,2.34c0.88-0.16,1.68-0.59,2.3-1.23c0.14-0.19,0.21-0.42,0.2-0.66L401.95,407.42z"/>
							<polygon style="fill:#CB7A63;" points="393.68,392.57 386.39,393.1 390.69,410.5 398.03,409.97 							"/>
							<path style="fill:#263238;" d="M399.8,408.56c2.28,2.26,3.48,3.43,9.63,4.84c1.35,0.3,0.47,3.55-2.76,3.52
								c-5.34-0.06-2.42-0.28-6.96-0.32c-3.89-0.04-7.29,0.01-10.38,0.03c-0.1,0-0.21,0-0.31-0.03c-0.62-0.14-1-0.76-0.86-1.37
								l1.56-6.93c0.07-0.31,0.35-0.53,0.67-0.52l7.48,0.17C398.56,407.88,399.26,408.11,399.8,408.56z"/>
							<polygon style="opacity:0.2;enable-background:new    ;" points="393.69,392.58 395.91,401.52 388.61,402.05 386.39,393.1 
															"/>
							<path style="fill:#407BFF;" d="M354.15,241.01c0,0,4.09,6.25,6.92,13.91c4,10.83,2.58,16.49,3.92,23.82
								c2.36,12.91,5.88,22.8,8.35,32.59c7.72,30.63,24.02,85.02,24.02,85.02l-13.17,2.9c0,0-24.42-64.86-31.35-86.76
								c-6.25-19.72-22.27-71.52-22.27-71.52L354.15,241.01z"/>
							<path style="opacity:0.4;" d="M354.15,241.01c0,0,4.09,6.25,6.92,13.91c4,10.83,2.58,16.49,3.92,23.82
								c2.36,12.91,5.88,22.8,8.35,32.59c7.72,30.63,24.02,85.02,24.02,85.02l-13.17,2.9c0,0-24.42-64.86-31.35-86.76
								c-6.25-19.72-22.27-71.52-22.27-71.52L354.15,241.01z"/>
							<g>
								<path style="fill:#407BFF;" d="M398.9,393.91l0.14,4.69l-15.87,1.71c0,0-1.41-5.12-1.35-5.12L398.9,393.91z"/>
								<path style="opacity:0.8;fill:#FFFFFF;" d="M398.9,393.91l0.14,4.69l-15.87,1.71c0,0-1.41-5.12-1.35-5.12L398.9,393.91z"/>
							</g>
							<path style="opacity:0.3;enable-background:new    ;" d="M337.96,264.83c5.05,16.26,11.45,36.84,14.86,47.64
								c0.16,0.52,0.35,1.06,0.52,1.64c-1.34-18.04-4.88-48.27-13.95-49.38C338.91,264.66,338.42,264.69,337.96,264.83z"/>
							<path style="fill:#407BFF;" d="M342.01,240.94c0,0,3.85,49.7,4.29,73.19c0.4,21.9-1.21,85.7-1.21,85.7l-12.69,0.02
								c0,0-6.06-65.14-8.31-87.37c-2.14-21.05-7.69-71.09-7.69-71.09L342.01,240.94z"/>
							<path style="opacity:0.4;" d="M342.01,240.94c0,0,3.85,49.7,4.29,73.19c0.4,21.9-1.21,85.7-1.21,85.7l-12.69,0.02
								c0,0-6.06-65.14-8.31-87.37c-2.14-21.05-7.69-71.09-7.69-71.09L342.01,240.94z"/>
							<g>
								<path style="fill:#407BFF;" d="M346.97,395.38l-0.44,4.66l-15.44,0.02c0,0-0.73-5.22-0.67-5.22L346.97,395.38z"/>
								<path style="opacity:0.8;fill:#FFFFFF;" d="M346.97,395.38l-0.44,4.66l-15.44,0.02c0,0-0.73-5.22-0.67-5.22L346.97,395.38z"
									/>
							</g>
						</g>
						<g>
							<path style="fill:#407BFF;" d="M366.62,256.81l-3.55-1.02c-5.69-1.65-11.7-1.83-17.48-0.52l-4.15-9.48l1.27,9.98l-1.82-0.04
								c-5.24-0.12-10.45,0.94-15.23,3.09c-2.54,1.15-4.78,2.12-4.79,1.99c0-0.3-4.48-19.41-4.48-19.41
								c-4.55-31-3.8-46.69-2.44-54.33c0.74-4.1,3.93-7.31,8.02-8.08c1.55-0.28,3.28-0.56,5.05-0.74c5.34-0.36,10.7-0.42,16.04-0.16
								c0.05,0.01,3.49,0.27,3.54,0.27c5.59,0.29,11.32,5.03,10.32,10.54c-3.36,18.32-3.92,31.72-3.69,40.55L366.62,256.81z"/>
							<path style="opacity:0.2;enable-background:new    ;" d="M313.11,212.13c0,0-0.11-15.27,0.04-18.1l11.37-7.82
								C322.43,189.95,317.23,198.09,313.11,212.13z"/>
						</g>
						<g>
							<path style="fill:#CB7A63;" d="M322.77,161.67c0.16,3.95,2.39,7.24,5.45,8.99l0.02,0c0.02,0.01,0.03,0.01,0.04,0.01
								c0.82,0.5,1.72,0.84,2.65,1.06c0.04,0.03,0.09,0.04,0.13,0.04c2.51,0.57,5.27,0.17,7.79-1.56c1.33-0.92,2.33-1.94,3.12-3.1
								c2.03-2.92,2.83-6.77,4.21-12.19c0.43-1.59,0.49-3.27,0.16-4.89c-1.17-5.78-6.81-9.51-12.57-8.34
								C325.68,143.3,322.46,154.45,322.77,161.67z"/>
							<path style="opacity:0.2;" d="M328.27,170.67c0.82,0.5,1.72,0.84,2.65,1.06c0.04,0.03-0.39-4.75-0.39-4.75
								C330.57,166.9,328.84,170.66,328.27,170.67z"/>
						</g>
						<g>
							<path style="fill:#263238;" d="M355.59,156.13c-0.86,1.12-1.99,2.29-3.4,2.42c-0.83,0.08-1.66-0.07-2.42-0.38
								c-2.5,4.33-7.8,8.93-7.8,8.93c-1.34,0.5-2.74,0.76-4.15,0.76c-1.47,0-2.95-0.28-4.34-0.83c-0.45-0.18-0.77-0.3-0.82-0.31
								c-0.39-0.09-2.4-8.54-5.21-9.83c-0.63-0.3-0.63-0.3-0.63-0.3c0.19-0.89-0.09-3.36,0.78-4.2c0.47-0.46-0.82-1.63-0.72-2.52
								c0.01-0.08,0.02-0.14,0.04-0.22c-0.89-0.56-0.95-1.76-0.62-3.04c0.85-3.22,2.55-2.34,2.55-2.34s-0.9-1.06-0.57-2.91
								c0.35-1.84,3.79-2.76,3.79-2.76s0.46,0.08,1.22,0.24c0.78-0.62,1.78-0.95,2.78-0.88c1.33,0.08,3.02,0.99,3.69,2.13
								c1.08-0.86,2.62-1.14,3.93-0.69c1.32,0.44,2.38,1.57,2.72,2.92c1.27-0.48,2.61,0.03,3.6,0.96c1,0.92,1.4,2.43,1.02,3.73
								c0.99,0.34,1.63,1.04,1.74,2.08s-0.12,2.08-0.26,3.11c-0.13,1.03-0.13,2.14,0.4,3.04
								C353.46,156.1,354.69,156.65,355.59,156.13z"/>
						</g>
						<path style="fill:#CB7A63;" d="M330.45,151.74c-2.23,0.71-3.34,4.04-3.39,6.15c-0.06,2.33,1.52,3.76,3.51,2.16
							c1.5-1.23,2.56-2.92,3-4.81C334.08,152.95,332.69,151.03,330.45,151.74z"/>
					</g>
				</g>
			</g>
			<path style="fill:#407BFF;" d="M311.33,186.81c0,0,0,0-14.11,16.02c-1.95,4.54,4.81,9.54,9.59,5.1l16.92-19.49
				c1.22-2.66,1.39-4.86-0.41-6.63C320.97,179.48,316.82,178,311.33,186.81z"/>
		</g>
	</g>
</g>
<g id="Character_1">
	<g>
		<g>
			<g>
				<path style="fill:#B97964;" d="M118.61,217.33c6.48,6.95,10.37,10.39,12.79,12.3c2.63,2.07,25.13-11.62,27.92-13.18
					c0,0-2.51-2.48-3.56-2.21c-3.93,1-21.45,7.05-21.45,7.05c-0.82-0.25-8.91-9.54-8.91-9.54L118.61,217.33z"/>
			</g>
			<g>
				<g>
					<path style="fill:#B97964;" d="M162.24,213l-0.07-0.05l0.08,0.07c0,0-2,3.28-4.72,4.09l-2.06-2.02l0.93-5.99l0.05-0.36
						l0.22-0.21l2.82-2.74c0.57-0.56,1.49-0.56,2.06,0l2.11,2.04c0.47,0.45,0.59,1.15,0.29,1.73L162.24,213z"/>
				</g>
			</g>
		</g>
		<g>
			<g>
				<g>
					<path style="fill:#263238;" d="M130.65,214.66c-5.74-8.18-15.82-13.52-18.69-13.56c-4.14-0.07-5.42,0.89-3.85,4.04
						c2.65,5.34,7.05,10.78,13.11,17.29L130.65,214.66z"/>
				</g>
			</g>
		</g>
		<path style="fill:#263238;" d="M114.33,201.51c-2.35-0.84-3.33-1.16-7.05-2.12c-4.37-1.05-8.8-1.78-13.27-2.19
			c-2.83-0.32-5.61-0.42-7.83-0.43c-0.27,0-0.53,0.03-0.79,0.09c-2.01,0.45-3.3,2.52-2.9,4.61c4.39,23.21,4.6,33.5,3.97,45.46
			l26.72,0.95c0.68,0.02,1.28-0.49,1.42-1.2c1.18-6.03,4.88-19.41,4.88-19.41c3.77-2.66,3.61-5.73,2.62-9.66
			c-0.31-1.23-1.02-2.41-4.06-9.05C118.04,208.57,115.71,202.01,114.33,201.51z"/>
		<path style="fill:#FFFFFF;" d="M97.45,247.31l9.74,0.35c1.45-11.56,0.72-20.19,0.67-33.32C107.9,226.6,100.88,241.35,97.45,247.31
			z"/>
		<g>
			<g>
				<path style="fill:#B97964;" d="M107.55,251.97c0,0,12.01,59.41,11.4,84.03c-0.65,25.94-5.73,70.6-5.73,70.6l-6.34-0.07
					c0,0-5.69-33.06-2.43-69.33c-16.59-36.36-20.9-82.9-20.9-82.9L107.55,251.97z"/>
				<path style="fill:#A86955;" d="M107.55,251.97c0,0,12.01,59.41,11.4,84.03c-0.65,25.94-5.73,70.6-5.73,70.6l-6.34-0.07
					c0,0-5.69-33.06-2.43-69.33c-16.59-36.36-20.9-82.9-20.9-82.9L107.55,251.97z"/>
			</g>
			<g>
				<path style="fill:#B97964;" d="M102.16,266.62c0,0,3.13,46.5-0.13,70.91c-3.44,25.72-13.3,69.57-13.3,69.57l-6.29-0.75
					c0,0-2.09-33.48,5.05-69.19c-12.58-37.93-9.44-70.81-9.44-70.81L102.16,266.62z"/>
				<path style="fill:#B97964;" d="M102.16,266.62c0,0,3.13,46.5-0.13,70.91c-3.44,25.72-13.3,69.57-13.3,69.57l-6.29-0.75
					c0,0-2.09-33.48,5.05-69.19c-12.58-37.93-9.44-70.81-9.44-70.81L102.16,266.62z"/>
			</g>
			<g>
				<path style="fill:#407BFF;" d="M78.26,320.08c3.8,0.8,9.71,2.47,19.7,3.45c0.2,0.01,0.39,0.03,0.6,0.05
					c0.42,0.04,0.86,0.07,1.31,0.09c2.68,0.14,20.65,2.47,21.89-4.92c0,0-3.87-18.32-7.59-38.66c-2.26-12.33-0.42-29.66-0.42-29.66
					l0,0c-7.79-0.92-15.65-1.15-23.48-0.69L85.71,250c0,0-15.4,15.24-11.58,30.33C79.85,302.91,78.26,320.08,78.26,320.08z"/>
			</g>
			<g style="opacity:0.4;">
				<path d="M78.26,320.08c3.8,0.8,9.71,2.47,19.7,3.45c0.2,0.01,0.39,0.03,0.6,0.05c0.42,0.04,0.86,0.07,1.31,0.09
					c2.68,0.14,20.65,2.47,21.89-4.92c0,0-3.87-18.32-7.59-38.66c-2.26-12.33-0.42-29.66-0.42-29.66l0,0
					c-7.79-0.92-15.65-1.15-23.48-0.69L85.71,250c0,0-15.4,15.24-11.58,30.33C79.85,302.91,78.26,320.08,78.26,320.08z"/>
			</g>
		</g>
		<path style="opacity:0.1;" d="M90.18,196.83L90.18,196.83c0.64,2.35,1.67,4.57,3.1,6.53c3.87,5.33,9.58,11.11,12.1,11.75
			c0.72-1.68,1.84-4.95,1.84-4.95c1.65,0.81,2.11,3.15,2.66,4.92c2.65-4.3,4.67-11.7,4-14.39c0,0-3.21-0.95-4.8-1.34
			c-4.37-1.02-8.8-1.73-13.27-2.13C93.86,196.97,91.92,196.84,90.18,196.83z"/>
		<path style="fill:#FFFFFF;" d="M90.1,196.34l0.88,1.6c3.41,6.19,11.31,14.15,14.4,14.94c0.72-1.68,1.46-4.57,1.46-4.57
			c1.65,0.81,2.87,3.15,3.42,4.92c2.65-4.3,4.22-10.33,3.55-13.02l0,0c-1.55-0.47-3.21-0.95-4.8-1.34
			c-4.37-1.02-8.8-1.73-13.27-2.13C93.78,196.48,91.84,196.36,90.1,196.34z"/>
		<g>
			<path style="fill:#407BFF;" d="M86.48,250l13.53,0.36l1.13,0.03l2.92,0.07l1.12,0.04l7.94,0.21c0.25-0.02,0.46-0.12,0.47-0.28
				l0.31-2.55c0.03-0.17-0.19-0.33-0.47-0.34l-7.85-0.31l-0.94-0.04l-3.88-0.15L99.86,247l-13.03-0.51
				c-0.18-0.02-0.35,0.05-0.47,0.2l-0.32,2.89C85.93,249.77,86.16,249.98,86.48,250z"/>
			<path style="opacity:0.2;fill:#FFFFFF;" d="M86.48,250l13.53,0.36l1.13,0.03l2.92,0.07l1.12,0.04l7.94,0.21
				c0.25-0.02,0.46-0.12,0.47-0.28l0.31-2.55c0.03-0.17-0.19-0.33-0.47-0.34l-7.85-0.31l-0.94-0.04l-3.88-0.15L99.86,247
				l-13.03-0.51c-0.18-0.02-0.35,0.05-0.47,0.2l-0.32,2.89C85.93,249.77,86.16,249.98,86.48,250z"/>
		</g>
		<g>
			<path style="fill:#263238;" d="M109.39,250.94l-0.87-0.01c-0.18,0.02-0.3-0.1-0.29-0.22l0.49-3.61c-0.01-0.1,0.17-0.2,0.35-0.2
				l0.87,0.02c0.18-0.02,0.3,0.1,0.29,0.21l-0.48,3.62C109.68,250.86,109.57,250.95,109.39,250.94z"/>
			<path style="fill:#263238;" d="M94.32,250.72l-0.82-0.02c-0.17,0.02-0.29-0.1-0.28-0.2l0.49-3.63c-0.01-0.1,0.17-0.19,0.33-0.18
				l0.82,0.02c0.17-0.02,0.29,0.09,0.28,0.2l-0.49,3.61C94.63,250.64,94.48,250.72,94.32,250.72z"/>
		</g>
		<polygon style="fill:#407BFF;" points="123.02,240.16 102.62,240.16 105,212.88 125.41,212.88 		"/>
		<g>
			<path style="fill:#B97964;" d="M86.59,235.07c0.77-0.9,1.28-1.85,1.1-2.99c0,0,0.03-1.66,0.06-4.19
				c0.09-7.39,0.15-22.12-0.63-24.07c-1.68-4.22-4.56-6.51-6.07-4.04c-1.76,2.88-1.89,24.76-1.89,24.76
				C79.57,239.02,84.87,237.09,86.59,235.07z"/>
			<g>
				<g>
					<path style="fill:#B97964;" d="M114.78,232.87l-0.04-0.08l0.04,0.1c0,0-3.31,1.94-6.1,1.38l-0.86-2.75l3.65-4.84l0.22-0.29
						l0.29-0.09l3.78-1.08c0.77-0.22,1.58,0.21,1.82,0.97l0.9,2.8c0.2,0.62-0.03,1.29-0.56,1.67L114.78,232.87z"/>
				</g>
			</g>
			<path style="fill:#B97964;" d="M82.22,235.87c2.39,2.94,26.81-1.41,27.01-1.5c0.79-0.36,0.92-2.45,0-3.21
				c-0.5-0.42-25.47-2.69-27.2-2.82C79.07,232.88,81,234.37,82.22,235.87z"/>
		</g>
		<g>
			<g>
				<g>
					<path style="fill:#263238;" d="M116.83,167.97c3.32,4.02,5.05,7.03,3.04,20.47c-0.38,2.54,0.72,8.49,1.2,8.55
						c-13.04-1.51-16.76-3.65-22.95-7.44c-4.14-2.53-7.52-11.69-6.44-16.42c1.16-5.1,6.72-11.06,12.09-11.56
						C109.79,161,113.06,163.4,116.83,167.97z"/>
					<path style="fill:#B97964;" d="M107.91,193.29c-1.39,2.75-2.23,5.87,1.13,8.66c0.71,0.59,1.25,1.39,1.43,2.3
						c0.28,1.46-0.33,3.03-5.52,0.99c-7.51-2.94-7.68-7.63-7.68-7.63c3.41-1.69,4.31-9.63,4.42-14.1L107.91,193.29z"/>
					<path style="opacity:0.2;enable-background:new    ;" d="M103.15,189.95c-0.22,1.94,2.21,4.56,3.88,5.49
						c0.23-0.74,0.52-1.46,0.88-2.15l-3.68-5.79C103.7,188.23,103.34,189.07,103.15,189.95z"/>
					<path style="fill:#B97964;" d="M98.28,172.52c1.91-4.98,7.49-7.46,12.47-5.54c7.02,2.66,8.3,13.16,6.97,19.6
						c-1.45,7.19-10.06,9.49-15.61,4.09c-3.71-3.59-3.81-6.62-4.43-13.72C97.54,175.44,97.74,173.92,98.28,172.52z"/>
					<path style="fill:#263238;" d="M99.14,184.46c0,0,3-2.9,2.45-8.19c0,0,3.24-3.32,3.08-6.87c0,0,0.96,2.83,0.01,4.85
						c0,0,8.41-0.61,8.21-4.85c0,0,0.72,3.68-0.54,4.78c0,0,5.8-0.45,5.34-4.43c-0.71-6.12-5.92-6.44-5.92-6.44
						s-5.58-4.74-13.3,3.63c0,0-9.09,5.67-2.65,15.13L99.14,184.46z"/>
					<path style="fill:#B74D3C;" d="M113.51,184.07c0.72,0.16,1.46,0,2.05-0.44c-0.89-1.11-1.61-2.34-2.17-3.66L113.51,184.07z"/>
					<path style="fill:#263238;" d="M108.12,184.71c-0.05-0.08-0.04-0.19,0.04-0.24c0.08-0.05,0.18-0.03,0.24,0.04
						c0.91,1.15,2.32,1.78,3.78,1.71c0.09,0,0.16,0.08,0.17,0.17c0,0,0,0.01,0,0.01c0,0.09-0.07,0.16-0.16,0.16
						c-0.28,0.01-0.55,0-0.83-0.03C110.08,186.39,108.91,185.73,108.12,184.71z"/>
				</g>
				<path style="fill:#B97964;" d="M95.01,181.24c-0.04-1.46,1.09-2.67,2.54-2.72c2-0.03,3.33,2.48,3.62,4.21
					c0.29,1.92-0.87,3.57-2.77,2.78c-1.42-0.62-2.55-1.77-3.13-3.22C95.11,181.96,95.03,181.6,95.01,181.24z"/>
			</g>
			<g>
				<path style="fill:#263238;" d="M108.67,178.01c-0.02,0.71,0.34,1.3,0.81,1.32c0.47,0.02,0.86-0.55,0.87-1.27
					c0.01-0.72-0.34-1.3-0.8-1.32C109.08,176.72,108.69,177.29,108.67,178.01z"/>
				<path style="fill:#263238;" d="M115.29,178.76c-0.02,0.71,0.34,1.3,0.81,1.32c0.46,0.02,0.86-0.55,0.88-1.27
					c0.02-0.72-0.34-1.3-0.81-1.32C115.71,177.47,115.3,178.04,115.29,178.76z"/>
				<path style="fill:#263238;" d="M115.96,177.52l1.72-0.44C117.69,177.08,116.77,178.39,115.96,177.52z"/>
				<path style="fill:#263238;" d="M106.67,175.65c-0.06-0.02-0.11-0.05-0.16-0.09c-0.14-0.13-0.14-0.35-0.01-0.49c0,0,0,0,0,0
					c0.89-0.98,2.21-1.46,3.52-1.28c0.19,0.04,0.31,0.22,0.27,0.41c-0.04,0.19-0.21,0.31-0.4,0.28c-1.09-0.13-2.17,0.28-2.9,1.09
					C106.91,175.65,106.79,175.68,106.67,175.65z"/>
				<path style="fill:#263238;" d="M117.83,176.52c-0.05-0.03-0.1-0.07-0.14-0.12c-0.61-0.91-1.61-1.47-2.7-1.52
					c-0.19,0.01-0.35-0.14-0.37-0.33c0,0,0,0,0,0c0-0.19,0.15-0.35,0.34-0.36c1.32,0.04,2.55,0.71,3.3,1.82
					c0.12,0.15,0.09,0.37-0.06,0.49C118.1,176.57,117.95,176.58,117.83,176.52L117.83,176.52z"/>
				<path style="fill:#263238;" d="M109.34,176.77l1.72-0.44C111.06,176.33,110.15,177.64,109.34,176.77z"/>
			</g>
		</g>
		<g>
			<g>
				<path style="fill:#263238;" d="M83.95,197.13c1.71-0.41,3.54,0.06,4.75,1.33c1.33,1.4,2.17,3.36,2.42,5.32
					c0.39,3.03-2.88,13.93-2.8,17.01c-3.22-1.77-7.97-4.18-12.48-4.62c0.62-7.18,1.45-11.95,2.84-14.32
					c0.8-1.36,1.63-2.76,2.85-3.75C82.09,197.66,83.05,197.35,83.95,197.13z"/>
			</g>
		</g>
	</g>
	<path style="fill:#263238;" d="M114.86,407.39c2.28,2.26,3.48,3.43,9.63,4.84c1.36,0.3,0.47,3.55-2.76,3.52
		c-5.34-0.06-2.42-0.27-6.96-0.32c-3.89-0.04-7.29,0.01-10.38,0.03c-0.1,0-0.21-0.01-0.31-0.03c-0.62-0.14-1-0.76-0.86-1.37
		l1.56-6.93c0.07-0.31,0.35-0.53,0.67-0.52l7.48,0.17C113.63,406.71,114.32,406.94,114.86,407.39z"/>
	<path style="fill:#263238;" d="M91,407.88c1.46,2.86,2.23,4.34,7.64,7.6c1.19,0.71-0.66,3.52-3.72,2.48
		c-5.05-1.72-2.21-1.02-6.51-2.48c-3.68-1.26-6.93-2.26-9.88-3.21c-0.1-0.03-0.2-0.07-0.29-0.13c-0.54-0.33-0.72-1.03-0.39-1.57
		l3.65-6.1c0.16-0.28,0.5-0.4,0.8-0.29l7.06,2.5C90.04,406.85,90.63,407.28,91,407.88z"/>
</g>
</svg>
