<?xml version="1.0" encoding="utf-8"?>
<!-- Generator: Adobe Illustrator 16.0.0, SVG Export Plug-In . SVG Version: 6.00 Build 0)  -->
<!DOCTYPE svg PUBLIC "-//W3C//DTD SVG 1.1//EN" "http://www.w3.org/Graphics/SVG/1.1/DTD/svg11.dtd">
<svg version="1.1" id="Layer_1" xmlns="http://www.w3.org/2000/svg" xmlns:xlink="http://www.w3.org/1999/xlink" x="0px" y="0px"
	 width="900px" height="500px" viewBox="0 0 900 500" enable-background="new 0 0 900 500" xml:space="preserve">
<g>
	<defs>
		<rect id="SVGID_1_" width="900" height="500"/>
	</defs>
	<clipPath id="SVGID_2_">
		<use xlink:href="#SVGID_1_"  overflow="visible"/>
	</clipPath>
	<rect clip-path="url(#SVGID_2_)" fill="#FFFFFF" width="900" height="500"/>
	<g clip-path="url(#SVGID_2_)">
		<defs>
			<rect id="SVGID_3_" width="900" height="500"/>
		</defs>
		<clipPath id="SVGID_4_">
			<use xlink:href="#SVGID_3_"  overflow="visible"/>
		</clipPath>
		<rect clip-path="url(#SVGID_4_)" fill="none" stroke="#000000" stroke-miterlimit="10" width="900" height="500"/>
	</g>
	<g clip-path="url(#SVGID_2_)">
		<defs>
			<rect id="SVGID_5_" width="900" height="500"/>
		</defs>
		<clipPath id="SVGID_6_">
			<use xlink:href="#SVGID_5_"  overflow="visible"/>
		</clipPath>
		<path clip-path="url(#SVGID_6_)" fill="#FFFFFF" d="M721.93,211.856c-32.4-30.371-70.355-38.205-80.39-39.806
			c6.756-18.227,17.199-45.329,19.8-49.343c0.837-0.113,2.546-0.289,5.07-0.289c7.372,0,23.146,1.533,45.967,11.803
			c32.954,14.829,41.776,31.513,43.509,35.593L721.93,211.856z"/>
		<path clip-path="url(#SVGID_6_)" fill="#A0C6F4" d="M666.411,124.418c7.211,0,22.665,1.511,45.146,11.626
			c29.814,13.417,39.448,28.415,41.986,33.489l-31.826,39.404c-19.153-17.438-39.797-27.07-54.075-32.14
			c-10.125-3.596-18.413-5.438-23.381-6.331c7.466-20.066,15.591-40.722,18.319-45.886
			C663.466,124.498,664.748,124.418,666.411,124.418 M666.411,120.418c-4.01,0-6.07,0.423-6.07,0.423
			c-2.343,0.781-21.537,52.843-21.537,52.843s45.563,4.648,83.318,41.116l36.039-44.62c0,0-6.014-20.256-44.964-37.783
			C690.373,122.126,674.464,120.418,666.411,120.418"/>
		
			<path clip-path="url(#SVGID_6_)" fill="none" stroke="#2A1E17" stroke-linecap="round" stroke-linejoin="round" stroke-miterlimit="10" d="
			M645.492,177.728c0,0,44.803,4.525,72.408,29.868"/>
		<polygon clip-path="url(#SVGID_6_)" fill="#A0C6F4" points="684.18,175.543 700.894,143.044 718.072,176.936 		"/>
		
			<polygon clip-path="url(#SVGID_6_)" fill="none" stroke="#2A1E17" stroke-linecap="round" stroke-linejoin="round" stroke-miterlimit="10" points="
			687.43,175.079 704.144,142.58 721.322,176.472 		"/>
		
			<path clip-path="url(#SVGID_6_)" fill="none" stroke="#2A1E17" stroke-linecap="round" stroke-linejoin="round" stroke-miterlimit="10" d="
			M671.74,118.444c0,0,50.232,4.526,81.459,41.635"/>
		<path clip-path="url(#SVGID_6_)" fill="#2A1E17" d="M697.406,262.463c-2.758-2.028-4.568-3.389-4.568-3.389
			c0.765-1.02,12.854-13.898,19.852-24.276C712.689,234.798,698.535,263.292,697.406,262.463"/>
		
			<path clip-path="url(#SVGID_6_)" fill="none" stroke="#2A1E17" stroke-linecap="round" stroke-linejoin="round" stroke-miterlimit="10" d="
			M526.12,168.592c1.347,2.244,1.945,1.346,5.834,1.047c3.89-0.299,9.424,2.543,11.368,7.33c1.943,4.787,1.347,5.535,0.3,6.133
			c-1.048,0.598-8.526,1.495-8.826,2.991"/>
		<polygon clip-path="url(#SVGID_6_)" fill="#F9865F" points="626.892,412.054 623.407,406.163 611.044,426.77 614.289,429.266 		
			"/>
		<path clip-path="url(#SVGID_6_)" fill="#F9865F" d="M544.798,360.953c0,0-6.406-10.416-3.658-15.52l20.438,2.187L544.798,360.953z
			"/>
		<path clip-path="url(#SVGID_6_)" d="M544.798,360.953l1.225,2.813l-3.775,14.725c-0.476,1.854,0.14,3.816,1.589,5.067
			l18.691-27.63c1.775-2.624,1.373-6.151-0.95-8.308l-4.175-3.88L544.798,360.953z"/>
		<path clip-path="url(#SVGID_6_)" fill="#2A1E33" d="M534.796,186.093c5.854-0.139,13.271-0.51,11.787-4.96
			s-7.046-15.576-19.655-12.238c0,0-4.45,3.708,1.112,10.384C533.604,185.954,534.796,186.093,534.796,186.093"/>
		<path clip-path="url(#SVGID_6_)" fill="#7595EC" d="M564.421,347.866c0,0-9.991-29.498-1.537-42.45
			c6.978-10.689,29.773,6.697,32.896,9.04l16.311-29.457c0,0-3.765-5.279-13.01-10.447c-9.244-5.169-47.433-20.647-65.38,7.668
			c-6.633,10.465-6.734,55.372,5.986,72.583L564.421,347.866z"/>
		
			<path clip-path="url(#SVGID_6_)" fill="none" stroke="#2A1E17" stroke-linecap="round" stroke-linejoin="round" stroke-miterlimit="10" d="
			M564.421,347.866c0,0-9.991-29.498-1.537-42.45c6.978-10.689,29.773,6.697,32.896,9.04"/>
		<path clip-path="url(#SVGID_6_)" fill="#7595EC" d="M612.091,284.999c-7.418,7.809-29.411,45.849-34.356,64.029
			c-6.615,24.318-4.128,44.488,32.231,83.98l17.575-25.599c0,0-12.357-18.766-10.05-36.453c3.337-25.59,21.548-50.401,30.762-66.139
			L612.091,284.999z"/>
		<polygon clip-path="url(#SVGID_6_)" fill="#2A1E17" points="614.883,288.305 644.119,311.25 652.855,297.967 		"/>
		<path clip-path="url(#SVGID_6_)" fill="#FF8A66" d="M782.802,264.18c4.56,0.979,8.033,2.714,10.421,5.211
			c2.388,2.496,1.303,3.799,0.435,4.559c-0.869,0.76-4.233-0.108-7.164-2.714C783.562,268.631,782.802,264.18,782.802,264.18"/>
		<path clip-path="url(#SVGID_6_)" fill="#F9865F" d="M692.838,259.074c0.765-1.02,12.854-13.898,19.852-24.276
			c0,0,21.154,23.703,23.448,24.467c0.854,0.284,6.039,0.217,12.479,0.15c10.885-0.113,25.353-0.222,28.555,1.379
			c5.098,2.549,8.156,3.823,9.431,7.392s1.776,5.898-1.274,6.116c-3.568,0.256-5.862-4.332-5.862-4.332s-2.915,1.761-10.449,4.588
			c0,0-27.108,10.523-45.228,5.434C718.841,278.603,692.838,259.074,692.838,259.074"/>
		<path clip-path="url(#SVGID_6_)" fill="#F9865F" d="M528.514,164.404c-2.326,0.886-3.739,1.944-2.395,4.188
			c1.348,2.244,1.946,1.346,5.834,1.047c3.891-0.299,9.425,2.543,11.369,7.33s1.347,5.535,0.3,6.133
			c-1.048,0.598-8.526,1.495-8.826,2.991c-0.299,1.496,3.03,5.912,9.912,5.612l1.646-0.299c0,0,14.47,14.133,16.564,16.227
			c2.094,2.095,17.484,12.521,25.962,14.641c6.444,1.61,19.499-0.467,27.345-1.998c3.811-0.743,6.391-1.357,6.391-1.357
			s-5.887-10.605-7.084-26.91c0,0-14.084,2.263-23.443,4.316c0,0-21.841-12.176-32.461-17.561c0,0-9.274-11.368-13.612-12.864
			S531.655,163.207,528.514,164.404"/>
		<path clip-path="url(#SVGID_6_)" fill="#2A1E17" d="M616.225,220.276c3.81-0.743,6.391-1.357,6.391-1.357
			s-7.121-8.977-8.317-25.282c0,0-3.22,3.47-2.22,12.704C613.338,217.947,616.225,220.276,616.225,220.276"/>
		<path clip-path="url(#SVGID_6_)" fill="#FFF7C9" d="M613.953,191.812c0,0,0.197,19.925,5.535,28.236l1.914-0.766
			c0,0-25.155,29.429-33.291,48.658c-1.331,3.146,52.229,37.358,60.142,36.879c0,0,26.095-39.828,35.021-51.635l9.592,7.434
			c0,0,18.813-19.053,19.824-25.819c0,0-18.172-22.113-33.039-28.587c-14.866-6.474-28.151-17.566-44.121-17.265
			C621.705,189.208,613.953,191.812,613.953,191.812"/>
		<polygon clip-path="url(#SVGID_6_)" fill="#2A1E17" points="692.865,260.617 683.273,253.184 684.802,249.02 		"/>
		<path clip-path="url(#SVGID_6_)" fill="#F9865F" d="M707.456,181.833c-1.68,5.223-6.529,20.334-11.938,22.2
			c-5.411,1.865-11.044-0.477-11.044-0.477l-5.763,2.949c-0.643,1.929-5.191,3.59-11.064,3.816c-4.349,0.167-6.996-5.417-5.709-9.46
			c0.591-1.856,2.798-11.007,2.798-11.007s4.664-17.162,8.955-20.707c4.29-3.544,8.322-7.054,19.774-2.425
			C711,173.812,707.456,181.833,707.456,181.833"/>
		<path clip-path="url(#SVGID_6_)" fill="#2A1E33" d="M672.691,182.576c-0.77,3.208-4.105,9.623-6.286,8.468
			c-2.182-1.155-2.951-4.106-1.412-9.751c1.54-5.645,2.823-18.475,7.186-20.785c4.362-2.309,6.286,0.385,6.286,0.385
			s-1.924-9.366,3.721-10.649c0,0,1.925-0.898,1.155,5.517c0,0,2.181-5.902,9.237-5.132s9.494,10.649,9.494,10.649
			s0.514-2.694,3.721-2.694c3.208,0,8.083,4.747,6.929,10.007c0,0,8.208-2.569,12.573,3.978c4.362,6.543,3.849,13.728-6.672,16.55
			c-11,2.952-10.905-9.879-12.573-11.547c-1.669-1.667-3.464-3.592-9.623-1.283c-6.158,2.309-12.573-4.49-12.573-4.49
			s-1.026,8.211-2.053,8.981s-3.079,1.796-2.566-2.053c0.514-3.849,1.155-3.464,0.77-4.49c-0.384-1.027-2.12-4.265-5.772-1.412
			C670.126,176.033,672.691,182.576,672.691,182.576"/>
		
			<path clip-path="url(#SVGID_6_)" fill="none" stroke="#2A1E33" stroke-linecap="round" stroke-linejoin="round" stroke-miterlimit="10" d="
			M674.438,184.013c-2.447-2.056-4.146-5.678-1.991-9.3s5.678-4.112,6.755-2.741c1.077,1.37,1.493,3.681,0.481,6.421"/>
		<path clip-path="url(#SVGID_6_)" d="M614.289,429.266l1.225,2.813l-3.775,14.726c-0.476,1.854,0.14,3.815,1.588,5.066
			l18.691-27.629c1.775-2.625,1.373-6.152-0.949-8.309l-4.176-3.879L614.289,429.266z"/>
		
			<path clip-path="url(#SVGID_6_)" fill="none" stroke="#2A1E33" stroke-linecap="round" stroke-linejoin="round" stroke-miterlimit="10" d="
			M678.465,160.894c0,0-1.431-4.656-5.721-5.881"/>
		
			<line clip-path="url(#SVGID_6_)" fill="none" stroke="#2A1E17" stroke-linecap="round" stroke-linejoin="round" stroke-miterlimit="10" x1="587.525" y1="266.534" x2="639.307" y2="194.201"/>
		
			<path clip-path="url(#SVGID_6_)" fill="none" stroke="#2A1E17" stroke-linecap="round" stroke-linejoin="round" stroke-miterlimit="10" d="
			M660.65,199.261c-1.865,2.426-2.716,12.864,5.868,13.542c8.583,0.677,14.069-3.093,14.069-3.093"/>
		
			<path clip-path="url(#SVGID_6_)" fill="none" stroke="#2A1E17" stroke-linecap="round" stroke-linejoin="round" stroke-miterlimit="10" d="
			M546.015,165.899c0,0,5.919,7.834,6.85,10.625"/>
		
			<path clip-path="url(#SVGID_6_)" fill="none" stroke="#2A1E17" stroke-linecap="round" stroke-linejoin="round" stroke-miterlimit="10" d="
			M767.636,270.928c0,0,3.955,3.256,11.83-0.957c2.856-1.528,0.822-5.143-2.792-4.239c-3.615,0.903-7.908-0.452-7.908-0.452"/>
		
			<path clip-path="url(#SVGID_6_)" fill="none" stroke="#2A1E17" stroke-linecap="round" stroke-linejoin="round" stroke-miterlimit="10" d="
			M784.158,264.632c0,0,3.794,4.426,3.689,7.056"/>
		
			<path clip-path="url(#SVGID_6_)" fill="none" stroke="#2A1E17" stroke-linecap="round" stroke-linejoin="round" stroke-miterlimit="10" d="
			M728.322,264.149c0,0,3.431-4.57,7.815-4.884"/>
		
			<path clip-path="url(#SVGID_6_)" fill="none" stroke="#2A1E17" stroke-linecap="round" stroke-linejoin="round" stroke-miterlimit="10" d="
			M583.668,203.71c0,0,2.003-6.238,8.42-7.385"/>
		
			<path clip-path="url(#SVGID_6_)" fill="none" stroke="#2A1E17" stroke-linecap="round" stroke-linejoin="round" stroke-miterlimit="10" d="
			M601.057,298.385l-7.655,14.646c0,0-25.241,42.714-16.676,70.31"/>
		
			<path clip-path="url(#SVGID_6_)" fill="none" stroke="#2A1E17" stroke-linecap="round" stroke-linejoin="round" stroke-miterlimit="10" d="
			M623.418,347.391l24.835-42.572c0,0,32.55-47.21,35.881-53.871l11.486-21.25"/>
		
			<path clip-path="url(#SVGID_6_)" fill="none" stroke="#2A1E17" stroke-linecap="round" stroke-linejoin="round" stroke-miterlimit="10" d="
			M590.992,271.068c0,0,44.164,32.199,57.261,33.75"/>
		
			<path clip-path="url(#SVGID_6_)" fill="none" stroke="#2A1E17" stroke-linecap="round" stroke-linejoin="round" stroke-miterlimit="10" d="
			M613.953,191.812c0,0-0.04,20.207,5.407,28.492"/>
		
			<path clip-path="url(#SVGID_6_)" fill="none" stroke="#2A1E17" stroke-linecap="round" stroke-linejoin="round" stroke-miterlimit="10" d="
			M711.271,231.596c-1.387,8.329-19.825,25.819-19.825,25.819"/>
		<path clip-path="url(#SVGID_6_)" fill="#2A1E17" d="M576.334,332.7c0,1.448-1.174,2.622-2.622,2.622
			c-1.449,0-2.623-1.174-2.623-2.622s1.174-2.623,2.623-2.623C575.16,330.077,576.334,331.252,576.334,332.7"/>
		
			<polygon clip-path="url(#SVGID_6_)" fill="none" stroke="#2A1E17" stroke-linecap="round" stroke-linejoin="round" stroke-miterlimit="10" points="
			819.753,389.052 818.304,379.021 826.859,384.709 822.382,385.686 		"/>
		
			<path clip-path="url(#SVGID_6_)" fill="none" stroke="#2A1E17" stroke-linecap="round" stroke-linejoin="round" stroke-miterlimit="10" d="
			M536.012,217.817c-16.212-14.305-43.003,21.366,55.03,134.904c56.551,65.496,100.983,71.369,107.003,48.583
			c10.798-40.88-28.2-51.214-13.689-35.202c21.1,23.283,81.118,28.201,125.842,6.475c44.13-21.438,17.004-54.73,14.265-56.673"/>
		<path clip-path="url(#SVGID_6_)" fill="#2A1E17" d="M813.526,372.372c0,1.448-1.174,2.623-2.622,2.623
			c-1.449,0-2.623-1.175-2.623-2.623s1.174-2.622,2.623-2.622C812.353,369.75,813.526,370.924,813.526,372.372"/>
		
			<line clip-path="url(#SVGID_6_)" fill="none" stroke="#2A1E17" stroke-linecap="round" stroke-linejoin="round" stroke-miterlimit="10" x1="772.744" y1="393.776" x2="850.477" y2="349.964"/>
		<path clip-path="url(#SVGID_6_)" fill="#2A1E17" d="M540.252,219.937c0,1.448-1.175,2.623-2.623,2.623s-2.622-1.175-2.622-2.623
			c0-1.448,1.174-2.623,2.622-2.623S540.252,218.489,540.252,219.937"/>
		<path clip-path="url(#SVGID_6_)" fill="#FF6D66" d="M610.122,165.795c0,3.107-2.519,5.626-5.626,5.626s-5.626-2.519-5.626-5.626
			s2.519-5.626,5.626-5.626S610.122,162.688,610.122,165.795"/>
		<path clip-path="url(#SVGID_6_)" fill="#A0C6F4" d="M502.405,122.884c-1.366,0-2.474,1.107-2.474,2.473
			c0,1.366,1.107,2.473,2.474,2.473s2.474-1.107,2.474-2.473C504.879,123.991,503.771,122.884,502.405,122.884"/>
		<path clip-path="url(#SVGID_6_)" fill="#FAD8B0" d="M836.276,427.59c0,1.366-1.107,2.474-2.474,2.474
			c-1.365,0-2.473-1.107-2.473-2.474s1.107-2.474,2.473-2.474C835.169,425.116,836.276,426.224,836.276,427.59"/>
		<path clip-path="url(#SVGID_6_)" fill="#2A1E33" d="M789.612,315.893l-26.587-12.478c-2.146-1.007-2.108-4.07,0.061-5.025
			l49.465-21.765c0.7-0.308,1.497-0.312,2.2-0.01l33.976,14.584L789.612,315.893z"/>
		<path clip-path="url(#SVGID_6_)" fill="#C6CBCB" d="M787.966,274.886c0.067,11.002,1.646,41.007,1.646,41.007l59.115-24.694
			l-1.325-41.751c-0.082-2.563-2.745-4.217-5.077-3.154l-50.898,23.195C789.31,270.451,787.951,272.561,787.966,274.886"/>
		
			<path clip-path="url(#SVGID_6_)" fill="none" stroke="#2A1E17" stroke-linecap="round" stroke-linejoin="round" stroke-miterlimit="10" d="
			M789.612,315.893l59.114-24.693l-1.325-41.752c0,0-0.394-4.559-5.077-3.154"/>
		
			<line clip-path="url(#SVGID_6_)" fill="none" stroke="#2A1E17" stroke-linecap="round" stroke-linejoin="round" stroke-miterlimit="10" x1="818.225" y1="285.883" x2="822.216" y2="276.449"/>
		
			<line clip-path="url(#SVGID_6_)" fill="none" stroke="#2A1E17" stroke-linecap="round" stroke-linejoin="round" stroke-miterlimit="10" x1="822.216" y1="285.883" x2="826.207" y2="276.449"/>
		<path clip-path="url(#SVGID_6_)" fill="#FF6D66" d="M515.541,386.313c0,1.366-1.107,2.474-2.474,2.474s-2.473-1.107-2.473-2.474
			c0-1.365,1.106-2.473,2.473-2.473S515.541,384.948,515.541,386.313"/>
		<path clip-path="url(#SVGID_6_)" fill="#FF6D66" d="M725.035,398.567c0,1.897-1.539,3.436-3.437,3.436
			c-1.898,0-3.437-1.538-3.437-3.436c0-1.898,1.538-3.437,3.437-3.437C723.496,395.131,725.035,396.669,725.035,398.567"/>
		<path clip-path="url(#SVGID_6_)" fill="#FFF7DC" d="M538.699,422.984c4.024,1.93,15.732,6.799,31.229,6.696
			c0.849-0.006,1.505,0.745,1.398,1.586l-2.158,17.126c-0.076,0.61-0.536,1.098-1.141,1.211c-4.377,0.821-22.021,3.243-35.218-7.949
			c-0.412-0.349-0.578-0.911-0.438-1.433l4.361-16.327C536.96,423.042,537.903,422.604,538.699,422.984"/>
		
			<path clip-path="url(#SVGID_6_)" fill="none" stroke="#2A1E17" stroke-linecap="round" stroke-linejoin="round" stroke-miterlimit="10" d="
			M540.25,428.019c0,0,7.624,10.712,10.343,12.246c2.718,1.535,17.396-7.214,17.396-7.214"/>
		
			<line clip-path="url(#SVGID_6_)" fill="none" stroke="#2A1E17" stroke-linecap="round" stroke-linejoin="round" stroke-miterlimit="10" x1="557.78" y1="438.771" x2="565.79" y2="447.005"/>
		
			<line clip-path="url(#SVGID_6_)" fill="none" stroke="#2A1E17" stroke-linecap="round" stroke-linejoin="round" stroke-miterlimit="10" x1="546.653" y1="437.185" x2="537.285" y2="439.731"/>
		<rect x="774.996" y="220.387" clip-path="url(#SVGID_6_)" fill="#FFE1C0" width="8.948" height="8.948"/>
		<polygon clip-path="url(#SVGID_6_)" fill="#A0C6F4" points="776.209,341.086 778.868,345.692 781.528,350.299 776.209,350.299 
			770.89,350.299 773.55,345.692 		"/>
		
			<path clip-path="url(#SVGID_6_)" fill="none" stroke="#2A1E17" stroke-linecap="round" stroke-linejoin="round" stroke-miterlimit="10" d="
			M561.152,137.008l0.693-20.913c-0.073-1.952,0.722-2.574,1.925-2.84c5.682-1.257,22.95-5.107,41.733,0.445
			c2.427,0.718,2.35,2.003,2.311,3.159l-0.672,19.938c-0.049,1.464-1.578,2.524-3.286,2.274c-5.483-0.803-12.942-1.051-20.518-0.987
			c-7.825,0.066-14.799,0.648-19.68,1.588C561.797,140.03,561.099,138.642,561.152,137.008z"/>
		
			<path clip-path="url(#SVGID_6_)" fill="none" stroke="#2A1E17" stroke-linecap="round" stroke-linejoin="round" stroke-miterlimit="10" d="
			M567.474,133.95l10.932-12.797l12.102,11.943C586.335,131.737,567.474,133.95,567.474,133.95z"/>
		
			<polyline clip-path="url(#SVGID_6_)" fill="none" stroke="#2A1E17" stroke-linecap="round" stroke-linejoin="round" stroke-miterlimit="10" points="
			585.106,127.077 593.944,120.004 601.392,125.319 601.671,133.63 590.506,133.096 		"/>
		
			<path clip-path="url(#SVGID_6_)" fill="none" stroke="#2A1E17" stroke-linecap="round" stroke-linejoin="round" stroke-miterlimit="10" d="
			M572.231,119.876c0.115,1.008-0.748,1.878-1.93,1.943c-1.182,0.065-2.233-0.7-2.349-1.708c-0.116-1.008,0.749-1.878,1.93-1.943
			C571.064,118.104,572.116,118.869,572.231,119.876z"/>
		
			<path clip-path="url(#SVGID_6_)" fill="none" stroke="#2A1E17" stroke-linecap="round" stroke-linejoin="round" stroke-miterlimit="10" d="
			M772.548,408.708l7.333,13.542c0.772,1.213,0.499,1.903-0.166,2.52c-3.143,2.91-12.681,11.775-26.676,15.23
			c-1.808,0.446-2.236-0.398-2.642-1.147l-6.985-12.914c-0.512-0.948,0.064-2.19,1.242-2.666c3.781-1.529,8.611-4.144,13.399-7
			c4.946-2.951,9.16-5.914,11.911-8.324C771.015,407.027,771.975,407.649,772.548,408.708z"/>
		
			<path clip-path="url(#SVGID_6_)" fill="none" stroke="#2A1E17" stroke-linecap="round" stroke-linejoin="round" stroke-miterlimit="10" d="
			M769.669,412.999l-2.188,12.193l-12.126-3.089C758.511,421.417,769.669,412.999,769.669,412.999z"/>
		
			<polyline clip-path="url(#SVGID_6_)" fill="none" stroke="#2A1E17" stroke-linecap="round" stroke-linejoin="round" stroke-miterlimit="10" points="
			761.023,423.921 758.038,431.699 751.332,431.091 748.064,425.916 755.355,422.104 		"/>
		
			<path clip-path="url(#SVGID_6_)" fill="none" stroke="#2A1E17" stroke-linecap="round" stroke-linejoin="round" stroke-miterlimit="10" d="
			M771.878,423.708c-0.447-0.597-0.223-1.471,0.504-1.951c0.726-0.48,1.679-0.386,2.127,0.212c0.448,0.597,0.223,1.471-0.504,1.951
			S772.326,424.306,771.878,423.708z"/>
		<path clip-path="url(#SVGID_6_)" fill="#FFFFFF" d="M736.848,177.528l29.795,22.805c0.653,0.5,1.59,0.367,2.079-0.295l4.498-6.097
			c0.469-0.637,0.353-1.53-0.265-2.023l-29.375-23.504c-0.656-0.526-1.618-0.395-2.111,0.286l-4.919,6.797
			C736.082,176.144,736.214,177.044,736.848,177.528"/>
		
			<path clip-path="url(#SVGID_6_)" fill="none" stroke="#2A1E17" stroke-linecap="round" stroke-linejoin="round" stroke-miterlimit="10" d="
			M736.848,177.528l29.795,22.805c0.653,0.5,1.59,0.367,2.079-0.295l4.498-6.097c0.469-0.637,0.353-1.53-0.265-2.023l-29.375-23.504
			c-0.656-0.526-1.618-0.395-2.111,0.286l-4.919,6.797C736.082,176.144,736.214,177.044,736.848,177.528z"/>
		<polygon clip-path="url(#SVGID_6_)" fill="#FF6D66" points="739.053,176.511 746.278,181.581 750.542,176.492 743.314,170.465 		
			"/>
		<polygon clip-path="url(#SVGID_6_)" fill="#FAD8B0" points="748.999,183.558 756.233,189.298 760.111,184.527 752.829,178.617 		
			"/>
		<polygon clip-path="url(#SVGID_6_)" fill="#A0C6F4" points="758.668,191.503 765.894,196.573 769.335,192.151 762.49,186.423 		
			"/>
		<path clip-path="url(#SVGID_6_)" fill="#FFFFFF" d="M796.298,145.646l6.789,57.056c0.147,1.252,1.295,2.138,2.544,1.967
			l11.496-1.574c1.199-0.164,2.055-1.246,1.938-2.451l-5.572-57.341c-0.125-1.282-1.296-2.199-2.569-2.012l-12.713,1.859
			C797.001,143.327,796.153,144.434,796.298,145.646"/>
		
			<path clip-path="url(#SVGID_6_)" fill="none" stroke="#2A1E17" stroke-linecap="round" stroke-linejoin="round" stroke-miterlimit="10" d="
			M796.298,145.646l6.789,57.056c0.147,1.252,1.295,2.138,2.544,1.967l11.496-1.574c1.199-0.164,2.055-1.246,1.938-2.451
			l-5.572-57.341c-0.125-1.282-1.296-2.199-2.569-2.012l-12.713,1.859C797.001,143.327,796.153,144.434,796.298,145.646z"/>
		<polygon clip-path="url(#SVGID_6_)" fill="#FF6D66" points="799.771,146.98 801.922,160.325 812.06,159.571 810.959,145.201 		"/>
		<polygon clip-path="url(#SVGID_6_)" fill="#91BA83" points="802.656,165.422 804.083,179.493 813.461,178.654 812.169,164.35 		
			"/>
		<polygon clip-path="url(#SVGID_6_)" fill="#FAD8B0" points="804.261,184.52 806.413,197.865 814.942,196.92 813.919,183.291 		"/>
		<path clip-path="url(#SVGID_6_)" fill="#FFFFFF" d="M781.477,157.794l18.802,55.266c0.322,0.949,1.361,1.449,2.304,1.109
			l11.776-4.239c0.906-0.326,1.393-1.31,1.103-2.228l-17.655-55.812c-0.308-0.977-1.372-1.496-2.332-1.141l-12.923,4.786
			C781.64,155.873,781.164,156.875,781.477,157.794"/>
		
			<path clip-path="url(#SVGID_6_)" fill="none" stroke="#2A1E17" stroke-linecap="round" stroke-linejoin="round" stroke-miterlimit="10" d="
			M781.477,157.794l18.802,55.266c0.322,0.949,1.361,1.449,2.304,1.109l11.776-4.239c0.906-0.326,1.393-1.31,1.103-2.228
			l-17.655-55.812c-0.308-0.977-1.372-1.496-2.332-1.141l-12.923,4.786C781.64,155.873,781.164,156.875,781.477,157.794z"/>
		<polygon clip-path="url(#SVGID_6_)" fill="#A0C6F4" points="785.295,158.801 790.175,171.407 799.935,168.562 795.867,154.735 		
			"/>
		<polygon clip-path="url(#SVGID_6_)" fill="#F9865F" points="791.953,176.24 796.274,189.707 805.273,186.936 801.035,173.213 		
			"/>
		<polygon clip-path="url(#SVGID_6_)" fill="#FAD8B0" points="797.494,194.587 802.374,207.193 810.52,204.494 806.686,191.377 		
			"/>
		<path clip-path="url(#SVGID_6_)" fill="#7595EC" d="M639.778,251.41h-94.944c-3.028,0-5.483-2.455-5.483-5.483v-12.842
			c0-3.029,2.455-5.484,5.483-5.484h94.944c3.028,0,5.483,2.455,5.483,5.484v12.842C645.262,248.955,642.807,251.41,639.778,251.41"
			/>
		<path clip-path="url(#SVGID_6_)" fill="#FFFFFF" d="M604.206,238.234h-51.76c-1.001,0-1.812-0.811-1.812-1.812
			c0-1,0.811-1.811,1.812-1.811h51.76c1.001,0,1.812,0.811,1.812,1.811C606.018,237.423,605.207,238.234,604.206,238.234"/>
		
			<line clip-path="url(#SVGID_6_)" fill="none" stroke="#2A1E17" stroke-linecap="round" stroke-linejoin="round" stroke-miterlimit="10" x1="551.152" y1="242.928" x2="639.144" y2="242.928"/>
		<path clip-path="url(#SVGID_6_)" fill="#91BA83" d="M507.633,184.455l-1.499-1.641l-4.96,4.53l1.499,1.641
			c0.632,0.692,1.705,0.741,2.396,0.109l2.455-2.242C508.216,186.22,508.265,185.146,507.633,184.455"/>
		
			<path clip-path="url(#SVGID_6_)" fill="none" stroke="#2A1E17" stroke-linecap="round" stroke-linejoin="round" stroke-miterlimit="10" d="
			M498.984,173.837l7.061,7.73c0.365,0.4,0.337,1.02-0.063,1.385l-4.879,4.456c-0.4,0.366-1.02,0.337-1.385-0.062l-7.061-7.731
			c-0.365-0.399-0.337-1.019,0.063-1.384l4.879-4.456C497.999,173.41,498.619,173.438,498.984,173.837z"/>
		<rect x="476.409" y="214.742" clip-path="url(#SVGID_6_)" fill="#FF6D66" width="8.871" height="8.1"/>
		
			<polyline clip-path="url(#SVGID_6_)" fill="none" stroke="#2A1E17" stroke-linecap="round" stroke-linejoin="round" stroke-miterlimit="10" points="
			476.409,209.53 476.409,214.742 471.103,214.742 		"/>
		<rect x="768.658" y="123.273" clip-path="url(#SVGID_6_)" fill="#FAD8B0" width="8.872" height="8.1"/>
		
			<polyline clip-path="url(#SVGID_6_)" fill="none" stroke="#2A1E17" stroke-linecap="round" stroke-linejoin="round" stroke-miterlimit="10" points="
			768.658,118.06 768.658,123.272 763.353,123.272 		"/>
	</g>
	<g clip-path="url(#SVGID_2_)">
		<defs>
			<rect id="SVGID_7_" width="900" height="500"/>
		</defs>
		<clipPath id="SVGID_8_">
			<use xlink:href="#SVGID_7_"  overflow="visible"/>
		</clipPath>
	</g>
	<g clip-path="url(#SVGID_2_)">
		<defs>
			<rect id="SVGID_9_" width="900" height="500"/>
		</defs>
		<clipPath id="SVGID_10_">
			<use xlink:href="#SVGID_9_"  overflow="visible"/>
		</clipPath>
		
			<path clip-path="url(#SVGID_10_)" fill="none" stroke="#2A1E17" stroke-linecap="round" stroke-linejoin="round" stroke-miterlimit="10" d="
			M528.57,173.339c-91.963-38.122-162.761,35.298,10.594,147.725c13.65,8.853,34.584,11.959,34.584,11.959"/>
		<path clip-path="url(#SVGID_10_)" fill="#2A1E17" d="M446.611,175.903c0,1.448-1.174,2.623-2.623,2.623
			c-1.448,0-2.622-1.175-2.622-2.623c0-1.448,1.174-2.623,2.622-2.623C445.438,173.28,446.611,174.455,446.611,175.903"/>
		
			<polygon clip-path="url(#SVGID_10_)" fill="none" stroke="#2A1E17" stroke-linecap="round" stroke-linejoin="round" stroke-miterlimit="10" points="
			427.301,161.51 430.171,158.755 436.768,162.53 440.085,172.762 429.958,168.524 		"/>
		
			<polygon clip-path="url(#SVGID_10_)" fill="none" stroke="#2A1E17" stroke-linecap="round" stroke-linejoin="round" stroke-miterlimit="10" points="
			430.171,158.755 427.301,161.51 425.694,159.559 428.449,156.918 		"/>
		
			<line clip-path="url(#SVGID_10_)" fill="none" stroke="#2A1E17" stroke-linecap="round" stroke-linejoin="round" stroke-miterlimit="10" x1="440.085" y1="172.762" x2="433.5" y2="165.527"/>
		<path clip-path="url(#SVGID_10_)" fill="#FFFFFF" d="M456.025,356.343l7.148,36.833c0.156,0.808,0.945,1.33,1.75,1.159
			l7.412-1.574c0.773-0.164,1.278-0.91,1.145-1.688l-6.369-37.078c-0.143-0.828-0.949-1.369-1.77-1.188l-8.19,1.818
			C456.373,354.798,455.874,355.56,456.025,356.343"/>
		
			<path clip-path="url(#SVGID_10_)" fill="none" stroke="#2A1E17" stroke-linecap="round" stroke-linejoin="round" stroke-miterlimit="10" d="
			M456.025,356.343l7.148,36.833c0.156,0.808,0.945,1.33,1.75,1.159l7.412-1.574c0.773-0.164,1.278-0.91,1.145-1.688l-6.369-37.078
			c-0.143-0.828-0.949-1.369-1.77-1.188l-8.19,1.818C456.373,354.798,455.874,355.56,456.025,356.343z"/>
		<polygon clip-path="url(#SVGID_10_)" fill="#FF6D66" points="458.351,357.045 460.39,365.634 466.955,364.657 465.552,355.352 		
			"/>
		<polygon clip-path="url(#SVGID_10_)" fill="#FAD8B0" points="461.111,368.918 462.713,378.014 468.78,377.019 467.256,367.765 		
			"/>
		<polygon clip-path="url(#SVGID_10_)" fill="#A0C6F4" points="463.069,381.278 465.108,389.867 470.618,388.844 469.301,380.017 		
			"/>
		
			<polygon clip-path="url(#SVGID_10_)" fill="none" stroke="#2A1E17" stroke-linecap="round" stroke-linejoin="round" stroke-miterlimit="10" points="
			660.71,448.656 690.919,440.569 692.071,443.843 661.521,451.772 		"/>
		
			<line clip-path="url(#SVGID_10_)" fill="none" stroke="#2A1E17" stroke-linecap="round" stroke-linejoin="round" stroke-miterlimit="10" x1="656.519" y1="444.432" x2="657.391" y2="447.174"/>
		
			<line clip-path="url(#SVGID_10_)" fill="none" stroke="#2A1E17" stroke-linecap="round" stroke-linejoin="round" stroke-miterlimit="10" x1="655.668" y1="446.22" x2="658.217" y2="445.345"/>
		
			<line clip-path="url(#SVGID_10_)" fill="none" stroke="#2A1E17" stroke-linecap="round" stroke-linejoin="round" stroke-miterlimit="10" x1="655.053" y1="454.905" x2="656.696" y2="460.079"/>
		
			<line clip-path="url(#SVGID_10_)" fill="none" stroke="#2A1E17" stroke-linecap="round" stroke-linejoin="round" stroke-miterlimit="10" x1="653.652" y1="458.186" x2="658.191" y2="456.743"/>
		
			<line clip-path="url(#SVGID_10_)" fill="none" stroke="#2A1E17" stroke-linecap="round" stroke-linejoin="round" stroke-miterlimit="10" x1="648.149" y1="446.366" x2="650.293" y2="453.218"/>
		
			<line clip-path="url(#SVGID_10_)" fill="none" stroke="#2A1E17" stroke-linecap="round" stroke-linejoin="round" stroke-miterlimit="10" x1="646.019" y1="450.633" x2="652.38" y2="448.603"/>
		
			<polygon clip-path="url(#SVGID_10_)" fill="none" stroke="#2A1E17" stroke-width="0.671" stroke-linecap="round" stroke-linejoin="round" stroke-miterlimit="10" points="
			440.448,120.495 421.331,111.866 422.123,109.677 441.349,118.532 		"/>
		
			<line clip-path="url(#SVGID_10_)" fill="none" stroke="#2A1E17" stroke-width="0.671" stroke-linecap="round" stroke-linejoin="round" stroke-miterlimit="10" x1="440.83" y1="124.467" x2="441.542" y2="122.673"/>
		
			<line clip-path="url(#SVGID_10_)" fill="none" stroke="#2A1E17" stroke-width="0.671" stroke-linecap="round" stroke-linejoin="round" stroke-miterlimit="10" x1="442.031" y1="123.9" x2="440.336" y2="123.272"/>
		
			<line clip-path="url(#SVGID_10_)" fill="none" stroke="#2A1E17" stroke-width="0.671" stroke-linecap="round" stroke-linejoin="round" stroke-miterlimit="10" x1="446.039" y1="119.653" x2="447.383" y2="116.269"/>
		
			<line clip-path="url(#SVGID_10_)" fill="none" stroke="#2A1E17" stroke-width="0.671" stroke-linecap="round" stroke-linejoin="round" stroke-miterlimit="10" x1="448.158" y1="118.544" x2="445.19" y2="117.365"/>
		
			<line clip-path="url(#SVGID_10_)" fill="none" stroke="#2A1E17" stroke-width="0.671" stroke-linecap="round" stroke-linejoin="round" stroke-miterlimit="10" x1="445.997" y1="127.017" x2="447.792" y2="122.549"/>
		
			<line clip-path="url(#SVGID_10_)" fill="none" stroke="#2A1E17" stroke-width="0.671" stroke-linecap="round" stroke-linejoin="round" stroke-miterlimit="10" x1="448.915" y1="125.707" x2="444.75" y2="124.06"/>
		<path clip-path="url(#SVGID_10_)" fill="#FAD8B0" d="M511.887,281.937c-13.475-9.701-26.714-24.777-20.906-40.263
			c0,0,9.291-6.195,24.003,1.548l14.712,7.743L511.887,281.937z"/>
		<path clip-path="url(#SVGID_10_)" fill="#FFFFFF" d="M505.778,346.565c-6.063-2.866-31.95-16.343-36.556-39.371
			c-3.979-19.899,11.235-46.722,18.858-58.573c-0.49,15.731,15.308,29.044,22.93,34.533c7.72,5.557,13.397,8.276,21.231,11.218
			L505.778,346.565z"/>
		<path clip-path="url(#SVGID_10_)" fill="#FAD8B0" d="M486.922,253.301c1.652,10.455,9.632,21.293,23.212,31.07
			c7.333,5.279,12.847,8.038,20.017,10.81l-25.045,49.395c-7.631-3.797-30.209-16.66-34.412-37.676
			C467.199,289.43,479.045,266.257,486.922,253.301 M490.98,241.673c0,0-28.648,38.714-23.229,65.815
			c5.42,27.1,38.715,41.037,38.715,41.037l27.874-54.975c-8.711-3.194-14.37-5.795-22.454-11.614
			C498.412,272.235,485.173,257.159,490.98,241.673"/>
		
			<path clip-path="url(#SVGID_10_)" fill="none" stroke="#2A1E17" stroke-linecap="round" stroke-linejoin="round" stroke-miterlimit="10" d="
			M483.446,264.171c0,0,1.667,15.553,17.219,23.884"/>
		
			<line clip-path="url(#SVGID_10_)" fill="none" stroke="#2A1E17" stroke-linecap="round" stroke-linejoin="round" stroke-miterlimit="10" x1="508.997" y1="293.609" x2="524.549" y2="301.94"/>
		
			<path clip-path="url(#SVGID_10_)" fill="none" stroke="#2A1E17" stroke-linecap="round" stroke-linejoin="round" stroke-miterlimit="10" d="
			M485.668,286.389c0,0,4.999,11.108,21.106,18.329"/>
		
			<path clip-path="url(#SVGID_10_)" fill="none" stroke="#2A1E17" stroke-linecap="round" stroke-linejoin="round" stroke-miterlimit="10" d="
			M472.894,288.055c0,0,0.556,11.664,8.331,15.553"/>
		
			<path clip-path="url(#SVGID_10_)" fill="none" stroke="#2A1E17" stroke-linecap="round" stroke-linejoin="round" stroke-miterlimit="10" d="
			M490.667,247.508c0,0-1.44,14.979,21.22,34.428"/>
		
			<path clip-path="url(#SVGID_10_)" fill="none" stroke="#2A1E17" stroke-linecap="round" stroke-linejoin="round" stroke-miterlimit="10" d="
			M498.999,250.285c0,0,7.221-0.556,17.772,7.221"/>
		
			<path clip-path="url(#SVGID_10_)" fill="none" stroke="#2A1E17" stroke-linecap="round" stroke-linejoin="round" stroke-miterlimit="10" d="
			M465.043,298.111c-0.465,7.429,0.464,34.356,39.463,51.534"/>
		<path clip-path="url(#SVGID_10_)" fill="#91BA83" d="M714.073,283.131l-16.542,33.152c0,0,11.22,4.129,2.448,16.99
			c0,0,20.737,8.6,34.307-13.736C747.855,297.2,714.073,283.131,714.073,283.131"/>
		<path clip-path="url(#SVGID_10_)" fill="#FFFFFF" d="M676.213,384.447c-8.371,0-17.205-3.418-26.276-10.164l30.946-51.263
			l18.405,11.59l0.117,0.049c0.171,0.071,4.268,1.741,10.051,1.742h0.001c4.65,0,10.517-1.086,16.233-5.131l-22.62,38.698
			c-0.053,0.075-9.791,14.478-26.855,14.479H676.213z"/>
		<path clip-path="url(#SVGID_10_)" fill="#96BD89" d="M681.377,325.104l17.004,10.707l0.215,0.136l0.235,0.098
			c0.183,0.075,4.547,1.855,10.625,1.855c3.548,0,7.767-0.597,12.104-2.538l-19.736,33.766c-0.646,0.938-9.81,13.819-25.609,13.819
			c-7.707,0-15.867-3.048-24.283-9.066L681.377,325.104 M734.286,319.537c-7.667,12.619-17.62,15.363-24.83,15.363
			c-5.551,0-9.477-1.627-9.477-1.627l-19.591-12.337l-32.434,53.728c10.861,8.372,20.334,11.283,28.26,11.283
			c18.12,0,28.15-15.223,28.15-15.223L734.286,319.537z"/>
		
			<path clip-path="url(#SVGID_10_)" fill="none" stroke="#2A1E17" stroke-linecap="round" stroke-linejoin="round" stroke-miterlimit="10" d="
			M697.531,316.283c0,0,12.338,4.355,2.448,16.99"/>
		
			<path clip-path="url(#SVGID_10_)" fill="none" stroke="#2A1E17" stroke-linecap="round" stroke-linejoin="round" stroke-miterlimit="10" d="
			M680.005,319.785c0,0,16.806,15.395,26.109,15.29c9.304-0.103,20.212-2.319,26.648-13.417"/>
		
			<path clip-path="url(#SVGID_10_)" fill="none" stroke="#2A1E17" stroke-linecap="round" stroke-linejoin="round" stroke-miterlimit="10" d="
			M682.066,339.699c0,0,11.535,10.244,24.435,6.954"/>
		
			<path clip-path="url(#SVGID_10_)" fill="none" stroke="#2A1E17" stroke-linecap="round" stroke-linejoin="round" stroke-miterlimit="10" d="
			M694.183,355.007c0,0,6.053,4.536,14.512,0.246"/>
		
			<path clip-path="url(#SVGID_10_)" fill="none" stroke="#2A1E17" stroke-linecap="round" stroke-linejoin="round" stroke-miterlimit="10" d="
			M666.341,361.318c0,0,13.965,13.888,35.947,4.729"/>
		
			<path clip-path="url(#SVGID_10_)" fill="none" stroke="#2A1E17" stroke-linecap="round" stroke-linejoin="round" stroke-miterlimit="10" d="
			M673.94,347.773c0,0,5.697,4.073,9.267,5.374"/>
		
			<path clip-path="url(#SVGID_10_)" fill="none" stroke="#2A1E17" stroke-linecap="round" stroke-linejoin="round" stroke-miterlimit="10" d="
			M716.914,292.753c0,0,12.75,4.17,14.277,20.993"/>
		
			<path clip-path="url(#SVGID_10_)" fill="none" stroke="#2A1E17" stroke-linecap="round" stroke-linejoin="round" stroke-miterlimit="10" d="
			M723.322,313.543c0,0,5.87,9.083-4.052,18.167"/>
		
			<path clip-path="url(#SVGID_10_)" fill="none" stroke="#2A1E17" stroke-linecap="round" stroke-linejoin="round" stroke-miterlimit="10" d="
			M649.137,377.199c0,0,32.015,27.419,55.249-4.643"/>
		
			<line clip-path="url(#SVGID_10_)" fill="none" stroke="#FF6D66" stroke-linecap="round" stroke-linejoin="round" stroke-miterlimit="10" x1="418.051" y1="272.782" x2="425.514" y2="272.782"/>
		
			<line clip-path="url(#SVGID_10_)" fill="none" stroke="#FF6D66" stroke-linecap="round" stroke-linejoin="round" stroke-miterlimit="10" x1="833.803" y1="183.016" x2="841.267" y2="183.016"/>
		
			<line clip-path="url(#SVGID_10_)" fill="none" stroke="#FAD8B0" stroke-miterlimit="10" x1="633.658" y1="131.809" x2="641.121" y2="131.809"/>
		
			<line clip-path="url(#SVGID_10_)" fill="none" stroke="#FAD8B0" stroke-miterlimit="10" x1="848.052" y1="221.726" x2="855.397" y2="223.045"/>
		
			<line clip-path="url(#SVGID_10_)" fill="none" stroke="#A0C6F4" stroke-linecap="round" stroke-linejoin="round" stroke-miterlimit="10" x1="554.879" y1="407.951" x2="562.342" y2="407.951"/>
	</g>
	<g clip-path="url(#SVGID_2_)">
		<defs>
			<rect id="SVGID_11_" width="900" height="500"/>
		</defs>
		<clipPath id="SVGID_12_">
			<use xlink:href="#SVGID_11_"  overflow="visible"/>
		</clipPath>
	</g>
	<g clip-path="url(#SVGID_2_)">
		<defs>
			<rect id="SVGID_13_" width="900" height="500"/>
		</defs>
		<clipPath id="SVGID_14_">
			<use xlink:href="#SVGID_13_"  overflow="visible"/>
		</clipPath>
		<path clip-path="url(#SVGID_14_)" fill="#91BA83" d="M866.604,314.915c0,1.366-1.107,2.474-2.473,2.474
			c-1.366,0-2.474-1.107-2.474-2.474s1.107-2.474,2.474-2.474C865.497,312.441,866.604,313.549,866.604,314.915"/>
		<path clip-path="url(#SVGID_14_)" fill="#91BA83" d="M402.221,196.291c0,1.366-1.107,2.473-2.473,2.473
			c-1.366,0-2.473-1.107-2.473-2.473s1.107-2.473,2.473-2.473C401.114,193.817,402.221,194.924,402.221,196.291"/>
		<path clip-path="url(#SVGID_14_)" fill="#2A1E17" d="M892.102,476.649c-1.381-0.437-2.146-1.911-1.709-3.292
			s1.91-2.145,3.291-1.709c1.381,0.438,2.146,1.911,1.709,3.292S893.482,477.086,892.102,476.649"/>
		
			<path clip-path="url(#SVGID_14_)" fill="none" stroke="#2A1E17" stroke-linecap="round" stroke-linejoin="round" stroke-miterlimit="10" d="
			M1042.909,384.657c0,0,20.591-61.312-71.467-25.141c-95.708,37.605-133.932,116.458-118.251,122.681
			c15.68,6.224,39.033-7.816,39.033-7.816"/>
	</g>
	<g clip-path="url(#SVGID_2_)">
		<defs>
			<rect id="SVGID_15_" width="900" height="500"/>
		</defs>
		<clipPath id="SVGID_16_">
			<use xlink:href="#SVGID_15_"  overflow="visible"/>
		</clipPath>
	</g>
</g>
</svg>
