<?xml version="1.0" encoding="utf-8"?>
<!-- Generator: Adobe Illustrator 16.0.0, SVG Export Plug-In . SVG Version: 6.00 Build 0)  -->
<!DOCTYPE svg PUBLIC "-//W3C//DTD SVG 1.1//EN" "http://www.w3.org/Graphics/SVG/1.1/DTD/svg11.dtd">
<svg version="1.1" xmlns="http://www.w3.org/2000/svg" xmlns:xlink="http://www.w3.org/1999/xlink" x="0px" y="0px" width="500px"
	 height="500px" viewBox="0 0 500 500" style="enable-background:new 0 0 500 500;" xml:space="preserve">
<g id="Background_Complete">
	<g>
		<rect y="382.4" style="fill:#EBEBEB;" width="500" height="0.25"/>
		<rect x="416.78" y="398.49" style="fill:#EBEBEB;" width="33.12" height="0.25"/>
		<rect x="322.53" y="401.21" style="fill:#EBEBEB;" width="8.69" height="0.25"/>
		<rect x="396.59" y="389.21" style="fill:#EBEBEB;" width="19.19" height="0.25"/>
		<rect x="52.46" y="390.89" style="fill:#EBEBEB;" width="43.19" height="0.25"/>
		<rect x="104.56" y="390.89" style="fill:#EBEBEB;" width="6.33" height="0.25"/>
		<rect x="131.47" y="395.11" style="fill:#EBEBEB;" width="93.68" height="0.25"/>
		<path style="fill:#EBEBEB;" d="M237.01,337.8H43.92c-3.15,0-5.71-2.56-5.71-5.71V60.66c0-3.15,2.56-5.71,5.71-5.71h193.1
			c3.15,0,5.71,2.56,5.71,5.71v271.43C242.72,335.24,240.16,337.8,237.01,337.8z M43.92,55.2c-3.01,0-5.46,2.45-5.46,5.46v271.43
			c0,3.01,2.45,5.46,5.46,5.46h193.1c3.01,0,5.46-2.45,5.46-5.46V60.66c0-3.01-2.45-5.46-5.46-5.46H43.92z"/>
		<path style="fill:#EBEBEB;" d="M453.31,337.8h-193.1c-3.15,0-5.71-2.56-5.71-5.71V60.66c0-3.15,2.56-5.71,5.71-5.71h193.1
			c3.15,0,5.71,2.56,5.71,5.71v271.43C459.02,335.24,456.46,337.8,453.31,337.8z M260.21,55.2c-3.01,0-5.46,2.45-5.46,5.46v271.43
			c0,3.01,2.45,5.46,5.46,5.46h193.1c3.01,0,5.46-2.45,5.46-5.46V60.66c0-3.01-2.45-5.46-5.46-5.46H260.21z"/>
	</g>
	<g>
		<g>
			<path style="fill:#F0F0F0;" d="M353.93,98.14c0-2.7-2.19-4.89-4.89-4.89c-0.49,0-0.96,0.07-1.4,0.21
				c0.07-0.49,0.11-0.99,0.11-1.5c0-5.72-4.64-10.36-10.35-10.36c-0.65,0-1.29,0.06-1.91,0.18c-1.59-2.6-4.45-4.35-7.73-4.35
				c-4.96,0-8.98,3.98-9.05,8.92c-0.05,0-0.1-0.01-0.15-0.01c-4.61,0-8.34,3.73-8.34,8.34s3.73,8.34,8.34,8.34h30.63l-0.01-0.01
				C351.81,102.94,353.93,100.79,353.93,98.14z"/>
			<polygon style="fill:#E0E0E0;" points="335.95,105.45 335.95,95.92 328.18,95.92 328.18,105.45 321.85,105.45 332.07,114.09 
				342.29,105.45 			"/>
		</g>
		<g>
			<path style="fill:#F0F0F0;" d="M200.68,112.56c0-5.74-4.65-10.39-10.38-10.39c-1.04,0-2.04,0.16-2.98,0.44
				c0.15-1.04,0.23-2.1,0.23-3.19c0-12.15-9.85-21.99-21.99-21.99c-1.38,0-2.74,0.13-4.05,0.38c-3.38-5.53-9.46-9.24-16.41-9.24
				c-10.53,0-19.07,8.46-19.23,18.95c-0.11,0-0.21-0.02-0.32-0.02c-9.78,0-17.72,7.93-17.72,17.72s7.93,17.72,17.72,17.72h65.06
				l-0.01-0.01C196.19,122.77,200.68,118.19,200.68,112.56z"/>
			<polygon style="fill:#E0E0E0;" points="146,113.36 146,133.61 162.51,133.61 162.51,113.36 175.96,113.36 154.25,95.02 
				132.55,113.36 			"/>
		</g>
		<g>
			<polyline style="fill:none;stroke:#E6E6E6;stroke-miterlimit:10;" points="208.97,163.13 208.97,135.9 292.35,135.9 
				292.35,162.86 			"/>
			<line style="fill:none;stroke:#E6E6E6;stroke-miterlimit:10;" x1="251.89" y1="110.24" x2="251.89" y2="163.06"/>
			<g>
				<path style="fill:#F0F0F0;" d="M266.08,99.87h-28.36c-0.66,0-1.19,0.53-1.19,1.19v16.88c0,0.66,0.53,1.19,1.19,1.19h28.36
					c0.66,0,1.19-0.53,1.19-1.19v-16.88C267.26,100.4,266.73,99.87,266.08,99.87z"/>
				<path style="fill:#E0E0E0;" d="M265.78,118.36h-27.77c-0.23,0-0.42-0.19-0.42-0.42v-15.38c0-0.23,0.19-0.42,0.42-0.42h27.77
					c0.23,0,0.42,0.19,0.42,0.42v15.38C266.2,118.17,266.01,118.36,265.78,118.36z"/>
			</g>
			<g>
				<path style="fill:#F0F0F0;" d="M223.15,160.66h-28.36c-0.66,0-1.19,0.53-1.19,1.19v16.88c0,0.66,0.53,1.19,1.19,1.19h28.36
					c0.66,0,1.19-0.53,1.19-1.19v-16.88C224.34,161.19,223.81,160.66,223.15,160.66z"/>
				<path style="fill:#E0E0E0;" d="M222.86,179.15h-27.77c-0.23,0-0.42-0.19-0.42-0.42v-15.38c0-0.23,0.19-0.42,0.42-0.42h27.77
					c0.23,0,0.42,0.19,0.42,0.42v15.38C223.28,178.96,223.09,179.15,222.86,179.15z"/>
			</g>
			<g>
				<path style="fill:#F0F0F0;" d="M266.08,160.66h-28.36c-0.66,0-1.19,0.53-1.19,1.19v16.88c0,0.66,0.53,1.19,1.19,1.19h28.36
					c0.66,0,1.19-0.53,1.19-1.19v-16.88C267.26,161.19,266.73,160.66,266.08,160.66z"/>
				<path style="fill:#E0E0E0;" d="M265.78,179.15h-27.77c-0.23,0-0.42-0.19-0.42-0.42v-15.38c0-0.23,0.19-0.42,0.42-0.42h27.77
					c0.23,0,0.42,0.19,0.42,0.42v15.38C266.2,178.96,266.01,179.15,265.78,179.15z"/>
			</g>
			<g>
				<path style="fill:#F0F0F0;" d="M306.6,160.66h-28.36c-0.66,0-1.19,0.53-1.19,1.19v16.88c0,0.66,0.53,1.19,1.19,1.19h28.36
					c0.66,0,1.19-0.53,1.19-1.19v-16.88C307.79,161.19,307.26,160.66,306.6,160.66z"/>
				<path style="fill:#E0E0E0;" d="M306.31,179.15h-27.77c-0.23,0-0.42-0.19-0.42-0.42v-15.38c0-0.23,0.19-0.42,0.42-0.42h27.77
					c0.23,0,0.42,0.19,0.42,0.42v15.38C306.73,178.96,306.54,179.15,306.31,179.15z"/>
			</g>
			<path style="fill:#E0E0E0;enable-background:new    ;" d="M251.33,127.65l-7.69,7.69c-0.31,0.31-0.31,0.82,0,1.14l7.69,7.69
				c0.31,0.31,0.82,0.31,1.14,0l7.69-7.69c0.31-0.31,0.31-0.82,0-1.14l-7.69-7.69C252.15,127.33,251.64,127.33,251.33,127.65z"/>
		</g>
		<g>
			<path style="opacity:0.8;fill:#E0E0E0;" d="M89.08,135.68H69.08c-0.48,0-0.87-0.39-0.87-0.87v-11.29c0-0.48,0.39-0.87,0.87-0.87
				h20.01c0.48,0,0.87,0.39,0.87,0.87v11.29C89.96,135.29,89.57,135.68,89.08,135.68z"/>
			<path style="fill:#E0E0E0;" d="M73.82,160.63H57.97c-0.48,0-0.87-0.39-0.87-0.87v-8.21c0-0.48,0.39-0.87,0.87-0.87h15.85
				c0.48,0,0.87,0.39,0.87,0.87v8.21C74.69,160.24,74.3,160.63,73.82,160.63z"/>
			<path style="fill:#E0E0E0;" d="M100.51,160.63H84.66c-0.48,0-0.87-0.39-0.87-0.87v-8.21c0-0.48,0.39-0.87,0.87-0.87h15.85
				c0.48,0,0.87,0.39,0.87,0.87v8.21C101.38,160.24,100.99,160.63,100.51,160.63z"/>
			<g>
				<path style="fill:#E0E0E0;" d="M84.1,180.24h-7.49c-0.48,0-0.87-0.39-0.87-0.87v-6.76c0-0.48,0.39-0.87,0.87-0.87h7.49
					c0.48,0,0.87,0.39,0.87,0.87v6.76C84.97,179.85,84.58,180.24,84.1,180.24z"/>
				<path style="fill:#E0E0E0;" d="M95.83,180.24h-7.49c-0.48,0-0.87-0.39-0.87-0.87v-6.76c0-0.48,0.39-0.87,0.87-0.87h7.49
					c0.48,0,0.87,0.39,0.87,0.87v6.76C96.7,179.85,96.31,180.24,95.83,180.24z"/>
				<path style="fill:#E0E0E0;" d="M107.55,180.24h-7.49c-0.48,0-0.87-0.39-0.87-0.87v-6.76c0-0.48,0.39-0.87,0.87-0.87h7.49
					c0.48,0,0.87,0.39,0.87,0.87v6.76C108.42,179.85,108.03,180.24,107.55,180.24z"/>
			</g>
			<path style="fill:#E0E0E0;" d="M56.97,180.24h-7.49c-0.48,0-0.87-0.39-0.87-0.87v-6.76c0-0.48,0.39-0.87,0.87-0.87h7.49
				c0.48,0,0.87,0.39,0.87,0.87v6.76C57.84,179.85,57.45,180.24,56.97,180.24z"/>
			<path style="fill:#E0E0E0;" d="M69.69,180.24H62.2c-0.48,0-0.87-0.39-0.87-0.87v-6.76c0-0.48,0.39-0.87,0.87-0.87h7.49
				c0.48,0,0.87,0.39,0.87,0.87v6.76C70.57,179.85,70.18,180.24,69.69,180.24z"/>
			<g>
				<polygon style="fill:#E0E0E0;" points="91.58,150.68 92.58,150.68 92.58,143.68 79.58,143.68 79.58,135.68 78.58,135.68 
					78.58,143.68 65.58,143.68 65.58,150.68 66.58,150.68 66.58,144.68 91.58,144.68 				"/>
				<polygon style="fill:#E0E0E0;" points="65.58,166.68 52.58,166.68 52.58,171.68 53.58,171.68 53.58,167.68 65.58,167.68 
					65.58,171.68 66.58,171.68 66.58,160.68 65.58,160.68 				"/>
				<polygon style="fill:#E0E0E0;" points="92.58,167.68 92.58,160.68 91.58,160.68 91.58,167.68 79.58,167.68 79.58,171.68 
					80.58,171.68 80.58,168.68 91.58,168.68 91.58,171.68 92.58,171.68 92.58,168.68 103.58,168.68 103.58,171.68 104.58,171.68 
					104.58,167.68 				"/>
			</g>
		</g>
		<g>
			<path style="fill:#F5F5F5;" d="M380.99,125.78v7.18l3.7,0.35c0.5,2.41,1.45,4.65,2.76,6.64l-2.38,2.87l5.08,5.08l2.87-2.38
				c1.99,1.31,4.23,2.26,6.63,2.76l0.35,3.7h7.18l0.35-3.7c2.41-0.5,4.65-1.45,6.64-2.76l2.87,2.38l5.08-5.08l-2.38-2.87
				c1.31-1.99,2.26-4.23,2.76-6.64l3.7-0.35v-7.18l-3.7-0.35c-0.5-2.41-1.45-4.65-2.76-6.64l2.38-2.87l-5.08-5.08l-2.87,2.38
				c-1.99-1.3-4.23-2.26-6.64-2.76l-0.35-3.7h-7.18l-0.35,3.7c-2.41,0.5-4.65,1.45-6.63,2.76l-2.87-2.38l-5.08,5.08l2.38,2.87
				c-1.3,1.99-2.26,4.23-2.76,6.64L380.99,125.78z M403.6,119.65c5.37,0,9.73,4.35,9.73,9.73s-4.35,9.73-9.73,9.73
				c-5.37,0-9.72-4.35-9.72-9.73S398.23,119.65,403.6,119.65z"/>
			<path style="fill:#F5F5F5;" d="M385.63,178.2c1.89-0.39,3.64-1.14,5.2-2.16l2.25,1.86l3.98-3.98l-1.86-2.25
				c1.02-1.56,1.77-3.31,2.16-5.2l2.9-0.27v-5.63l-2.9-0.27c-0.39-1.89-1.14-3.64-2.16-5.2l1.86-2.25l-3.98-3.98l-2.25,1.86
				c-1.56-1.02-3.31-1.77-5.2-2.16l-0.27-2.9h-5.63l-0.27,2.9c-1.89,0.39-3.64,1.14-5.2,2.16l-2.25-1.86l-3.98,3.98l1.86,2.25
				c-1.02,1.56-1.77,3.31-2.16,5.2l-2.9,0.27v5.63l2.9,0.27c0.39,1.89,1.14,3.64,2.16,5.2l-1.86,2.25l3.98,3.98l2.25-1.86
				c1.56,1.02,3.31,1.77,5.2,2.16l0.27,2.9h5.63L385.63,178.2z M374.92,163.38c0-4.21,3.41-7.62,7.62-7.62s7.62,3.41,7.62,7.62
				c0,4.21-3.41,7.62-7.62,7.62S374.92,167.59,374.92,163.38z"/>
			<path style="fill:#F5F5F5;" d="M373.07,147.73l1.89,1.56l3.34-3.34l-1.56-1.89c0.86-1.31,1.49-2.78,1.82-4.37l2.44-0.23v-4.73
				l-2.43-0.23c-0.33-1.58-0.96-3.06-1.82-4.37l1.56-1.89l-3.34-3.34l-1.89,1.56c-1.31-0.86-2.78-1.49-4.37-1.82l-0.23-2.43l-4.73,0
				l-0.23,2.43c-1.58,0.33-3.06,0.96-4.37,1.82l-1.89-1.56l-3.34,3.34l1.56,1.89c-0.86,1.31-1.49,2.78-1.82,4.37l-2.43,0.23v4.73
				l2.43,0.23c0.33,1.58,0.96,3.06,1.82,4.37l-1.56,1.89l3.34,3.34l1.89-1.56c1.31,0.86,2.78,1.49,4.37,1.82l0.23,2.44h4.73
				l0.23-2.44C370.29,149.22,371.76,148.59,373.07,147.73z M359.71,137.1c0-3.54,2.87-6.4,6.4-6.4s6.4,2.87,6.4,6.4
				c0,3.53-2.87,6.4-6.4,6.4S359.71,140.63,359.71,137.1z"/>
		</g>
		<g>
			<g>
				<rect x="372.24" y="324.03" style="fill:#F5F5F5;" width="67.15" height="43.67"/>
			</g>
			<rect x="374.69" y="332.22" style="fill:#E0E0E0;" width="62.23" height="33.3"/>
			<g>
				<rect x="379.76" y="337.2" style="fill:#F5F5F5;" width="46.04" height="1.43"/>
				<rect x="379.76" y="341.58" style="fill:#F5F5F5;" width="22.09" height="1.43"/>
				<rect x="379.76" y="345.97" style="fill:#F5F5F5;" width="27.82" height="1.43"/>
				<rect x="379.76" y="350.36" style="fill:#F5F5F5;" width="9.8" height="1.43"/>
				<rect x="379.76" y="354.75" style="fill:#F5F5F5;" width="6.35" height="1.43"/>
			</g>
		</g>
		<g>
			
				<rect x="47.88" y="323.89" transform="matrix(1 -4.557810e-003 4.557810e-003 1 -1.5427 0.3306)" style="fill:#EBEBEB;" width="47.78" height="29.47"/>
			<g>
				<g>
					<path style="fill:#FAFAFA;" d="M66.14,346.06c-0.2,0-0.41-0.06-0.59-0.19l-8.72-6.37c-0.26-0.19-0.41-0.49-0.41-0.8
						c0-0.32,0.15-0.62,0.4-0.81l8.66-6.45c0.44-0.33,1.07-0.24,1.4,0.2c0.33,0.44,0.24,1.07-0.21,1.4l-7.57,5.64l7.62,5.57
						c0.45,0.33,0.54,0.95,0.22,1.4C66.75,345.92,66.45,346.06,66.14,346.06z"/>
				</g>
				<g>
					<path style="fill:#FAFAFA;" d="M77.46,346.01c-0.31,0-0.61-0.14-0.8-0.4c-0.33-0.44-0.24-1.07,0.21-1.4l7.57-5.64L76.81,333
						c-0.45-0.33-0.54-0.95-0.22-1.4s0.95-0.54,1.4-0.22l8.72,6.37c0.26,0.19,0.41,0.49,0.41,0.8s-0.15,0.62-0.4,0.81l-8.66,6.45
						C77.87,345.95,77.66,346.01,77.46,346.01z"/>
				</g>
				<g>
					<path style="fill:#FAFAFA;" d="M69.52,346.05c-0.11,0-0.22-0.02-0.33-0.06c-0.52-0.18-0.8-0.75-0.61-1.27l4.49-12.84
						c0.18-0.52,0.75-0.8,1.27-0.61s0.8,0.75,0.61,1.27l-4.49,12.84C70.32,345.79,69.94,346.05,69.52,346.05z"/>
				</g>
			</g>
		</g>
	</g>
</g>
<g id="Background_Simple" style="display:none;">
	<g style="display:inline;">
		<path style="fill:#407BFF;" d="M152.92,93.35c19.94-11.22,42.32-18.28,65.13-18.44c26.76-0.18,54.02,9.77,72.27,29.35
			c7.37,7.91,13.16,17.16,20.4,25.19c7.24,8.03,16.48,15.02,27.22,16.3c11.54,1.37,22.8-4.01,34.39-4.74
			c27.01-1.7,45.94,23.23,47.62,48.12c2,29.58-19.85,60.34-39.55,80.09c-23.89,23.95-51.86,43.2-78.68,63.63
			c-26.13,19.9-49.8,43.42-78.66,59.49c-12.56,7-26.36,12.6-40.74,12.74c-21.82,0.22-38.74-12.93-42.59-34.45
			c-2.39-13.36-0.07-26.94-2.27-40.34c-5.44-33.08-35.97-55.95-49.59-86.58c-11.37-25.56-10.07-55.84,0.83-81.61
			s30.76-47.17,54.11-62.58C146.1,97.35,149.48,95.29,152.92,93.35z"/>
		<path style="opacity:0.9;fill:#FFFFFF;" d="M152.92,93.35c19.94-11.22,42.32-18.28,65.13-18.44c26.76-0.18,54.02,9.77,72.27,29.35
			c7.37,7.91,13.16,17.16,20.4,25.19c7.24,8.03,16.48,15.02,27.22,16.3c11.54,1.37,22.8-4.01,34.39-4.74
			c27.01-1.7,45.94,23.23,47.62,48.12c2,29.58-19.85,60.34-39.55,80.09c-23.89,23.95-51.86,43.2-78.68,63.63
			c-26.13,19.9-49.8,43.42-78.66,59.49c-12.56,7-26.36,12.6-40.74,12.74c-21.82,0.22-38.74-12.93-42.59-34.45
			c-2.39-13.36-0.07-26.94-2.27-40.34c-5.44-33.08-35.97-55.95-49.59-86.58c-11.37-25.56-10.07-55.84,0.83-81.61
			s30.76-47.17,54.11-62.58C146.1,97.35,149.48,95.29,152.92,93.35z"/>
	</g>
</g>
<g id="Shadow_1_">
	<ellipse id="_x3C_Path_x3E__359_" style="fill:#F5F5F5;" cx="250" cy="416.24" rx="193.89" ry="11.32"/>
</g>
<g id="Ladder">
	<g>
		<g>
			<polygon style="fill:#263238;" points="334.38,416.24 341.73,416.24 351.73,361 344.38,361 			"/>
			<polygon style="opacity:0.2;fill:#FFFFFF;" points="334.38,416.24 341.73,416.24 351.73,361 344.38,361 			"/>
			<polygon style="opacity:0.2;fill:#FFFFFF;" points="334.38,416.24 339.73,416.24 349.73,361 344.38,361 			"/>
		</g>
		<path style="fill:#263238;" d="M313.69,377.43h29.39c0.9,0,1.62-0.73,1.62-1.62l0,0c0-0.9-0.73-1.62-1.62-1.62h-29.39
			c-0.9,0-1.62,0.73-1.62,1.62l0,0C312.07,376.71,312.79,377.43,313.69,377.43z"/>
		<path style="fill:#263238;" d="M310.42,395.93h29.39c0.9,0,1.62-0.73,1.62-1.62l0,0c0-0.9-0.73-1.62-1.62-1.62h-29.39
			c-0.9,0-1.62,0.73-1.62,1.62l0,0C308.8,395.2,309.53,395.93,310.42,395.93z"/>
		<g>
			<polygon style="fill:#263238;" points="304.38,416.24 311.73,416.24 321.73,361 314.38,361 			"/>
			<polygon style="opacity:0.2;fill:#FFFFFF;" points="304.38,416.24 311.73,416.24 321.73,361 314.38,361 			"/>
			<polygon style="opacity:0.2;fill:#FFFFFF;" points="304.38,416.24 309.73,416.24 319.73,361 314.38,361 			"/>
		</g>
		<g>
			<polygon style="fill:#263238;" points="372.73,416.24 365.38,416.24 355.38,361 362.73,361 			"/>
			<polygon style="opacity:0.4;fill:#FFFFFF;" points="372.73,416.24 365.38,416.24 355.38,361 362.73,361 			"/>
			<polygon style="opacity:0.2;fill:#FFFFFF;" points="370.73,416.24 365.38,416.24 355.38,361 360.73,361 			"/>
		</g>
		<path style="fill:#263238;" d="M359.82,377.43h-29.39c-0.9,0-1.62-0.73-1.62-1.62l0,0c0-0.9,0.73-1.62,1.62-1.62h29.39
			c0.9,0,1.62,0.73,1.62,1.62l0,0C361.44,376.71,360.71,377.43,359.82,377.43z"/>
		<path style="fill:#263238;" d="M363.08,395.93h-29.39c-0.9,0-1.62-0.73-1.62-1.62l0,0c0-0.9,0.73-1.62,1.62-1.62h29.39
			c0.9,0,1.62,0.73,1.62,1.62l0,0C364.7,395.2,363.98,395.93,363.08,395.93z"/>
		<path style="opacity:0.2;fill:#FFFFFF;" d="M359.82,377.43h-29.39c-0.9,0-1.62-0.73-1.62-1.62l0,0c0-0.9,0.73-1.62,1.62-1.62
			h29.39c0.9,0,1.62,0.73,1.62,1.62l0,0C361.44,376.71,360.71,377.43,359.82,377.43z"/>
		<path style="opacity:0.2;fill:#FFFFFF;" d="M363.08,395.93h-29.39c-0.9,0-1.62-0.73-1.62-1.62l0,0c0-0.9,0.73-1.62,1.62-1.62
			h29.39c0.9,0,1.62,0.73,1.62,1.62l0,0C364.7,395.2,363.98,395.93,363.08,395.93z"/>
		<g>
			<polygon style="fill:#263238;" points="342.73,416.24 335.38,416.24 325.38,361 332.73,361 			"/>
			<polygon style="opacity:0.4;fill:#FFFFFF;" points="342.73,416.24 335.38,416.24 325.38,361 332.73,361 			"/>
			<polygon style="opacity:0.2;fill:#FFFFFF;" points="340.73,416.24 335.38,416.24 325.38,361 330.73,361 			"/>
		</g>
		<g>
			<path style="fill:#263238;" d="M365.59,363.63h-53.1c-0.66,0-1.19-0.53-1.19-1.19v-2.9c0-0.66,0.53-1.19,1.19-1.19h53.1
				c0.66,0,1.19,0.53,1.19,1.19v2.9C366.78,363.1,366.25,363.63,365.59,363.63z"/>
			<path style="opacity:0.2;fill:#FFFFFF;" d="M332.68,363.63h-20.19c-0.66,0-1.19-0.53-1.19-1.19v-2.9c0-0.66,0.53-1.19,1.19-1.19
				h20.19c0.66,0,1.19,0.53,1.19,1.19v2.9C333.87,363.1,333.34,363.63,332.68,363.63z"/>
		</g>
	</g>
</g>
<g id="interface">
	<g>
		<g>
			<rect x="127.2" y="371.85" style="fill:#407BFF;" width="67.15" height="43.67"/>
			<rect x="127.2" y="371.85" style="opacity:0.6;fill:#FFFFFF;enable-background:new    ;" width="67.15" height="43.67"/>
		</g>
		<rect x="129.66" y="380.04" style="fill:#407BFF;" width="62.24" height="33.3"/>
		<g>
			<rect x="134.73" y="385.01" style="fill:#FFFFFF;" width="46.04" height="1.43"/>
			<rect x="134.73" y="389.4" style="fill:#FFFFFF;" width="22.09" height="1.43"/>
			<rect x="134.73" y="393.79" style="fill:#FFFFFF;" width="27.82" height="1.43"/>
			<rect x="134.73" y="398.17" style="fill:#FFFFFF;" width="9.81" height="1.43"/>
			<rect x="134.73" y="402.56" style="fill:#FFFFFF;" width="6.35" height="1.43"/>
		</g>
	</g>
</g>
<g id="Monitor">
	<g>
		<g>
			<polygon style="fill:#407BFF;" points="277.33,416.24 222.67,416.24 231.92,343.57 268.08,343.57 			"/>
			<polygon style="opacity:0.6;fill:#FFFFFF;" points="277.33,416.24 222.67,416.24 229,366.52 231.93,343.57 268.07,343.57 
				272.39,377.43 			"/>
			<polygon style="opacity:0.1;enable-background:new    ;" points="272.39,377.43 229,366.52 231.93,343.57 268.07,343.57 			"/>
		</g>
		<g>
			<path style="fill:#407BFF;" d="M378.87,164.38h-5.46H126.6h-5.46c-3.64,0-6.6,2.95-6.6,6.6v174.48c0,3.64,2.95,6.59,6.6,6.59
				h5.46H373.4h5.46c3.64,0,6.6-2.95,6.6-6.59V170.98C385.46,167.33,382.51,164.38,378.87,164.38z"/>
			<path style="opacity:0.7;fill:#FFFFFF;" d="M378.87,164.38h-5.46H126.6h-5.46c-3.64,0-6.6,2.95-6.6,6.6v174.48
				c0,3.64,2.95,6.59,6.6,6.59h5.46H373.4h5.46c3.64,0,6.6-2.95,6.6-6.59V170.98C385.46,167.33,382.51,164.38,378.87,164.38z"/>
		</g>
		<rect x="123.22" y="170.84" style="fill:#407BFF;" width="253.57" height="168.25"/>
		<g>
			<path style="fill:#407BFF;" d="M295.91,410.78h-91.82c-0.57,0-1.04,0.46-1.04,1.04v3.3c0,0.57,0.46,1.04,1.04,1.04h91.82
				c0.57,0,1.04-0.46,1.04-1.04v-3.3C296.95,411.24,296.48,410.78,295.91,410.78z"/>
			<path style="opacity:0.7;fill:#FFFFFF;" d="M295.91,410.78h-91.82c-0.57,0-1.04,0.46-1.04,1.04v3.3c0,0.57,0.46,1.04,1.04,1.04
				h91.82c0.57,0,1.04-0.46,1.04-1.04v-3.3C296.95,411.24,296.48,410.78,295.91,410.78z"/>
		</g>
		<g>
			<rect x="123.22" y="171" style="opacity:0.2;enable-background:new    ;" width="253.57" height="25.08"/>
			<rect x="123.22" y="196.38" style="opacity:0.4;fill:#FFFFFF;" width="108.66" height="142.71"/>
			<g>
				<g>
					<g>
						<polyline style="fill:none;stroke:#FFFFFF;stroke-miterlimit:10;" points="337.76,232.78 337.76,235.28 335.26,235.28 						
							"/>
						
							<line style="fill:none;stroke:#FFFFFF;stroke-miterlimit:10;stroke-dasharray:5.2837,5.2837;" x1="329.98" y1="235.28" x2="248.08" y2="235.28"/>
						<polyline style="fill:none;stroke:#FFFFFF;stroke-miterlimit:10;" points="245.44,235.28 242.94,235.28 242.94,232.78 						
							"/>
						
							<line style="fill:none;stroke:#FFFFFF;stroke-miterlimit:10;stroke-dasharray:4.5294,4.5294;" x1="242.94" y1="228.25" x2="242.94" y2="185.22"/>
						<polyline style="fill:none;stroke:#FFFFFF;stroke-miterlimit:10;" points="242.94,182.96 242.94,180.46 245.44,180.46 						
							"/>
						
							<line style="fill:none;stroke:#FFFFFF;stroke-miterlimit:10;stroke-dasharray:5.2837,5.2837;" x1="250.72" y1="180.46" x2="332.62" y2="180.46"/>
						<polyline style="fill:none;stroke:#FFFFFF;stroke-miterlimit:10;" points="335.26,180.46 337.76,180.46 337.76,182.96 						
							"/>
						
							<line style="fill:none;stroke:#FFFFFF;stroke-miterlimit:10;stroke-dasharray:4.5294,4.5294;" x1="337.76" y1="187.49" x2="337.76" y2="230.52"/>
					</g>
				</g>
				<g>
					<rect x="336.18" y="178.87" style="fill:#407BFF;stroke:#FFFFFF;stroke-miterlimit:10;" width="3.17" height="3.17"/>
					<rect x="336.18" y="233.7" style="fill:#407BFF;stroke:#FFFFFF;stroke-miterlimit:10;" width="3.17" height="3.17"/>
					<rect x="241.35" y="178.87" style="fill:#407BFF;stroke:#FFFFFF;stroke-miterlimit:10;" width="3.17" height="3.17"/>
					<rect x="241.35" y="233.7" style="fill:#407BFF;stroke:#FFFFFF;stroke-miterlimit:10;" width="3.17" height="3.17"/>
				</g>
				<g>
					<rect x="288.77" y="178.87" style="fill:#407BFF;stroke:#FFFFFF;stroke-miterlimit:10;" width="3.17" height="3.17"/>
					<rect x="288.77" y="233.7" style="fill:#407BFF;stroke:#FFFFFF;stroke-miterlimit:10;" width="3.17" height="3.17"/>
				</g>
				<g>
					<rect x="336.18" y="206.28" style="fill:#407BFF;stroke:#FFFFFF;stroke-miterlimit:10;" width="3.17" height="3.17"/>
					<rect x="241.35" y="206.28" style="fill:#407BFF;stroke:#FFFFFF;stroke-miterlimit:10;" width="3.17" height="3.17"/>
				</g>
			</g>
			<path style="opacity:0.7;fill:#FFFFFF;" d="M329.15,208.86h-23.2c-1.05,0-1.89-0.85-1.89-1.89v-6.2c0-1.05,0.85-1.89,1.89-1.89
				h23.2c1.05,0,1.89,0.85,1.89,1.89v6.2C331.04,208.01,330.2,208.86,329.15,208.86z"/>
			<path style="opacity:0.7;fill:#FFFFFF;" d="M289.15,208.86h-23.2c-1.05,0-1.89-0.85-1.89-1.89v-6.2c0-1.05,0.85-1.89,1.89-1.89
				h23.2c1.05,0,1.89,0.85,1.89,1.89v6.2C291.04,208.01,290.2,208.86,289.15,208.86z"/>
			<path style="opacity:0.7;fill:#FFFFFF;" d="M237.65,330.45h-23.2c-1.05,0-1.89-0.85-1.89-1.89v-6.2c0-1.05,0.85-1.89,1.89-1.89
				h23.2c1.05,0,1.89,0.85,1.89,1.89v6.2C239.55,329.6,238.7,330.45,237.65,330.45z"/>
			<g>
				
					<line style="fill:none;stroke:#FFFFFF;stroke-width:1.5;stroke-linecap:round;stroke-linejoin:round;stroke-miterlimit:10;" x1="360.05" y1="179.92" x2="368.49" y2="179.92"/>
				
					<line style="fill:none;stroke:#FFFFFF;stroke-width:1.5;stroke-linecap:round;stroke-linejoin:round;stroke-miterlimit:10;" x1="360.05" y1="183.92" x2="368.49" y2="183.92"/>
				
					<line style="fill:none;stroke:#FFFFFF;stroke-width:1.5;stroke-linecap:round;stroke-linejoin:round;stroke-miterlimit:10;" x1="360.05" y1="187.92" x2="368.49" y2="187.92"/>
			</g>
			<rect x="140.41" y="218.5" style="opacity:0.5;fill:#FFFFFF;" width="85.05" height="85.05"/>
			<g>
				<line style="fill:none;stroke:#407BFF;stroke-miterlimit:10;" x1="176.01" y1="225.45" x2="176.01" y2="298.82"/>
				<path style="fill:none;stroke:#407BFF;stroke-miterlimit:10;" d="M212.69,298.82L212.69,298.82
					c-20.26,0-36.68-16.42-36.68-36.68l0,0c0-20.26,16.42-36.68,36.68-36.68l0,0"/>
				<rect x="211.11" y="223.87" style="fill:#FFFFFF;stroke:#407BFF;stroke-miterlimit:10;" width="3.17" height="3.17"/>
				<rect x="211.11" y="297.23" style="fill:#FFFFFF;stroke:#407BFF;stroke-miterlimit:10;" width="3.17" height="3.17"/>
				<rect x="174.43" y="260.55" style="fill:#FFFFFF;stroke:#407BFF;stroke-miterlimit:10;" width="3.17" height="3.17"/>
				<circle style="fill:#FFFFFF;stroke:#407BFF;stroke-miterlimit:10;" cx="176.01" cy="225.45" r="0.82"/>
				<circle style="fill:#FFFFFF;stroke:#407BFF;stroke-miterlimit:10;" cx="176.01" cy="298.82" r="0.82"/>
			</g>
			<path style="opacity:0.7;fill:#FFFFFF;" d="M316.93,321.67h-25.75c-4.11,0-7.44-3.33-7.44-7.44l0,0c0-4.11,3.33-7.44,7.44-7.44
				h25.75c4.11,0,7.44,3.33,7.44,7.44l0,0C324.37,318.34,321.04,321.67,316.93,321.67z"/>
			<path style="opacity:0.7;fill:#FFFFFF;" d="M339.55,258.22h-79.54c-0.9,0-1.63-0.73-1.63-1.63l0,0c0-0.9,0.73-1.63,1.63-1.63
				h79.54c0.9,0,1.63,0.73,1.63,1.63l0,0C341.18,257.49,340.45,258.22,339.55,258.22z"/>
			<path style="opacity:0.7;fill:#FFFFFF;" d="M339.55,270.09h-79.54c-0.9,0-1.63-0.73-1.63-1.63l0,0c0-0.9,0.73-1.63,1.63-1.63
				h79.54c0.9,0,1.63,0.73,1.63,1.63l0,0C341.18,269.37,340.45,270.09,339.55,270.09z"/>
			<path style="opacity:0.7;fill:#FFFFFF;" d="M339.55,281.97h-49.54c-0.9,0-1.63-0.73-1.63-1.63l0,0c0-0.9,0.73-1.63,1.63-1.63
				h49.54c0.9,0,1.63,0.73,1.63,1.63l0,0C341.18,281.24,340.45,281.97,339.55,281.97z"/>
			<g>
				<rect x="131.23" y="177.95" style="opacity:0.4;enable-background:new    ;" width="5.62" height="5.62"/>
				<path style="opacity:0.4;enable-background:new    ;" d="M146.33,183.57h-2.74c-0.79,0-1.44-0.64-1.44-1.44v-2.74
					c0-0.79,0.64-1.44,1.44-1.44h2.74c0.79,0,1.44,0.64,1.44,1.44v2.74C147.77,182.93,147.13,183.57,146.33,183.57z"/>
				<path style="opacity:0.4;enable-background:new    ;" d="M156.12,183.57h-0.48c-1.42,0-2.57-1.15-2.57-2.57v-0.48
					c0-1.42,1.15-2.57,2.57-2.57h0.48c1.42,0,2.57,1.15,2.57,2.57V181C158.7,182.42,157.54,183.57,156.12,183.57z"/>
			</g>
			<g>
				<g>
					<path style="opacity:0.9;fill:#FFFFFF;" d="M148.46,316.5v-2.19l-1.13-0.11c-0.15-0.73-0.44-1.42-0.84-2.02l0.72-0.87
						l-1.55-1.55l-0.88,0.72c-0.61-0.4-1.29-0.69-2.02-0.84l-0.11-1.13h-2.19l-0.11,1.13c-0.73,0.15-1.42,0.44-2.02,0.84l-0.88-0.72
						l-1.55,1.55l0.72,0.87c-0.4,0.61-0.69,1.29-0.84,2.02l-1.13,0.11v2.19l1.13,0.11c0.15,0.73,0.44,1.42,0.84,2.02l-0.72,0.88
						l1.55,1.55l0.88-0.72c0.61,0.4,1.29,0.69,2.02,0.84l0.11,1.13h2.19l0.11-1.13c0.73-0.15,1.42-0.44,2.02-0.84l0.88,0.72
						l1.55-1.55l-0.72-0.88c0.4-0.61,0.69-1.29,0.84-2.02L148.46,316.5z M141.56,318.37c-1.64,0-2.96-1.33-2.96-2.96
						c0-1.64,1.33-2.96,2.96-2.96c1.64,0,2.96,1.33,2.96,2.96C144.53,317.04,143.2,318.37,141.56,318.37z"/>
					<path style="opacity:0.6;fill:#FFFFFF;" d="M157.33,322.68v-1.72l-0.88-0.08c-0.12-0.58-0.35-1.11-0.66-1.58l0.57-0.69
						l-1.21-1.21l-0.69,0.57c-0.47-0.31-1.01-0.54-1.58-0.66l-0.08-0.88h-1.72l-0.08,0.88c-0.58,0.12-1.11,0.35-1.58,0.66
						l-0.69-0.57l-1.21,1.21l0.57,0.69c-0.31,0.47-0.54,1.01-0.66,1.58l-0.88,0.08v1.72l0.88,0.08c0.12,0.58,0.35,1.11,0.66,1.58
						l-0.57,0.69l1.21,1.21l0.69-0.57c0.48,0.31,1.01,0.54,1.58,0.66l0.08,0.88h1.72l0.08-0.88c0.58-0.12,1.11-0.35,1.58-0.66
						l0.69,0.57l1.21-1.21l-0.57-0.69c0.31-0.47,0.54-1.01,0.66-1.58L157.33,322.68z M151.93,324.15c-1.28,0-2.32-1.04-2.32-2.32
						c0-1.28,1.04-2.32,2.32-2.32s2.32,1.04,2.32,2.32C154.25,323.11,153.21,324.15,151.93,324.15z"/>
					<path style="opacity:0.4;fill:#FFFFFF;" d="M148.46,327.55v-1.44l-0.74-0.07c-0.1-0.48-0.29-0.93-0.55-1.33l0.48-0.58
						l-1.02-1.02l-0.58,0.48c-0.4-0.26-0.85-0.45-1.33-0.55l-0.07-0.74h-1.44l-0.07,0.74c-0.48,0.1-0.93,0.29-1.33,0.55l-0.58-0.48
						l-1.02,1.02l0.48,0.58c-0.26,0.4-0.45,0.85-0.55,1.33l-0.74,0.07v1.44l0.74,0.07c0.1,0.48,0.29,0.93,0.55,1.33l-0.48,0.58
						l1.02,1.02l0.58-0.48c0.4,0.26,0.85,0.45,1.33,0.55l0.07,0.74h1.44l0.07-0.74c0.48-0.1,0.93-0.29,1.33-0.55l0.58,0.48
						l1.02-1.02l-0.48-0.58c0.26-0.4,0.45-0.85,0.55-1.33L148.46,327.55z M143.92,328.78c-1.08,0-1.95-0.87-1.95-1.95
						c0-1.08,0.87-1.95,1.95-1.95c1.08,0,1.95,0.87,1.95,1.95C145.87,327.91,145,328.78,143.92,328.78z"/>
				</g>
			</g>
		</g>
		<g>
			<g>
				<polygon style="fill:#407BFF;" points="337.18,179.89 341.42,191.23 348.51,184.13 				"/>
				
					<rect x="343.85" y="185.2" transform="matrix(0.707 -0.7072 0.7072 0.707 -31.6557 298.9578)" style="fill:#407BFF;" width="2.24" height="4.97"/>
			</g>
			<polygon style="opacity:0.4;fill:#FFFFFF;" points="348.52,184.13 337.18,179.89 341.42,191.23 344.18,188.47 345.93,190.23 
				347.51,188.65 345.76,186.89 			"/>
		</g>
		<g>
			<path style="fill:#263238;" d="M163.46,220.42l10.67,3.99l-5.59-5.59c-0.42,0.23-0.95,0.19-1.31-0.17
				c-0.43-0.43-0.43-1.13,0-1.56c0.43-0.43,1.13-0.43,1.56,0c0.36,0.36,0.4,0.89,0.17,1.31l5.59,5.59l-3.99-10.67l-3.53,0.78
				l-0.14-1.28l-0.67-0.67l-3.92,3.92l0.67,0.67l1.28,0.14L163.46,220.42z"/>
			<path style="opacity:0.2;fill:#FFFFFF;" d="M163.46,220.42l10.67,3.99l-5.59-5.59c-0.42,0.23-0.95,0.19-1.31-0.17
				c-0.43-0.43-0.43-1.13,0-1.56c0.43-0.43,1.13-0.43,1.56,0c0.36,0.36,0.4,0.89,0.17,1.31l5.59,5.59l-3.99-10.67l-3.53,0.78
				l-0.14-1.28l-0.67-0.67l-3.92,3.92l0.67,0.67l1.28,0.14L163.46,220.42z"/>
		</g>
		<g style="opacity:0.1;">
			<polygon style="fill:#FFFFFF;" points="160.3,170.84 122.72,311.26 122.72,170.84 			"/>
			<polygon style="fill:#FFFFFF;" points="202.71,170.84 157.68,339.09 126.66,339.09 171.68,170.84 			"/>
			<polygon style="fill:#FFFFFF;" points="247.81,170.84 202.78,339.09 188.75,339.09 233.78,170.84 			"/>
			<polygon style="fill:#FFFFFF;" points="289.34,170.84 244.31,339.09 239.29,339.09 284.32,170.84 			"/>
		</g>
	</g>
</g>
<g id="Character_2">
	<g>
		<g>
			<path style="fill:#263238;" d="M441.9,207.96c3.55,4.1,21.61,38.89,18.12,47.01s-32.43-1.24-32.43-1.24l1.73-11.46
				c0,0,11.25,0.4,12.32-0.67c1.08-1.07-15.21-17.33-15.21-17.33L441.9,207.96z"/>
			<g style="opacity:0.2;enable-background:new    ;">
				<path style="fill:#FFFFFF;" d="M460.02,254.97c-0.4,0.93-1.13,1.63-2.11,2.14c-0.01,0-0.02,0.01-0.03,0.02
					c-0.18,0.09-0.38,0.18-0.58,0.26c-0.02,0.01-0.05,0.02-0.08,0.03c-0.17,0.07-0.36,0.14-0.55,0.19c-0.75,0.25-1.59,0.42-2.5,0.52
					c-0.24,0.03-0.48,0.05-0.73,0.07c-0.36,0.03-0.72,0.05-1.09,0.06c-0.31,0.01-0.63,0.02-0.95,0.02
					c-9.7,0.01-23.81-4.55-23.81-4.55l1.73-11.47c0,0,11.24,0.4,12.32-0.67c0.26-0.26-0.51-1.42-1.82-3.03
					c-0.01-0.01-0.01-0.01-0.02-0.02c-3.18-3.91-9.55-10.42-12.18-13.08c-0.74-0.75-1.19-1.2-1.19-1.2l15.47-16.3
					C445.45,212.05,463.51,246.84,460.02,254.97z"/>
			</g>
		</g>
		<path style="opacity:0.2;enable-background:new    ;" d="M457.91,257.11c-0.01,0-0.02,0.01-0.03,0.02
			c-0.18,0.09-0.38,0.18-0.58,0.26c-0.02,0.01-0.05,0.02-0.08,0.03c-0.17,0.07-0.36,0.14-0.55,0.19c-0.75,0.25-1.59,0.42-2.5,0.52
			c-0.24,0.03-0.48,0.05-0.73,0.07c-0.36,0.03-0.72,0.05-1.09,0.06c-0.31,0.01-0.63,0.02-0.95,0.02c-9.7,0.01-23.81-4.55-23.81-4.55
			l1.73-11.47c0,0,12.66,1.07,13.74,0c0.02-0.02,0.02-0.03,0.03-0.05c0.2-0.42-1.2-1.84-3.27-3.65c-0.01-0.01-0.01-0.01-0.02-0.02
			c-3.18-3.91-9.55-10.42-12.18-13.08l7.32-7.82l5.57-0.6C440.51,217.04,452.81,236.95,457.91,257.11z"/>
		<g>
			<path style="fill:#263238;" d="M405.41,206.82c-2,1.45-2.99,3.51-2.2,4.6l52.84,72.85c0.79,1.09,3.05,0.79,5.06-0.67
				c2-1.45,2.99-3.51,2.2-4.6l-52.84-72.85C409.68,205.07,407.42,205.36,405.41,206.82z"/>
			<path style="opacity:0.7;fill:#FFFFFF;" d="M410.47,206.15l52.84,72.85c0.79,1.08-0.2,3.15-2.2,4.6
				c-2.01,1.46-4.27,1.75-5.05,0.66l-52.84-72.85c-0.43-0.6-0.33-1.49,0.19-2.42c0.24-0.43,0.58-0.89,1-1.31
				c0.29-0.3,0.63-0.59,1-0.86C407.42,205.37,409.68,205.07,410.47,206.15z"/>
			<path style="opacity:0.3;enable-background:new    ;" d="M463.31,279.01c0.79,1.08-0.2,3.15-2.2,4.6
				c-2.01,1.46-4.27,1.75-5.05,0.66c-0.43-0.6,0.66-1.5,1.29-2.82l-53.94-72.46c0.24-0.43,0.58-0.89,1-1.31l52.85,72.86
				c0.3-0.3,0.63-0.6,1-0.87C460.26,278.22,462.52,277.92,463.31,279.01z"/>
		</g>
		<g>
			<path style="fill:#407BFF;" d="M398.87,204.8c-1.69,1.81-2.27,4.02-1.29,4.93l65.7,61.51c0.98,0.92,3.15,0.2,4.84-1.61
				s2.27-4.02,1.29-4.93l-65.7-61.51C402.73,202.27,400.56,202.99,398.87,204.8z"/>
			<path style="opacity:0.7;fill:#FFFFFF;" d="M403.71,203.19l65.7,61.51c0.98,0.92,0.4,3.13-1.29,4.93
				c-1.69,1.81-3.86,2.53-4.84,1.61l-65.7-61.51c-0.54-0.51-0.6-1.4-0.27-2.42c0.15-0.47,0.4-0.98,0.74-1.47
				c0.23-0.35,0.51-0.7,0.82-1.04C400.56,202.99,402.73,202.27,403.71,203.19z"/>
			<path style="opacity:0.3;enable-background:new    ;" d="M469.41,264.7c0.98,0.92,0.4,3.13-1.29,4.93
				c-1.69,1.81-3.86,2.53-4.84,1.61c-0.54-0.51,0.36-1.6,0.73-3.01l-66.7-60.92c0.15-0.47,0.4-0.98,0.74-1.47l65.71,61.52
				c0.24-0.35,0.5-0.71,0.81-1.05C466.26,264.5,468.43,263.78,469.41,264.7z"/>
		</g>
		<path style="fill:#EBB376;" d="M414.66,401.1l-5.01,0.08c-5.09-23.91-8.69-53.5-10.93-75.82c-0.35-3.5-0.67-6.81-0.95-9.9
			c-0.13-1.47-0.26-2.88-0.38-4.24c-0.6-6.71-1.01-12.03-1.26-15.32c-0.18-2.4-0.27-3.72-0.27-3.72h18.1l-0.17,4.61l-0.56,15.22
			l-0.06,1.74l-0.38,10.05l-0.63,17.11C418.37,365,414.66,401.1,414.66,401.1z"/>
		<path style="fill:#EBB376;" d="M455.26,399.82l-4.93,0.93c-9.87-24.67-19.14-56.26-25.17-78.33c-0.93-3.42-1.79-6.62-2.56-9.52
			c-0.04-0.15-0.07-0.29-0.11-0.43c-1.52-5.76-2.69-10.35-3.42-13.26c-0.56-2.28-0.87-3.53-0.87-3.53l17.84-3.08l1.01,7.5
			l1.49,11.02l0.29,2.16l1.01,7.51l2.71,20.14C452.77,363.61,455.26,399.82,455.26,399.82z"/>
		<path style="opacity:0.2;enable-background:new    ;" d="M438.54,311.12l-15.94,1.78c-0.04-0.15-0.07-0.29-0.11-0.43
			c-1.52-5.76-2.69-10.35-3.42-13.26l17.98,0.89L438.54,311.12z"/>
		<path style="opacity:0.2;enable-background:new    ;" d="M413.79,296.79l-0.56,15.22l-0.06,1.74l-15.4,1.71
			c-0.13-1.47-0.26-2.88-0.38-4.24c-0.6-6.71-1.01-12.03-1.26-15.32L413.79,296.79z"/>
		<path style="fill:#263238;" d="M399.87,417.72c0.93-0.75,1.99-1.33,3.13-1.71l0,0c0,0,3.41-3.38,5.05-13.57l4.46-1.16
			c1.55-0.38,3.17,0.26,4.06,1.59c0.12,0.18,0.22,0.38,0.28,0.59c0.23,1.09,0.39,2.2,0.48,3.31c0.45,3.45,0.06,11.18,0.06,11.18
			h-0.81l-0.32-7.02c-0.12-2.38-1.94,0.41-2.47,2.98s-1.63,5.3-6.86,5.43C400.86,419.45,398.33,419.21,399.87,417.72z"/>
		<path style="fill:#263238;" d="M416.74,402.95c0.29-2.38,0.39-6.53,0.39-6.53l-9.92,1.1c0,0,1.2,4.71,0.21,8.25
			C412.41,404.46,416.74,402.95,416.74,402.95z"/>
		<path style="fill:#263238;" d="M440.23,417.72c0.93-0.75,2-1.33,3.14-1.71l0,0c0,0,3.41-3.38,5.05-13.57l4.46-1.16
			c1.55-0.38,3.17,0.26,4.06,1.59c0.12,0.18,0.22,0.38,0.28,0.59c0.23,1.09,0.39,2.2,0.48,3.31c0.45,3.45,0.06,11.18,0.06,11.18
			h-0.81l-0.32-7.02c-0.12-2.38-1.94,0.41-2.47,2.98s-1.63,5.3-6.86,5.43C441.22,419.45,438.69,419.21,440.23,417.72z"/>
		<path style="fill:#263238;" d="M457.09,402.95c0.29-2.38,0.38-6.53,0.38-6.53l-9.92,1.1c0,0,1.2,4.71,0.21,8.25
			C452.77,404.46,457.09,402.95,457.09,402.95z"/>
		<path style="fill:#407BFF;" d="M440.26,306.21l-18.87,2.41l-0.73,0.09l-3.88-14.22l-1.02,15.24l-20.22-1.06
			c-9.01-52.87,6.39-65.36,6.39-65.36l27.43,5.52c12.42,21.12,9.47,45.66,9.47,45.66L440.26,306.21z"/>
		<g>
			
				<ellipse style="fill:none;stroke:#263238;stroke-width:0.5;stroke-linecap:round;stroke-linejoin:round;stroke-miterlimit:10;" cx="412.23" cy="177.44" rx="2.06" ry="3.76"/>
			<path style="fill:#EBB376;" d="M427.83,190.03c-0.07,0.06-0.16,0.13-0.24,0.17c-1.11,0.79-2.38,1.54-3.83,1.87
				c-4.05,0.94-6.82,0.38-8.63-1.45c-0.01,0-0.01,0-0.01,0c-2.53-2.75-3.16-7.62-2.81-13.5c0.16-2.69,0.54-5.04,1.28-6.86
				c0.01-0.02,0.01-0.09,0.02-0.1c0.04-0.07,0.06-0.18,0.1-0.25c1.11-2.55,2.95-4.2,5.89-4.9c1.02-0.24,2.17-0.37,3.47-0.39
				C434.55,164.51,436.61,183.49,427.83,190.03z"/>
			<path style="opacity:0.2;enable-background:new    ;" d="M427.59,190.21c-1.11,0.79-2.38,1.38-3.83,1.71
				c-4.05,0.94-6.82,0.25-8.63-1.61c1.99,0.44,4.67,0.6,7.27-0.6C424.04,188.96,425.87,189.35,427.59,190.21z"/>
			<path style="fill:#EBB376;" d="M428.75,200.56c0.71,3.26-3.52,4.59-3.52,4.59c-6.91-2.95-8.19-6.63-8.19-6.63
				c5.77-3.01,4.1-11.51,4.1-11.51l1.17,0.58l8.23,1.61c0,0-2.29,4.38-2.59,5.38c0,0.01-0.01,0.02-0.01,0.03
				C426.4,199.83,428.75,200.56,428.75,200.56z"/>
			<path style="fill:#263238;" d="M413.6,170.19c0,0-0.63,8.04,6.98,11.49c0,0,3.27,8.35,8.08,8.46
				c6.56,0.16,12.35-9.18,10.07-18.69C435.79,159.12,417.1,158.12,413.6,170.19z"/>
			<path style="fill:#EBB376;" d="M416.72,179.37c0-1.25,1.01-3.36,2.96-3.07c2.02,0.3,3.13,5.27-1.82,6.38
				C417.15,182.84,416.72,181.99,416.72,179.37z"/>
			<path style="fill:#263238;" d="M427.59,161.65c0,0-7.67-1.94-11.9,1.14c-4.95,3.6-6.82,7.32-0.97,13.1c0,0,12.87-4.17,17.15-3.29
				c4.28,0.88,7.34,2.13,7.34,2.13C440.11,166.24,431.87,159.91,427.59,161.65z"/>
			<path style="fill:#263238;" d="M416.72,177.44c0,0,2.05,9.27-1.14,17.16c0,0,18.2,6.31,24.53,2.89
				c6.33-3.43,0.53-14.94,0.26-21.58c-0.26-6.64-3.15-16.45-12.78-14.25S416.72,177.44,416.72,177.44z"/>
			
				<line style="fill:none;stroke:#263238;stroke-width:0.5;stroke-linecap:round;stroke-linejoin:round;stroke-miterlimit:10;" x1="410.17" y1="176.85" x2="417.86" y2="176.85"/>
		</g>
		<path style="opacity:0.2;enable-background:new    ;" d="M421.39,308.62l-0.73,0.09l-3.88-14.22c0,0,8.32-14.21,5.72-21.61
			C422.87,273.4,431.83,286.69,421.39,308.62z"/>
		<g>
			<path style="fill:#263238;" d="M405.81,199.84c0,0,9.15-3.26,22.94,0.72c13.79,3.98,14.3,9.86,14.3,9.86s-8.74,19.81-10.11,42.23
				L397,251.31C397,251.31,392.71,219.65,405.81,199.84z"/>
			<path style="opacity:0.2;fill:#FFFFFF;enable-background:new    ;" d="M443.06,210.41c0,0-8.74,19.81-10.12,42.24L397,251.31
				c0,0-0.6-4.41-0.66-10.96c-0.05-4.57,0.16-10.19,1-16.09c1.2-8.3,3.67-17.16,8.47-24.42c0,0,9.15-3.26,22.94,0.72
				C442.55,204.54,443.06,210.41,443.06,210.41z"/>
		</g>
		<path style="opacity:0.2;enable-background:new    ;" d="M405.31,225.61c0,0-1.49,9.12-8.97,14.74c-0.05-4.57,0.16-10.19,1-16.09
			L405.31,225.61z"/>
		<path style="fill:#EBB376;" d="M365.6,199.21l-4.53-6.72c0,0-0.7-2.92-1.57-3.59c-0.87-0.67-9.59-4.36-10.63-4.34
			c-1.05,0.02-1.05,6.78,0,7.93c1.05,1.15,6.54,3.61,7.97,3.86c1.44,0.25,0.74,0,0.74,0l4.01,7.99L365.6,199.21z"/>
		<g>
			<path style="fill:#263238;" d="M405.81,199.84c0,0-12.61,4.96-28.02,14.46l-14.62-19.95c0,0-3.95,1.23-5.4,8.08
				c0,0,7.51,28.62,17.27,31.45c9.76,2.83,30.28-8.26,30.28-8.26S411.27,210.7,405.81,199.84z"/>
			<path style="opacity:0.2;fill:#FFFFFF;enable-background:new    ;" d="M405.81,199.84c0,0-12.61,4.96-28.02,14.46l-14.62-19.95
				c0,0-3.95,1.23-5.4,8.08c0,0,7.51,28.62,17.27,31.45c9.76,2.83,30.28-8.26,30.28-8.26S411.27,210.7,405.81,199.84z"/>
		</g>
		<g>
			<path style="fill:#263238;" d="M415.06,198.58c0,0,3.19,22.84,13.3,23.76c10.11,0.92,14.64-15.95,12.92-18
				C439.57,202.3,426.55,198.43,415.06,198.58z"/>
			<path style="opacity:0.3;fill:#FFFFFF;enable-background:new    ;" d="M415.06,198.58c0,0,3.19,22.84,13.3,23.76
				c10.11,0.92,14.64-15.95,12.92-18C439.57,202.3,426.55,198.43,415.06,198.58z"/>
		</g>
	</g>
</g>
<g id="Character_1">
	<g id="_x3C_Group_x3E__81_">
		<polygon style="fill:#B97964;" points="55.36,408.67 62.77,408.67 63.38,391.51 55.97,391.51 		"/>
		<path style="fill:#263238;" d="M63.79,407.81h-9c-0.3,0-0.57,0.21-0.63,0.51l-1.46,6.59c-0.13,0.59,0.25,1.17,0.84,1.29
			c0.08,0.02,0.16,0.02,0.24,0.02c2.91-0.05,5.03-0.23,8.69-0.23c2.25,0,9.04,0.24,12.15,0.24c3.11,0,3.51-3.07,2.24-3.35
			c-5.71-1.24-10-2.97-11.83-4.61C64.7,407.97,64.25,407.8,63.79,407.81z"/>
		<path style="fill:#407BFF;" d="M64.3,408.84c-0.07-0.02-0.12-0.08-0.13-0.15c-0.01-0.07,0.02-0.14,0.08-0.17
			c0.26-0.17,2.66-1.64,3.48-1.21c0.19,0.09,0.31,0.28,0.3,0.49c0.05,0.36-0.09,0.71-0.37,0.94c-0.42,0.28-0.92,0.42-1.42,0.38
			C65.59,409.09,64.94,409,64.3,408.84z M64.81,408.59c0.86,0.29,1.81,0.25,2.64-0.13c0.18-0.16,0.27-0.39,0.24-0.63
			c-0.01-0.14-0.07-0.21-0.11-0.21c-0.07-0.04-0.15-0.05-0.23-0.05C66.44,407.75,65.58,408.09,64.81,408.59z"/>
		<path style="fill:#407BFF;" d="M64.25,408.87c-0.05-0.04-0.09-0.1-0.08-0.16c0.01-0.1,0.19-2.23,1.05-2.93
			c0.2-0.18,0.48-0.26,0.74-0.23c0.27,0,0.51,0.19,0.57,0.46c0.15,0.78-1.33,2.41-2.09,2.83h-0.08
			C64.32,408.86,64.29,408.87,64.25,408.87z M65.44,405.99c-0.52,0.67-0.83,1.47-0.88,2.32c0.76-0.58,1.7-1.81,1.61-2.29
			c-0.01-0.05-0.03-0.18-0.25-0.18h-0.08C65.69,405.84,65.55,405.89,65.44,405.99z"/>
		<polygon style="opacity:0.2;enable-background:new    ;" points="55.97,391.52 63.38,391.52 63.06,400.37 55.65,400.37 		"/>
		<polygon style="fill:#B97964;" points="93.49,409.22 101.14,410.03 102.57,393.55 94.93,392.74 		"/>
		<path style="fill:#263238;" d="M101.94,407.57h-9c-0.3,0-0.57,0.21-0.63,0.51l-1.46,6.59c-0.12,0.59,0.25,1.17,0.84,1.3
			c0.08,0.02,0.16,0.02,0.24,0.02c2.91-0.05,5.03-0.23,8.69-0.23c2.25,0,9.04,0.24,12.15,0.24s3.51-3.07,2.24-3.35
			c-5.71-1.24-10-2.97-11.83-4.61C102.85,407.73,102.4,407.57,101.94,407.57z"/>
		<path style="fill:#407BFF;" d="M102.45,408.6c-0.07-0.02-0.12-0.08-0.13-0.15c-0.01-0.07,0.02-0.14,0.08-0.17
			c0.26-0.17,2.66-1.64,3.48-1.21c0.19,0.09,0.31,0.28,0.3,0.49c0.05,0.36-0.09,0.71-0.37,0.94c-0.42,0.28-0.92,0.42-1.42,0.38
			C103.74,408.85,103.09,408.76,102.45,408.6z M102.96,408.36c0.86,0.29,1.81,0.25,2.64-0.13c0.18-0.16,0.27-0.39,0.24-0.63
			c-0.01-0.14-0.07-0.21-0.11-0.21c-0.07-0.04-0.15-0.05-0.23-0.05C104.59,407.51,103.73,407.86,102.96,408.36z"/>
		<path style="fill:#407BFF;" d="M102.41,408.64c-0.05-0.04-0.09-0.1-0.08-0.16c0.01-0.1,0.19-2.23,1.05-2.93
			c0.2-0.18,0.48-0.26,0.74-0.23c0.27,0,0.51,0.19,0.56,0.46c0.15,0.78-1.33,2.41-2.09,2.83h-0.08
			C102.47,408.63,102.44,408.64,102.41,408.64z M103.59,405.76c-0.52,0.67-0.83,1.47-0.88,2.32c0.76-0.58,1.71-1.81,1.61-2.29
			c-0.01-0.05-0.03-0.18-0.25-0.18h-0.08C103.84,405.61,103.7,405.66,103.59,405.76z"/>
		<polygon style="opacity:0.2;enable-background:new    ;" points="94.93,392.74 102.57,393.55 101.82,402.05 94.18,401.24 		"/>
		<path style="fill:#263238;" d="M59.02,241.05h39.3c3.74,20.41,15.43,92.62,7.04,156.96l-13.31-1.65c0,0,1.23-85.42-10.52-117
			c-1.35,16.9-2.96,34.88-4.35,44.45c-3.42,23.55-10.74,75.02-10.74,75.02H52.91c0,0,2.77-49.26,4.05-72.41
			C58.36,301.3,58.97,246.21,59.02,241.05z"/>
		<g>
			<polygon style="fill:#407BFF;" points="106.89,401.11 90.42,398.66 90.93,394.1 108.06,396.35 			"/>
		</g>
		<g>
			<polygon style="fill:#407BFF;" points="68.09,398.94 52.11,398.94 52.11,394.17 68.69,393.86 			"/>
		</g>
		<path style="opacity:0.2;enable-background:new    ;" d="M81.55,279.37c1.73,4.65,3.17,10.47,4.39,17
			c1.1-15.04-3.3-30.99-3.3-30.99L81.55,279.37z"/>
		<path style="fill:#407BFF;" d="M57.91,247.89l-0.9,4.75c0,0,27.5,3.56,44.61,3.46l-0.59-3.26L57.91,247.89z"/>
		<path style="fill:#B97964;" d="M113.74,206.76c0,0,9.52,29.99,16.02,31.95c6.5,1.96,23.05-22.79,23.05-22.79
			s14.83-0.14,15.49-1.16c0.66-1.01-3.85-11.45-4.94-11.47c-1.08-0.02-13.99,4.86-14.49,5.67s-15.31,14.98-16.04,14.58
			c-0.72-0.4-6.32-18.25-6.32-18.25L113.74,206.76z"/>
		<path style="fill:#B97964;" d="M154.7,214.35c0.13-0.03,0.25-0.05,0.36-0.09c-0.06-0.04-0.12-0.07-0.17-0.11
			C154.82,214.22,154.77,214.29,154.7,214.35z"/>
		<g>
			<path style="fill:#407BFF;" d="M108.34,203.3l1.16,2.14l5.42,10.01l1.12,2.06l15.19-5.28c0,0-6.31-23.58-8.5-25.99L108.34,203.3z
				"/>
			<path style="opacity:0.4;fill:#FFFFFF;enable-background:new    ;" d="M108.34,203.3l1.16,2.14l5.42,10.01l1.12,2.06l15.19-5.28
				c0,0-6.31-23.58-8.5-25.99L108.34,203.3z"/>
		</g>
		<path style="opacity:0.2;enable-background:new    ;" d="M109.5,205.43l5.42,10.01c3.34-6.58,2.37-15.57,2.37-15.57L109.5,205.43z
			"/>
		<g>
			<path style="fill:#407BFF;" d="M122.72,186.23c0,0-7.99-10.4-22.88-11.1c-14.89-0.7-19.56,0.78-25.01,5.64
				c-7.95,7.1-17.82,68.25-17.82,68.25s20.8,6.43,44.62,4.85c0,0,0.18-16.97,5.55-28.42C117.63,203.2,122.72,186.23,122.72,186.23z"
				/>
			<path style="opacity:0.4;fill:#FFFFFF;enable-background:new    ;" d="M57.01,249.02c0,0,20.8,6.43,44.62,4.86
				c0,0,0.02-2.09,0.28-5.31c0.12-1.52,0.3-3.3,0.56-5.21c0.26-1.98,0.6-4.12,1.05-6.29c0.24-1.17,0.51-2.35,0.81-3.53
				c0.73-2.8,1.66-5.58,2.84-8.08c0.66-1.41,1.3-2.79,1.92-4.16c1.08-2.37,2.09-4.69,3.04-6.9c1.99-4.65,3.7-8.9,5.12-12.62
				c1.02-2.67,1.9-5.06,2.63-7.11c0.81-2.28,1.45-4.16,1.92-5.56c0.61-1.85,0.91-2.87,0.91-2.87s-0.54-0.7-1.61-1.76
				c-2.97-2.95-10.04-8.65-20.78-9.31c-0.17-0.02-0.33-0.03-0.49-0.04c-11.34-0.53-16.76,0.2-21.1,2.73
				c-1.36,0.79-2.61,1.75-3.91,2.91c-0.89,0.79-1.81,2.26-2.72,4.26c-1.52,3.27-3.06,7.93-4.54,13.26
				c-0.22,0.79-0.44,1.61-0.66,2.43c-0.98,3.71-1.94,7.66-2.84,11.66c-0.26,1.13-0.51,2.27-0.76,3.41c-0.37,1.74-0.74,3.47-1.1,5.18
				c-0.9,4.31-1.71,8.49-2.42,12.25c-1.01,5.41-1.81,9.93-2.28,12.73C57.19,247.9,57.01,249.02,57.01,249.02z M100.71,175.72
				c1.05,0.04,2.07,0.12,2.98,0.24c4.04,0.54,10.15,3.74,9.99,5.27c-0.16,1.53-2.49,5.4-8.47,4.46c-2.06-0.32-4.06-1.26-5.8-2.42
				c-3.31-2.18-5.71-5.13-5.95-6.09C93.19,176.04,97.07,175.61,100.71,175.72z"/>
			<path style="fill:#407BFF;" d="M87.88,196.08c0,0-7.91,19.07-9.49,34.9l21.3,2.72c0,0,9.57-25.77,11.54-33.82
				C111.23,199.87,94.21,198.17,87.88,196.08z"/>
			<polygon style="opacity:0.4;fill:#FFFFFF;enable-background:new    ;" points="107.07,200.62 110.03,200.91 107.86,202.59 			"/>
		</g>
		<path style="fill:#B97964;" d="M95.47,177.2c1.61,4.6,7.6,6.7,10.74,6.97c4.41,0.37,5.7-3.09,5.7-3.09s-3.58-1.78-3.23-3.8
			c0.21-1.17,0.76-2.32,1.48-3.42c0.37-0.58,0.79-1.15,1.23-1.69l-5.75-12.32C104.35,165.22,100.42,175.48,95.47,177.2z"/>
		<path style="opacity:0.2;enable-background:new    ;" d="M105.4,165.57c-2.74,5.97,1.13,10.13,3.27,11.71
			c0.21-1.17,0.76-2.32,1.48-3.42L105.4,165.57z"/>
		<g>
			<g>
				<path style="fill:#B97964;" d="M124.68,149.56c0,0,1.84,10.16-3.46,14.23c-5.3,4.08-5.84-14.91-5.84-14.91L124.68,149.56z"/>
				<path style="opacity:0.4;enable-background:new    ;" d="M124.68,149.56c0,0,1.84,10.16-3.46,14.23
					c-5.3,4.08-5.84-14.91-5.84-14.91L124.68,149.56z"/>
			</g>
			<path style="fill:#B97964;" d="M105.73,172.34c2.73,3.7,7.05,4.57,10.73,3.29c2.37-0.82,4.48-2.54,5.75-4.96
				c0.17-0.32,0.32-0.65,0.46-0.99c2.49-6.31,3.05-21.71-3.68-21.14c-5.51,0.47-10.92-1.24-13.73,3.54
				c-0.81,1.35-1.28,2.88-1.38,4.46C103.28,163.85,102.58,168.12,105.73,172.34z"/>
			<path style="fill:#263238;" d="M114.61,160.13c-0.12,0.58,0.16,1.11,0.55,1.17c0.39,0.06,0.77-0.39,0.85-0.97
				c0.09-0.59-0.17-1.11-0.55-1.17C115.08,159.1,114.7,159.53,114.61,160.13z"/>
			<path style="fill:#263238;" d="M121.3,161.08c-0.12,0.58,0.17,1.11,0.55,1.17s0.77-0.39,0.85-0.97c0.09-0.59-0.17-1.11-0.55-1.17
				C121.77,160.05,121.38,160.52,121.3,161.08z"/>
			<path style="fill:#A24E3F;" d="M119.13,161.07c0.45,1.91,1.16,3.75,2.11,5.46c-0.91,0.47-1.97,0.52-2.92,0.13L119.13,161.07z"/>
			<path style="fill:#263238;" d="M112.85,157.67c0.13,0.04,0.26,0,0.36-0.09c0.62-0.64,1.5-0.96,2.39-0.85
				c0.19,0.04,0.37-0.08,0.41-0.27c0.04-0.19-0.08-0.37-0.27-0.41c0,0,0,0,0,0c-1.12-0.17-2.24,0.22-3.02,1.03
				c-0.14,0.13-0.15,0.35-0.02,0.49c0,0,0,0,0.01,0.01C112.75,157.62,112.8,157.65,112.85,157.67z"/>
			<path style="fill:#263238;" d="M124.5,159.18c0.06,0.04,0.13,0.05,0.2,0.04c0.18-0.06,0.29-0.25,0.23-0.43c0,0,0,0,0-0.01
				c-0.32-1.08-1.15-1.94-2.22-2.31c-0.19-0.05-0.38,0.06-0.43,0.24l0,0c-0.05,0.19,0.06,0.37,0.25,0.43l0,0
				c0.84,0.31,1.48,1,1.73,1.85C124.31,159.1,124.4,159.16,124.5,159.18z"/>
			<path style="fill:none;stroke:#263238;stroke-width:0.5;stroke-linecap:round;stroke-linejoin:round;stroke-miterlimit:10;" d="
				M113.68,166.92c0,0,1.23,2.64,3.73,2.54"/>
			<g>
				<path style="fill:#B97964;" d="M110.49,148.23l0.09,3.26c-1.11,0.46-1.86,1.6-1.49,2.91c0.79,2.8-1.14,6.86-3.38,8.34
					c0,0,0.04-1.18-0.97-0.99c-1.02,0.19-1.31,6.32,0.34,9.41c0,0-3.54-3.25-4.59-9.82c-0.97-6.07-0.8-9.92,0.06-12.83
					L110.49,148.23z"/>
				<path style="opacity:0.4;enable-background:new    ;" d="M110.49,148.23l0.09,3.26c-1.11,0.46-1.86,1.6-1.49,2.91
					c0.79,2.8-1.14,6.86-3.38,8.34c0,0,0.04-1.18-0.97-0.99c-1.02,0.19-1.31,6.32,0.34,9.41c0,0-3.54-3.25-4.59-9.82
					c-0.97-6.07-0.8-9.92,0.06-12.83L110.49,148.23z"/>
			</g>
			<path style="fill:#263238;" d="M99.92,152.14c0,0,4.16,0.64,10.67-0.65c10.08-2.01,14.36,1.7,14.36,1.7s2.39-2.06,2.1-4.96
				s-4.32-3.4-4.32-3.4s-1.21-3.26-3.89-4.25c-2.67-0.99-5.35,1.48-5.35,1.48s-3.33-3.21-7.21-2.3c-4.76,1.12-4.65,5.66-4.65,5.66
				s-4.55,0.47-4.45,2.8S99.92,152.14,99.92,152.14z"/>
			
				<ellipse style="fill:none;stroke:#263238;stroke-width:0.5;stroke-linecap:round;stroke-linejoin:round;stroke-miterlimit:10;" cx="115.39" cy="160.62" rx="3.27" ry="3.77"/>
			
				<ellipse style="fill:none;stroke:#263238;stroke-width:0.5;stroke-linecap:round;stroke-linejoin:round;stroke-miterlimit:10;" cx="123.61" cy="161.18" rx="3.27" ry="3.77"/>
			<path style="fill:none;stroke:#263238;stroke-width:0.5;stroke-linecap:round;stroke-linejoin:round;stroke-miterlimit:10;" d="
				M118.65,161.07c0,0,1.05-0.66,1.69,0.11"/>
			<path style="fill:none;stroke:#263238;stroke-width:0.5;stroke-linecap:round;stroke-linejoin:round;stroke-miterlimit:10;" d="
				M112.12,160.62l-5.74-0.76c-0.75-0.1-1.51,0.11-2.1,0.57l-0.25,0.19"/>
			<path style="fill:#B97964;" d="M99.86,162.04c0.57,1.76,1.82,3.22,3.47,4.06c2.19,1.1,3.75-0.75,3.54-3.06
				c-0.21-2.05-1.58-5.16-3.97-5.27C100.5,157.65,99.19,159.88,99.86,162.04z"/>
		</g>
		<path style="opacity:0.2;enable-background:new    ;" d="M63.32,215.79c9.43-3.92,16.9-20.11,16.9-20.11l-5.36-3.24l-7.28,5.85
			c-0.22,0.79-0.44,1.61-0.66,2.43c-0.98,3.71-1.94,7.66-2.84,11.66C63.82,213.52,63.57,214.66,63.32,215.79z"/>
		<polygon style="fill:#407BFF;" points="115.31,217.51 131.59,211.53 132.05,212.91 115.77,218.71 		"/>
		<g>
			
				<rect x="23.32" y="254.74" transform="matrix(0.9877 0.1567 -0.1567 0.9877 42.7991 -4.0681)" style="fill:#407BFF;" width="47.78" height="29.47"/>
			<g>
				
					<polyline style="fill:none;stroke:#FFFFFF;stroke-width:2;stroke-linecap:round;stroke-linejoin:round;stroke-miterlimit:10;" points="
					42.63,262.26 33.04,267.23 40.62,274.92 				"/>
				
					<polyline style="fill:none;stroke:#FFFFFF;stroke-width:2;stroke-linecap:round;stroke-linejoin:round;stroke-miterlimit:10;" points="
					51.79,276.69 61.37,271.72 53.8,264.03 				"/>
				
					<line style="fill:none;stroke:#FFFFFF;stroke-width:2;stroke-linecap:round;stroke-linejoin:round;stroke-miterlimit:10;" x1="43.96" y1="275.45" x2="50.46" y2="263.5"/>
			</g>
		</g>
		<path style="fill:#B97964;" d="M69.21,183.38c0,0-17.78,17.85-20.21,21.33c-2.43,3.47-7.06,41.94-7.06,41.94s-0.98,0.34-1.06,1.17
			c-0.08,0.83-0.16,11.63,0,12.13c0.16,0.5,8.35,5.55,9.55,4.35s2.89-13.43,2.89-13.43l-4.31-4.22c0,0,5.02-28.33,8.16-32.92
			c3.14-4.58,16.1-14.41,16.1-14.41L69.21,183.38z"/>
		<g>
			<path style="fill:#407BFF;" d="M82.88,176.19c2.59,5.49,0.62,17.05-4.16,21.13c-7.23,6.17-15.99,11.47-15.99,11.47L54,197.36
				c0,0,9.28-9.06,14.9-14.28C75.73,176.73,82.88,176.19,82.88,176.19z"/>
			<path style="opacity:0.4;fill:#FFFFFF;enable-background:new    ;" d="M82.88,176.19c2.59,5.49,0.62,17.05-4.16,21.13
				c-7.23,6.17-15.99,11.47-15.99,11.47L54,197.36c0,0,9.28-9.06,14.9-14.28C75.73,176.73,82.88,176.19,82.88,176.19z"/>
		</g>
		<polygon style="fill:#407BFF;" points="54,196.63 52.92,198.1 62.03,210.01 63.32,209.09 		"/>
	</g>
</g>
</svg>
