<?xml version="1.0" encoding="utf-8"?>
<!-- Generator: Adobe Illustrator 16.0.0, SVG Export Plug-In . SVG Version: 6.00 Build 0)  -->
<!DOCTYPE svg PUBLIC "-//W3C//DTD SVG 1.1//EN" "http://www.w3.org/Graphics/SVG/1.1/DTD/svg11.dtd">
<svg version="1.1" xmlns="http://www.w3.org/2000/svg" xmlns:xlink="http://www.w3.org/1999/xlink" x="0px" y="0px" width="750px"
	 height="500px" viewBox="0 0 750 500" style="enable-background:new 0 0 750 500;" xml:space="preserve">
<g id="BACKGROUND">
	<rect x="0.63" style="fill:#FFFFFF;" width="749.37" height="500"/>
	<g>
		<g>
			<path style="fill:#DEEDFF;" d="M429.85,55.89c-12.9-5.36-26.81-8.48-40.61-9.13c-37.75-1.78-73.19,14.79-110.16,19.8
				c-24.67,3.34-49.78,2.99-74.36-1.03c-24.33-3.99-47.06-16.91-72-13.09c-29.09,4.45-53.67,26.88-63.13,56
				c-4.68,14.41-5.53,30.09-2.06,44.9c1.58,6.74,6.01,13.11,3.39,19.97c-2.45,6.42-10.63,10.19-15.94,13.39
				c-11.36,6.84-20.68,15.16-28.88,26.04C5.21,240.46-3.98,277.03,3.66,311.76c12.55,56.98,66.59,95.09,121.36,86.71
				c40.75-6.24,72.9-35.52,86.29-73.46c17.79-14.91,34.77-30.7,51.16-44.16c40.11-32.94,80.05-45.63,129.65-53.3
				c30.72-4.75,63.61-13.52,82.96-39.07C511.9,139.84,478.23,75.99,429.85,55.89z"/>
			<g>
				<path style="fill:#FFFFFF;" d="M93.49,355.66l-4.99,0.76c-0.81-2.77-1.88-5.4-3.2-7.85l3.95-3.28c0.51-0.42,0.59-1.19,0.19-1.73
					l-5.65-7.53c-0.4-0.53-1.13-0.62-1.64-0.2l-3.94,3.27c-1.99-1.95-4.17-3.66-6.51-5.11l1.86-4.9c0.24-0.63-0.05-1.34-0.65-1.59
					l-8.47-3.55c-0.6-0.25-1.28,0.06-1.52,0.69l-1.86,4.92c-2.61-0.63-5.31-0.96-8.06-0.99l-0.73-5.25
					c-0.09-0.67-0.68-1.14-1.32-1.04l-9.02,1.38c-0.64,0.1-1.08,0.72-0.99,1.39l0.73,5.25c-2.63,0.85-5.13,1.97-7.46,3.36
					l-3.11-4.16c-0.4-0.53-1.13-0.62-1.64-0.2l-7.16,5.94c-0.51,0.42-0.59,1.19-0.19,1.72l3.11,4.15c-1.85,2.1-3.48,4.39-4.86,6.85
					l-2.42-1.01c3.65,5.91,7.81,11.43,12.4,16.49c1.79-9.72,9.22-17.64,19.05-19.15c12.44-1.91,24,7.17,25.81,20.26
					c1.39,10.04-3.36,19.5-11.25,24.24c5.31,2.6,10.81,4.79,16.47,6.48l-0.29-0.38c1.85-2.09,3.48-4.39,4.86-6.86l4.66,1.95
					c0.6,0.25,1.28-0.06,1.52-0.69l3.38-8.91c0.24-0.63-0.05-1.34-0.65-1.59l-4.67-1.96c0.6-2.75,0.92-5.59,0.94-8.49l4.99-0.76
					c0.64-0.1,1.08-0.72,0.99-1.39l-1.31-9.5C94.71,356.03,94.12,355.56,93.49,355.66z"/>
				<path style="fill:#FFFFFF;" d="M52.12,364.04c-2.08,0.32-3.51,2.35-3.21,4.53c0.3,2.19,2.23,3.7,4.31,3.38
					c2.08-0.32,3.51-2.35,3.21-4.53C56.12,365.24,54.19,363.72,52.12,364.04z"/>
				<path style="fill:#FFFFFF;" d="M21.7,327.35l-0.73-5.25c2.63-0.85,5.13-1.97,7.46-3.36l3.11,4.15c0.4,0.53,1.13,0.62,1.64,0.21
					l7.16-5.95c0.51-0.42,0.59-1.19,0.19-1.72l-3.11-4.15c1.85-2.09,3.48-4.39,4.86-6.85l4.66,1.95c0.6,0.25,1.28-0.05,1.52-0.68
					l3.38-8.92c0.24-0.63-0.05-1.34-0.65-1.59l-4.67-1.96c0.6-2.75,0.92-5.59,0.94-8.49l4.99-0.76c0.64-0.1,1.08-0.72,0.99-1.39
					l-1.31-9.5c-0.09-0.67-0.68-1.14-1.32-1.04l-4.99,0.76c-0.81-2.77-1.88-5.4-3.19-7.85l3.95-3.28c0.51-0.42,0.59-1.19,0.19-1.72
					l-5.65-7.53c-0.4-0.53-1.13-0.62-1.64-0.2l-3.94,3.27c-1.99-1.95-4.17-3.66-6.51-5.11l1.86-4.91c0.24-0.63-0.05-1.34-0.65-1.6
					l-8.47-3.55c-0.6-0.25-1.28,0.06-1.52,0.69l-1.86,4.91c-2.61-0.63-5.31-0.96-8.06-0.99l-0.46-3.32
					c-2.56,6.39-4.58,12.99-6.05,19.73c0.94-0.28,1.9-0.52,2.9-0.67c12.44-1.9,24,7.17,25.81,20.26
					c1.81,13.09-6.81,25.25-19.25,27.16c-3.66,0.56-7.23,0.15-10.51-1.01c0.27,1.56,0.57,3.12,0.91,4.67
					c0.9,4.09,2.04,8.06,3.35,11.94c0.87,0.07,1.75,0.12,2.63,0.13l0.73,5.25c0.09,0.67,0.69,1.14,1.32,1.04l9.02-1.38
					C21.35,328.65,21.79,328.02,21.7,327.35z"/>
				<path style="fill:#FFFFFF;" d="M13.74,283.81c-0.3-2.19-2.23-3.7-4.31-3.38c-2.08,0.32-3.51,2.35-3.21,4.53
					c0.3,2.19,2.23,3.7,4.31,3.38C12.6,288.03,14.04,286,13.74,283.81z"/>
			</g>
		</g>
		<g>
			<g>
				<g>
					<path style="fill:#242D80;" d="M207.21,414.48c-10.62,0-19.26-9.09-19.26-20.27V110.82c0-11.18,8.64-20.27,19.26-20.27h402.06
						c10.62,0,19.26,9.09,19.26,20.27v283.39c0,11.18-8.64,20.27-19.26,20.27H207.21z"/>
					<path style="fill:#39439E;" d="M609.28,411.74H207.21c-9.2,0-16.66-7.85-16.66-17.53V110.82c0-9.68,7.46-17.53,16.66-17.53
						h402.06c9.2,0,16.66,7.85,16.66,17.53v283.39C625.93,403.89,618.48,411.74,609.28,411.74z"/>
					<path style="fill:#4C6CF1;" d="M207.21,400.79c-3.45,0-6.25-2.95-6.25-6.58V110.82c0-3.63,2.8-6.58,6.25-6.58h402.06
						c3.45,0,6.25,2.95,6.25,6.58v283.39c0,3.63-2.8,6.58-6.25,6.58H207.21z"/>
					<path style="fill:#FFFFFF;" d="M615.53,142.35v-31.54c0-3.63-2.8-6.58-6.25-6.58H207.21c-3.45,0-6.25,2.95-6.25,6.58v31.54
						H615.53z"/>
				</g>
			</g>
			<path style="opacity:0.25;fill:#FFFFFF;" d="M207.21,400.79c-3.45,0-6.25-2.95-6.25-6.58V110.82c0-3.63,2.8-6.58,6.25-6.58
				h402.06c3.45,0,6.25,2.95,6.25,6.58l-404.42,4.16L207.21,400.79z"/>
		</g>
		<g>
			<g>
				<rect x="441.04" y="326" style="fill:#1E2778;" width="160.42" height="80.92"/>
				<rect x="441.04" y="394.96" style="fill:#141B5E;" width="160.42" height="11.96"/>
				<g>
					<g>
						<path style="fill:#39439E;" d="M496.46,332.11h-36.9c-7.01,0-12.71,6-12.71,13.37v33.83h49.61V332.11z"/>
						<path style="fill:#39439E;" d="M582.95,332.11h-83.83v47.2h96.53v-33.83C595.65,338.11,589.95,332.11,582.95,332.11z"/>
						<g>
							<g>
								<g>
									<rect x="506.01" y="337.88" style="fill:#F2CF31;" width="4.84" height="5.09"/>
									<rect x="506.01" y="348.07" style="fill:#64DECC;" width="4.84" height="5.09"/>
									<rect x="506.01" y="358.25" style="fill:#F2CF31;" width="4.84" height="5.09"/>
									<rect x="506.01" y="368.44" style="fill:#64DECC;" width="4.84" height="5.09"/>
								</g>
								<g>
									<rect x="514.96" y="337.88" style="fill:#FFFFFF;" width="4.84" height="5.09"/>
									<rect x="514.96" y="348.07" style="fill:#F2CF31;" width="4.84" height="5.09"/>
									<rect x="514.96" y="358.25" style="fill:#64DECC;" width="4.84" height="5.09"/>
									<rect x="514.96" y="368.44" style="fill:#FFFFFF;" width="4.84" height="5.09"/>
								</g>
								<g>
									<rect x="523.92" y="337.88" style="fill:#64DECC;" width="4.84" height="5.09"/>
									<rect x="523.92" y="348.07" style="fill:#FFFFFF;" width="4.84" height="5.09"/>
									<rect x="523.92" y="358.25" style="fill:#64DECC;" width="4.84" height="5.09"/>
									<rect x="523.92" y="368.44" style="fill:#F2CF31;" width="4.84" height="5.09"/>
								</g>
							</g>
							<g>
								<rect x="532.87" y="337.88" style="fill:#1E2778;" width="46.38" height="5.09"/>
								<rect x="532.87" y="348.07" style="fill:#1E2778;" width="46.38" height="5.09"/>
								<rect x="532.87" y="358.25" style="fill:#1E2778;" width="46.38" height="5.09"/>
								<rect x="532.87" y="368.44" style="fill:#1E2778;" width="46.38" height="5.09"/>
							</g>
						</g>
						<ellipse style="fill:#FFFFFF;" cx="471.65" cy="355.71" rx="18.07" ry="19.02"/>
						<ellipse style="fill:#1E2778;" cx="471.65" cy="355.71" rx="15.46" ry="16.27"/>
						<ellipse style="fill:#141B5E;" cx="471.65" cy="355.71" rx="7.26" ry="7.64"/>
					</g>
					<g>
						<rect x="446.85" y="385.34" style="fill:#F2CF31;" width="16.06" height="3.06"/>
						<rect x="473.4" y="385.34" style="fill:#F2CF31;" width="16.06" height="3.06"/>
						<rect x="499.95" y="385.34" style="fill:#39439E;" width="16.06" height="3.06"/>
						<rect x="526.5" y="385.34" style="fill:#39439E;" width="16.06" height="3.06"/>
						<rect x="553.04" y="385.34" style="fill:#39439E;" width="16.06" height="3.06"/>
						<rect x="579.59" y="385.34" style="fill:#39439E;" width="16.06" height="3.06"/>
					</g>
				</g>
			</g>
			<g>
				<rect x="441.04" y="406.92" style="fill:#1E2778;" width="160.42" height="80.92"/>
				<rect x="441.04" y="475.88" style="fill:#141B5E;" width="160.42" height="11.96"/>
				<g>
					<g>
						<path style="fill:#39439E;" d="M496.46,413.03h-36.9c-7.01,0-12.71,6-12.71,13.37v33.83h49.61V413.03z"/>
						<path style="fill:#39439E;" d="M582.95,413.03h-83.83v47.2h96.53V426.4C595.65,419.03,589.95,413.03,582.95,413.03z"/>
						<g>
							<g>
								<g>
									<rect x="506.01" y="418.8" style="fill:#F2CF31;" width="4.84" height="5.09"/>
									<rect x="506.01" y="428.99" style="fill:#64DECC;" width="4.84" height="5.09"/>
									<rect x="506.01" y="439.18" style="fill:#F2CF31;" width="4.84" height="5.09"/>
									<rect x="506.01" y="449.37" style="fill:#64DECC;" width="4.84" height="5.09"/>
								</g>
								<g>
									<rect x="514.96" y="418.8" style="fill:#FFFFFF;" width="4.84" height="5.09"/>
									<rect x="514.96" y="428.99" style="fill:#F2CF31;" width="4.84" height="5.09"/>
									<rect x="514.96" y="439.18" style="fill:#64DECC;" width="4.84" height="5.09"/>
									<rect x="514.96" y="449.37" style="fill:#FFFFFF;" width="4.84" height="5.09"/>
								</g>
								<g>
									<rect x="523.92" y="418.8" style="fill:#64DECC;" width="4.84" height="5.09"/>
									<rect x="523.92" y="428.99" style="fill:#FFFFFF;" width="4.84" height="5.09"/>
									<rect x="523.92" y="439.18" style="fill:#64DECC;" width="4.84" height="5.09"/>
									<rect x="523.92" y="449.37" style="fill:#F2CF31;" width="4.84" height="5.09"/>
								</g>
							</g>
							<g>
								<rect x="532.87" y="418.8" style="fill:#1E2778;" width="46.38" height="5.09"/>
								<rect x="532.87" y="428.99" style="fill:#1E2778;" width="46.38" height="5.09"/>
								<rect x="532.87" y="439.18" style="fill:#1E2778;" width="46.38" height="5.09"/>
								<rect x="532.87" y="449.37" style="fill:#1E2778;" width="46.38" height="5.09"/>
							</g>
						</g>
						<ellipse style="fill:#FFFFFF;" cx="471.65" cy="436.63" rx="18.07" ry="19.02"/>
						<ellipse style="fill:#1E2778;" cx="471.65" cy="436.63" rx="15.46" ry="16.27"/>
						<ellipse style="fill:#141B5E;" cx="471.65" cy="436.63" rx="7.26" ry="7.64"/>
					</g>
					<g>
						<rect x="446.85" y="466.26" style="fill:#F2CF31;" width="16.06" height="3.06"/>
						<rect x="473.4" y="466.26" style="fill:#F2CF31;" width="16.06" height="3.06"/>
						<rect x="499.95" y="466.26" style="fill:#39439E;" width="16.06" height="3.06"/>
						<rect x="526.5" y="466.26" style="fill:#39439E;" width="16.06" height="3.06"/>
						<rect x="553.04" y="466.26" style="fill:#39439E;" width="16.06" height="3.06"/>
						<rect x="579.59" y="466.26" style="fill:#39439E;" width="16.06" height="3.06"/>
					</g>
				</g>
			</g>
			<g>
				<g>
					<g>
						<g>
							<g>
								<path style="fill:#FFFFFF;" d="M453.98,298.03c-5.3-5.57-8.21-12.98-8.21-20.87c0-8.33,3.37-16.31,9.25-21.9l1.92,2.24
									c-5.28,5.02-8.31,12.19-8.31,19.67c0,7.08,2.62,13.73,7.37,18.74L453.98,298.03z"/>
							</g>
							<g>
								<path style="fill:#FFFFFF;" d="M462.61,288.95c-2.99-3.15-4.64-7.34-4.64-11.79c0-4.69,1.91-9.2,5.24-12.36l0.77,0.89
									c-3.09,2.94-4.86,7.12-4.86,11.47c0,4.13,1.53,8.01,4.3,10.94L462.61,288.95z"/>
							</g>
							<g>
								<path style="fill:#FFFFFF;" d="M458.46,293.32c-4.1-4.32-6.36-10.05-6.36-16.16c0-6.43,2.62-12.61,7.18-16.94l1.54,1.79
									c-4.08,3.88-6.43,9.41-6.43,15.16c0,5.46,2.02,10.59,5.69,14.45L458.46,293.32z"/>
							</g>
							<g>
								<path style="fill:#FFFFFF;" d="M462.2,289.38c-3.1-3.26-4.81-7.6-4.81-12.21c0-4.86,1.98-9.53,5.43-12.81l1.54,1.79
									c-2.97,2.82-4.67,6.84-4.67,11.02c0,3.97,1.47,7.7,4.14,10.51L462.2,289.38z"/>
							</g>
						</g>
						<g>
							<g>
								<path style="fill:#FFFFFF;" d="M488.66,298.03l-2.02-2.13c4.75-5,7.37-11.66,7.37-18.74c0-7.48-3.03-14.65-8.31-19.67
									l1.92-2.24c5.88,5.59,9.25,13.57,9.25,21.9C496.87,285.04,493.96,292.45,488.66,298.03z"/>
							</g>
							<g>
								<path style="fill:#FFFFFF;" d="M480.03,288.95l-0.81-0.85c2.78-2.92,4.31-6.81,4.31-10.94c0-4.35-1.77-8.53-4.86-11.47
									l0.77-0.89c3.33,3.17,5.24,7.67,5.24,12.36C484.67,281.61,483.03,285.8,480.03,288.95z"/>
							</g>
							<g>
								<path style="fill:#FFFFFF;" d="M484.19,293.32l-1.62-1.7c3.67-3.86,5.69-8.99,5.69-14.45c0-5.75-2.34-11.27-6.43-15.16
									l1.54-1.79c4.56,4.34,7.18,10.51,7.18,16.94C490.55,283.27,488.29,289,484.19,293.32z"/>
							</g>
							<g>
								<path style="fill:#FFFFFF;" d="M480.44,289.38l-1.62-1.7c2.67-2.81,4.14-6.54,4.14-10.51c0-4.18-1.7-8.2-4.67-11.02
									l1.54-1.79c3.45,3.28,5.43,7.95,5.43,12.81C485.25,281.78,483.54,286.11,480.44,289.38z"/>
							</g>
						</g>
					</g>
					<g>
						<ellipse style="fill:#FFFFFF;" cx="471.32" cy="276.67" rx="4.44" ry="4.67"/>
					</g>
				</g>
				<g>
					<polygon style="fill:#FFFFFF;" points="475.34,326 467.3,326 469.89,276.67 472.75,276.67 					"/>
				</g>
			</g>
		</g>
		<g>
			<g>
				<path style="fill:#4C6CF1;" d="M747.61,440c-1.17-8.38-12.92-6.17-18.62-4.95c-14.19,3.03-25.69,11.5-35.56,22.03l25.69-39.19
					c3.43-5.23,6.85-10.45,10.28-15.68c2.57-3.92,6.6-8.59,6.68-13.69c0.1-6.75-6.43-10.07-12.11-9.17
					c-7.98,1.27-15.7,8.65-21.16,14.52c-6.73,7.24-12.09,15.85-16.21,24.98c-8.06,17.9-9.81,26.33-12,45.89
					c-1.69-10.52-10.2-32.73-18.11-28.25c-12.93,7.32,14.74,51.35,14.74,51.35h17.3C688.53,487.84,750.22,458.75,747.61,440z"/>
				<path style="fill:#4C6CF1;" d="M15.36,460.6c0.67-4.77,7.36-3.51,10.6-2.82c8.08,1.72,14.63,6.55,20.25,12.54l-14.63-22.31
					c-1.95-2.98-3.9-5.95-5.85-8.93c-1.46-2.23-3.76-4.89-3.8-7.79c-0.06-3.85,3.66-5.74,6.89-5.22c4.55,0.72,8.94,4.92,12.05,8.27
					c3.83,4.12,6.89,9.02,9.23,14.22c4.59,10.19,5.59,14.99,6.83,26.13c0.96-5.99,5.81-18.64,10.31-16.09
					c7.36,4.17-8.4,29.24-8.4,29.24H49C49,487.84,13.87,471.28,15.36,460.6z"/>
			</g>
			<rect x="15.31" y="486.97" style="fill:#4C6CF1;" width="732.38" height="13.03"/>
		</g>
		<g>
			<g>
				<rect x="231.4" y="120.83" style="fill:#4C6CF1;" width="51.75" height="13.23"/>
				<rect x="299.87" y="120.83" style="fill:#4C6CF1;" width="51.75" height="13.23"/>
				<rect x="368.34" y="120.83" style="fill:#4C6CF1;" width="51.75" height="13.23"/>
				<rect x="436.82" y="120.83" style="fill:#4C6CF1;" width="51.75" height="13.23"/>
				<rect x="505.29" y="120.83" style="fill:#4C6CF1;" width="51.75" height="13.23"/>
			</g>
			<rect x="573.76" y="120.83" style="fill:#4C6CF1;" width="25.87" height="13.23"/>
		</g>
		<g>
			<g>
				<g>
					<polygon style="fill:#28D1B8;" points="669.13,206.02 545.55,206.02 538.2,234.31 538.43,159.38 669.13,159.38 					"/>
					<g>
						<g>
							<rect x="575.33" y="169.72" style="fill:#FFFFFF;" width="83.39" height="4.35"/>
							<rect x="575.33" y="178.79" style="fill:#FFFFFF;" width="83.39" height="4.35"/>
							<rect x="575.33" y="187.86" style="fill:#FFFFFF;" width="31.58" height="4.35"/>
						</g>
						<ellipse style="fill:#FFFFFF;" cx="557.65" cy="181.85" rx="11.03" ry="11.6"/>
						<g>
							<polygon style="fill:#FFFFFF;" points="621.49,185.63 622.54,189.04 625.95,189.04 623.19,191.15 624.25,194.57 
								621.49,192.46 618.72,194.57 619.78,191.15 617.02,189.04 620.43,189.04 							"/>
							<polygon style="fill:#1E2778;" points="631.77,185.63 632.83,189.04 636.24,189.04 633.48,191.15 634.53,194.57 
								631.77,192.46 629.01,194.57 630.07,191.15 627.3,189.04 630.72,189.04 							"/>
							<polygon style="fill:#1E2778;" points="642.06,185.63 643.11,189.04 646.53,189.04 643.77,191.15 644.82,194.57 
								642.06,192.46 639.3,194.57 640.35,191.15 637.59,189.04 641,189.04 							"/>
							<polygon style="fill:#1E2778;" points="652.35,185.63 653.4,189.04 656.81,189.04 654.05,191.15 655.11,194.57 
								652.35,192.46 649.58,194.57 650.64,191.15 647.88,189.04 651.29,189.04 							"/>
						</g>
					</g>
				</g>
				<g>
					<polygon style="fill:#28D1B8;" points="691.4,271.16 567.82,271.16 560.47,299.45 560.7,224.51 691.4,224.51 					"/>
					<g>
						<g>
							<rect x="597.59" y="234.86" style="fill:#FFFFFF;" width="83.39" height="4.35"/>
							<rect x="597.59" y="243.92" style="fill:#FFFFFF;" width="83.39" height="4.35"/>
							<rect x="597.59" y="252.99" style="fill:#FFFFFF;" width="31.58" height="4.35"/>
						</g>
						<ellipse style="fill:#FFFFFF;" cx="579.91" cy="246.99" rx="11.03" ry="11.61"/>
						<g>
							<polygon style="fill:#FFFFFF;" points="643.75,250.76 644.81,254.17 648.22,254.17 645.46,256.29 646.52,259.7 
								643.75,257.59 640.99,259.7 642.05,256.29 639.29,254.17 642.7,254.17 							"/>
							<polygon style="fill:#1E2778;" points="654.04,250.76 655.1,254.17 658.51,254.17 655.75,256.29 656.8,259.7 654.04,257.59 
								651.28,259.7 652.33,256.29 649.57,254.17 652.99,254.17 							"/>
							<polygon style="fill:#1E2778;" points="664.33,250.76 665.38,254.17 668.8,254.17 666.04,256.29 667.09,259.7 664.33,257.59 
								661.57,259.7 662.62,256.29 659.86,254.17 663.27,254.17 							"/>
							<polygon style="fill:#1E2778;" points="674.62,250.76 675.67,254.17 679.08,254.17 676.32,256.29 677.38,259.7 
								674.62,257.59 671.85,259.7 672.91,256.29 670.15,254.17 673.56,254.17 							"/>
						</g>
					</g>
				</g>
			</g>
			<g>
				<g>
					<path style="fill:#5E7EFF;" d="M477.5,252.19v-5.73c2.94-0.47,5.77-1.27,8.47-2.37l2.71,4.95c0.35,0.63,1.12,0.85,1.72,0.49
						l8.52-5.18c0.6-0.37,0.81-1.18,0.46-1.81l-2.71-4.94c2.29-1.94,4.37-4.12,6.2-6.53l4.69,2.85c0.6,0.37,1.37,0.15,1.72-0.49
						l4.92-8.97c0.35-0.63,0.14-1.45-0.46-1.81l-4.7-2.85c1.05-2.84,1.8-5.82,2.25-8.91h5.44c0.7,0,1.26-0.59,1.26-1.33v-10.36
						c0-0.73-0.56-1.32-1.26-1.32h-5.44c-0.45-3.09-1.21-6.08-2.25-8.91l4.7-2.86c0.6-0.37,0.81-1.18,0.46-1.81l-4.92-8.97
						c-0.35-0.63-1.12-0.85-1.72-0.48l-4.69,2.85c-1.84-2.41-3.92-4.59-6.2-6.53l2.71-4.94c0.35-0.63,0.14-1.45-0.46-1.81
						l-8.52-5.18c-0.6-0.36-1.37-0.15-1.72,0.49l-2.71,4.95c-2.7-1.1-5.53-1.9-8.47-2.37v-5.73c0-0.73-0.56-1.33-1.26-1.33h-9.84
						c-0.7,0-1.26,0.59-1.26,1.33v5.73c-2.94,0.48-5.77,1.27-8.47,2.37l-2.71-4.95c-0.35-0.63-1.12-0.85-1.72-0.49l-8.52,5.18
						c-0.6,0.37-0.81,1.18-0.46,1.81l2.71,4.94c-2.29,1.94-4.36,4.12-6.2,6.53l-4.69-2.85c-0.6-0.37-1.37-0.15-1.72,0.48l-4.92,8.97
						c-0.35,0.63-0.14,1.45,0.46,1.81l4.7,2.86c-1.05,2.84-1.8,5.82-2.25,8.91h-5.44c-0.7,0-1.26,0.59-1.26,1.32v10.36
						c0,0.73,0.56,1.33,1.26,1.33h5.44c0.45,3.09,1.21,6.08,2.25,8.91l-4.7,2.85c-0.6,0.37-0.81,1.18-0.46,1.81l4.92,8.97
						c0.35,0.63,1.12,0.85,1.72,0.49l4.69-2.85c1.84,2.4,3.92,4.59,6.2,6.53l-2.71,4.94c-0.35,0.63-0.14,1.45,0.46,1.81l8.52,5.18
						c0.6,0.37,1.37,0.15,1.72-0.49l2.71-4.95c2.7,1.1,5.53,1.9,8.47,2.37v5.73c0,0.73,0.56,1.33,1.26,1.33h9.84
						C476.94,253.51,477.5,252.92,477.5,252.19z M446.74,204.37c0-14.28,11-25.86,24.58-25.86c13.57,0,24.58,11.58,24.58,25.86
						c0,14.29-11,25.86-24.58,25.86C457.75,230.24,446.74,218.66,446.74,204.37z"/>
					<ellipse style="fill:#5E7EFF;" cx="471.32" cy="204.37" rx="4.1" ry="4.32"/>
				</g>
				<g>
					<path style="fill:#5E7EFF;" d="M397.17,264.81v-3.5c1.79-0.29,3.52-0.78,5.17-1.45l1.66,3.02c0.21,0.39,0.68,0.52,1.05,0.3
						l5.2-3.16c0.37-0.22,0.49-0.72,0.28-1.11l-1.65-3.01c1.39-1.18,2.66-2.52,3.79-3.98l2.86,1.74c0.37,0.22,0.84,0.09,1.05-0.3
						l3-5.48c0.21-0.39,0.09-0.88-0.28-1.1l-2.87-1.74c0.64-1.73,1.1-3.55,1.38-5.44h3.32c0.43,0,0.77-0.36,0.77-0.81v-6.32
						c0-0.45-0.34-0.81-0.77-0.81h-3.32c-0.28-1.89-0.74-3.71-1.38-5.44l2.87-1.74c0.37-0.22,0.49-0.72,0.28-1.11l-3-5.47
						c-0.21-0.39-0.68-0.52-1.05-0.3l-2.86,1.74c-1.12-1.47-2.39-2.8-3.79-3.98l1.65-3.01c0.21-0.39,0.09-0.88-0.28-1.1l-5.2-3.16
						c-0.37-0.22-0.84-0.09-1.05,0.3l-1.66,3.02c-1.65-0.67-3.37-1.16-5.17-1.45v-3.49c0-0.45-0.34-0.81-0.77-0.81h-6.01
						c-0.42,0-0.77,0.36-0.77,0.81v3.49c-1.79,0.29-3.52,0.77-5.17,1.45l-1.65-3.02c-0.21-0.38-0.68-0.52-1.05-0.3l-5.2,3.16
						c-0.37,0.22-0.49,0.72-0.28,1.1l1.65,3.01c-1.4,1.18-2.66,2.52-3.79,3.98l-2.86-1.74c-0.37-0.22-0.84-0.09-1.05,0.3l-3,5.47
						c-0.21,0.39-0.09,0.88,0.28,1.11l2.87,1.74c-0.64,1.73-1.1,3.55-1.38,5.44h-3.32c-0.43,0-0.77,0.36-0.77,0.81v6.32
						c0,0.45,0.34,0.81,0.77,0.81H369c0.28,1.89,0.74,3.71,1.38,5.44l-2.87,1.74c-0.37,0.22-0.49,0.72-0.28,1.1l3,5.48
						c0.21,0.39,0.68,0.52,1.05,0.3l2.86-1.74c1.12,1.47,2.39,2.8,3.79,3.98l-1.65,3.01c-0.21,0.39-0.09,0.88,0.28,1.11l5.2,3.16
						c0.37,0.22,0.84,0.09,1.05-0.3l1.65-3.02c1.65,0.67,3.37,1.16,5.17,1.45v3.5c0,0.45,0.34,0.81,0.77,0.81h6.01
						C396.83,265.62,397.17,265.26,397.17,264.81z M378.4,235.63c0-8.72,6.71-15.78,15-15.78s15,7.07,15,15.78
						c0,8.72-6.71,15.78-15,15.78S378.4,244.35,378.4,235.63z"/>
					<path style="fill:#5E7EFF;" d="M395.67,235.63c0,1.32-1.01,2.38-2.27,2.38c-1.25,0-2.27-1.07-2.27-2.38
						c0-1.32,1.01-2.39,2.27-2.39C394.65,233.25,395.67,234.32,395.67,235.63z"/>
				</g>
			</g>
			<g>
				<rect x="370.66" y="289.38" style="fill:#5E7EFF;" width="56.06" height="71.2"/>
				<g>
					<g>
						<g>
							<ellipse style="fill:#FF9D1C;" cx="381.33" cy="299.79" rx="3.18" ry="3.35"/>
							<rect x="387.85" y="296.86" style="fill:#FFFFFF;" width="31.39" height="5.86"/>
						</g>
						<g>
							<ellipse style="fill:#F2CF54;" cx="381.33" cy="313.57" rx="3.18" ry="3.35"/>
							<rect x="387.85" y="310.65" style="fill:#FFFFFF;" width="31.39" height="5.85"/>
						</g>
					</g>
					<g>
						<g>
							<ellipse style="fill:#FF9D1C;" cx="381.33" cy="336.38" rx="3.18" ry="3.35"/>
							<rect x="387.85" y="333.45" style="fill:#FFFFFF;" width="31.39" height="5.85"/>
						</g>
						<g>
							<ellipse style="fill:#FFFFFF;" cx="381.33" cy="350.16" rx="3.18" ry="3.35"/>
							<rect x="387.85" y="347.24" style="fill:#FFFFFF;" width="31.39" height="5.85"/>
						</g>
					</g>
					
						<line style="fill:none;stroke:#FFFFFF;stroke-width:0.6667;stroke-miterlimit:10;" x1="370.66" y1="325.24" x2="426.72" y2="325.24"/>
				</g>
			</g>
			<g>
				<g>
					<g>
						<rect x="299.87" y="175.52" style="fill:#1E2778;" width="51.75" height="54.46"/>
						<polygon style="fill:#28D1B8;" points="351.61,229.98 299.87,229.98 321.29,203.29 333.59,217.99 351.61,196.85 						"/>
						<ellipse style="fill:#F2CF31;" cx="314.58" cy="191.1" rx="7.64" ry="8.04"/>
						<rect x="299.87" y="244.89" style="fill:#FFFFFF;" width="51.75" height="54.46"/>
						<rect x="299.87" y="314.26" style="fill:#28D1B8;" width="51.75" height="54.46"/>
					</g>
					<g>
						<g>
							<path style="fill:#39439E;" d="M282.14,176.52v52.46H232.4v-52.46H282.14 M283.14,175.52H231.4v54.46h51.75V175.52
								L283.14,175.52z"/>
						</g>
						<rect x="231.4" y="244.89" style="fill:#F2CF31;" width="51.75" height="54.46"/>
						<rect x="231.4" y="314.26" style="fill:#FFFFFF;" width="51.75" height="54.46"/>
					</g>
				</g>
				<polygon style="fill:#EDFCFF;" points="345.15,188.06 350.39,204.39 354.56,200.01 359.91,205.63 361.85,203.59 356.5,197.96 
					360.67,193.57 				"/>
			</g>
		</g>
		<g>
			<g>
				<g>
					<g>
						<g>
							<path style="fill:#141B5E;" d="M371.64,388.24c-0.01-0.08-0.01-0.15-0.02-0.22c-0.23-1.2-0.73-2.34-1.42-3.33
								c-2.14-3.1-6.33-4.39-6.99-8.51c-0.18-1.1-0.28-2.22-0.42-3.32h0.14c-0.27-2.8-1.22-5.57-2.87-7.93
								c-0.63-1.01-1.43-1.92-2.23-2.89c-1.35-1.65-1.3-3.24-0.76-5.26c0.38-1.39,0.64-2.62,0.36-4.08
								c-0.23-1.2-0.73-2.33-1.42-3.33c-2.14-3.1-6.33-4.39-6.99-8.51c-0.33-2.09-0.42-4.22-0.92-6.28
								c-0.59-2.42-1.85-4.37-3.75-5.86c-2.62-2.06-5.76-3.25-9-3.74v47.88l6.18,15.38H371.64z"/>
							<g>
								<g>
									<g>
										<path style="fill:#E8A179;" d="M404.09,384.61c0.02-0.09,0.05-0.17,0.07-0.26c3.99,0.11,7.99-0.09,11.97-0.63
											c0.51,3.25,0.11,6.71-1.51,9.25c-3.65,0.56-7.33,0.83-11,0.84C403.45,392.87,403.61,386.68,404.09,384.61z"/>
										<g>
											<path style="fill:#E8A179;" d="M421.09,381.83c0.97,0.77,1.35,2.19,2.03,3.34c0.35,0.58,0.82,1.31,0.65,2.04
												c-0.16,0.69-0.82,0.94-1.44,0.81c-0.74-0.16-1.3-0.75-1.61-1.47c0.17,1.98,0.32,3.99,0.06,5.97
												c-0.17,1.29-0.21,2.61-1.57,2.85c-1.28,0.23-3.67-0.03-4.78-0.83c-1.36-0.98-1.49-3.1-1.56-4.67
												c-0.13-3.21,0.58-7.01,3.81-8.2c1.03-0.38,2.21-0.52,3.29-0.33C420.42,381.41,420.78,381.58,421.09,381.83z"/>
											<path style="fill:#E8A179;" d="M417.41,382.22l5.5,0.25c5.05,0.2,3.45,13.21-2.24,13.07l-3.69-0.17
												c-0.89-0.04-1.57-0.83-1.54-1.76c0.03-0.78,0.56-1.4,1.25-1.57c-0.69-0.22-1.18-0.9-1.15-1.69
												c0.03-0.78,0.56-1.4,1.25-1.57c-0.69-0.22-1.18-0.9-1.15-1.69c0.03-0.78,0.56-1.4,1.25-1.57
												c-0.69-0.22-1.18-0.9-1.15-1.69C415.78,382.9,416.53,382.18,417.41,382.22z"/>
											<polygon style="fill:#FFFFFF;" points="441.53,389.78 417.9,390.03 417.85,384.55 441.48,384.3 											"/>
											<path style="fill:#E8A179;" d="M419.96,381.33c0.45,0.08,0.82,0.26,1.13,0.5c0.97,0.77,1.35,2.19,2.03,3.34
												c0.35,0.58,0.82,1.31,0.65,2.04c-0.16,0.69-0.82,0.94-1.44,0.81c-0.79-0.17-1.28-0.92-1.79-1.51
												c-0.46-0.53-1.58-1.44-3.55-0.95c-1.8,0.44-3.97,2.22-4.13,3.89c-0.06-3.12,0.73-6.64,3.82-7.79
												C417.71,381.27,418.88,381.13,419.96,381.33z"/>
										</g>
									</g>
								</g>
								<g>
									<path style="fill:#E8C00C;" d="M338.46,375.5c8.24-0.49,60.63,7.63,70.35,6.14c2.22,4.54,2.41,9.58,0.55,14.46
										c-5.65,0.72-59.09-3.64-60.99-3.51L338.46,375.5z"/>
								</g>
							</g>
							<path style="fill:#E8C00C;" d="M330.77,372.51h1.43c0.38,0,0.76,0.01,1.13,0.03c9.22,0.52,16.41,9.7,17.01,19.31
								c0.05,0.71,5.89,63.74,5.89,63.74H305.3l5.76-63.74c0.31-10.76,8.27-18.78,18.68-19.32
								C330.08,372.52,330.43,372.51,330.77,372.51z"/>
							<g>
								<path style="fill:#E8A179;" d="M318.97,341.69c0-9.08,6.91-16.46,15.5-16.64c8.86-0.18,16.12,7.63,16.12,16.96
									c0,3.3,0,7.2,0,10.96c0,8.43-6.49,15.26-14.5,15.26h-0.59v5.96c0,4.15-3.2,7.52-7.15,7.52l0,0c-3.95,0-7.15-3.37-7.15-7.52
									v-10.15c0-6.25-0.48-12.51-1.82-18.6C319.11,344.25,318.97,342.99,318.97,341.69z"/>
								<path style="fill:#141B5E;" d="M320.92,388.92l6.28-15.07v-28.37c0.43-0.01,0.69-0.01,0.69-0.02l23.98,0.02v-3.47
									c0-8.73-5.86-16.68-14.02-18.54c-7.6-1.73-19.23,0.76-22.73,8.95c-1.94,4.54-0.76,10.04-4.67,13.5
									c-2.29,2.03-4.71,3.79-5.34,7.08c-0.28,1.46-0.02,2.68,0.36,4.08c0.55,2.02,0.6,3.61-0.76,5.25
									c-0.79,0.97-1.59,1.88-2.23,2.89c-0.13,0.18-0.22,0.38-0.33,0.56c-0.94,1.18-1.63,2.53-2.02,4.1
									c-0.51,2.06-0.59,4.19-0.92,6.28c-0.66,4.12-4.85,5.41-6.99,8.51c-0.68,0.99-1.18,2.12-1.42,3.33
									c-0.06,0.31-0.08,0.61-0.1,0.9H320.92z"/>
							</g>
							<g>
								<polygon style="fill:#FFFFFF;" points="322.25,376.08 333.4,376.08 330.11,354.75 318.96,354.75 								"/>
								<g>
									<path style="fill:#E8A179;" d="M320.41,364.16c0,0,1.04,2.55,2.04,2.52c3.91-0.12,8.81-4.68,8.81-4.68
										c0.98-0.33,5.45,7.11,0.98,11.13c-0.03,3.45-0.27,8.17-0.71,11.58c-0.91,0.04-6.71-0.98-8.59-1.77
										c-0.08-0.03-0.16-0.07-0.23-0.1c0.54-3.41,0.87-6.85,1-10.31c-0.03-0.03-0.06-0.05-0.09-0.08
										c-0.07-0.06-0.14-0.13-0.21-0.2c-0.06-0.06-0.13-0.13-0.19-0.19c-0.02-0.02-0.04-0.04-0.06-0.07
										c-0.97-0.81-1.98-1.71-2.67-2.77c-0.79-1.19-0.67-2.38-0.91-3.79C319.48,364.84,319.87,364.05,320.41,364.16z"/>
									<g>
										<path style="fill:#F2CF31;" d="M310.91,387.53c0.76-4.78,5.62-7.5,9.83-5.55c0.25,0.12,0.48,0.26,0.72,0.41
											c0.14-1.72,0.26-3.39,0.38-4.98c4.7-1.28,9.41-0.36,13.52,2.62c-1.42,14.58-1.25,40.9-8.26,49.07c0,0-0.01,0-0.01,0.01
											c-2.84,6.54-9.1,3.25-11.66-1.35C308.69,417.95,308.62,401.93,310.91,387.53z"/>
										<path style="fill:#FFFFFF;" d="M316.92,417.36c2.08-3.91,3.96-25.48,5.03-39.94c0,0,1.81,31.89-4.36,41.47
											C317.35,418.38,317.12,417.87,316.92,417.36z"/>
									</g>
								</g>
							</g>
						</g>
					</g>
					<g>
						<g>
							<g>
								<path style="fill:#1A2242;" d="M386.78,487.07l-14.05-0.4c-3.43-0.1-5.93-2.33-5.84-5.95l0,0c0.09-3.61,2.93-5.75,6.37-5.65
									l12.98,0.49c3.43,0.1,6.94,2.3,6.85,5.92l0,0C392.99,485.08,390.21,487.17,386.78,487.07z"/>
							</g>
							<g>
								<g>
									<g>
										
											<ellipse transform="matrix(-0.9996 -0.0289 0.0289 -0.9996 742.4037 965.278)" style="fill:#1A2242;" cx="378.18" cy="477.27" rx="0.71" ry="0.75"/>
										
											<ellipse transform="matrix(-0.9996 -0.0296 0.0296 -0.9996 747.9613 965.7866)" style="fill:#1A2242;" cx="381.13" cy="477.36" rx="0.71" ry="0.75"/>
										<path style="fill:#1A2242;" d="M383.37,477.42c0.01-0.41,0.34-0.74,0.73-0.73c0.39,0.01,0.7,0.36,0.69,0.77
											s-0.34,0.74-0.73,0.72C383.67,478.18,383.36,477.83,383.37,477.42z"/>
									</g>
									<g>
										
											<ellipse transform="matrix(-0.9996 -0.0289 0.0289 -0.9996 741.821 979.7971)" style="fill:#1A2242;" cx="377.99" cy="484.54" rx="0.71" ry="0.75"/>
										
											<ellipse transform="matrix(-0.9996 -0.0275 0.0275 -0.9996 748.3859 979.5521)" style="fill:#1A2242;" cx="380.94" cy="484.62" rx="0.71" ry="0.75"/>
										
											<ellipse transform="matrix(-0.9996 -0.0289 0.0289 -0.9996 753.6003 980.3109)" style="fill:#1A2242;" cx="383.89" cy="484.71" rx="0.71" ry="0.75"/>
									</g>
								</g>
								<g>
									<g>
										<polygon style="fill:#CAE1E1;" points="381.35,484.79 380.6,484.77 377.82,476.99 378.56,477.01 										"/>
										<polygon style="fill:#CAE1E1;" points="384.34,484.88 383.59,484.86 380.81,477.07 381.55,477.09 										"/>
									</g>
									<g>
										
											<rect x="377.71" y="476.99" transform="matrix(0.9996 0.0274 -0.0274 0.9996 13.3371 -10.1939)" style="fill:#E9FFFF;" width="0.75" height="7.7"/>
										
											<rect x="380.7" y="477.08" transform="matrix(0.9996 0.0275 -0.0275 0.9996 13.3494 -10.2824)" style="fill:#E9FFFF;" width="0.75" height="7.7"/>
										
											<rect x="383.69" y="477.17" transform="matrix(0.9996 0.0288 -0.0288 0.9996 14.0047 -10.8554)" style="fill:#E9FFFF;" width="0.75" height="7.7"/>
									</g>
								</g>
							</g>
						</g>
						<g>
							<path style="fill:#1A2242;" d="M359.4,484.11l34.63-35.06c0,0-31.02,12.42-63.26,9.88c-22.02-1.74-44.62-19.83-58.29-17.26
								c-2,0.38-3.73,1.68-4.87,3.45l0,0c-1.79,2.81-1.6,7.25,0.53,9.79c12.44,14.85,34.54,27.15,41.67,30.89
								c1.47,0.77,3.08,1.18,4.72,1.19l37.3,0.3C354.66,487.31,357.37,486.17,359.4,484.11z"/>
							<path style="fill:#E8A179;" d="M359.81,472.73l12.63,4.74c1.4,0.53,2.32,1.94,2.28,3.51l0,0c-0.05,2-1.63,3.57-3.53,3.52
								l-11.45-0.33L359.81,472.73z"/>
							<path style="fill:#1E2778;" d="M367.39,486.01l0.81-11.58c0,0-61.44-38.29-95.38-32.82c-2.13,0.34-4.01,1.63-5.21,3.51l0,0
								c-1.84,2.89-1.78,6.72,0.26,9.46C274.27,463.17,307.45,481.71,367.39,486.01z"/>
						</g>
					</g>
					<g>
						<g>
							<g>
								<path style="fill:#1A2242;" d="M276.68,487.3l14.02-1.09c3.42-0.27,5.82-2.62,5.57-6.22l0,0c-0.25-3.6-3.18-5.6-6.61-5.34
									l-12.95,1.12c-3.42,0.27-6.83,2.64-6.58,6.24l0,0C270.38,485.62,273.26,487.56,276.68,487.3z"/>
							</g>
							<g>
								<g>
									<g>
										<path style="fill:#1A2242;" d="M285.54,477.04c-0.03-0.41-0.37-0.72-0.76-0.69c-0.39,0.03-0.68,0.39-0.65,0.8
											c0.03,0.41,0.37,0.72,0.76,0.69C285.28,477.8,285.57,477.45,285.54,477.04z"/>
										<path style="fill:#1A2242;" d="M282.6,477.26c-0.03-0.41-0.37-0.72-0.76-0.69c-0.39,0.03-0.69,0.39-0.66,0.8
											c0.03,0.41,0.37,0.72,0.76,0.69S282.63,477.67,282.6,477.26z"/>
										<path style="fill:#1A2242;" d="M279.66,477.49c-0.03-0.41-0.37-0.72-0.76-0.69c-0.39,0.03-0.68,0.39-0.65,0.8
											c0.03,0.41,0.37,0.72,0.76,0.69C279.4,478.26,279.69,477.9,279.66,477.49z"/>
									</g>
									<g>
										<path style="fill:#1A2242;" d="M286.05,484.28c-0.03-0.41-0.37-0.72-0.76-0.69c-0.39,0.03-0.68,0.39-0.66,0.8
											c0.03,0.41,0.37,0.72,0.76,0.69C285.79,485.05,286.08,484.69,286.05,484.28z"/>
										<path style="fill:#1A2242;" d="M283.11,484.51c-0.03-0.41-0.37-0.72-0.76-0.69c-0.39,0.03-0.68,0.39-0.66,0.8
											c0.03,0.41,0.37,0.72,0.76,0.69C282.84,485.28,283.14,484.92,283.11,484.51z"/>
										<path style="fill:#1A2242;" d="M280.17,484.74c-0.03-0.41-0.37-0.72-0.76-0.69c-0.39,0.03-0.68,0.39-0.66,0.8
											c0.03,0.41,0.37,0.72,0.76,0.69C279.9,485.51,280.2,485.15,280.17,484.74z"/>
									</g>
								</g>
								<g>
									<g>
										<polygon style="fill:#CAE1E1;" points="282,484.75 282.75,484.7 285.19,476.79 284.44,476.84 										"/>
										<polygon style="fill:#CAE1E1;" points="279.02,484.99 279.76,484.93 282.21,477.02 281.46,477.08 										"/>
									</g>
									<g>
										<polygon style="fill:#E9FFFF;" points="284.98,484.52 285.73,484.46 285.19,476.79 284.44,476.84 										"/>
										<polygon style="fill:#E9FFFF;" points="282,484.75 282.75,484.7 282.21,477.02 281.46,477.08 										"/>
										<polygon style="fill:#E9FFFF;" points="279.02,484.99 279.77,484.93 279.23,477.25 278.49,477.31 										"/>
									</g>
								</g>
							</g>
						</g>
						<g>
							<path style="fill:#E8A179;" d="M302.98,471.66l-12.41,5.35c-1.38,0.59-2.24,2.05-2.13,3.62l0,0
								c0.14,1.99,1.79,3.49,3.68,3.34l11.43-0.89L302.98,471.66z"/>
							<path style="fill:#273199;" d="M299.09,484.75L295,474.06c0,0,56.87-37.78,93.52-37.73c2.15,0,4.08,1.43,5.36,3.25l0,0
								c1.97,2.79,2.08,6.63,0.16,9.46C388.01,457.95,358.78,477.54,299.09,484.75z"/>
						</g>
					</g>
				</g>
			</g>
			<g>
				<g>
					<g>
						<g>
							<g>
								<g>
									<g>
										<path style="fill:#E8A179;" d="M239.46,229.03c-0.35-0.82-1.28-1.17-2.06-0.86l-6.86,2.72l-0.02-0.03l8.03-3.56
											c0.77-0.34,1.21-1.26,0.92-2.1c-0.31-0.9-1.26-1.33-2.07-0.98l-8.42,3.73l-0.02-0.03l9.16-5.37
											c0.73-0.43,1.07-1.4,0.69-2.2c-0.4-0.86-1.38-1.19-2.15-0.73l-9.23,5.41l-0.06-0.12l7.01-5.01
											c0.69-0.49,0.95-1.49,0.52-2.26c-0.47-0.82-1.47-1.06-2.2-0.54l-7.91,5.65c0,0-4.26,1.14-5.97,3.78
											c-0.43,0.66-0.69,1.42-0.81,2.21c-4.34,3.72-8.94,7.12-13.75,10.15c2.18,3.01,3.61,5.44,5.86,7.62
											c4.28-3.03,9.08-6.76,12.95-10.38c0.17,0,2.01,1.08,3.68,0.09l1.44-0.85l10.41-4.14
											C239.44,230.91,239.83,229.91,239.46,229.03z"/>
										<path style="fill:#28D1B8;" d="M131.71,257.7c27.82,0.31,55.46-8.75,78.13-25.77c3.25,4.45,5.28,9.98,4.78,15.15
											c-24.4,18.97-54.76,28.69-85.07,27.25C127.89,268.16,128.94,262.67,131.71,257.7z"/>
									</g>
								</g>
							</g>
							<g>
								<g>
									<g>
										<g>
											<polygon style="fill:#E8A179;" points="151.48,459.06 162.25,459.06 162.47,476.64 180.69,483.39 180.69,486.97 
												151.05,486.97 152.46,483.39 											"/>
											<polygon style="fill:#1E2778;" points="162.47,476.64 180.69,483.39 180.69,486.97 151.05,486.97 151.05,483.39 
												151.76,476.64 											"/>
										</g>
										<g>
											<polygon style="fill:#E8A179;" points="100.54,459.06 111.31,459.06 108.53,476.64 126.75,483.39 126.75,486.97 
												97.11,486.97 98.52,483.39 											"/>
											<polygon style="fill:#1E2778;" points="108.53,476.64 126.75,483.39 126.75,486.97 97.11,486.97 97.11,483.39 
												99.25,476.64 											"/>
										</g>
									</g>
									<g>
										<path style="fill:#1E2778;" d="M133.02,353.46v-11.92h24.69c0,0,5.88,42.68,5.24,118.34h-12.49
											c0,0-4.8-56.09-17.34-107.11l0,0C133.08,353,133.05,353.23,133.02,353.46z"/>
										<path style="fill:#1E2778;" d="M109.18,341.54L109.18,341.54h28.02c-10.57,49.16-25.19,118.34-25.19,118.34H99.47
											C99.47,459.87,105.85,379.99,109.18,341.54z"/>
										<path style="fill:#3A45AB;" d="M118.99,341.54h6.86c-10.57,49.16-18.93,118.34-18.93,118.34h-3.55
											C103.37,459.87,115.66,379.99,118.99,341.54z"/>
									</g>
								</g>
								<g>
									<path style="fill:#28D1B8;" d="M132.82,253.58h1.52c0.4,0,0.8,0.01,1.2,0.03c9.77,0.55,16.48,11.24,17.12,21.42
										c0.05,0.76,5.05,66.5,5.05,66.5h-48.52l2.77-67.48c0.32-11.39,8.75-19.89,19.78-20.45
										C132.09,253.59,132.46,253.58,132.82,253.58z"/>
									<g>
										<g>
											<path style="fill:#E8A179;" d="M148.65,357.74c-2.4-2.25-7.86-5.43-11.53-8.59c1.96-0.17,4.6-0.68,3.54-2.77
												c-1.01,0.83-4.51-0.66-7.82-0.83c-3.36-3.13-9.27-9.22-12.08-12.62c-2.02,2.31-3.75,5.15-5.12,7.4
												c2.61,2.84,8.06,8.19,11.33,11.04c0.4,1.87,1.57,3.71,2.58,5.02c2.13,2.75,4.63,5.01,6.81,7.72
												c0.56,0.69,1.66,0.06,1.31-0.81c-0.41-1.05-1.61-3.04-2.02-4.09c0.56,0.76,4.68,5.87,6.45,6.59
												c0.76,0.31,1.29-0.59,0.9-1.24c-1.47-2.46-3.18-4.45-4.65-6.91c2.37,2.03,4.77,4.02,7.25,5.92
												c0.74,0.57,1.51-0.38,1.07-1.14c-1.33-2.28-4.65-5.49-6.51-7.41c1.91,1.27,5.67,3.06,7.8,4.03
												C148.57,359.32,149.11,358.18,148.65,357.74z"/>
											<path style="fill:#28D1B8;" d="M117.24,260.86l-0.65,22.6c-6.22,7.37-10.98,15.1-10.59,23.14
												c0.35,3.76,15.09,22.08,25,34.09c-2.57,4.68-6.73,7.74-11.92,8.79c-9.41-11.95-28.41-31.35-29.06-42.99
												C89.12,290.37,103.84,272.58,117.24,260.86z"/>
											<path style="fill:#12C4AA;" d="M116.74,282.84c-6.22,7.37-10.98,15.1-10.59,23.14c0.35,3.76,15.09,22.09,25,34.09
												c0,0-26.02-23.88-26.67-35.52C104.87,292.59,116.74,282.84,116.74,282.84z"/>
										</g>
									</g>
								</g>
							</g>
							<g>
								<g>
									<path style="fill:#F2CF31;" d="M130.66,203.34c5.15-0.31,10.54,0.95,14.69,4.21c2.01,1.58,3.34,3.65,3.97,6.21
										c0.54,2.18,13.67,38.76,13.67,38.76h-32.33V203.34z"/>
									<path style="fill:#E8A179;" d="M121.37,220.95c0-9.61,7.32-17.43,16.41-17.61c9.38-0.19,17.06,8.08,17.06,17.96
										c0,3.49,0,7.62,0,11.61c0,8.93-6.87,16.16-15.35,16.16h-0.62v14.21c0,4.4-15.13-3.5-15.13-7.9v-10.74
										c0-6.61-0.51-13.24-1.93-19.69C121.52,223.67,121.37,222.33,121.37,220.95z"/>
									<path style="fill:#F2CF31;" d="M117.94,211.15c3.7-8.68,16.01-11.31,24.06-9.48c8.64,1.97,14.84,10.38,14.84,19.63v3.67
										h-24.08v27.55h-29.48C103.28,252.51,116.69,214.07,117.94,211.15z"/>
								</g>
								<path style="fill:#E8A179;" d="M130.55,229.41c0.93,0,1.77,0.37,2.43,0.97v5.92c-0.65,0.6-1.5,0.97-2.43,0.97
									c-2.06,0-3.73-1.76-3.73-3.93C126.82,231.17,128.49,229.41,130.55,229.41z"/>
							</g>
						</g>
					</g>
				</g>
				<g>
					<polygon style="fill:#FFFFFF;" points="233.23,249.81 278.82,228.38 258.46,180.4 212.87,201.83 					"/>
					<path style="fill:#E8A179;" d="M220.53,225.97c0.7-0.4,1.64-0.3,2.4-0.52c0.82-0.23,1.55-0.73,2.32-1.09
						c0.4-0.18,1.03-0.54,1.48-0.46c1.42,0.26,1.02,1.52,0.5,2.25c-0.85,1.17-2.47,1.73-3.05,3.12c-0.02,0.05-0.02,0.09-0.03,0.14
						c-0.11,0.1-0.22,0.2-0.33,0.29c-0.44,0.33-0.87,0.46-1.28,0.5c-0.56-0.11-1.09-0.31-1.55-0.66
						C219.95,228.77,219.13,226.78,220.53,225.97z"/>
				</g>
			</g>
		</g>
	</g>
</g>
<g id="OBJECTS">
</g>
</svg>
