<?xml version="1.0" encoding="utf-8"?>
<!-- Generator: Adobe Illustrator 16.0.0, SVG Export Plug-In . SVG Version: 6.00 Build 0)  -->
<!DOCTYPE svg PUBLIC "-//W3C//DTD SVG 1.1//EN" "http://www.w3.org/Graphics/SVG/1.1/DTD/svg11.dtd">
<svg version="1.1" xmlns="http://www.w3.org/2000/svg" xmlns:xlink="http://www.w3.org/1999/xlink" x="0px" y="0px" width="500px"
	 height="500px" viewBox="0 0 500 500" style="enable-background:new 0 0 500 500;" xml:space="preserve">
<g id="Background">
	<rect style="fill:none;" width="500" height="500"/>
</g>
<g id="Objects">
	<g>
		<g>
			<g>
				<defs>
					<rect id="SVGID_1_" y="211.44" width="500" height="228.68"/>
				</defs>
				<clipPath id="SVGID_2_">
					<use xlink:href="#SVGID_1_"  style="overflow:visible;"/>
				</clipPath>
				<path style="clip-path:url(#SVGID_2_);fill:none;" d="M-78.41,177.79c0,7.22-1.74,14.07-4.85,20.21
					c27.14,3.17,48.12,24.54,48.12,50.44c0,1.36-0.06,2.7-0.17,4.03c6.67-2.64,14.01-4.11,21.72-4.11
					c29.56,0,53.69,21.48,55.05,48.45c0.77-0.09,1.55-0.14,2.35-0.14c7.18,0,13.42,3.73,16.56,9.21c4.56-4.08,10.77-6.59,17.63-6.59
					c11.15,0,20.61,6.65,24,15.88c2.38-0.68,4.9-1.05,7.52-1.05c14,0,25.35,10.47,25.35,23.39c0,1.19-0.1,2.35-0.28,3.5
					c6.35,1.4,11.76,5,15.25,9.87c0.27-0.01,0.54-0.02,0.82-0.02c1.6,0,3.16,0.2,4.64,0.54c2.76-3.17,6.4-5.67,10.57-7.17
					c1.01-12.06,11.93-21.56,25.26-21.56c11.74,0,21.61,7.37,24.49,17.36c2.75-1.46,5.93-2.3,9.33-2.3c8.8,0,16.18,5.61,18.18,13.16
					c2-7.55,9.38-13.16,18.18-13.16c3.4,0,6.58,0.84,9.33,2.3c2.88-9.99,12.75-17.36,24.49-17.36c13.33,0,24.25,9.5,25.26,21.56
					c4.18,1.5,7.81,4,10.57,7.17c1.49-0.35,3.04-0.54,4.64-0.54c0.27,0,0.54,0.01,0.82,0.02c3.49-4.88,8.9-8.48,15.25-9.87
					c-0.19-1.14-0.28-2.31-0.28-3.5c0-12.92,11.35-23.39,25.35-23.39c2.62,0,5.15,0.37,7.52,1.05c3.39-9.23,12.85-15.88,24-15.88
					c6.85,0,13.06,2.51,17.63,6.59c3.14-5.48,9.38-9.21,16.56-9.21c0.8,0,1.58,0.05,2.35,0.14c1.36-26.97,25.48-48.45,55.05-48.45
					c7.71,0,15.06,1.46,21.72,4.11c-0.11-1.33-0.17-2.67-0.17-4.03c0-25.9,20.98-47.28,48.12-50.44c-3.1-6.14-4.85-12.99-4.85-20.21
					c0-13.22,5.8-25.19,15.19-33.85v294.69h-178.9H85.31H-93.6V143.93C-84.21,152.6-78.41,164.57-78.41,177.79z"/>
			</g>
			<g>
				<path style="fill:none;" d="M132.77,126.89c1.29-5.61-1.48-10.93-6.51-12.16c-2.6-0.64-5.31-0.06-7.64,1.38
					c0.1-1.02,0.17-2.05,0.17-3.1c0-12.7-7.56-22.99-16.88-22.99c-7.37,0-13.62,6.44-15.92,15.4c-2.99-3.19-6.8-4.9-10.5-4.25
					c-6.5,1.14-10.17,9.13-8.25,17.9c-1.26-0.66-2.65-1.05-4.13-1.05c-4.75,0-8.7,3.83-9.53,8.87H132.77z"/>
				<path style="fill:none;" d="M289.45,38.84c1.29-5.61-1.48-10.93-6.52-12.16c-2.6-0.64-5.31-0.06-7.64,1.38
					c0.1-1.02,0.17-2.05,0.17-3.1c0-12.7-7.56-22.99-16.88-22.99c-7.37,0-13.62,6.44-15.92,15.4c-2.99-3.19-6.8-4.9-10.5-4.25
					c-6.5,1.14-10.17,9.13-8.25,17.9c-1.26-0.67-2.65-1.05-4.13-1.05c-4.75,0-8.7,3.83-9.53,8.87H289.45z"/>
				<path style="fill:none;" d="M460.13,187.97c1.29-5.61-1.48-10.93-6.52-12.16c-2.6-0.64-5.31-0.06-7.64,1.38
					c0.1-1.02,0.17-2.05,0.17-3.1c0-12.7-7.56-22.99-16.88-22.99c-7.37,0-13.62,6.44-15.92,15.4c-2.99-3.19-6.8-4.9-10.5-4.25
					c-6.5,1.14-10.17,9.13-8.26,17.9c-1.26-0.67-2.65-1.05-4.13-1.05c-4.75,0-8.7,3.83-9.53,8.87H460.13z"/>
			</g>
		</g>
		<g>
			<path style="fill:#FFFFFF;" d="M367.2,223.76v-11.24h-6.89c-0.44-1.67-1.07-3.27-1.88-4.75l4.88-5.12l-7.57-7.95l-4.88,5.13
				c-1.41-0.84-2.92-1.5-4.51-1.96v-7.26h-10.7v7.26c-1.59,0.46-3.1,1.12-4.51,1.96l-4.88-5.13l-7.57,7.95l4.88,5.12
				c-0.8,1.48-1.44,3.07-1.88,4.75h-6.89v11.24h6.88c0.44,1.68,1.07,3.28,1.87,4.76l-4.86,5.1l7.57,7.95l4.85-5.1
				c1.41,0.84,2.94,1.51,4.54,1.98v7.21h10.7v-7.21c1.6-0.46,3.13-1.14,4.54-1.98l4.85,5.1l7.57-7.95l-4.86-5.1
				c0.8-1.49,1.43-3.08,1.87-4.76H367.2z M341.01,230.02c-6.23,0-11.28-5.31-11.28-11.86s5.05-11.85,11.28-11.85
				s11.28,5.31,11.28,11.85S347.24,230.02,341.01,230.02z"/>
			<path style="fill:#FFFFFF;" d="M92.04,337.47v-11.24h-6.89c-0.44-1.67-1.07-3.27-1.88-4.75l4.88-5.13l-7.57-7.95l-4.88,5.13
				c-1.41-0.84-2.92-1.5-4.51-1.96v-7.26H60.5v7.26c-1.59,0.46-3.1,1.12-4.51,1.96l-4.88-5.13l-7.57,7.95l4.88,5.13
				c-0.8,1.48-1.44,3.07-1.88,4.75h-6.89v11.24h6.88c0.44,1.68,1.07,3.28,1.87,4.76l-4.86,5.1l7.57,7.95l4.85-5.1
				c1.41,0.84,2.94,1.51,4.54,1.98v7.21h10.7v-7.21c1.6-0.46,3.13-1.13,4.54-1.98l4.85,5.1l7.57-7.95l-4.86-5.1
				c0.8-1.49,1.43-3.08,1.87-4.76H92.04z M65.85,343.73c-6.23,0-11.28-5.31-11.28-11.86s5.05-11.85,11.28-11.85
				s11.28,5.31,11.28,11.85S72.08,343.73,65.85,343.73z"/>
			<path style="fill:#FFFFFF;" d="M91.82,125.1v-11.24h-6.89c-0.44-1.67-1.07-3.27-1.88-4.75l4.88-5.12l-7.57-7.95l-4.88,5.13
				c-1.41-0.83-2.92-1.5-4.51-1.96v-7.26h-10.7v7.26c-1.59,0.46-3.1,1.13-4.51,1.96l-4.88-5.13l-7.57,7.95l4.88,5.12
				c-0.8,1.48-1.44,3.07-1.88,4.75h-6.89v11.24h6.88c0.44,1.68,1.07,3.28,1.87,4.76l-4.86,5.1l7.57,7.95l4.85-5.1
				c1.41,0.84,2.94,1.51,4.54,1.98v7.21h10.7v-7.21c1.6-0.46,3.13-1.13,4.54-1.98l4.85,5.1l7.57-7.95l-4.86-5.1
				c0.8-1.49,1.43-3.08,1.87-4.76H91.82z M65.63,131.36c-6.23,0-11.28-5.31-11.28-11.86s5.05-11.85,11.28-11.85
				s11.28,5.31,11.28,11.85S71.86,131.36,65.63,131.36z"/>
			<path style="fill:#FFFFFF;" d="M469.11,325.77v-11.24h-6.89c-0.44-1.67-1.07-3.27-1.88-4.75l4.88-5.12l-7.57-7.95l-4.88,5.13
				c-1.41-0.83-2.92-1.5-4.51-1.96v-7.26h-10.7v7.26c-1.59,0.46-3.1,1.13-4.51,1.96l-4.88-5.13l-7.57,7.95l4.88,5.12
				c-0.8,1.48-1.44,3.07-1.88,4.75h-6.89v11.24h6.88c0.44,1.68,1.07,3.28,1.87,4.76l-4.86,5.1l7.57,7.95l4.85-5.1
				c1.41,0.84,2.94,1.51,4.54,1.98v7.21h10.7v-7.21c1.6-0.46,3.13-1.14,4.54-1.98l4.85,5.1l7.57-7.95l-4.86-5.1
				c0.8-1.49,1.43-3.08,1.87-4.76H469.11z M442.91,332.03c-6.23,0-11.28-5.31-11.28-11.86s5.05-11.85,11.28-11.85
				s11.28,5.31,11.28,11.85S449.14,332.03,442.91,332.03z"/>
			<path style="fill:#FFFFFF;" d="M230.92,55.07V43.83h-6.89c-0.44-1.67-1.07-3.27-1.88-4.75l4.88-5.12l-7.57-7.95l-4.88,5.13
				c-1.41-0.83-2.92-1.5-4.51-1.96v-7.26h-10.7v7.26c-1.59,0.46-3.1,1.13-4.51,1.96l-4.88-5.13l-7.57,7.95l4.88,5.12
				c-0.8,1.48-1.44,3.07-1.88,4.75h-6.89v11.24h6.88c0.44,1.68,1.07,3.28,1.87,4.76l-4.86,5.1l7.57,7.95l4.85-5.1
				c1.41,0.84,2.94,1.51,4.54,1.98v7.21h10.7v-7.21c1.6-0.46,3.13-1.13,4.54-1.98l4.85,5.1l7.57-7.95l-4.86-5.1
				c0.8-1.49,1.43-3.08,1.87-4.76H230.92z M204.72,61.33c-6.23,0-11.28-5.31-11.28-11.86s5.05-11.85,11.28-11.85
				S216,42.93,216,49.48S210.95,61.33,204.72,61.33z"/>
		</g>
		<g>
			<g>
				<g id="XMLID_18_">
					<path id="XMLID_8_" style="fill-rule:evenodd;clip-rule:evenodd;fill:#90A835;" d="M49.32,298.46c0,0-19.31,31.81-21.2,49.33
						c-1.89,17.5,14.76,25.05,23.09,15.11C59.53,352.95,49.32,321.92,49.32,298.46L49.32,298.46z"/>
					<path id="XMLID_5_" style="fill-rule:evenodd;clip-rule:evenodd;fill:#7E8C2D;" d="M27.18,336.11c0,0-3.18,13.35-1.91,19.64
						c1.27,6.27,7.87,6.88,9.66,2.41C36.7,353.71,29.75,344.22,27.18,336.11L27.18,336.11z"/>
				</g>
				<path id="XMLID_7_" style="fill-rule:evenodd;clip-rule:evenodd;fill:#603D2A;" d="M37.97,399.08
					c0.24-10.73,0.43-20.65,0.9-30.35c-2.08-1.35-9.76-7.17-10.75-19.25c0,0,0.45,3.09,1.8,6.54l1.7-3.72l-1.42,4.42
					c0.56,1.33,1.24,2.66,2.08,3.88c2.4,3.5,5.34,5.61,6.67,6.45c0.43-8.27,1.09-16.39,2.19-24.73c-0.6-0.81-1.59-2.34-2.42-4.67
					c-1.33-3.68-1.8-8.05-1.8-8.05s0.47,2.89,1.8,6.25c0.94,2.41,2.08,4.1,2.64,4.89c0.94-6.65,2.17-13.44,3.8-20.58
					c0,0-2.04,16.14-3.37,31.79c0.75-0.36,2.02-1.1,3.73-2.57c2.94-2.48,5.6-7.15,5.6-7.15s-1.72,4.26-3.41,6.25
					c-1.5,1.78-5.26,4.78-6.07,5.46c-0.58,6.97-0.97,13.71-0.92,18.71c0.09,16.59,1.78,26.65,1.78,26.65S38.14,399.08,37.97,399.08
					L37.97,399.08z"/>
				<path style="fill:#4F3628;" d="M47.36,401.32c-1.24-3.33-4.03-5.66-7.28-5.66c-3.25,0-6.05,2.33-7.28,5.66H47.36z"/>
			</g>
			<g>
				<g id="XMLID_13_">
					<path id="XMLID_15_" style="fill-rule:evenodd;clip-rule:evenodd;fill:#90A835;" d="M395.34,298.46c0,0-19.31,31.81-21.2,49.33
						c-1.89,17.5,14.76,25.05,23.09,15.11C405.55,352.95,395.34,321.92,395.34,298.46L395.34,298.46z"/>
					<path id="XMLID_14_" style="fill-rule:evenodd;clip-rule:evenodd;fill:#7E8C2D;" d="M373.2,336.11c0,0-3.17,13.35-1.91,19.64
						c1.27,6.27,7.87,6.88,9.66,2.41C382.72,353.71,375.77,344.22,373.2,336.11L373.2,336.11z"/>
				</g>
				<path id="XMLID_12_" style="fill-rule:evenodd;clip-rule:evenodd;fill:#603D2A;" d="M383.99,399.08
					c0.24-10.73,0.43-20.65,0.9-30.35c-2.08-1.35-9.76-7.17-10.75-19.25c0,0,0.45,3.09,1.8,6.54l1.7-3.72l-1.42,4.42
					c0.56,1.33,1.24,2.66,2.08,3.88c2.4,3.5,5.34,5.61,6.67,6.45c0.43-8.27,1.09-16.39,2.19-24.73c-0.6-0.81-1.59-2.34-2.42-4.67
					c-1.33-3.68-1.8-8.05-1.8-8.05s0.47,2.89,1.8,6.25c0.94,2.41,2.08,4.1,2.64,4.89c0.94-6.65,2.17-13.44,3.8-20.58
					c0,0-2.04,16.14-3.37,31.79c0.75-0.36,2.02-1.1,3.73-2.57c2.94-2.48,5.6-7.15,5.6-7.15s-1.72,4.26-3.41,6.25
					c-1.5,1.78-5.26,4.78-6.07,5.46c-0.58,6.97-0.97,13.71-0.92,18.71c0.09,16.59,1.78,26.65,1.78,26.65
					S384.16,399.08,383.99,399.08L383.99,399.08z"/>
				<path style="fill:#4F3628;" d="M393.38,401.32c-1.24-3.33-4.03-5.66-7.29-5.66c-3.25,0-6.05,2.33-7.28,5.66H393.38z"/>
			</g>
			<g>
				<g id="XMLID_2_">
					<path id="XMLID_4_" style="fill-rule:evenodd;clip-rule:evenodd;fill:#90A835;" d="M112.49,265.82c0,0-25.44,41.91-27.92,64.98
						c-2.49,23.05,19.44,33,30.41,19.9C125.94,337.6,112.49,296.74,112.49,265.82L112.49,265.82z"/>
					<path id="XMLID_3_" style="fill-rule:evenodd;clip-rule:evenodd;fill:#7E8C2D;" d="M83.32,315.42c0,0-4.18,17.58-2.52,25.87
						c1.67,8.26,10.37,9.06,12.72,3.18C95.87,338.61,86.72,326.11,83.32,315.42L83.32,315.42z"/>
				</g>
				<path id="XMLID_1_" style="fill-rule:evenodd;clip-rule:evenodd;fill:#603D2A;" d="M97.54,398.37
					c0.31-14.14,0.56-27.2,1.19-39.97c-2.74-1.78-12.86-9.45-14.16-25.36c0,0,0.59,4.07,2.37,8.61l2.23-4.9l-1.87,5.82
					c0.73,1.75,1.64,3.5,2.74,5.11c3.17,4.6,7.04,7.39,8.79,8.49c0.57-10.9,1.44-21.59,2.88-32.58c-0.79-1.07-2.09-3.09-3.19-6.15
					c-1.75-4.84-2.37-10.6-2.37-10.6s0.62,3.8,2.37,8.23c1.24,3.18,2.74,5.41,3.48,6.44c1.24-8.76,2.85-17.7,5-27.11
					c0,0-2.68,21.26-4.44,41.87c0.99-0.47,2.66-1.45,4.92-3.38c3.87-3.27,7.38-9.42,7.38-9.42s-2.26,5.61-4.49,8.23
					c-1.98,2.35-6.92,6.3-8,7.19c-0.76,9.18-1.27,18.06-1.22,24.65c0.11,21.86,2.35,35.1,2.35,35.1S97.77,398.37,97.54,398.37
					L97.54,398.37z"/>
				<path style="fill:#4F3628;" d="M109.91,401.32c-1.63-4.38-5.31-7.45-9.6-7.45c-4.29,0-7.97,3.07-9.59,7.45H109.91z"/>
			</g>
			<g>
				<g id="XMLID_17_">
					<path id="XMLID_20_" style="fill-rule:evenodd;clip-rule:evenodd;fill:#90A835;" d="M468.24,265.82
						c0,0-25.44,41.91-27.92,64.98c-2.49,23.05,19.44,33,30.41,19.9C481.69,337.6,468.24,296.74,468.24,265.82L468.24,265.82z"/>
					<path id="XMLID_19_" style="fill-rule:evenodd;clip-rule:evenodd;fill:#7E8C2D;" d="M439.07,315.42c0,0-4.18,17.58-2.52,25.87
						c1.67,8.26,10.37,9.06,12.72,3.18C451.62,338.61,442.46,326.11,439.07,315.42L439.07,315.42z"/>
				</g>
				<path id="XMLID_16_" style="fill-rule:evenodd;clip-rule:evenodd;fill:#603D2A;" d="M453.29,398.37
					c0.31-14.14,0.56-27.2,1.19-39.97c-2.74-1.78-12.86-9.45-14.16-25.36c0,0,0.59,4.07,2.37,8.61l2.23-4.9l-1.87,5.82
					c0.73,1.75,1.64,3.5,2.74,5.11c3.17,4.6,7.04,7.39,8.79,8.49c0.57-10.9,1.44-21.59,2.88-32.58c-0.79-1.07-2.09-3.09-3.19-6.15
					c-1.75-4.84-2.37-10.6-2.37-10.6s0.62,3.8,2.37,8.23c1.24,3.18,2.74,5.41,3.48,6.44c1.24-8.76,2.85-17.7,5-27.11
					c0,0-2.68,21.26-4.44,41.87c0.99-0.47,2.66-1.45,4.92-3.38c3.87-3.27,7.38-9.42,7.38-9.42s-2.26,5.61-4.49,8.23
					c-1.98,2.35-6.92,6.3-8,7.19c-0.76,9.18-1.27,18.06-1.22,24.65c0.11,21.86,2.35,35.1,2.35,35.1S453.52,398.37,453.29,398.37
					L453.29,398.37z"/>
				<path style="fill:#4F3628;" d="M465.66,401.32c-1.63-4.38-5.31-7.45-9.6-7.45c-4.29,0-7.97,3.07-9.59,7.45H465.66z"/>
			</g>
			<g>
				<g id="XMLID_9_">
					<path id="XMLID_11_" style="fill-rule:evenodd;clip-rule:evenodd;fill:#90A835;" d="M130.04,315.2c0,0-16.17,26.63-17.75,41.3
						c-1.58,14.65,12.36,20.97,19.33,12.65C138.59,360.82,130.04,334.85,130.04,315.2L130.04,315.2z"/>
					<path id="XMLID_10_" style="fill-rule:evenodd;clip-rule:evenodd;fill:#7E8C2D;" d="M111.5,346.72c0,0-2.66,11.17-1.6,16.44
						c1.06,5.25,6.59,5.76,8.08,2.02C119.47,361.46,113.65,353.52,111.5,346.72L111.5,346.72z"/>
				</g>
				<path id="XMLID_6_" style="fill-rule:evenodd;clip-rule:evenodd;fill:#603D2A;" d="M120.53,399.44
					c0.2-8.98,0.36-17.29,0.75-25.41c-1.74-1.13-8.17-6-9-16.12c0,0,0.38,2.59,1.51,5.47l1.42-3.11l-1.19,3.7
					c0.47,1.11,1.04,2.23,1.74,3.25c2.01,2.93,4.47,4.7,5.59,5.4c0.36-6.93,0.92-13.72,1.83-20.71c-0.5-0.68-1.33-1.96-2.03-3.91
					c-1.11-3.08-1.51-6.74-1.51-6.74s0.4,2.42,1.51,5.23c0.79,2.02,1.74,3.43,2.21,4.1c0.79-5.57,1.81-11.25,3.18-17.23
					c0,0-1.71,13.52-2.82,26.61c0.63-0.3,1.69-0.92,3.13-2.15c2.46-2.08,4.69-5.98,4.69-5.98s-1.44,3.57-2.86,5.23
					c-1.26,1.49-4.4,4-5.08,4.57c-0.49,5.83-0.81,11.48-0.77,15.67c0.07,13.89,1.49,22.31,1.49,22.31S120.68,399.44,120.53,399.44
					L120.53,399.44z"/>
				<path style="fill:#4F3628;" d="M128.39,401.32c-1.04-2.79-3.37-4.74-6.1-4.74c-2.72,0-5.06,1.95-6.1,4.74H128.39z"/>
			</g>
		</g>
		<rect y="393.96" style="fill:none;" width="500" height="106.04"/>
		<g>
			<rect x="65.85" y="119.14" style="fill:#33588A;" width="100.53" height="140.45"/>
			<rect x="65.85" y="119.14" style="fill:#2C2E33;" width="100.53" height="12.43"/>
			<g>
				<g>
					<rect x="72.73" y="140.34" style="fill:#E09730;" width="41.18" height="2.86"/>
					<rect x="72.73" y="146.7" style="fill:#65A4CD;" width="15.53" height="2.86"/>
					<rect x="92.06" y="146.7" style="fill:#9FD3E8;" width="24.36" height="2.86"/>
					<rect x="102.26" y="153.07" style="fill:#9FD3E8;" width="23.06" height="2.86"/>
					<rect x="120.33" y="146.7" style="fill:#E09730;" width="11.31" height="2.86"/>
					<rect x="135.33" y="146.7" style="fill:#9FD3E8;" width="15.53" height="2.86"/>
					<rect x="72.73" y="153.07" style="fill:#65A4CD;" width="26.66" height="2.86"/>
				</g>
				<g>
					<rect x="72.73" y="211.77" style="fill:#65A4CD;" width="15.53" height="2.86"/>
					<rect x="92.06" y="211.77" style="fill:#9FD3E8;" width="24.36" height="2.86"/>
					<rect x="102.26" y="218.14" style="fill:#9FD3E8;" width="9.86" height="2.86"/>
					<rect x="120.33" y="211.77" style="fill:#9FD3E8;" width="11.31" height="2.86"/>
					<rect x="72.73" y="218.14" style="fill:#E09730;" width="26.66" height="2.86"/>
				</g>
				<g>
					<rect x="72.73" y="246.76" style="fill:#E09730;" width="15.53" height="2.86"/>
					<rect x="92.06" y="246.76" style="fill:#9FD3E8;" width="24.36" height="2.86"/>
				</g>
				<g>
					<rect x="80.92" y="163.85" style="fill:#65A4CD;" width="15.53" height="2.86"/>
					<rect x="100.25" y="163.85" style="fill:#E09730;" width="14.68" height="2.86"/>
					<rect x="110.44" y="170.21" style="fill:#9FD3E8;" width="13.03" height="2.86"/>
					<rect x="126.89" y="170.21" style="fill:#E09730;" width="21.52" height="2.86"/>
					<rect x="117.76" y="163.85" style="fill:#9FD3E8;" width="22.07" height="2.86"/>
					<rect x="80.92" y="176.4" style="fill:#65A4CD;" width="15.53" height="2.86"/>
					<rect x="100.25" y="176.4" style="fill:#9FD3E8;" width="14.68" height="2.86"/>
					<rect x="117.76" y="176.4" style="fill:#9FD3E8;" width="22.07" height="2.86"/>
					<rect x="143.51" y="163.85" style="fill:#9FD3E8;" width="15.53" height="2.86"/>
					<rect x="80.92" y="170.21" style="fill:#65A4CD;" width="26.66" height="2.86"/>
				</g>
				<g>
					<rect x="80.92" y="226.32" style="fill:#65A4CD;" width="15.53" height="2.86"/>
					<rect x="100.25" y="226.32" style="fill:#9FD3E8;" width="17.51" height="2.86"/>
					<rect x="100.25" y="232.68" style="fill:#9FD3E8;" width="23.23" height="2.86"/>
					<rect x="126.89" y="232.68" style="fill:#9FD3E8;" width="9.82" height="2.86"/>
					<rect x="121.56" y="226.32" style="fill:#E09730;" width="29.01" height="2.86"/>
					<rect x="80.92" y="238.87" style="fill:#65A4CD;" width="15.53" height="2.86"/>
					<rect x="100.25" y="238.87" style="fill:#E09730;" width="14.68" height="2.86"/>
					<rect x="117.76" y="238.87" style="fill:#9FD3E8;" width="22.07" height="2.86"/>
					<rect x="80.92" y="232.68" style="fill:#65A4CD;" width="15.53" height="2.86"/>
				</g>
				<g>
					<rect x="110.44" y="202.33" style="fill:#9FD3E8;" width="13.03" height="2.86"/>
					<rect x="126.89" y="202.33" style="fill:#9FD3E8;" width="21.52" height="2.86"/>
					<rect x="80.92" y="195.15" style="fill:#65A4CD;" width="15.53" height="2.86"/>
					<rect x="100.25" y="195.15" style="fill:#9FD3E8;" width="14.68" height="2.86"/>
					<rect x="117.76" y="195.15" style="fill:#E09730;" width="22.07" height="2.86"/>
					<rect x="80.92" y="202.33" style="fill:#65A4CD;" width="26.66" height="2.86"/>
				</g>
				<g>
					<rect x="120.27" y="185.71" style="fill:#9FD3E8;" width="13.03" height="2.86"/>
					<rect x="90.75" y="185.71" style="fill:#E09730;" width="26.66" height="2.86"/>
				</g>
			</g>
			<g>
				<g>
					<ellipse style="fill:#E09730;" cx="75.14" cy="125.45" rx="1.92" ry="2.02"/>
					<ellipse style="fill:#E09730;" cx="82.7" cy="125.45" rx="1.92" ry="2.02"/>
					<ellipse style="fill:#E09730;" cx="90.27" cy="125.45" rx="1.92" ry="2.02"/>
				</g>
			</g>
		</g>
		<path style="fill:#94BAF2;" d="M383.89,417.05c0,3.38-2.61,6.13-5.83,6.13H121.94c-3.22,0-5.83-2.74-5.83-6.13l0,0
			c0-3.38,2.61-6.13,5.83-6.13h256.11C381.27,410.92,383.89,413.66,383.89,417.05L383.89,417.05z"/>
		<g>
			<g>
				<g>
					<rect x="214.47" y="379.48" style="fill:#FFFFFF;" width="70.68" height="21.84"/>
					<rect x="214.47" y="394" style="fill:#D7EFF5;" width="70.68" height="7.31"/>
					<path style="fill:#FFFFFF;" d="M213.84,401.32h71.94c8.44,0,15.28,7.04,15.28,15.73H198.57
						C198.57,408.36,205.4,401.32,213.84,401.32z"/>
				</g>
				<g>
					<path style="fill:#D7EFF5;" d="M135.8,379.48h228.39c2.31,0,4.17-1.96,4.17-4.38V223.42c0-2.42-1.86-4.38-4.17-4.38H135.8
						c-2.3,0-4.17,1.96-4.17,4.38V375.1C131.64,377.52,133.5,379.48,135.8,379.48z"/>
					<path style="fill:#2C2E33;" d="M138.27,377.31h223.47c2.3,0,4.16-1.96,4.16-4.38V225.59c0-2.42-1.87-4.38-4.16-4.38H138.27
						c-2.3,0-4.17,1.96-4.17,4.38v147.35C134.1,375.35,135.97,377.31,138.27,377.31z"/>
					<path style="fill:#33588A;" d="M147.69,364.45h204.63c2,0,3.64-1.71,3.64-3.82V237.89c0-2.11-1.63-3.82-3.64-3.82H147.69
						c-2.01,0-3.63,1.71-3.63,3.82v122.74C144.05,362.74,145.68,364.45,147.69,364.45z"/>
				</g>
			</g>
			<g>
				<g>
					<rect x="155.78" y="246.3" style="fill:#E09730;" width="78.38" height="3.45"/>
					<rect x="155.78" y="253.99" style="fill:#65A4CD;" width="29.55" height="3.45"/>
					<rect x="192.56" y="253.99" style="fill:#9FD3E8;" width="46.35" height="3.45"/>
					<rect x="211.96" y="261.68" style="fill:#9FD3E8;" width="43.88" height="3.45"/>
					<rect x="246.36" y="253.99" style="fill:#9FD3E8;" width="21.53" height="3.45"/>
					<rect x="274.89" y="253.99" style="fill:#9FD3E8;" width="29.55" height="3.45"/>
					<rect x="155.78" y="261.68" style="fill:#65A4CD;" width="50.73" height="3.45"/>
				</g>
				<g>
					<rect x="155.78" y="332.61" style="fill:#65A4CD;" width="29.55" height="3.45"/>
					<rect x="192.56" y="332.61" style="fill:#9FD3E8;" width="46.35" height="3.45"/>
					<rect x="211.96" y="340.3" style="fill:#E09730;" width="18.77" height="3.45"/>
					<rect x="246.36" y="332.61" style="fill:#9FD3E8;" width="21.53" height="3.45"/>
					<rect x="155.78" y="340.3" style="fill:#E09730;" width="50.73" height="3.45"/>
				</g>
				<g>
					<rect x="171.36" y="274.7" style="fill:#9FD3E8;" width="29.55" height="3.45"/>
					<rect x="208.14" y="274.7" style="fill:#E09730;" width="27.93" height="3.45"/>
					<rect x="227.54" y="282.39" style="fill:#9FD3E8;" width="24.8" height="3.45"/>
					<rect x="258.84" y="282.39" style="fill:#9FD3E8;" width="40.96" height="3.45"/>
					<rect x="241.46" y="274.7" style="fill:#E09730;" width="42.01" height="3.45"/>
					<rect x="171.36" y="289.88" style="fill:#65A4CD;" width="29.55" height="3.45"/>
					<rect x="208.14" y="289.88" style="fill:#9FD3E8;" width="27.93" height="3.45"/>
					<rect x="241.46" y="289.88" style="fill:#9FD3E8;" width="42.01" height="3.45"/>
					<rect x="290.48" y="274.7" style="fill:#9FD3E8;" width="29.55" height="3.45"/>
					<rect x="171.36" y="282.39" style="fill:#65A4CD;" width="50.73" height="3.45"/>
				</g>
				<g>
					<rect x="171.36" y="350.19" style="fill:#65A4CD;" width="29.55" height="3.45"/>
					<rect x="208.14" y="350.19" style="fill:#9FD3E8;" width="33.32" height="3.45"/>
					<rect x="248.69" y="350.19" style="fill:#E09730;" width="55.21" height="3.45"/>
				</g>
				<g>
					<rect x="227.54" y="321.21" style="fill:#9FD3E8;" width="24.8" height="3.45"/>
					<rect x="258.84" y="321.21" style="fill:#9FD3E8;" width="40.96" height="3.45"/>
					<rect x="171.36" y="312.52" style="fill:#65A4CD;" width="29.55" height="3.45"/>
					<rect x="208.14" y="312.52" style="fill:#9FD3E8;" width="27.93" height="3.45"/>
					<rect x="241.46" y="312.52" style="fill:#E09730;" width="42.01" height="3.45"/>
					<rect x="171.36" y="321.21" style="fill:#E09730;" width="50.73" height="3.45"/>
				</g>
				<g>
					<rect x="246.25" y="301.12" style="fill:#9FD3E8;" width="24.8" height="3.45"/>
					<rect x="190.07" y="301.12" style="fill:#E09730;" width="50.73" height="3.45"/>
				</g>
			</g>
		</g>
		<g>
			<g>
				<g>
					<path style="fill:#D7EFF5;" d="M285.97,136.97h-71.95c-8.66,0-15.7,6.76-15.7,15.06V321c0,8.31,7.04,15.06,15.7,15.06h71.95
						c8.66,0,15.7-6.75,15.7-15.06V152.03C301.68,143.73,294.63,136.97,285.97,136.97z"/>
				</g>
				<g>
					<path style="fill:#FFFFFF;" d="M284.05,139.7h-68.1c-8.19,0-14.86,6.57-14.86,14.63v164.38c0,8.07,6.67,14.62,14.86,14.62h68.1
						c8.19,0,14.85-6.56,14.85-14.62V154.33C298.9,146.27,292.24,139.7,284.05,139.7z"/>
				</g>
				<g>
					<path style="fill:#65A4CD;" d="M211.01,316.43h77.66c2.11,0,3.82-1.68,3.82-3.76V160.58c0-2.07-1.71-3.75-3.82-3.75h-77.66
						c-2.1,0-3.81,1.68-3.81,3.75v152.09C207.19,314.75,208.91,316.43,211.01,316.43z"/>
				</g>
				<g>
					<path style="fill:#FFFFFF;" d="M269.09,145.92H230.9c-4.6,0-8.33,3.68-8.33,8.21v7.21c0,4.52,3.74,8.2,8.33,8.2h38.19
						c4.59,0,8.33-3.68,8.33-8.2v-7.21C277.42,149.61,273.69,145.92,269.09,145.92z"/>
				</g>
			</g>
		</g>
		<g>
			<g>
				<polyline style="fill:none;stroke:#2C2E33;stroke-width:2.4931;stroke-miterlimit:10;" points="475.03,68.9 397.9,22.8 
					258.67,68.35 				"/>
				<g>
					<g>
						<g>
							
								<rect x="413.32" y="68.97" style="fill:none;stroke:#2C2E33;stroke-width:3.7396;stroke-miterlimit:10;" width="30.85" height="32.42"/>
							
								<line style="fill:none;stroke:#2C2E33;stroke-width:3.7396;stroke-miterlimit:10;" x1="444.17" y1="68.97" x2="413.32" y2="101.39"/>
							
								<line style="fill:none;stroke:#2C2E33;stroke-width:3.7396;stroke-miterlimit:10;" x1="413.32" y1="68.97" x2="444.17" y2="101.39"/>
						</g>
						<g>
							
								<rect x="444.17" y="68.97" style="fill:none;stroke:#2C2E33;stroke-width:3.7396;stroke-miterlimit:10;" width="30.85" height="32.42"/>
							
								<line style="fill:none;stroke:#2C2E33;stroke-width:3.7396;stroke-miterlimit:10;" x1="444.17" y1="101.39" x2="475.03" y2="68.97"/>
							
								<line style="fill:none;stroke:#2C2E33;stroke-width:3.7396;stroke-miterlimit:10;" x1="444.17" y1="68.97" x2="475.03" y2="101.39"/>
						</g>
					</g>
					<g>
						<polyline style="fill:none;stroke:#2C2E33;stroke-width:3.7396;stroke-miterlimit:10;" points="258.67,68.42 228.21,101.39 
							259.06,101.39 						"/>
						<g>
							<g>
								
									<rect x="289.92" y="68.97" style="fill:none;stroke:#2C2E33;stroke-width:3.7396;stroke-miterlimit:10;" width="30.85" height="32.42"/>
								
									<line style="fill:none;stroke:#2C2E33;stroke-width:3.7396;stroke-miterlimit:10;" x1="320.77" y1="68.97" x2="289.92" y2="101.39"/>
								
									<line style="fill:none;stroke:#2C2E33;stroke-width:3.7396;stroke-miterlimit:10;" x1="289.92" y1="68.97" x2="320.77" y2="101.39"/>
							</g>
							<g>
								
									<rect x="259.06" y="68.97" style="fill:none;stroke:#2C2E33;stroke-width:3.7396;stroke-miterlimit:10;" width="30.85" height="32.42"/>
								
									<line style="fill:none;stroke:#2C2E33;stroke-width:3.7396;stroke-miterlimit:10;" x1="289.92" y1="68.97" x2="259.06" y2="101.39"/>
								
									<line style="fill:none;stroke:#2C2E33;stroke-width:3.7396;stroke-miterlimit:10;" x1="259.06" y1="68.97" x2="289.92" y2="101.39"/>
							</g>
							<g>
								
									<rect x="320.77" y="68.97" style="fill:none;stroke:#2C2E33;stroke-width:3.7396;stroke-miterlimit:10;" width="30.85" height="32.42"/>
								
									<line style="fill:none;stroke:#2C2E33;stroke-width:3.7396;stroke-miterlimit:10;" x1="351.62" y1="68.97" x2="320.77" y2="101.39"/>
								
									<line style="fill:none;stroke:#2C2E33;stroke-width:3.7396;stroke-miterlimit:10;" x1="320.77" y1="68.97" x2="351.62" y2="101.39"/>
							</g>
							<g>
								
									<rect x="351.62" y="68.97" style="fill:none;stroke:#2C2E33;stroke-width:3.7396;stroke-miterlimit:10;" width="30.85" height="32.42"/>
								
									<line style="fill:none;stroke:#2C2E33;stroke-width:3.7396;stroke-miterlimit:10;" x1="382.47" y1="68.97" x2="351.62" y2="101.39"/>
								
									<line style="fill:none;stroke:#2C2E33;stroke-width:3.7396;stroke-miterlimit:10;" x1="351.62" y1="68.97" x2="382.47" y2="101.39"/>
							</g>
						</g>
					</g>
					<g>
						<g>
							
								<rect x="382.47" y="360.74" style="fill:none;stroke:#2C2E33;stroke-width:3.7396;stroke-miterlimit:10;" width="30.85" height="32.42"/>
							
								<line style="fill:none;stroke:#2C2E33;stroke-width:3.7396;stroke-miterlimit:10;" x1="413.32" y1="360.74" x2="382.47" y2="393.17"/>
							
								<line style="fill:none;stroke:#2C2E33;stroke-width:3.7396;stroke-miterlimit:10;" x1="382.47" y1="360.74" x2="413.32" y2="393.17"/>
						</g>
						<g>
							
								<rect x="382.47" y="328.33" style="fill:none;stroke:#2C2E33;stroke-width:3.7396;stroke-miterlimit:10;" width="30.85" height="32.42"/>
							
								<line style="fill:none;stroke:#2C2E33;stroke-width:3.7396;stroke-miterlimit:10;" x1="413.32" y1="328.33" x2="382.47" y2="360.74"/>
							
								<line style="fill:none;stroke:#2C2E33;stroke-width:3.7396;stroke-miterlimit:10;" x1="382.47" y1="328.33" x2="413.32" y2="360.74"/>
						</g>
						<g>
							
								<rect x="382.47" y="295.91" style="fill:none;stroke:#2C2E33;stroke-width:3.7396;stroke-miterlimit:10;" width="30.85" height="32.42"/>
							
								<line style="fill:none;stroke:#2C2E33;stroke-width:3.7396;stroke-miterlimit:10;" x1="413.32" y1="295.91" x2="382.47" y2="328.33"/>
							
								<line style="fill:none;stroke:#2C2E33;stroke-width:3.7396;stroke-miterlimit:10;" x1="382.47" y1="295.91" x2="413.32" y2="328.33"/>
						</g>
						<g>
							
								<rect x="382.47" y="263.49" style="fill:none;stroke:#2C2E33;stroke-width:3.7396;stroke-miterlimit:10;" width="30.85" height="32.42"/>
							
								<line style="fill:none;stroke:#2C2E33;stroke-width:3.7396;stroke-miterlimit:10;" x1="413.32" y1="263.49" x2="382.47" y2="295.91"/>
							
								<line style="fill:none;stroke:#2C2E33;stroke-width:3.7396;stroke-miterlimit:10;" x1="382.47" y1="263.49" x2="413.32" y2="295.91"/>
						</g>
						<g>
							
								<rect x="382.47" y="231.07" style="fill:none;stroke:#2C2E33;stroke-width:3.7396;stroke-miterlimit:10;" width="30.85" height="32.42"/>
							
								<line style="fill:none;stroke:#2C2E33;stroke-width:3.7396;stroke-miterlimit:10;" x1="413.32" y1="231.07" x2="382.47" y2="263.49"/>
							
								<line style="fill:none;stroke:#2C2E33;stroke-width:3.7396;stroke-miterlimit:10;" x1="382.47" y1="231.07" x2="413.32" y2="263.49"/>
						</g>
						<g>
							
								<rect x="382.47" y="198.65" style="fill:none;stroke:#2C2E33;stroke-width:3.7396;stroke-miterlimit:10;" width="30.85" height="32.42"/>
							
								<line style="fill:none;stroke:#2C2E33;stroke-width:3.7396;stroke-miterlimit:10;" x1="413.32" y1="198.65" x2="382.47" y2="231.07"/>
							
								<line style="fill:none;stroke:#2C2E33;stroke-width:3.7396;stroke-miterlimit:10;" x1="382.47" y1="198.65" x2="413.32" y2="231.07"/>
						</g>
						<g>
							
								<rect x="382.47" y="166.23" style="fill:none;stroke:#2C2E33;stroke-width:3.7396;stroke-miterlimit:10;" width="30.85" height="32.42"/>
							
								<line style="fill:none;stroke:#2C2E33;stroke-width:3.7396;stroke-miterlimit:10;" x1="413.32" y1="166.23" x2="382.47" y2="198.65"/>
							
								<line style="fill:none;stroke:#2C2E33;stroke-width:3.7396;stroke-miterlimit:10;" x1="382.47" y1="166.23" x2="413.32" y2="198.65"/>
						</g>
						<g>
							
								<rect x="382.47" y="133.81" style="fill:none;stroke:#2C2E33;stroke-width:3.7396;stroke-miterlimit:10;" width="30.85" height="32.42"/>
							
								<line style="fill:none;stroke:#2C2E33;stroke-width:3.7396;stroke-miterlimit:10;" x1="413.32" y1="133.81" x2="382.47" y2="166.23"/>
							
								<line style="fill:none;stroke:#2C2E33;stroke-width:3.7396;stroke-miterlimit:10;" x1="382.47" y1="133.81" x2="413.32" y2="166.23"/>
						</g>
						<g>
							
								<rect x="382.47" y="101.39" style="fill:none;stroke:#2C2E33;stroke-width:3.7396;stroke-miterlimit:10;" width="30.85" height="32.42"/>
							
								<line style="fill:none;stroke:#2C2E33;stroke-width:3.7396;stroke-miterlimit:10;" x1="413.32" y1="101.39" x2="382.47" y2="133.81"/>
							
								<line style="fill:none;stroke:#2C2E33;stroke-width:3.7396;stroke-miterlimit:10;" x1="382.47" y1="101.39" x2="413.32" y2="133.81"/>
						</g>
					</g>
					<g>
						<g>
							
								<rect x="382.47" y="68.97" style="fill:none;stroke:#2C2E33;stroke-width:3.7396;stroke-miterlimit:10;" width="30.85" height="32.42"/>
							
								<line style="fill:none;stroke:#2C2E33;stroke-width:3.7396;stroke-miterlimit:10;" x1="413.32" y1="68.97" x2="382.47" y2="101.39"/>
							
								<line style="fill:none;stroke:#2C2E33;stroke-width:3.7396;stroke-miterlimit:10;" x1="382.47" y1="68.97" x2="413.32" y2="101.39"/>
						</g>
						<g>
							
								<rect x="382.47" y="36.55" style="fill:none;stroke:#2C2E33;stroke-width:3.7396;stroke-miterlimit:10;" width="30.85" height="32.42"/>
							
								<line style="fill:none;stroke:#2C2E33;stroke-width:3.7396;stroke-miterlimit:10;" x1="413.32" y1="36.55" x2="382.47" y2="68.97"/>
							
								<line style="fill:none;stroke:#2C2E33;stroke-width:3.7396;stroke-miterlimit:10;" x1="382.47" y1="36.55" x2="413.32" y2="68.97"/>
						</g>
					</g>
				</g>
				<rect x="475.03" y="67.02" style="fill:#2C2E33;" width="8.7" height="36.33"/>
				<polygon style="fill:#2C2E33;" points="228.21,101.39 259.06,101.39 259.06,68.97 				"/>
				<g>
					<rect x="385.74" y="20.4" style="fill:#2C2E33;" width="24.31" height="14.2"/>
				</g>
				<g>
					<rect x="375.11" y="395.04" style="fill:#FFFFFF;" width="45.56" height="10.12"/>
					<rect x="375.11" y="401.07" style="fill:#D7EFF5;" width="45.56" height="4.09"/>
					<path style="fill:#FFFFFF;" d="M374.71,405.16h46.38c5.44,0,9.84,4.96,9.84,11.09h-66.07
						C364.86,410.12,369.27,405.16,374.71,405.16z"/>
				</g>
				<g>
					
						<line style="fill:none;stroke:#2C2E33;stroke-width:2.4931;stroke-miterlimit:10;" x1="305.6" y1="101.12" x2="305.6" y2="160.89"/>
					<rect x="298.59" y="97.08" style="fill:#E9BC42;" width="14.02" height="8.08"/>
					<rect x="301.76" y="142.76" style="fill:#E9BC42;" width="7.69" height="14.74"/>
					<path style="fill:none;stroke:#2C2E33;stroke-width:2.4931;stroke-miterlimit:10;" d="M308.92,161.26
						c-1.01-0.51-2.13-0.79-3.32-0.79c-4.25,0-7.69,3.62-7.69,8.08c0,4.46,3.44,8.08,7.69,8.08c1.72,0,3.32-0.6,4.6-1.6"/>
				</g>
			</g>
			<g>
				<g>
					<path style="fill:#2C2E33;" d="M332.35,268.71h-56.68c-0.62,0-1.12-0.53-1.12-1.17v-59.56c0-0.65,0.5-1.17,1.12-1.17h56.68
						c0.62,0,1.12,0.53,1.12,1.17v59.56C333.46,268.19,332.97,268.71,332.35,268.71z"/>
					<path style="fill:#E9BC42;" d="M328.88,265.07h-49.74c-0.62,0-1.12-0.53-1.12-1.17v-52.26c0-0.65,0.5-1.17,1.12-1.17h49.74
						c0.62,0,1.12,0.53,1.12,1.17v52.26C329.99,264.54,329.49,265.07,328.88,265.07z"/>
					<ellipse style="fill:#E4A940;" cx="304.01" cy="242.74" rx="19.14" ry="20.11"/>
					<ellipse style="fill:#FDFCFF;" cx="306.52" cy="228.43" rx="8.88" ry="9.33"/>
					<g>
						<path style="fill:#FDFCFF;" d="M329.99,263.39v-11.98l-8.73-12.13c-1-1.39-2.98-1.39-3.98,0l-18.57,25.78h29.69
							C329.28,265.07,329.99,264.32,329.99,263.39z"/>
						<polygon style="fill:#E3EFF6;" points="316.35,265.07 307.53,252.82 323.97,265.07 						"/>
						<path style="fill:#FDFCFF;" d="M286.6,231.02l-8.57,11.91v20.46c0,0.93,0.71,1.67,1.59,1.67h36.76l-24.52-34.04
							C290.54,229.19,287.92,229.19,286.6,231.02z"/>
					</g>
				</g>
				<polyline style="fill:none;stroke:#2C2E33;stroke-width:2.4931;stroke-miterlimit:10;" points="330.78,208.25 305.16,171.99 
					277.24,208.25 				"/>
			</g>
		</g>
		<g>
			<path style="fill:#E8BB42;" d="M150.62,286.19h114.31c0.71,0,1.29-0.61,1.29-1.36v-43.66c0-0.75-0.58-1.36-1.29-1.36H150.62
				c-0.71,0-1.29,0.61-1.29,1.36v43.66C149.33,285.59,149.91,286.19,150.62,286.19z"/>
			<path style="fill:#FFFFFF;" d="M150.62,239.82c-0.71,0-1.29,0.61-1.29,1.36v43.66c0,0.75,0.58,1.36,1.29,1.36h42.84v-46.38
				H150.62z"/>
			<g>
				<g>
					<rect x="197.59" y="260.35" style="fill:#BA7820;" width="64.65" height="1.57"/>
					<rect x="197.59" y="264.36" style="fill:#BA7820;" width="33.01" height="1.57"/>
					<rect x="232.92" y="264.36" style="fill:#BA7820;" width="29.33" height="1.57"/>
					<rect x="197.59" y="268.37" style="fill:#BA7820;" width="13.9" height="1.57"/>
					<rect x="213.67" y="268.37" style="fill:#BA7820;" width="25.49" height="1.57"/>
				</g>
			</g>
			<g>
				<rect x="197.59" y="245.28" style="fill:#2C2E33;" width="53.49" height="3.83"/>
				<rect x="197.59" y="251.44" style="fill:#2C2E33;" width="25.54" height="3.83"/>
				<rect x="226.28" y="251.44" style="fill:#2C2E33;" width="35.96" height="3.83"/>
			</g>
			<path style="fill:#FDFCFF;" d="M262.25,278.28c0,1.69-1.31,3.07-2.92,3.07h-16.26c-1.61,0-2.92-1.37-2.92-3.07l0,0
				c0-1.69,1.31-3.06,2.92-3.06h16.26C260.94,275.21,262.25,276.59,262.25,278.28L262.25,278.28z"/>
			<rect x="197.59" y="277.49" style="fill:#BA7820;" width="38.25" height="1.57"/>
			<g>
				
					<rect x="153.36" y="244.43" style="fill:none;stroke:#A7C7CE;stroke-width:1.6222;stroke-miterlimit:10;" width="35.94" height="37.77"/>
				
					<line style="fill:none;stroke:#A7C7CE;stroke-width:1.6222;stroke-miterlimit:10;" x1="189.31" y1="244.43" x2="153.36" y2="282.2"/>
				
					<line style="fill:none;stroke:#A7C7CE;stroke-width:1.6222;stroke-miterlimit:10;" x1="153.36" y1="244.43" x2="189.31" y2="282.2"/>
			</g>
		</g>
		<g>
			<path style="fill:#E8BB42;" d="M235.64,190.86h46.4c0.42,0,0.76-0.35,0.76-0.8v-25.66c0-0.44-0.34-0.8-0.76-0.8h-46.4
				c-0.42,0-0.76,0.36-0.76,0.8v25.66C234.88,190.51,235.22,190.86,235.64,190.86z"/>
			<g>
				<rect x="239.03" y="172.72" style="fill:#FDFCFF;" width="32.85" height="3.47"/>
				<rect x="239.03" y="178.29" style="fill:#FDFCFF;" width="15.69" height="3.46"/>
				<rect x="256.65" y="178.29" style="fill:#FDFCFF;" width="22.09" height="3.46"/>
			</g>
		</g>
		<g>
			<ellipse style="fill:#E8BB42;" cx="262.47" cy="323.68" rx="20.32" ry="21.36"/>
			<ellipse style="fill:#FDFBFF;" cx="262.47" cy="318.55" rx="8.75" ry="9.19"/>
			<path style="fill:#FDFBFF;" d="M262.47,345.04c-5.15,0-9.85-2.02-13.44-5.34c0.66-7.2,6.42-12.82,13.44-12.82
				c7.02,0,12.78,5.63,13.44,12.82C272.32,343.02,267.62,345.04,262.47,345.04z"/>
		</g>
		<g>
			<path style="fill:#2C2E33;" d="M224.54,215.28h-40.77c-0.44,0-0.8-0.38-0.8-0.84v-32.87c0-0.47,0.36-0.84,0.8-0.84h40.77
				c0.44,0,0.8,0.38,0.8,0.84v32.87C225.35,214.91,224.99,215.28,224.54,215.28z"/>
			<path style="fill:#E9BC42;" d="M222.05,212.58h-35.78c-0.44,0-0.8-0.38-0.8-0.84v-27.54c0-0.47,0.36-0.84,0.8-0.84h35.78
				c0.44,0,0.8,0.38,0.8,0.84v27.54C222.85,212.2,222.49,212.58,222.05,212.58z"/>
			<path style="fill:#FDFBFF;" d="M199.88,191.58v12.77c0,1.28,1.38,2.01,2.36,1.25l8.17-6.38c0.79-0.62,0.79-1.87,0-2.49
				l-8.17-6.38C201.26,189.57,199.88,190.3,199.88,191.58z"/>
		</g>
		<g>
			<g>
				<ellipse style="fill:#FFFFFF;" cx="126.89" cy="311.18" rx="26.01" ry="27.33"/>
			</g>
			<g>
				<ellipse style="fill:#FFFFFF;" cx="346.04" cy="150.13" rx="26.01" ry="27.33"/>
			</g>
			<g>
				<ellipse style="fill:#FFFFFF;" cx="58.8" cy="246.3" rx="26.01" ry="27.33"/>
			</g>
			<g>
				<ellipse style="fill:#FFFFFF;" cx="166.38" cy="117.34" rx="26.01" ry="27.33"/>
			</g>
			<g>
				<ellipse style="fill:#FFFFFF;" cx="428.75" cy="231.07" rx="26.01" ry="27.33"/>
			</g>
		</g>
	</g>
</g>
</svg>
